<svg id="Capa_1" data-name="Capa 1" xmlns="http://www.w3.org/2000/svg" viewBox="0 0 70 70"><defs><style>.cls-1{fill:#ff5e00;}</style></defs><title>mett_icon3-ph2-pro</title><path class="cls-1" d="M48,22.94a12.57,12.57,0,0,1-3.35,7.9,38.19,38.19,0,0,1-8.25,7.23A136.42,136.42,0,0,1,17.88,48.83c-.21.1-.41.2-.61.31-.84.47-1.73.61-2.23-.36s.18-1.67,1.1-2.09A133.18,133.18,0,0,0,32,37.77a43.73,43.73,0,0,0,10.8-8.95c1.56-1.91,2.71-4,2.5-6.55a4.47,4.47,0,0,0-5.92-3.94,11.5,11.5,0,0,0-4.5,3.07C30.51,25.76,26,29.91,20.49,32.77a38.47,38.47,0,0,1-6,2.43c-.83.26-1.63.35-2-.63s.21-1.65,1.13-1.92c7.76-2.27,13.61-7.35,19.1-13A15,15,0,0,1,38,16,7.23,7.23,0,0,1,48,22.94Z"/><path class="cls-1" d="M36.16,3.67c6.12.19,11.07,3.49,14.58,9.22a39.24,39.24,0,0,1,4,10.16A12.39,12.39,0,0,0,56,26.41a1.26,1.26,0,0,1-.32,1.94,1.43,1.43,0,0,1-2-.65,14.7,14.7,0,0,1-1.59-4.33c-1.11-3.93-2.42-7.76-5-11-5.3-6.68-13.6-7.86-20.63-3a36.9,36.9,0,0,0-8.22,8.24A13,13,0,0,1,14.83,21c-.82.51-1.64.8-2.24-.14s-.1-1.5.66-2c1.83-1.26,3-3.15,4.36-4.83A30,30,0,0,1,28,5.4,18.31,18.31,0,0,1,36.16,3.67Z"/><path class="cls-1" d="M14.62,42.55a1.43,1.43,0,0,1-1.4-.89,1.19,1.19,0,0,1,.6-1.6c.71-.35,1.47-.62,2.21-.92,8.07-3.23,15.32-7.69,21.18-14.22.57-.64,1.1-1.32,1.62-2s1.28-1.48,2.27-.75.48,1.58-.1,2.37A46.23,46.23,0,0,1,30,34.81a64.44,64.44,0,0,1-14.45,7.42Z"/><path class="cls-1" d="M39.06,10.72A1.18,1.18,0,0,1,38,12c-5.63,1-9.29,4.85-12.78,8.93A26,26,0,0,1,16,27.61a9.13,9.13,0,0,1-1.27.5,1.3,1.3,0,0,1-1.8-.83,1.24,1.24,0,0,1,.86-1.63c4.91-1.86,8.56-5.29,11.94-9.2a19.23,19.23,0,0,1,11-6.84C38.24,9.31,39,9.7,39.06,10.72Z"/><path class="cls-1" d="M33.81,44.37c-.68,2.19-1.2,4.17-3.49,5.37-3.44,1.79-6.43,4.37-10,5.9-.81.34-1.58.47-2.11-.38a1.19,1.19,0,0,1,.56-1.87C24.07,51,28.58,47.21,33.81,44.37Z"/><path class="cls-1" d="M32.19,53.31c1.18,2,.54,3.19-1.26,4.24s-3.64,2.55-5.45,3.83c-.79.56-1.67,1-2.39,0s.05-1.67.82-2.22C26.64,57.22,29.38,55.29,32.19,53.31Z"/><path class="cls-1" d="M48.13,31.48a1.41,1.41,0,0,1,1.09-1.54,1.1,1.1,0,0,1,1.49,1c.46,2.54,2.21,3.87,4.43,4.76.92.37,1.47,1,1.05,2-.49,1.19-1.24.5-1.94.18-1.68-.79-3.56-1.21-4.69-2.92A8.25,8.25,0,0,1,48.13,31.48Z"/><path class="cls-1" d="M37,62.46c-2.23,0-3.37,1.62-4.86,2.69-1,.73-1.92,3-3.4,1.4s.84-2.41,1.66-3.41a13.85,13.85,0,0,1,3.08-2.44c1.07-.73,1.81-.66,2.46.51A8.55,8.55,0,0,0,37,62.46Z"/><path class="cls-1" d="M45.23,36.21a3.45,3.45,0,0,1-2.33.43C43.61,36,43.61,36,45.23,36.21Z"/><path class="cls-1" d="M46.71,37.52a13.1,13.1,0,1,0-.07,26.2,13.1,13.1,0,0,0,.07-26.2Zm0,23.39a10.29,10.29,0,1,1,10.2-10.3A10.35,10.35,0,0,1,46.71,60.92Z"/><path class="cls-1" d="M45.32,57.11c-1.73-1.58-3.4-3.14-5.11-4.66-.55-.48-.45-.8,0-1.23s.86-.9,1.31-1.37c.95.86,1.88,1.63,2.7,2.5.67.71,1,.52,1.57-.14,1.7-2.09,3.51-4.08,5.17-6.2.81-1,1.22-.25,1.72.18s1.33.69.46,1.68C50.51,50.88,48,54,45.32,57.11Z"/></svg>