<?xml version="1.0" encoding="utf-8"?>
<!-- Generator: Adobe Illustrator 20.0.0, SVG Export Plug-In . SVG Version: 6.00 Build 0)  -->
<svg version="1.1" id="Capa_1" xmlns="http://www.w3.org/2000/svg" xmlns:xlink="http://www.w3.org/1999/xlink" x="0px" y="0px"
	 viewBox="0 0 471.1 160" style="enable-background:new 0 0 471.1 160;" xml:space="preserve">
<style type="text/css">
	.st0{fill:#FFFFFF;}
</style>
<g>
	<path class="st0" d="M302.8,82.5c0,7.2-5.8,12.9-12.9,12.9c-5.4,0-9.9-3.3-11.9-7.9c0,0,0,0,0-0.1c-0.6-1.5-1-3.2-1-5
		c0-1.6,0.3-3.1,0.8-4.5c1.8-5,6.5-8.5,12.1-8.5c7.1,0,12.8,5.8,12.9,12.9V82.5z M302.8,43.4v20.1c-3.7-2.5-8.1-4-12.9-4
		c-12.7,0-22.9,10.3-22.9,23c0,12.7,10.2,23,22.9,23c12.6,0,22.9-10.3,22.9-23V43.4H302.8z M56.2,82.5c0,7.2-5.8,12.9-12.9,12.9
		c-5.5,0-10.3-3.5-12.1-8.4v0c-0.5-1.4-0.8-2.9-0.8-4.5c0-1.5,0.3-3,0.7-4.3c1.8-5,6.6-8.7,12.2-8.7c7.1,0,12.8,5.8,12.9,12.9V82.5z
		 M56.2,43.4v20c-3.7-2.5-8.1-4-12.9-4c-12.6,0-22.9,10.3-22.9,23c0,12.7,10.3,23,22.9,23c12.6,0,22.9-10.3,22.9-23V43.4H56.2z
		 M253.4,82.5c0,7.2-5.8,13-12.9,13c-7.1,0-12.9-5.8-12.9-13c0-7.2,5.8-13,12.9-13C247.6,69.5,253.4,75.3,253.4,82.5L253.4,82.5z
		 M240.5,59.5c-12.7,0-22.9,10.3-22.9,23c0,12.7,10.3,23,22.9,23c4.8,0,9.2-1.5,12.9-4v3.1h10V82.5
		C263.4,69.8,253.1,59.5,240.5,59.5 M141.2,95.5c-7.1,0-12.9-5.8-12.9-13c0-7.2,5.8-13,12.9-13c7.1,0,12.9,5.8,12.9,13v0
		C154.1,89.7,148.3,95.5,141.2,95.5 M141.2,59.5c-12.6,0-22.9,10.3-22.9,23c0,12.7,10.2,23,22.9,23c4.8,0,9.2-1.5,12.9-4v3.1h10
		V82.5C164.1,69.8,153.8,59.5,141.2,59.5 M115.3,78.2c-2-10.7-11.3-18.7-22.5-18.7c-12.6,0-22.9,10.3-22.9,23
		c0,12.7,11.5,23,24.1,23c7.4,0,15.9-3.8,20-9.3l-7.4-5.9c-2.4,3.1-8.5,5.1-12.7,5.1c-3.7,0-8.3-1.6-10.6-4.1l31.7-13.1l0-0.1
		L115.3,78.2z M102.7,74.2l-22.8,9.4c0-0.4-0.1-0.7-0.1-1.1c0-7.2,5.8-13,12.9-13C96.8,69.5,100.3,71.3,102.7,74.2 M6.8,60.3h10
		v44.3h-10V60.3z M11.8,55.6c-3.8,0-6.8-3-6.8-6.8C5,45,8,42,11.8,42c3.8,0,6.8,3,6.8,6.8C18.6,52.5,15.5,55.6,11.8,55.6"/>
	<path class="st0" d="M190.9,95.5c-7.1,0-12.9-5.8-12.9-13v0c0-7.2,5.8-13,12.9-13c7.1,0,12.9,5.8,12.9,13
		C203.9,89.7,198.1,95.5,190.9,95.5 M190.9,59.5c-12.6,0-22.9,10.3-22.9,23V118h10v-16.5c3.7,2.5,8.1,4,12.9,4
		c12.7,0,22.9-10.3,22.9-23C213.8,69.8,203.6,59.5,190.9,59.5"/>
</g>
<g>
	<path class="st0" d="M329.6,43.5h5l8.7,23.3l8.8-23.3h5v27.7h-3.5v-23h-0.1l-8.6,23h-3.1l-8.6-23h-0.1v23h-3.5V43.5z"/>
	<path class="st0" d="M366.3,47.5H363v-4h3.3V47.5z M363,51.1h3.3v20H363V51.1z"/>
	<path class="st0" d="M374.9,47.5h-3.3v-4h3.3V47.5z M371.6,51.1h3.3v20h-3.3V51.1z"/>
	<path class="st0" d="M385.4,60.6l-7-9.5h4.2l4.8,7l5-7h4l-6.9,9.2l7.8,10.8H393l-5.6-8.3l-5.6,8.3h-4L385.4,60.6z"/>
</g>
<g>
	<g>
		<path class="st0" d="M423.5,47c-1.4,1.4-2.7,3-3.9,4.9c-1.2,1.9-2.3,3.9-3.2,6c-0.9,2.1-1.7,4.4-2.3,6.6c-0.6,2.3-1,4.5-1.1,6.6
			h-3.7c0.2-2.3,0.5-4.6,1.1-6.8c0.6-2.2,1.4-4.3,2.3-6.4c1-2,2.1-3.9,3.3-5.8c1.3-1.8,2.6-3.5,4.1-5h-14.4v-3.1h17.8V47z"/>
		<path class="st0" d="M427.2,52.9c0.1-1.6,0.5-3.1,1.1-4.5c0.6-1.4,1.5-2.5,2.8-3.4c1.2-0.9,2.9-1.3,5.1-1.3c2.1,0,3.8,0.4,5.1,1.3
			c1.2,0.9,2.1,2,2.8,3.4c0.6,1.4,1,2.9,1.1,4.5c0.1,1.6,0.2,3.2,0.2,4.8c0,1,0,2.1-0.1,3.1c-0.1,1.1-0.2,2.1-0.4,3.2
			c-0.2,1-0.5,2-0.9,2.9c-0.4,0.9-0.9,1.7-1.6,2.4c-0.7,0.7-1.5,1.3-2.5,1.7c-1,0.4-2.2,0.6-3.7,0.6c-1.4,0-2.6-0.2-3.7-0.6
			c-1-0.4-1.9-1-2.5-1.7c-0.7-0.7-1.2-1.5-1.6-2.4c-0.4-0.9-0.7-1.9-0.9-2.9c-0.2-1-0.3-2.1-0.4-3.2c-0.1-1.1-0.1-2.1-0.1-3.1
			C426.9,56.1,427,54.6,427.2,52.9z M430.5,61.1c0.1,1.3,0.3,2.5,0.6,3.6c0.3,1.1,0.9,2.1,1.7,2.9c0.8,0.8,1.9,1.2,3.3,1.2
			s2.5-0.4,3.3-1.2c0.8-0.8,1.3-1.7,1.7-2.9c0.3-1.1,0.6-2.3,0.6-3.6c0.1-1.3,0.1-2.4,0.1-3.5c0-0.7,0-1.4,0-2.2
			c0-0.8-0.1-1.6-0.2-2.4c-0.1-0.8-0.3-1.6-0.5-2.4c-0.2-0.8-0.5-1.5-1-2c-0.4-0.6-1-1.1-1.6-1.4s-1.4-0.5-2.4-0.5s-1.7,0.2-2.4,0.5
			s-1.2,0.8-1.6,1.4c-0.4,0.6-0.7,1.3-1,2c-0.2,0.8-0.4,1.6-0.5,2.4c-0.1,0.8-0.2,1.6-0.2,2.4s0,1.6,0,2.2
			C430.4,58.7,430.5,59.8,430.5,61.1z"/>
		<path class="st0" d="M450.2,52.9c0.1-1.6,0.5-3.1,1.1-4.5c0.6-1.4,1.5-2.5,2.8-3.4c1.2-0.9,2.9-1.3,5.1-1.3c2.1,0,3.8,0.4,5.1,1.3
			c1.2,0.9,2.1,2,2.8,3.4c0.6,1.4,1,2.9,1.1,4.5c0.1,1.6,0.2,3.2,0.2,4.8c0,1,0,2.1-0.1,3.1c-0.1,1.1-0.2,2.1-0.4,3.2
			c-0.2,1-0.5,2-0.9,2.9c-0.4,0.9-0.9,1.7-1.6,2.4c-0.7,0.7-1.5,1.3-2.5,1.7c-1,0.4-2.2,0.6-3.7,0.6c-1.4,0-2.6-0.2-3.7-0.6
			c-1-0.4-1.9-1-2.5-1.7c-0.7-0.7-1.2-1.5-1.6-2.4c-0.4-0.9-0.7-1.9-0.9-2.9c-0.2-1-0.3-2.1-0.4-3.2c-0.1-1.1-0.1-2.1-0.1-3.1
			C450,56.1,450.1,54.6,450.2,52.9z M453.6,61.1c0.1,1.3,0.3,2.5,0.6,3.6c0.3,1.1,0.9,2.1,1.7,2.9c0.8,0.8,1.9,1.2,3.3,1.2
			c1.4,0,2.5-0.4,3.3-1.2c0.8-0.8,1.3-1.7,1.7-2.9c0.3-1.1,0.6-2.3,0.6-3.6c0.1-1.3,0.1-2.4,0.1-3.5c0-0.7,0-1.4,0-2.2
			s-0.1-1.6-0.2-2.4c-0.1-0.8-0.3-1.6-0.5-2.4c-0.2-0.8-0.5-1.5-1-2c-0.4-0.6-1-1.1-1.6-1.4c-0.6-0.4-1.4-0.5-2.4-0.5
			c-0.9,0-1.7,0.2-2.4,0.5s-1.2,0.8-1.6,1.4c-0.4,0.6-0.7,1.3-1,2c-0.2,0.8-0.4,1.6-0.5,2.4c-0.1,0.8-0.2,1.6-0.2,2.4s0,1.6,0,2.2
			C453.5,58.7,453.5,59.8,453.6,61.1z"/>
	</g>
</g>
</svg>
