<?xml version="1.0" encoding="utf-8"?>
<!-- Generator: Adobe Illustrator 20.0.0, SVG Export Plug-In . SVG Version: 6.00 Build 0)  -->
<svg version="1.1" id="Capa_1_copia" xmlns="http://www.w3.org/2000/svg" xmlns:xlink="http://www.w3.org/1999/xlink" x="0px"
	 y="0px" viewBox="0 0 345.1 141.4" style="enable-background:new 0 0 345.1 141.4;" xml:space="preserve">
<style type="text/css">
	.st0{fill:#FFFFFF;}
</style>
<title>phab2_pro</title>
<g id="Capa_2">
	<path class="st0" d="M231.9,110.2c-9.9,0-17.8-8.1-17.8-17.9l0,0c0-9.8,8.1-17.8,17.9-17.7c9.8,0,17.8,8.1,17.7,17.9
		C249.6,102.3,241.7,110.2,231.9,110.2 M231.9,60.5c-6.4,0-12.6,1.9-17.8,5.6V38.4h-13.8v54c0.1,17.5,14.3,31.6,31.8,31.5
		s31.6-14.3,31.5-31.8C263.4,74.6,249.3,60.6,231.9,60.5"/>
	<path class="st0" d="M31.6,110.2c-9.9,0-17.8-8-17.8-17.9c0,0,0,0,0,0l0,0c0-9.8,8.1-17.8,17.9-17.7c9.8,0,17.8,8.1,17.7,17.9
		C49.3,102.3,41.4,110.2,31.6,110.2 M31.6,60.5C14.1,60.6-0.1,74.8,0,92.3v49.1h13.8v-22.8c5.2,3.6,11.5,5.5,17.8,5.5
		c17.5,0,31.8-14.3,31.7-31.8C63.3,74.7,49.1,60.5,31.6,60.5"/>
	<path class="st0" d="M181.1,92.3c-0.1,9.8-8.2,17.7-18,17.6c-9.8-0.1-17.7-8.2-17.6-18c0.1-9.8,8-17.6,17.8-17.6
		c9.9,0,17.8,8,17.8,17.9C181.1,92.3,181.1,92.3,181.1,92.3z M163.3,60.5c-17.6,0-31.8,14.2-31.8,31.8c0,17.6,14.2,31.8,31.8,31.8
		c6.4,0,12.6-1.9,17.8-5.4v4.3h13.7V92.3C194.9,74.8,180.8,60.6,163.3,60.5"/>
	<path class="st0" d="M126.3,89.7L126.3,89.7v-0.2c0-15.9-12.9-28.9-28.8-28.9c0,0-0.1,0-0.1,0c-5.3,0-10.6,1.5-15.1,4.3V38.3H68.5
		v84.6h13.7l0.1-10.7V89.6c0-8.3,6.7-15,15-15s15,6.7,15,15l0,0v33.3h13.8V89.7H126.3z"/>
</g>
<path class="st0" d="M264.7,117l43.8-39.4c4.9-4.2,8.7-8.4,12.1-12c3-3.1,5.7-6.5,8.1-10c1.9-2.8,3.4-5.8,4.5-8.9
	c0.9-2.9,1.3-5.9,1.3-8.9c0-3.6-0.8-7.2-2.3-10.5c-1.4-3.1-3.3-5.8-5.8-8.1c-2.4-2.2-5.3-3.9-8.4-5c-3.2-1.1-6.6-1.7-10-1.6
	c-6.8-0.1-13.5,1.8-19.2,5.7c-5.2,3.7-10.2,9-15.2,16.1l-6.5-4.1c2.4-3.7,5.1-7.2,8.1-10.5c2.7-3,5.7-5.7,9-8.1
	c3.4-2.2,7.1-3.9,11-5c4.5-1.3,9.1-1.9,13.7-1.9c4.7-0.1,9.4,0.8,13.9,2.4c4,1.6,7.7,3.8,11,6.6c3.2,2.8,5.7,6.3,7.3,10.2
	c1.8,3.9,2.7,8.3,2.6,12.6v0.3c0.1,3.8-0.5,7.6-1.6,11.3c-1.2,3.8-2.9,7.4-5.2,10.7c-2.6,3.9-5.7,7.6-9,11
	c-3.7,3.7-8.1,8.1-13.2,12.6l-35.8,32.2h66.2v8.4h-79.9v-6.4h-0.5L264.7,117z"/>
</svg>
