<?xml version="1.0" encoding="utf-8"?>
<!-- Generator: Adobe Illustrator 20.0.0, SVG Export Plug-In . SVG Version: 6.00 Build 0)  -->
<svg version="1.1" id="Capa_1" xmlns="http://www.w3.org/2000/svg" xmlns:xlink="http://www.w3.org/1999/xlink" x="0px" y="0px"
	 viewBox="0 0 133.4 55.5" style="enable-background:new 0 0 133.4 55.5;" xml:space="preserve">
<style type="text/css">
	.st0{fill:#FFFFFF;}
</style>
<g>
	<g>
		<path class="st0" d="M4.7,20.4c0-0.5,0-1.1,0-1.7c0-0.4,0.2-0.5,0.5-0.5c1.9,0,3.6,1.5,3.8,3.4c0.2,2.1-1.1,3.9-3.2,4.3
			s-4.1-1.1-4.5-3.2c-0.2-1.3,0.2-2.4,1-3.3c0.2-0.2,0.5-0.3,0.7-0.1c0.2,0.2,0.2,0.5,0,0.7C2.3,21,2,21.9,2.4,23
			c0.4,1.1,1.1,1.7,2.2,1.9c1.5,0.4,3.1-0.7,3.4-2.2c0.4-1.6-0.7-3.2-2.2-3.5c-0.1,0-0.2,0-0.2,0.1c0,0.9,0,1.8,0,2.6
			c0,0.3-0.2,0.5-0.4,0.5c-0.3,0-0.5-0.2-0.5-0.5C4.7,21.5,4.7,21,4.7,20.4z"/>
		<path class="st0" d="M1.3,31c0-2.1,1.7-3.8,3.7-3.9c2.2-0.1,4,1.7,4,3.9c0,2.2-1.8,3.9-4,3.9C3,34.8,1.3,33.1,1.3,31z M2.3,31
			c0,1.6,1.3,2.9,3,2.9c1.6,0,2.9-1.4,2.8-3c-0.1-1.5-1.3-2.8-3-2.8C3.6,28.1,2.3,29.4,2.3,31z"/>
		<path class="st0" d="M2.9,13.9c0.2,0.1,0.3,0.2,0.5,0.3c1.8,0.9,3.6,1.8,5.4,2.7C9,17,9.1,17.2,9,17.4c0,0.2-0.2,0.4-0.4,0.4
			c-0.1,0-0.2,0-0.4-0.1c-1.8-0.9-3.6-1.8-5.4-2.7c-0.4-0.2-0.8-0.4-1.2-0.6c-0.2-0.1-0.3-0.2-0.3-0.5c0-0.2,0.1-0.4,0.3-0.5
			c2.2-1.1,4.4-2.2,6.6-3.3C8.6,10,8.9,10.1,9,10.4c0.1,0.3,0,0.5-0.3,0.7c-1.9,1-3.8,1.9-5.7,2.8C3,13.9,3,13.9,2.9,13.9z"/>
		<path class="st0" d="M7,39.5c-0.5,0-1,0-1.5,0c-0.1,0-0.2,0-0.3,0.1c-1,1-2,2-3,2.9c-0.1,0.1-0.1,0.1-0.2,0.2
			c-0.2,0.2-0.5,0.2-0.7,0c-0.2-0.2-0.2-0.5,0-0.7c1-1,1.9-1.9,2.9-2.8c0.1-0.1,0.2-0.2,0-0.4c-1-1-1.9-1.9-2.9-2.8
			c-0.2-0.2-0.2-0.5,0-0.7c0.2-0.2,0.4-0.2,0.6-0.1c0,0,0.1,0.1,0.1,0.1c1,1,2,2,3.1,3.1c0.1,0.1,0.2,0.1,0.3,0.1c1,0,2,0,3,0
			c0.3,0,0.4,0.1,0.5,0.4c0.1,0.2,0,0.4-0.2,0.5c-0.1,0.1-0.2,0.1-0.3,0.1C8,39.5,7.5,39.5,7,39.5z"/>
	</g>
	<g>
		<path class="st0" d="M11.2,10.1h13.5c1.9,0,3.5,0.3,5,0.8c1.5,0.5,2.6,1.2,3.5,2.1c1.4,1.4,2.1,3.1,2.1,5.2v0.1
			c0,1.1-0.2,2.1-0.5,3c-0.3,0.8-0.8,1.6-1.3,2.2C33,24,32.4,24.5,31.7,25c-0.7,0.4-1.3,0.8-2,1.1c1,0.2,1.9,0.6,2.8,1
			c0.9,0.4,1.7,1,2.4,1.6s1.2,1.4,1.6,2.2c0.4,0.9,0.6,1.8,0.6,3v0.1c0,1.4-0.3,2.6-0.8,3.7c-0.6,1.1-1.4,2-2.4,2.8
			c-1,0.8-2.3,1.4-3.7,1.8c-1.4,0.4-3,0.6-4.8,0.6H11.2V10.1z M24.4,25.2c1.2,0,2.3-0.1,3.4-0.4c1-0.3,1.9-0.7,2.7-1.3
			c0.7-0.6,1.3-1.3,1.8-2.1c0.4-0.9,0.6-1.8,0.6-2.9v-0.1c0-1.8-0.7-3.3-2.1-4.4c-1.4-1.1-3.4-1.7-6.1-1.7H13.6v13H24.4z M25.5,40.7
			c2.8,0,5-0.6,6.7-1.8c1.7-1.2,2.5-2.8,2.5-4.9v-0.1c0-2-0.9-3.6-2.6-4.7c-1.7-1.1-4.2-1.7-7.4-1.7H13.6v13.2H25.5z"/>
		<path class="st0" d="M53.4,43.4c-2.5,0-4.8-0.5-6.8-1.4c-2-0.9-3.7-2.2-5.2-3.7C40,36.8,38.9,35,38.1,33c-0.8-2-1.2-4.2-1.2-6.4
			v-0.1c0-2.2,0.4-4.4,1.2-6.4s1.9-3.8,3.4-5.4c1.4-1.6,3.2-2.8,5.2-3.7c2-0.9,4.3-1.4,6.8-1.4c2.5,0,4.7,0.5,6.7,1.4
			c2,0.9,3.8,2.2,5.2,3.7s2.5,3.3,3.3,5.4c0.8,2,1.2,4.2,1.2,6.4c0,0,0,0.1,0,0.1c0,2.2-0.4,4.4-1.2,6.4c-0.8,2-1.9,3.8-3.3,5.4
			c-1.4,1.6-3.2,2.8-5.2,3.7C58.1,43,55.9,43.4,53.4,43.4z M53.5,41.2c2,0,3.9-0.4,5.6-1.1c1.7-0.8,3.2-1.8,4.4-3.1
			c1.2-1.3,2.2-2.9,2.9-4.7c0.7-1.8,1-3.7,1-5.7v-0.1c0-2-0.4-3.9-1.1-5.7c-0.7-1.8-1.7-3.4-2.9-4.7c-1.2-1.3-2.7-2.4-4.4-3.2
			c-1.7-0.8-3.6-1.2-5.6-1.2c-2,0-3.9,0.4-5.6,1.1c-1.7,0.8-3.2,1.8-4.4,3.1c-1.2,1.3-2.2,2.9-2.9,4.7c-0.7,1.8-1,3.7-1,5.7v0.1
			c0,2,0.4,3.9,1.1,5.7c0.7,1.8,1.7,3.4,2.9,4.7c1.2,1.3,2.7,2.4,4.4,3.2C49.6,40.8,51.4,41.2,53.5,41.2z"/>
		<path class="st0" d="M86.6,43.4c-2.5,0-4.8-0.5-6.8-1.4c-2-0.9-3.7-2.2-5.2-3.7c-1.4-1.5-2.5-3.3-3.3-5.4c-0.8-2-1.2-4.2-1.2-6.4
			v-0.1c0-2.2,0.4-4.4,1.2-6.4c0.8-2,1.9-3.8,3.4-5.4s3.2-2.8,5.2-3.7c2-0.9,4.3-1.4,6.8-1.4c2.5,0,4.7,0.5,6.7,1.4
			c2,0.9,3.8,2.2,5.2,3.7c1.4,1.5,2.5,3.3,3.3,5.4c0.8,2,1.2,4.2,1.2,6.4c0,0,0,0.1,0,0.1c0,2.2-0.4,4.4-1.2,6.4
			c-0.8,2-1.9,3.8-3.3,5.4c-1.4,1.6-3.2,2.8-5.2,3.7C91.3,43,89.1,43.4,86.6,43.4z M86.7,41.2c2,0,3.9-0.4,5.6-1.1
			c1.7-0.8,3.2-1.8,4.4-3.1c1.2-1.3,2.2-2.9,2.9-4.7c0.7-1.8,1-3.7,1-5.7v-0.1c0-2-0.4-3.9-1.1-5.7c-0.7-1.8-1.7-3.4-2.9-4.7
			c-1.2-1.3-2.7-2.4-4.4-3.2c-1.7-0.8-3.6-1.2-5.6-1.2c-2,0-3.9,0.4-5.6,1.1c-1.7,0.8-3.2,1.8-4.4,3.1c-1.2,1.3-2.2,2.9-2.9,4.7
			c-0.7,1.8-1,3.7-1,5.7v0.1c0,2,0.4,3.9,1.1,5.7c0.7,1.8,1.7,3.4,2.9,4.7c1.2,1.3,2.7,2.4,4.4,3.2C82.8,40.8,84.7,41.2,86.7,41.2z"
			/>
		<path class="st0" d="M104.8,10.1h2.4v21.6l20.9-21.6h3.3l-14.3,14.5l14.9,18.3h-3.2l-13.5-16.6l-8.2,8.2v8.3h-2.4V10.1z"/>
	</g>
</g>
</svg>
