<?xml version="1.0" encoding="utf-8"?>
<!-- Generator: Adobe Illustrator 20.0.0, SVG Export Plug-In . SVG Version: 6.00 Build 0)  -->
<svg version="1.1" id="Capa_1" xmlns="http://www.w3.org/2000/svg" xmlns:xlink="http://www.w3.org/1999/xlink" x="0px" y="0px"
	 viewBox="0 0 133.4 55.5" style="enable-background:new 0 0 133.4 55.5;" xml:space="preserve">
<style type="text/css">
	.st0{fill:#EF4689;}
	.st1{fill:none;}
	.st2{font-family:'GothamBook';}
	.st3{font-size:4px;}
	.st4{letter-spacing:1;}
</style>
<g id="Capa_2">
</g>
<g id="Capa_1_1_">
	<g>
		<path class="st0" d="M64.8,27c1.4,0,3.1,0,4.8,0c1.1,0,1.4,0.6,1.4,1.4c0,5.4-4.3,10.2-9.7,10.8c-6,0.6-11.1-3.1-12.2-9.1
			s3.1-11.7,9.1-12.8c3.7-0.6,6.8,0.6,9.4,2.8c0.6,0.6,0.9,1.4,0.3,2s-1.4,0.6-2,0c-2.8-2-5.4-2.8-8.5-1.7c-3.1,1.1-4.8,3.1-5.4,6.3
			c-1.1,4.3,2,8.8,6.3,9.7c4.5,1.1,9.1-2,9.9-6.3c0-0.3,0-0.6-0.3-0.6c-2.6,0-5.1,0-7.4,0c-0.9,0-1.4-0.6-1.4-1.1
			c0-0.9,0.6-1.4,1.4-1.4C61.7,27,63.1,27,64.8,27z"/>
		<path class="st0" d="M34.7,17.4c6,0,10.8,4.8,11.1,10.5c0.3,6.3-4.8,11.4-11.1,11.4s-11.1-5.1-11.1-11.4
			C23.9,22.2,28.7,17.4,34.7,17.4z M34.7,20.2c-4.5,0-8.2,3.7-8.2,8.5c0,4.5,4,8.2,8.5,8c4.3-0.3,8-3.7,8-8.5
			C42.9,23.9,39.2,20.2,34.7,20.2z"/>
		<path class="st0" d="M83.3,21.9c-0.3,0.6-0.6,0.9-0.9,1.4c-2.6,5.1-5.1,10.2-7.7,15.3c-0.3,0.6-0.9,0.9-1.4,0.6
			c-0.6,0-1.1-0.6-1.1-1.1c0-0.3,0-0.6,0.3-1.1c2.6-5.1,5.1-10.2,7.7-15.3c0.6-1.1,1.1-2.3,1.7-3.4c0.3-0.6,0.6-0.9,1.4-0.9
			c0.6,0,1.1,0.3,1.4,0.9c3.1,6.3,6.3,12.5,9.4,18.8c0.3,1.1,0,2-0.9,2.3s-1.4,0-2-0.9c-2.8-5.4-5.4-10.8-8-16.2
			C83.3,22.2,83.3,22.2,83.3,21.9z"/>
		<path class="st0" d="M10.5,33.6c0-1.4,0-2.8,0-4.3c0-0.3,0-0.6-0.3-0.9c-2.8-2.8-5.7-5.7-8.2-8.5c-0.3-0.3-0.3-0.3-0.6-0.6
			c-0.6-0.6-0.6-1.4,0-2s1.4-0.6,2,0c2.8,2.8,5.4,5.4,8,8.2c0.3,0.3,0.6,0.6,1.1,0c2.8-2.8,5.4-5.4,8-8.2c0.6-0.6,1.4-0.6,2,0
			s0.6,1.1,0.3,1.7l-0.3,0.3c-2.8,2.8-5.7,5.7-8.8,8.8c-0.3,0.3-0.3,0.6-0.3,0.9c0,2.8,0,5.7,0,8.5c0,0.9-0.3,1.1-1.1,1.4
			c-0.6,0.3-1.1,0-1.4-0.6c-0.3-0.3-0.3-0.6-0.3-0.9C10.5,36.4,10.5,35,10.5,33.6z"/>
	</g>
	<g>
		<path class="st0" d="M96,17.6h4c0.6,0,1,0.1,1.5,0.2c0.4,0.1,0.8,0.4,1,0.6c0.4,0.4,0.6,0.9,0.6,1.6l0,0c0,0.3-0.1,0.6-0.1,0.9
			c-0.1,0.2-0.2,0.5-0.4,0.7c-0.1,0.1-0.3,0.3-0.5,0.4s-0.4,0.2-0.6,0.3c0.3,0.1,0.6,0.2,0.8,0.3c0.3,0.1,0.5,0.3,0.7,0.5
			s0.4,0.4,0.5,0.7c0.1,0.3,0.2,0.5,0.2,0.9l0,0c0,0.4-0.1,0.8-0.2,1.1c-0.2,0.3-0.4,0.6-0.7,0.8c-0.3,0.2-0.7,0.4-1.1,0.5
			s-0.9,0.2-1.4,0.2H96V17.6z M100,22.1c0.4,0,0.7,0,1-0.1s0.6-0.2,0.8-0.4c0.2-0.2,0.4-0.4,0.5-0.6c0.1-0.3,0.2-0.5,0.2-0.9l0,0
			c0-0.5-0.2-1-0.6-1.3s-1-0.5-1.8-0.5h-3.3v3.9L100,22.1L100,22.1z M100.3,26.8c0.8,0,1.5-0.2,2-0.5c0.5-0.4,0.7-0.8,0.7-1.5l0,0
			c0-0.6-0.3-1.1-0.8-1.4s-1.3-0.5-2.2-0.5h-3.3v3.9H100.3z"/>
		<path class="st0" d="M108.7,27.6c-0.7,0-1.4-0.1-2-0.4s-1.1-0.7-1.6-1.1c-0.4-0.4-0.7-1-1-1.6c-0.2-0.6-0.4-1.3-0.4-1.9l0,0
			c0-0.7,0.1-1.3,0.4-1.9c0.2-0.6,0.6-1.1,1-1.6s1-0.8,1.6-1.1c0.6-0.3,1.3-0.4,2-0.4s1.4,0.1,2,0.4s1.1,0.7,1.6,1.1s0.7,1,1,1.6
			c0.2,0.6,0.4,1.3,0.4,1.9l0,0c0,0.7-0.1,1.3-0.4,1.9c-0.2,0.6-0.6,1.1-1,1.6s-1,0.8-1.6,1.1C110.1,27.4,109.4,27.6,108.7,27.6z
			 M108.7,26.9c0.6,0,1.2-0.1,1.7-0.3c0.5-0.2,1-0.5,1.3-0.9c0.4-0.4,0.7-0.9,0.9-1.4c0.2-0.5,0.3-1.1,0.3-1.7l0,0
			c0-0.6-0.1-1.2-0.3-1.7c-0.2-0.5-0.5-1-0.9-1.4s-0.8-0.7-1.3-1c-0.5-0.2-1.1-0.4-1.7-0.4s-1.2,0.1-1.7,0.3c-0.5,0.2-1,0.5-1.3,0.9
			c-0.4,0.4-0.7,0.9-0.9,1.4c-0.2,0.5-0.3,1.1-0.3,1.7l0,0c0,0.6,0.1,1.2,0.3,1.7c0.2,0.5,0.5,1,0.9,1.4s0.8,0.7,1.3,1
			S108.1,26.9,108.7,26.9z"/>
		<path class="st0" d="M118.6,27.6c-0.7,0-1.4-0.1-2-0.4s-1.1-0.7-1.6-1.1c-0.4-0.4-0.7-1-1-1.6c-0.2-0.6-0.4-1.3-0.4-1.9l0,0
			c0-0.7,0.1-1.3,0.4-1.9c0.2-0.6,0.6-1.1,1-1.6s1-0.8,1.6-1.1c0.6-0.3,1.3-0.4,2-0.4s1.4,0.1,2,0.4s1.1,0.7,1.6,1.1s0.7,1,1,1.6
			c0.2,0.6,0.4,1.3,0.4,1.9l0,0c0,0.7-0.1,1.3-0.4,1.9c-0.2,0.6-0.6,1.1-1,1.6s-1,0.8-1.6,1.1C120,27.4,119.3,27.6,118.6,27.6z
			 M118.6,26.9c0.6,0,1.2-0.1,1.7-0.3c0.5-0.2,1-0.5,1.3-0.9c0.4-0.4,0.7-0.9,0.9-1.4c0.2-0.5,0.3-1.1,0.3-1.7l0,0
			c0-0.6-0.1-1.2-0.3-1.7c-0.2-0.5-0.5-1-0.9-1.4s-0.8-0.7-1.3-1c-0.5-0.2-1.1-0.4-1.7-0.4s-1.2,0.1-1.7,0.3c-0.5,0.2-1,0.5-1.3,0.9
			c-0.4,0.4-0.7,0.9-0.9,1.4c-0.2,0.5-0.3,1.1-0.3,1.7l0,0c0,0.6,0.1,1.2,0.3,1.7c0.2,0.5,0.5,1,0.9,1.4s0.8,0.7,1.3,1
			C117.5,26.8,118,26.9,118.6,26.9z"/>
		<path class="st0" d="M124,17.6h0.7v6.5l6.3-6.5h1l-4.3,4.3l4.5,5.5h-1l-4-5l-2.5,2.5v2.5H124V17.6L124,17.6z"/>
	</g>
</g>
<rect x="97.1" y="29.8" class="st1" width="33" height="3.6"/>
<text transform="matrix(1 0 0 1 97.0837 32.685)"><tspan x="0" y="0" class="st0 st2 st3">CON WINDOWS</tspan><tspan x="33" y="0" class="st0 st2 st3 st4">	</tspan></text>
</svg>
