<?xml version="1.0" encoding="utf-8"?>
<!-- Generator: Adobe Illustrator 20.0.0, SVG Export Plug-In . SVG Version: 6.00 Build 0)  -->
<svg version="1.1" id="Capa_1" xmlns="http://www.w3.org/2000/svg" xmlns:xlink="http://www.w3.org/1999/xlink" x="0px" y="0px"
	 viewBox="0 0 97 290" style="enable-background:new 0 0 97 290;" xml:space="preserve">
<style type="text/css">
	.st0{fill:#80BFE2;}
	.st1{fill:#FFFFFF;}
	.st2{fill:#CC6828;}
	.st3{fill:#C1357E;}
</style>
<g>
	<rect y="0" class="st0" width="97" height="290"/>
	<g>
		<path class="st1" d="M32.7,163.7c0,4.3,2,9.2,6,12.1h0h-5.3V186h37.3v-10.2H49.4c-3.8,0-7.9-3-7.9-8.4c0-4.2,2.9-8.6,7.9-8.6h21.2
			v-10.2H47.5C38.9,148.6,32.7,154.7,32.7,163.7"/>
	</g>
	<polygon class="st1" points="33.3,75.9 58.8,85.2 33.3,94.4 33.3,106.1 70.6,90.8 70.6,79.6 33.3,64.3 	"/>
	<g>
		<path class="st1" d="M44.6,216.5c-2.3-1.7-3.7-4.5-3.7-7.9c0-3.7,2.1-6.5,5.2-7.9l7.4,17.9C49.7,219.1,46.7,218.1,44.6,216.5
			 M59.2,196.9c3.2,4.3,4,6.8,4,10.7c0,3.5-1.1,6.3-3,8.2l-10.9-26.1c-4.1,0.6-7.7,2.1-10.4,4.5c-4,3.4-6.1,8.5-6.1,14.7
			c0,11.2,8.3,19.7,19.3,19.7c11.3,0,19.3-8.5,19.3-20.8c0-6.9-3.3-14-7.1-17.3L59.2,196.9z"/>
	</g>
	<polygon class="st1" points="61.2,229.5 61.2,252.7 22.2,252.7 22.2,263.1 70.7,263.1 70.7,229.5 	"/>
	<g>
		<path class="st1" d="M41.5,45.9c0,5.7,4.3,9.8,10.5,9.8c5.9,0,10.5-4.4,10.5-10c0-5.7-4.5-9.8-10.5-9.8
			C46.1,35.9,41.5,40.3,41.5,45.9 M71.3,45.9c0,11.2-8.4,19.9-19.3,19.9c-10.8,0-19.3-8.8-19.3-20.1c0-11.2,8.4-19.9,19.3-19.9
			C62.8,25.9,71.3,34.7,71.3,45.9"/>
		<path class="st1" d="M41.5,124.6c0,5.7,4.3,9.8,10.5,9.8c5.9,0,10.5-4.4,10.5-10c0-5.7-4.5-9.8-10.5-9.8
			C46.1,114.6,41.5,119,41.5,124.6 M71.3,124.6c0,11.2-8.4,19.9-19.3,19.9c-10.8,0-19.3-8.8-19.3-20.1c0-11.2,8.4-19.9,19.3-19.9
			C62.8,104.5,71.3,113.3,71.3,124.6"/>
	</g>
	<path class="st1" d="M65.3,20.6v-1.1l2.5-1.6l-2.5-1.6v-1.1h5.4v1h-3.8l2.6,1.7V18l-2.6,1.7h3.8v1H65.3z M66.2,24.5v1.7h-0.9v-4.3
		h0.9v1.7h4.4v1H66.2z"/>
</g>
</svg>
