<svg xmlns="http://www.w3.org/2000/svg" viewBox="0 0 100 100"><defs><style>.cls-1{fill:#4da7bc;}.cls-2{fill:none;stroke:#4da7bc;stroke-miterlimit:10;stroke-width:2px;}</style></defs><title>icon</title><g id="Capa_2" data-name="Capa 2"><path class="cls-1" d="M49.87.15A49.87,49.87,0,1,0,99.75,50,49.87,49.87,0,0,0,49.87.15Zm-.35,95.74A45.65,45.65,0,1,1,95.18,50.23,45.65,45.65,0,0,1,49.53,95.89Z"/><rect class="cls-2" x="40.83" y="14.93" width="17.45" height="5.74"/><rect class="cls-2" x="33.81" y="20.68" width="31.28" height="60.42"/><rect class="cls-1" x="40.83" y="59.61" width="17.45" height="2.34"/><rect class="cls-1" x="40.72" y="65.78" width="17.45" height="2.34"/><rect class="cls-1" x="41.15" y="72.03" width="17.45" height="2.34"/><polygon class="cls-1" points="52.53 31.53 46.36 41.31 57.42 41.31 49.45 54.51 54.02 43.02 41.15 43.02 52.53 31.53"/></g></svg>