<?xml version="1.0" encoding="utf-8"?>
<!-- Generator: Adobe Illustrator 20.0.0, SVG Export Plug-In . SVG Version: 6.00 Build 0)  -->
<svg version="1.1" id="Capa_1" xmlns="http://www.w3.org/2000/svg" xmlns:xlink="http://www.w3.org/1999/xlink" x="0px" y="0px"
	 viewBox="0 0 18.2 33.6" style="enable-background:new 0 0 18.2 33.6;" xml:space="preserve">
<style type="text/css">
	.st0{fill:none;stroke:#4A92A3;stroke-miterlimit:10;}
	.st1{fill:#B64175;}
</style>
<g id="Capa_7_1_">
	<rect x="5.4" y="0.9" class="st0" width="8.4" height="2.7"/>
	<path class="st0" d="M2.9,3.6h13.4c0.5,0,0.8,0.4,0.8,0.8v26.5c0,0.4-0.4,0.8-0.8,0.8H2.9c-0.5,0-0.8-0.4-0.8-0.8L2,4.4
		C2,3.9,2.4,3.6,2.9,3.6z"/>
	<rect x="5.4" y="23" class="st1" width="8.4" height="0.9"/>
	<rect x="5.4" y="24.7" class="st1" width="8.4" height="0.9"/>
	<rect x="5.4" y="26.5" class="st1" width="8.4" height="0.9"/>
	<rect x="5.4" y="17.7" class="st1" width="8.4" height="0.9"/>
	<rect x="5.4" y="19.5" class="st1" width="8.4" height="0.9"/>
	<rect x="5.4" y="21.2" class="st1" width="8.4" height="0.9"/>
	<rect x="5.4" y="12.5" class="st1" width="8.4" height="0.9"/>
	<rect x="5.4" y="10.7" class="st1" width="8.4" height="0.9"/>
	<rect x="5.3" y="9" class="st1" width="8.4" height="0.9"/>
	<rect x="5.3" y="7.2" class="st1" width="8.4" height="0.9"/>
	<rect x="5.4" y="14.2" class="st1" width="8.4" height="0.9"/>
	<rect x="5.4" y="16" class="st1" width="8.4" height="0.9"/>
</g>
</svg>
