<svg id="Capa_6" data-name="Capa 6" xmlns="http://www.w3.org/2000/svg" viewBox="0 0 100 100"><defs><style>.cls-1{fill:#4b9bae;}</style></defs><title>icon</title><g id="Capa_8" data-name="Capa 8"><path class="cls-1" d="M50.06.12A49.94,49.94,0,1,0,100,50.06,49.94,49.94,0,0,0,50.06.12ZM49.71,96A45.72,45.72,0,1,1,95.43,50.27,45.72,45.72,0,0,1,49.71,96Z"/><path class="cls-1" d="M25.8,61.34H23.1V39.19H36.31v2.43H25.8v7.15h9.32v2.43H25.8Z"/><path class="cls-1" d="M42.89,48.78H54.5V39.19h2.7V61.34H54.5V51.21H42.89V61.34H40.2V39.19h2.7Z"/><path class="cls-1" d="M80.76,50.17a13.38,13.38,0,0,1-.48,3.64,9.94,9.94,0,0,1-1.45,3.07,9.61,9.61,0,0,1-2.42,2.36A11.44,11.44,0,0,1,73,60.78a13.55,13.55,0,0,1-2.4.44q-1.29.12-2.8.12h-5V39.19h5.06q1.51,0,2.8.12a13.55,13.55,0,0,1,2.4.44,11.67,11.67,0,0,1,3.38,1.52,9.34,9.34,0,0,1,2.4,2.31,9.71,9.71,0,0,1,1.42,3A13.16,13.16,0,0,1,80.76,50.17Zm-2.68,0A8.76,8.76,0,0,0,76.67,45a7.55,7.55,0,0,0-4-2.81,11,11,0,0,0-2.25-.43q-1.24-.12-2.8-.12H65.52V58.91h2.06q1.56,0,2.8-.12a11,11,0,0,0,2.25-.43,7.4,7.4,0,0,0,4-2.9A9.21,9.21,0,0,0,78.08,50.17Z"/></g></svg>