<?xml version="1.0" encoding="utf-8"?>
<!-- Generator: Adobe Illustrator 20.0.0, SVG Export Plug-In . SVG Version: 6.00 Build 0)  -->
<svg version="1.1" id="Capa_1" xmlns="http://www.w3.org/2000/svg" xmlns:xlink="http://www.w3.org/1999/xlink" x="0px" y="0px"
	 viewBox="0 0 50 50" style="enable-background:new 0 0 50 50;" xml:space="preserve">
<style type="text/css">
	.st0{fill:#FFFFFF;}
</style>
<g>
	<path class="st0" d="M25,0c-13.2,0-24,11.2-24,25c0,13.8,10.7,25,24,25C38.3,50,49,38.8,49,25C49,11.2,38.3,0,25,0 M25,1.6
		c12.4,0,22.5,10.5,22.5,23.4c0,12.9-10.1,23.4-22.5,23.4C12.6,48.4,2.6,37.9,2.6,25C2.6,12.1,12.6,1.6,25,1.6"/>
	<path class="st0" d="M25,1.4C37.5,1.4,47.6,12,47.6,25c0,13-10.1,23.6-22.6,23.6C12.6,48.6,2.4,38,2.4,25C2.4,12,12.6,1.4,25,1.4
		 M25,0c-13.2,0-24,11.2-24,25c0,13.8,10.7,25,24,25C38.3,50,49,38.8,49,25C49,11.2,38.3,0,25,0"/>
	<path class="st0" d="M27.8,38.2c-0.1-0.2-0.3-0.3-0.5-0.3c-0.2,0-0.4,0.1-0.6,0.2c-1,1.2-2,2.3-3.3,3.2c-0.3,0.2-0.4,0.7-0.1,1
		c0.1,0.2,0.3,0.3,0.5,0.3c0.1,0,0.3,0,0.4-0.1c1-0.8,2-1.7,2.9-2.7c0.3,0.4,0.5,0.8,0.8,1.2c0.2,0.3,0.7,0.3,0.9,0.1
		c0.1-0.1,0.2-0.3,0.2-0.5c0-0.2,0-0.4-0.2-0.5C28.5,39.4,28.1,38.8,27.8,38.2"/>
	<path class="st0" d="M28.8,31c0-0.3-0.2-0.6-0.5-0.7c-0.3-0.1-0.6,0.1-0.7,0.4c-1.5,3.6-3.6,7.2-8.3,9.7c-0.3,0.2-0.5,0.6-0.3,0.9
		c0.1,0.2,0.3,0.4,0.6,0.4c0.1,0,0.2,0,0.3-0.1c4.5-2.4,6.7-5.8,7.9-8.2c0.3,1.7,1,3.9,2.6,5.7c0.1,0.1,0.3,0.2,0.5,0.2
		c0.2,0,0.3-0.1,0.5-0.2c0.1-0.1,0.2-0.3,0.2-0.5c0-0.2-0.1-0.4-0.2-0.5C28.9,35.4,28.8,31,28.8,31"/>
	<path class="st0" d="M36,13.8c-1.7-2.9-4.3-5-7.6-5.8c-7.7-2-13.6,3.6-15.2,9.9l-0.1,0.6c-0.3,1.4-0.8,2.8-1.6,3.9
		c-0.2,0.3-0.1,0.7,0.2,1c0.1,0.1,0.3,0.1,0.5,0.1c0.2,0,0.3-0.1,0.4-0.3c0.9-1.3,1.5-2.8,1.8-4.5l0.1-0.6
		c1.4-5.6,6.7-10.7,13.6-8.9c2.9,0.7,5.3,2.6,6.7,5.1c2.1,3.8,1.6,7.8,1.3,9.4l0,0.1c-0.4,1.8-0.5,3.8-0.3,5.4
		c0,0.4,0.3,0.6,0.7,0.6c0,0,0,0,0.1,0c0.2,0,0.3-0.1,0.4-0.3c0.1-0.1,0.2-0.3,0.1-0.5c-0.1-1.5,0-3.3,0.3-5l0,0
		C37.8,22.5,38.4,18,36,13.8"/>
	<path class="st0" d="M34.6,23.6L34.6,23.6c0-0.1,0-0.1,0-0.1c0,0,0,0,0,0c0-0.1,0-0.2,0.1-0.4c0-0.1,0-0.1,0-0.2
		c0-0.1,0-0.3,0.1-0.4c0-0.1,0-0.3,0-0.4c0-0.1,0-0.2,0-0.3c0-0.2,0-0.4,0-0.6c0-0.1,0-0.1,0-0.2c0-0.3,0-0.6,0-0.8c0,0,0-0.1,0-0.1
		c0-0.3,0-0.7-0.1-1c0,0,0-0.1,0-0.1c-0.1-0.4-0.1-0.7-0.2-1.1c0-0.1-0.1-0.2-0.1-0.3c-0.1-0.3-0.2-0.6-0.3-1
		c-0.2-0.4-0.4-0.8-0.6-1.2c-1.2-2.2-3.3-3.7-5.7-4.4c-5.9-1.5-10.5,2.9-11.7,7.7L16,19.1c0,0,0,0,0,0l0,0c-0.7,3.8-2.8,6.3-4.3,7.7
		c-0.1,0.1-0.2,0.3-0.2,0.5c0,0.2,0,0.4,0.2,0.5c0.1,0.1,0.3,0.2,0.5,0.2c0.2,0,0.3,0,0.5-0.2c1.7-1.6,4-4.3,4.8-8.5l0.1-0.4
		c0.1-0.3,0.1-0.5,0.2-0.7c0,0,0,0,0,0c1.3-3.9,5.1-7.1,9.9-5.9c2.1,0.5,3.8,1.9,4.9,3.7c0.1,0.2,0.2,0.4,0.3,0.6
		c0.1,0.2,0.2,0.3,0.2,0.5c0,0.1,0.1,0.3,0.1,0.4c0.1,0.2,0.2,0.5,0.2,0.7c0,0.1,0,0.2,0.1,0.3c0.1,0.3,0.1,0.5,0.2,0.8
		c0,0.1,0,0.1,0,0.2c0,0.3,0.1,0.6,0.1,0.8c0,0.1,0,0.1,0,0.1c0,0.3,0,0.5,0,0.8c0,0.1,0,0.1,0,0.2c0,0.2,0,0.5,0,0.7
		c0,0.1,0,0.2,0,0.3c0,0.1,0,0.3-0.1,0.4c0,0.2-0.1,0.3-0.1,0.5c0,0,0,0.1,0,0.1l0,0.1c-0.3,1.6-1.1,7.1,0.9,10.4
		c0.1,0.2,0.3,0.3,0.6,0.3c0.1,0,0.2,0,0.4-0.1c0.2-0.1,0.3-0.3,0.3-0.4c0-0.2,0-0.4-0.1-0.5C33.4,30.1,34.4,24.7,34.6,23.6"/>
	<path class="st0" d="M31.7,23L31.7,23c0.2-1.1,0.6-3.8-0.7-6.2c-0.9-1.5-2.2-2.5-3.9-3c-4.2-1.1-7.3,2-8.2,5.5l0,0.2
		c-1.1,6.1-5.1,9.4-6.7,10.6c-0.3,0.2-0.4,0.6-0.2,1c0.2,0.3,0.6,0.4,0.9,0.2c1.8-1.2,6.1-4.9,7.3-11.4l0-0.2
		c0.7-2.9,3.2-5.4,6.6-4.5c1.3,0.3,2.4,1.1,3.1,2.3c1.1,2,0.7,4.4,0.6,5.1l0,0.1c-0.5,2.8-1.4,9.8,2.1,13.9c0.1,0.1,0.3,0.2,0.5,0.2
		c0.2,0,0.3-0.1,0.4-0.2c0.1-0.1,0.2-0.3,0.2-0.5c0-0.2-0.1-0.4-0.2-0.5C30.3,32,31.3,25.1,31.7,23"/>
	<path class="st0" d="M26.7,29.6c1.6-3.6,2.1-6.9,2.1-7.2c0.1-0.4,0.5-2.4-0.4-3.9c-0.4-0.8-1.1-1.3-2.1-1.6
		c-2.8-0.7-4.3,1.9-4.7,3.4c-1.4,7.2-6.1,11.2-8.1,12.6c-0.3,0.2-0.4,0.6-0.2,1c0.2,0.3,0.6,0.4,0.9,0.2c2.1-1.5,7.2-5.7,8.7-13.4
		c0-0.1,0.8-2.9,3.1-2.4c0.6,0.1,1,0.4,1.2,0.9c0.6,1.1,0.2,2.9,0.2,2.9c0,0,0,0.1,0,0.1c0,0.1-0.4,3.1-1.9,6.5
		c-1.4,3.1-3.9,7.3-8.5,9.4c-0.3,0.2-0.5,0.6-0.3,0.9c0.1,0.2,0.3,0.4,0.6,0.4c0.1,0,0.2,0,0.3-0.1C21.5,37.5,24.6,34.3,26.7,29.6"
		/>
	<path class="st0" d="M26,21.2c0-0.2,0-0.4-0.1-0.5c-0.1-0.2-0.3-0.3-0.4-0.3c-0.4-0.1-0.7,0.2-0.8,0.6c0,0.1-2,10.9-10,14.6
		c-0.2,0.1-0.3,0.2-0.4,0.4c-0.1,0.2-0.1,0.4,0,0.5c0.1,0.3,0.3,0.4,0.6,0.4c0.1,0,0.2,0,0.3-0.1C23.9,32.9,25.9,21.7,26,21.2"/>
</g>
</svg>
