<?xml version="1.0" encoding="utf-8"?>
<!-- Generator: Adobe Illustrator 20.0.0, SVG Export Plug-In . SVG Version: 6.00 Build 0)  -->
<svg version="1.1" id="Capa_1" xmlns="http://www.w3.org/2000/svg" xmlns:xlink="http://www.w3.org/1999/xlink" x="0px" y="0px"
	 viewBox="0 0 192.1 48" style="enable-background:new 0 0 192.1 48;" xml:space="preserve">
<path d="M45.3,43.4H34.7l-3.2-7.8H13.9l-3,7.8H0.5L16.4,4h11.4L45.3,43.4z M22.2,13.4l-5.8,15.3h12.1L22.2,13.4z M71.1,18.6L58.4,4
	h-8.5v39.4h9.8V18.8l10.6,12.4h1.5l10.6-12.4v24.6h9.8V4h-8.6L71.1,18.6z M117.2,4c14.4,0,21.8,8.9,21.8,19.8
	c0,11.3-7.2,19.7-22.9,19.7H99.8V4H117.2z M109.6,36.2h6.4c9.9,0,12.8-6.7,12.8-12.5c0-6.8-3.6-12.5-13-12.5h-6.3V36.2z M178.8,33.6
	L191.2,46V0.9h-45.1l12.4,12.4h20.3V33.6z M158.5,33.7V15.8l-12.8,12.8v17.9h17.8l12.8-12.8H158.5z"/>
</svg>
