<svg id="Capa_1" data-name="Capa 1" xmlns="http://www.w3.org/2000/svg" viewBox="0 0 16.11 18.09"><defs><style>.cls-1{fill:#ca602b;fill-rule:evenodd;}</style></defs><title>phone</title><path class="cls-1" d="M4,2L7.32,6.74l-1,1.17c1.49,1.76,2.93,3.55,4.48,5.23a4.46,4.46,0,0,0,1.71.66l0.24-.45,4.06,4.12c-1.73,2-3,2.06-4.95.51A31.34,31.34,0,0,1,2.62,6.83C1.49,4.47,1.69,3.69,4,2Z" transform="translate(-1.95 -0.95)"/><path class="cls-1" d="M13.53,12.39a2.54,2.54,0,0,1,1.32,0A39.78,39.78,0,0,1,18,15.66a2,2,0,0,1,0,1,2.06,2.06,0,0,1-.92-0.2c-1.25-1.17-2.45-2.39-3.66-3.6Z" transform="translate(-1.95 -0.95)"/><path class="cls-1" d="M8.07,6.51C6.9,4.8,5.87,3.32,4.88,1.8A0.89,0.89,0,0,1,5,1a0.67,0.67,0,0,1,.64,0c1,1.42,2,2.86,3,4.33A3.36,3.36,0,0,1,8.07,6.51Z" transform="translate(-1.95 -0.95)"/></svg>