<?xml version="1.0" encoding="utf-8"?>
<!-- Generator: Adobe Illustrator 20.0.0, SVG Export Plug-In . SVG Version: 6.00 Build 0)  -->
<svg version="1.1" id="Capa_1" xmlns="http://www.w3.org/2000/svg" xmlns:xlink="http://www.w3.org/1999/xlink" x="0px" y="0px"
	 viewBox="0 0 667 127.5" style="enable-background:new 0 0 667 127.5;" xml:space="preserve">
<style type="text/css">
	.st0{display:none;}
	.st1{display:inline;}
	.st2{fill:#5D5D5D;}
	.st3{fill:#FFFFFF;}
</style>
<g id="Capa_1_1_" class="st0">
	<g class="st1">
		<g>
			<path class="st2" d="M293.5,57.6c-5.7,1.1-10.3,5.1-12.3,10.5c0,0.1-0.1,0.1-0.1,0.2c-0.1,0.3-0.2,0.6-0.3,0.9
				c-0.1,0.3-0.2,0.6-0.2,0.9c-0.1,0.2-0.1,0.5-0.1,0.7c-0.1,0.3-0.1,0.7-0.2,1.1c0,0.1,0,0.3,0,0.4c0,0.5-0.1,1-0.1,1.5v21.8h8.6
				V73.7l0,0c0-4.1,3.2-7.4,7.3-7.7c0.1,0,0.2,0,0.3,0h0.1l0,0c0,0,0,0,0.1,0c0,0,0,0,0.1,0l0,0h0.1h4v-8.4c-1-0.2-3.2-0.3-4.2-0.3
				C295.5,57.3,294.5,57.4,293.5,57.6"/>
			<path class="st2" d="M309.5,77.7c0-0.3,0-0.6,0-0.9c0-6.1,4.9-11,10.9-11c3.4,0,6.4,1.5,8.4,4L309.5,77.7z M339.2,73.2h0.1
				c-1.7-9-9.6-15.8-19-15.8c-10.7,0-19.3,8.7-19.3,19.5c0,10.7,9.7,19.5,20.4,19.5c6.2,0,13.4-3.2,16.9-7.8l-6.2-5
				c-2,2.6-7.2,4.3-10.7,4.3c-3.1,0-7-1.3-9-3.4L339.2,73.2L339.2,73.2z"/>
		</g>
		<rect x="2.1" y="58.1" class="st2" width="8.4" height="37.4"/>
		<path class="st2" d="M253.6,75.2L253.6,75.2C253.6,75.1,253.6,75.1,253.6,75.2c0-9.8-7.9-17.8-17.7-17.8c-3.4,0-6.6,1-9.2,2.6v-2
			h-8.4v37.4h8.5v-6.5V75.1c0-5.1,4.1-9.2,9.2-9.2c5.1,0,9.2,4.1,9.2,9.2v0.1v20.3h8.5V75.2H253.6z"/>
		<path class="st2" d="M185.4,77.7c0-0.3,0-0.6,0-0.9c0-6.1,4.9-11,10.9-11c3.4,0,6.4,1.5,8.4,4L185.4,77.7z M215.1,73.2h0.1
			c-1.7-9-9.6-15.8-19-15.8c-10.7,0-19.3,8.7-19.3,19.5c0,10.7,9.7,19.5,20.4,19.5c6.2,0,13.4-3.2,16.9-7.8l-6.2-5
			c-2,2.6-7.2,4.3-10.7,4.3c-3.1,0-7-1.3-9-3.4L215.1,73.2L215.1,73.2z"/>
		<path class="st2" d="M6.3,54c3.2,0,5.7-2.6,5.7-5.7c0-3.2-2.6-5.7-5.7-5.7c-3.2,0-5.7,2.6-5.7,5.7C0.6,51.5,3.1,54,6.3,54"/>
		<path class="st2" d="M63.9,77.7c0-0.3,0-0.6,0-0.9c0-6.1,4.9-11,10.9-11c3.4,0,6.4,1.5,8.4,4L63.9,77.7z M93.6,73.2L93.6,73.2
			c-1.6-9-9.5-15.8-18.9-15.8c-10.7,0-19.3,8.7-19.3,19.5c0,10.7,9.7,19.5,20.4,19.5c6.2,0,13.4-3.2,16.9-7.8l-6.2-5
			c-2,2.6-7.2,4.3-10.7,4.3c-3.1,0-7-1.3-9-3.4L93.6,73.2L93.6,73.2z"/>
		<path class="st2" d="M126.6,76.8c0,6.1-4.9,11-10.9,11s-10.9-4.9-10.9-11s4.9-11,10.9-11S126.6,70.7,126.6,76.8L126.6,76.8z
			 M115.7,57.3c-10.7,0-19.3,8.7-19.3,19.5c0,10.7,8.6,19.5,19.3,19.5c4.1,0,7.8-1.3,10.9-3.4l0.3,2.6h8.1V76.8
			C135,66,126.3,57.3,115.7,57.3"/>
		<path class="st2" d="M43.9,76.8c0,6-4.9,10.9-10.9,10.9c-4.7,0-8.7-3-10.2-7.1l0,0c-0.5-1.2-0.7-2.5-0.7-3.8s0.2-2.5,0.6-3.7
			c1.5-4.3,5.5-7.3,10.3-7.3C39,65.8,43.8,70.7,43.9,76.8L43.9,76.8z M43.9,43.8v17c-3.1-2.2-6.9-3.5-10.9-3.5
			c-10.7,0-19.4,8.7-19.4,19.5c0,10.7,8.7,19.5,19.4,19.5s19.3-8.7,19.3-19.5v-33H43.9z"/>
		<path class="st2" d="M166.4,83.3c-2,2.6-5.1,4.3-8.7,4.3c-6,0-10.9-4.9-10.9-10.9s4.9-10.9,10.9-10.9c4.2,0,7.8,2.3,9.6,5.8
			l7.9-3.3c-3.2-6.5-9.8-11-17.5-11c-10.7,0-19.5,8.7-19.5,19.5c0,10.7,8.7,19.5,19.5,19.5c7.1,0,13.3-3.8,16.7-9.5L166.4,83.3z"/>
		<path class="st2" d="M275.7,88.2h-0.6c-3,0-5.4-2.4-5.4-5.4V72.5l0,0v-5h6.1v-7.3h-6.1V47.8h-8.4v12.3h-5.4v7.3h5.4v16.2h0.1
			c0,0.1,0,0.2,0,0.4c0,6.7,5.4,12.2,12.2,12.2c0.8,0,1.5-0.1,2.3-0.2v-7.8H275.7z"/>
	</g>
	<g class="st1">
		<path class="st2" d="M365,57.3h2.7l17.4,37.6h-3l-4.7-10.5h-22l-4.8,10.5h-2.9L365,57.3z M376.1,81.9l-9.8-21.6l-9.9,21.6H376.1z"
			/>
		<path class="st2" d="M393.3,57.5h2.8v37.4h-2.8V57.5z"/>
		<path class="st2" d="M424.7,95.5c-2.8,0-5.4-0.5-7.7-1.6c-2.3-1-4.3-2.5-5.9-4.2c-1.6-1.8-2.9-3.8-3.8-6.1
			c-0.9-2.3-1.3-4.7-1.3-7.3v-0.1c0-2.6,0.5-5,1.4-7.3s2.2-4.4,3.8-6.2c1.6-1.8,3.6-3.2,5.9-4.2s4.9-1.6,7.7-1.6
			c2.8,0,5.4,0.5,7.7,1.6c2.3,1,4.3,2.5,5.9,4.2c1.6,1.8,2.9,3.8,3.8,6.1c0.9,2.3,1.3,4.8,1.3,7.3v0.1c0,2.6-0.5,5-1.4,7.3
			s-2.2,4.4-3.8,6.2c-1.6,1.8-3.6,3.2-6,4.2C430.1,95,427.5,95.5,424.7,95.5z M424.8,93c2.3,0,4.4-0.4,6.4-1.3
			c1.9-0.9,3.6-2.1,5-3.6s2.5-3.3,3.3-5.3s1.2-4.2,1.2-6.5v-0.1c0-2.3-0.4-4.5-1.2-6.5c-0.8-2-1.9-3.8-3.3-5.3
			c-1.4-1.5-3.1-2.7-5-3.6c-2-0.9-4.1-1.3-6.4-1.3s-4.4,0.4-6.4,1.3c-1.9,0.9-3.6,2.1-5,3.6c-1.4,1.5-2.5,3.3-3.3,5.3
			s-1.2,4.2-1.2,6.5v0.1c0,2.3,0.4,4.5,1.2,6.5c0.8,2,1.9,3.8,3.3,5.3s3.1,2.7,5,3.6S422.5,93,424.8,93z"/>
		<path class="st2" d="M479.1,95.5c-2.3,0-4.4-0.4-6.2-1.3c-1.8-0.9-3.5-2-5-3.3l1.8-2.1c1.6,1.4,3.2,2.5,4.7,3.2s3.1,1.1,4.9,1.1
			c1.9,0,3.6-0.5,5.2-1.4c1.6-1,2.9-2.3,4-4s1.9-3.7,2.5-6.1c0.6-2.3,0.8-4.9,0.7-7.7c-0.5,1-1.2,1.9-1.9,2.7
			c-0.7,0.9-1.6,1.6-2.5,2.3c-1,0.7-2,1.2-3.2,1.6s-2.5,0.6-4,0.6c-1.9,0-3.6-0.3-5.2-0.9s-2.9-1.4-4.1-2.4c-1.1-1-2-2.2-2.7-3.6
			c-0.6-1.4-1-2.9-1-4.5v-0.1c0-1.7,0.3-3.3,1-4.9c0.6-1.5,1.5-2.9,2.7-4s2.5-2,4.1-2.7s3.4-1,5.3-1c2,0,3.8,0.3,5.4,1
			s2.9,1.6,4.1,2.7c0.7,0.7,1.4,1.5,2,2.4c0.6,0.9,1.1,1.9,1.5,3.1s0.7,2.5,0.9,4c0.2,1.5,0.3,3.2,0.3,5v0.1c0,3-0.4,5.7-1.1,8.1
			c-0.8,2.5-1.8,4.6-3.2,6.4c-1.4,1.8-3,3.2-4.8,4.2C483.2,95,481.2,95.5,479.1,95.5z M480,78.5c1.6,0,3-0.3,4.3-0.8
			s2.4-1.3,3.3-2.2c0.9-0.9,1.6-1.9,2.1-3s0.7-2.3,0.7-3.5v-0.1c0-1.3-0.3-2.5-0.8-3.7s-1.3-2.2-2.2-3c-0.9-0.9-2.1-1.5-3.4-2
			s-2.7-0.7-4.3-0.7c-1.5,0-2.9,0.3-4.1,0.8s-2.3,1.3-3.1,2.2c-0.9,0.9-1.5,2-2,3.2s-0.7,2.4-0.7,3.7v0.1c0,1.3,0.2,2.5,0.7,3.6
			s1.2,2.1,2.1,2.8c0.9,0.8,2,1.4,3.2,1.9C477.1,78.2,478.5,78.5,480,78.5z"/>
		<path class="st2" d="M507.2,60.2l-7.2,2.5l-0.7-2.2l8.6-3.1h2.2V95h-2.8V60.2H507.2z"/>
		<path class="st2" d="M534.5,95.5c-2.4,0-4.5-0.5-6.4-1.5s-3.5-2.4-4.9-4.2c-1.3-1.8-2.4-3.8-3.1-6.1c-0.7-2.3-1.1-4.8-1.1-7.3
			v-0.1c0-2.6,0.4-5,1.1-7.4s1.8-4.4,3.1-6.2c1.4-1.8,3-3.2,4.9-4.2s4-1.6,6.4-1.6s4.5,0.5,6.4,1.5s3.5,2.4,4.9,4.2
			c1.3,1.8,2.4,3.8,3.1,6.1c0.7,2.3,1.1,4.8,1.1,7.3v0.1c0,2.6-0.4,5-1.1,7.4c-0.7,2.3-1.8,4.4-3.1,6.2c-1.4,1.8-3,3.2-4.9,4.2
			C539,95,536.8,95.5,534.5,95.5z M534.6,93c1.9,0,3.7-0.5,5.2-1.4c1.6-0.9,2.9-2.2,4-3.7s1.9-3.3,2.5-5.3s0.9-4.1,0.9-6.3v-0.1
			c0-2.2-0.3-4.3-0.9-6.3c-0.6-2-1.4-3.8-2.5-5.4c-1.1-1.5-2.4-2.8-4-3.7c-1.6-0.9-3.3-1.4-5.2-1.4s-3.7,0.5-5.2,1.4
			c-1.6,0.9-2.9,2.2-4,3.7c-1.1,1.5-1.9,3.3-2.5,5.3s-0.9,4.1-0.9,6.3v0.1c0,2.2,0.3,4.3,0.9,6.3c0.6,2,1.4,3.8,2.5,5.4
			s2.4,2.8,4,3.8C530.9,92.6,532.7,93,534.6,93z"/>
	</g>
</g>
<g id="Capa_2">
	<g>
		<path class="st3" d="M280.4,90.1c-11.8,0-21.4-9.7-21.4-21.5l0,0c0-11.9,9.6-21.5,21.4-21.5s21.4,9.7,21.4,21.6
			C301.8,80.5,292.2,90.1,280.4,90.1 M280.4,30.4c-8,0-15.3,2.5-21.4,6.7V3.8h-16.6v64.8c0,21.1,17,38.2,38,38.2
			c20.9,0,38-17.1,38-38.2C318.3,47.5,301.3,30.4,280.4,30.4"/>
		<path class="st3" d="M39.9,90.1c-11.8,0-21.4-9.6-21.4-21.5l0,0c0-11.9,9.6-21.6,21.4-21.6s21.4,9.7,21.4,21.6
			C61.4,80.5,51.8,90.1,39.9,90.1 M39.9,30.4C19,30.4,2,47.5,2,68.6v58.9h16.6v-27.4c6.1,4.2,13.5,6.6,21.4,6.6
			c21,0,38-17.1,38-38.2C77.9,47.5,60.9,30.4,39.9,30.4"/>
		<path class="st3" d="M219.5,68.6c0,11.9-9.6,21.5-21.4,21.5c-11.8,0-21.4-9.7-21.4-21.5c0-11.9,9.6-21.6,21.4-21.6
			C209.9,47,219.5,56.7,219.5,68.6L219.5,68.6z M198.1,30.4c-21,0-38,17.1-38,38.2s17,38.2,38,38.2c7.9,0,15.3-2.5,21.4-6.6v5.1H236
			V68.6C236,47.5,219,30.4,198.1,30.4"/>
		<path class="st3" d="M153.7,65.4L153.7,65.4c0-0.1,0-0.1,0-0.2c0-19.2-15.5-34.7-34.7-34.7c-6.7,0-12.9,1.9-18.1,5.2v-32H84.3
			v101.6h16.5l0.1-12.8V65.3c0-10,8.1-18,18-18c10,0,18,8.1,18,18v0.2v39.8h16.6V65.4H153.7z"/>
	</g>
	<g>
		<path class="st3" d="M335.2,100.3l27.1-24.4c3-2.6,5.4-5.2,7.5-7.4c2.1-2.2,3.7-4.3,5-6.2c1.3-2,2.2-3.8,2.8-5.5
			c0.6-1.8,0.8-3.7,0.8-5.5c0-2.3-0.5-4.5-1.4-6.5s-2.1-3.6-3.6-5s-3.2-2.4-5.2-3.1c-2-0.7-4-1-6.2-1c-4.6,0-8.5,1.2-11.9,3.5
			c-3.2,2.3-6.3,5.6-9.4,10l-4-2.6c1.6-2.4,3.2-4.6,5-6.5c1.7-1.8,3.6-3.6,5.6-5c2.1-1.4,4.3-2.4,6.8-3.1c2.5-0.7,5.3-1.2,8.5-1.2
			c3.1,0,6,0.5,8.6,1.5c2.6,1,4.8,2.4,6.8,4.1c2,1.8,3.5,3.9,4.5,6.3c1.2,2.4,1.6,5.1,1.6,7.8v0.2c0,2.5-0.3,4.8-1,7
			s-1.7,4.4-3.2,6.6c-1.5,2.2-3.3,4.5-5.6,6.8c-2.3,2.3-5,5-8.2,7.8l-22.1,20h41v5.2h-49.5v-4h-0.3V100.3z"/>
		<path class="st3" d="M406.2,31.9h26.3c4,0,7.6,0.5,10.9,1.5c3.2,1,6.1,2.4,8.5,4.4s4.3,4.3,5.5,6.9c1.3,2.8,2,5.9,2,9.3v0.2
			c0,3.8-0.8,7.1-2.3,10c-1.5,2.9-3.6,5.3-6.1,7.3c-2.6,2-5.6,3.3-9,4.4c-3.5,0.9-7,1.5-10.8,1.5h-19.6v27.1h-5.4V31.9z M431.4,72.4
			c3.3,0,6.5-0.5,9.2-1.3c2.8-0.8,5.1-2.1,7.1-3.6c2-1.6,3.5-3.5,4.6-5.6c1.2-2.2,1.6-4.7,1.6-7.4v-0.2c0-2.9-0.6-5.4-1.6-7.6
			c-1-2.2-2.5-4-4.5-5.4c-2-1.5-4.3-2.5-6.9-3.3s-5.6-1.2-8.9-1.2h-20.5v35.7L431.4,72.4L431.4,72.4L431.4,72.4z"/>
		<path class="st3" d="M475.3,31.9h5.4v67.6h42.6v4.8h-47.9V31.9H475.3z"/>
		<path class="st3" d="M568.1,105.5c-4.4,0-8.3-0.7-12-2.1c-3.6-1.4-6.8-3.3-9.4-6c-2.6-2.6-4.7-5.9-6.1-9.8
			c-1.5-3.9-2.2-8.4-2.2-13.5V31.9h5.4v41.8c0,8.6,2.2,15.3,6.5,19.9s10.4,7,18.1,7c3.7,0,7-0.6,9.9-1.6c3-1.2,5.5-2.8,7.6-5
			s3.7-5,4.8-8.3s1.7-7.1,1.7-11.5V31.9h5.4v41.7c0,5.2-0.7,9.8-2.2,13.7c-1.5,4-3.5,7.3-6.1,10c-2.6,2.6-5.8,4.7-9.3,6.1
			C576.5,104.8,572.5,105.5,568.1,105.5z"/>
		<path class="st3" d="M642.7,105.3c-5.8,0-11.1-0.9-15.7-2.9c-4.6-2-9.2-4.8-13.5-8.8l3.6-4c2,1.8,4,3.5,6,4.8s4,2.4,6.1,3.3
			s4.3,1.5,6.6,2s4.7,0.7,7.5,0.7c2.6,0,5.2-0.3,7.5-1s4.3-1.7,5.8-3c1.6-1.3,2.9-2.8,3.7-4.6c0.9-1.7,1.4-3.7,1.4-5.8v-0.2
			c0-2-0.3-3.7-0.9-5.2s-1.6-2.9-3.2-4.1c-1.6-1.3-3.7-2.4-6.2-3.3c-2.6-1-6-2-10.1-2.8c-4.4-0.9-8.1-2-11.2-3.1
			c-3.1-1.2-5.6-2.6-7.6-4.3c-2-1.6-3.5-3.5-4.3-5.6c-0.9-2.2-1.4-4.6-1.4-7.4v-0.2c0-2.6,0.6-5.2,1.7-7.5s2.8-4.4,4.8-6.1
			c2.1-1.7,4.5-3.1,7.4-4c2.9-0.9,6-1.5,9.3-1.5c5.3,0,9.8,0.7,13.6,2.2c3.8,1.5,7.6,3.7,11.3,6.7l-3.5,4.3c-3.5-3-6.9-5.1-10.4-6.3
			c-3.5-1.3-7.3-1.8-11.3-1.8c-2.6,0-5.1,0.3-7.3,1s-4,1.7-5.6,3c-1.5,1.3-2.8,2.6-3.6,4.4c-0.8,1.6-1.3,3.5-1.3,5.3v0.2
			c0,2,0.3,3.7,0.9,5.2c0.6,1.6,1.6,3,3.2,4.3c1.6,1.3,3.7,2.4,6.5,3.5c2.8,1,6.3,2,10.6,2.9c8.4,1.7,14.5,4.1,18.2,7.3
			c3.7,3.1,5.6,7.4,5.6,12.7v0.2c0,2.9-0.6,5.5-1.8,8.1c-1.2,2.4-2.9,4.5-5,6.2s-4.6,3.1-7.6,4C649.5,104.9,646.3,105.3,642.7,105.3
			z"/>
	</g>
</g>
</svg>
