<?xml version="1.0" encoding="utf-8"?>
<!-- Generator: Adobe Illustrator 20.0.0, SVG Export Plug-In . SVG Version: 6.00 Build 0)  -->
<svg version="1.1" xmlns="http://www.w3.org/2000/svg" xmlns:xlink="http://www.w3.org/1999/xlink" x="0px" y="0px"
	 viewBox="0 0 220.2 804.8" style="enable-background:new 0 0 220.2 804.8;" xml:space="preserve">
<style type="text/css">
	.st0{display:none;}
	.st1{display:inline;}
	.st2{fill:#AC2E7C;}
	.st3{fill:#FFFFFF;}
	.st4{fill:#4BA7BC;}
</style>
<g id="Capa_1" class="st0">
	<g class="st1">
		<rect x="160.3" y="603.4" class="st2" width="48.7" height="145.6"/>
		<g>
			<path class="st3" d="M176.7,685.5c0,2.1,1,4.6,3,6.1h0H177v5.1h18.7v-5.1h-10.7c-1.9,0-4-1.5-4-4.2c0-2.1,1.5-4.3,4-4.3h10.7
				v-5.1h-11.6C179.8,677.9,176.7,681,176.7,685.5"/>
		</g>
		<polygon class="st3" points="177,641.5 189.8,646.1 177,650.8 177,656.6 195.7,648.9 195.7,643.3 177,635.6 		"/>
		<g>
			<path class="st3" d="M182.6,712.1c-1.2-0.9-1.9-2.3-1.9-3.9c0-1.8,1.1-3.2,2.6-4l3.7,9C185.2,713.3,183.7,712.9,182.6,712.1
				 M190,702.2c1.6,2.2,2,3.4,2,5.4c0,1.8-0.6,3.2-1.5,4.1l-5.5-13.1c-2,0.3-3.9,1.1-5.2,2.2c-2,1.7-3.1,4.3-3.1,7.4
				c0,5.6,4.2,9.9,9.7,9.9c5.7,0,9.7-4.3,9.7-10.5c0-3.5-1.6-7-3.6-8.7L190,702.2z"/>
		</g>
		<polygon class="st3" points="191,718.6 191,730.2 171.4,730.2 171.4,735.4 195.7,735.4 195.7,718.6 		"/>
		<g>
			<path class="st3" d="M181.1,626.4c0,2.9,2.2,4.9,5.3,4.9c3,0,5.3-2.2,5.3-5c0-2.9-2.2-4.9-5.3-4.9
				C183.4,621.4,181.1,623.6,181.1,626.4 M196.1,626.4c0,5.6-4.2,10-9.7,10c-5.4,0-9.7-4.4-9.7-10.1c0-5.6,4.2-10,9.7-10
				C191.8,616.4,196.1,620.8,196.1,626.4"/>
			<path class="st3" d="M181.1,665.9c0,2.9,2.2,4.9,5.3,4.9c3,0,5.3-2.2,5.3-5c0-2.9-2.2-4.9-5.3-4.9
				C183.4,660.9,181.1,663.1,181.1,665.9 M196.1,665.9c0,5.6-4.2,10-9.7,10c-5.4,0-9.7-4.4-9.7-10.1c0-5.6,4.2-10,9.7-10
				C191.8,655.8,196.1,660.3,196.1,665.9"/>
		</g>
		<path class="st3" d="M193,613.7v-0.5l1.3-0.8l-1.3-0.8V611h2.7v0.5h-1.9l1.3,0.8v0.1l-1.3,0.8h1.9v0.5H193z M193.5,615.7v0.8H193
			v-2.2h0.5v0.8h2.2v0.5H193.5z"/>
	</g>
</g>
<g id="Capa_2">
	<g>
		<g>
			<g>
				<path class="st4" d="M79,780.7c-3,0-6.6,0-10.3,0c-2.4,0-3-1.2-3-3c0-11.5,9.1-21.7,20.5-23c12.7-1.2,23.6,6.6,26,19.3
					c2.4,12.7-6.6,24.8-19.3,27.2c-7.9,1.2-14.5-1.2-19.9-6c-1.2-1.2-1.8-3-0.6-4.2c1.2-1.2,3-1.2,4.2,0c6,4.2,11.5,6,18.1,3.6
					c6.6-2.4,10.3-6.6,11.5-13.3c2.4-9.1-4.2-18.7-13.3-20.5c-9.7-2.4-19.3,4.2-21.1,13.3c0,0.6,0,1.2,0.6,1.2c5.4,0,10.9,0,15.7,0
					c1.8,0,3,1.2,3,2.4c0,1.8-1.2,3-3,3C85.6,780.7,82.6,780.7,79,780.7z"/>
				<path class="st4" d="M143,801.2c-12.7,0-23-10.3-23.6-22.3c-0.6-13.3,10.3-24.2,23.6-24.2c13.3,0,23.6,10.9,23.6,24.2
					C166,791,155.7,801.2,143,801.2z M143,795.2c9.7,0,17.5-7.9,17.5-18.1c0-9.7-8.5-17.5-18.1-16.9c-9.1,0.6-16.9,7.9-16.9,18.1
					C125.5,787.3,133.4,795.2,143,795.2z"/>
				<path class="st4" d="M39.7,791.6c0.6-1.2,1.2-1.8,1.8-3c5.4-10.9,10.9-21.7,16.3-32.6c0.6-1.2,1.8-1.8,3-1.2
					c1.2,0,2.4,1.2,2.4,2.4c0,0.6,0,1.2-0.6,2.4c-5.4,10.9-10.9,21.7-16.3,32.6c-1.2,2.4-2.4,4.8-3.6,7.2c-0.6,1.2-1.2,1.8-3,1.8
					c-1.2,0-2.4-0.6-3-1.8c-6.6-13.3-13.3-26.6-19.9-39.9c-0.6-2.4,0-4.2,1.8-4.8c1.8-0.6,3,0,4.2,1.8c6,11.5,11.5,23,16.9,34.4
					C39.7,791,39.7,791,39.7,791.6z"/>
				<path class="st4" d="M194.4,766.8c0,3,0,6,0,9.1c0,0.6,0,1.2,0.6,1.8c6,6,12.1,12.1,17.5,18.1c0.6,0.6,0.6,0.6,1.2,1.2
					c1.2,1.2,1.2,3,0,4.2c-1.2,1.2-3,1.2-4.2,0c-6-6-11.5-11.5-16.9-17.5c-0.6-0.6-1.2-1.2-2.4,0c-6,6-11.5,11.5-16.9,17.5
					c-1.2,1.2-3,1.2-4.2,0s-1.2-2.4-0.6-3.6l0.6-0.6c6-6,12.1-12.1,18.7-18.7c0.6-0.6,0.6-1.2,0.6-1.8c0-6,0-12.1,0-18.1
					c0-1.8,0.6-2.4,2.4-3c1.2-0.6,2.4,0,3,1.2c0.6,0.6,0.6,1.2,0.6,1.8C194.4,760.8,194.4,763.8,194.4,766.8z"/>
			</g>
			<g>
				<path class="st4" d="M16.8,741.4v-81.5c0-11.5,1.8-21.1,4.8-30.2c3-9.1,7.2-15.7,12.7-21.1c8.5-8.5,18.7-12.7,31.4-12.7h0.6
					c6.6,0,12.7,1.2,18.1,3c4.8,1.8,9.7,4.8,13.3,7.9c3,3,6,6.6,9.1,10.9c2.4,4.2,4.8,7.9,6.6,12.1c1.2-6,3.6-11.5,6-16.9
					c2.4-5.4,6-10.3,9.7-14.5c3.6-4.2,8.5-7.2,13.3-9.7c5.4-2.4,10.9-3.6,18.1-3.6h0.6c8.5,0,15.7,1.8,22.3,4.8
					c6.6,3.6,12.1,8.5,16.9,14.5c4.8,6,8.5,13.9,10.9,22.3c2.4,8.5,3.6,18.1,3.6,29v85.8H16.8z M108,661.7c0-7.2-0.6-13.9-2.4-20.5
					c-1.8-6-4.2-11.5-7.9-16.3c-3.6-4.2-7.9-7.9-12.7-10.9c-5.4-2.4-10.9-3.6-17.5-3.6h-0.6c-10.9,0-19.9,4.2-26.6,12.7
					c-6.6,8.5-10.3,20.5-10.3,36.8v67h78.5v-65.2H108z M201.6,655.1c0-16.9-3.6-30.2-10.9-40.5c-7.2-10.3-16.9-15.1-29.6-15.1h-0.6
					c-12.1,0-21.7,5.4-28.4,15.7c-6.6,10.3-10.3,25.4-10.3,44.7v67h79.7V655.1z"/>
				<path class="st4" d="M217.9,486.6c0,15.1-3,29-8.5,41.1c-5.4,12.1-13.3,22.3-22.3,31.4c-9.1,8.5-19.9,15.1-32,19.9
					c-12.1,4.8-25.4,7.2-38.7,7.2h-0.6c-13.3,0-26.6-2.4-38.7-7.2s-23-11.5-32.6-20.5c-9.7-8.5-16.9-19.3-22.3-31.4
					c-5.4-12.1-8.5-26-8.5-41.1s3-28.4,8.5-40.5s13.3-23,22.3-31.4s19.9-15.1,32.6-19.9c12.1-4.8,25.4-7.2,38.7-7.2h0.6
					c13.3,0,26.6,2.4,38.7,7.2c12.1,4.8,23,11.5,32.6,19.9s16.9,19.3,22.3,31.4C215.5,458.2,217.9,471.5,217.9,486.6z M204.6,486
					c0-12.1-2.4-23.6-6.6-33.8c-4.8-10.3-10.9-19.3-18.7-26.6c-7.9-7.2-17.5-13.3-28.4-17.5c-10.9-4.2-22.3-6-34.4-6h-0.6
					c-12.1,0-23.6,2.4-34.4,6.6S60.9,418.9,53,426.2s-14.5,16.3-19.3,26.6c-4.8,10.3-7.2,21.7-7.2,33.8s2.4,23.6,6.6,33.8
					c4.8,10.3,10.9,19.3,18.7,26.6s17.5,13.3,28.4,17.5s22.3,6,34.4,6h0.6c12.1,0,23.6-2.4,34.4-6.6s20.5-10.3,28.4-17.5
					c7.9-7.2,14.5-16.3,19.3-26.6C202.2,509.5,204.6,498.6,204.6,486z"/>
				<path class="st4" d="M217.9,286c0,15.1-3,29-8.5,41.1c-5.4,12.1-13.3,22.3-22.3,31.4c-9.1,8.5-19.9,15.1-32.6,19.9
					c-12.1,4.8-25.4,7.2-38.7,7.2h-0.6c-13.3,0-26.6-2.4-38.7-7.2c-12.1-4.8-23-11.5-32.6-20.5c-9.7-9.1-16.9-19.3-22.3-31.4
					c-5.4-12.1-8.5-26-8.5-41.1s3-28.4,8.5-40.5s13.3-23,22.3-31.4c9.1-8.5,19.9-15.1,32.6-19.9c12.1-4.8,25.4-7.2,38.7-7.2h0.6
					c13.3,0,26.6,2.4,38.7,7.2c12.1,4.8,23,11.5,32.6,19.9c9.7,8.5,16.9,19.3,22.3,31.4C215.5,257.7,217.9,270.9,217.9,286z
					 M204.6,285.4c0-12.1-2.4-23.6-6.6-33.8c-4.8-10.3-10.9-19.3-18.7-26.6c-7.9-7.2-17.5-13.3-28.4-17.5c-10.9-4.2-22.3-6-34.4-6
					h-0.6c-12.1,0-23.6,2.4-34.4,6.6c-10.9,4.2-20.5,10.3-28.4,17.5c-7.9,7.2-14.5,16.3-19.3,26.6c-4.8,10.3-7.2,21.7-7.2,33.8
					c0,12.1,2.4,23.6,6.6,33.8c4.8,10.3,10.9,19.3,18.7,26.6c7.9,7.2,17.5,13.3,28.4,17.5c10.9,4.2,22.3,6,34.4,6h0.6
					c12.1,0,23.6-2.4,34.4-6.6c10.9-4.2,20.5-10.3,28.4-17.5c7.9-7.2,14.5-16.3,19.3-26.6C202.2,309,204.6,297.5,204.6,285.4z"/>
				<polygon class="st4" points="16.8,176.1 16.8,161.6 147.3,161.6 16.8,35.4 16.8,15.5 104.4,101.8 214.9,11.8 214.9,31.2 
					114.6,112.7 164.2,162.2 214.3,162.2 214.3,176.7 16.8,176.7 				"/>
			</g>
		</g>
	</g>
</g>
</svg>
