<?xml version="1.0" encoding="utf-8"?>
<!-- Generator: Adobe Illustrator 20.0.0, SVG Export Plug-In . SVG Version: 6.00 Build 0)  -->
<svg version="1.1" id="Capa_1" xmlns="http://www.w3.org/2000/svg" xmlns:xlink="http://www.w3.org/1999/xlink" x="0px" y="0px"
	 viewBox="0 0 126.7 468.8" style="enable-background:new 0 0 126.7 468.8;" xml:space="preserve">
<style type="text/css">
	.st0{fill:#4BA7BC;}
</style>
<g>
	<g>
		<g>
			<path class="st0" d="M43.3,455.1c-1.8,0-3.9,0-6,0c-1.4,0-1.8-0.7-1.8-1.8c0-6.7,5.3-12.8,12-13.5c7.4-0.7,13.8,3.9,15.2,11.3
				c1.4,7.4-3.9,14.5-11.3,15.9c-4.6,0.7-8.5-0.7-11.7-3.5c-0.7-0.7-1.1-1.8-0.4-2.5c0.7-0.7,1.8-0.7,2.5,0
				c3.5,2.5,6.7,3.5,10.6,2.1c3.9-1.4,6-3.9,6.7-7.8c1.4-5.3-2.5-11-7.8-12c-5.7-1.4-11.3,2.5-12.4,7.8c0,0.4,0,0.7,0.4,0.7
				c3.2,0,6.4,0,9.2,0c1.1,0,1.8,0.7,1.8,1.4c0,1.1-0.7,1.8-1.8,1.8C47.2,455.1,45.4,455.1,43.3,455.1z"/>
			<path class="st0" d="M80.8,467.1c-7.4,0-13.5-6-13.8-13.1c-0.4-7.8,6-14.2,13.8-14.2s13.8,6.4,13.8,14.2
				C94.3,461.1,88.3,467.1,80.8,467.1z M80.8,463.6c5.7,0,10.3-4.6,10.3-10.6c0-5.7-5-10.3-10.6-9.9c-5.3,0.4-9.9,4.6-9.9,10.6
				C70.6,459,75.2,463.6,80.8,463.6z"/>
			<path class="st0" d="M20.3,461.4c0.4-0.7,0.7-1.1,1.1-1.8c3.2-6.4,6.4-12.8,9.6-19.1c0.4-0.7,1.1-1.1,1.8-0.7
				c0.7,0,1.4,0.7,1.4,1.4c0,0.4,0,0.7-0.4,1.4c-3.2,6.4-6.4,12.8-9.6,19.1c-0.7,1.4-1.4,2.8-2.1,4.3c-0.4,0.7-0.7,1.1-1.8,1.1
				c-0.7,0-1.4-0.4-1.8-1.1c-3.9-7.8-7.8-15.6-11.7-23.4c-0.4-1.4,0-2.5,1.1-2.8c1.1-0.4,1.8,0,2.5,1.1c3.5,6.7,6.7,13.5,9.9,20.2
				C20.3,461.1,20.3,461.1,20.3,461.4z"/>
			<path class="st0" d="M111,446.9c0,1.8,0,3.5,0,5.3c0,0.4,0,0.7,0.4,1.1c3.5,3.5,7.1,7.1,10.3,10.6c0.4,0.4,0.4,0.4,0.7,0.7
				c0.7,0.7,0.7,1.8,0,2.5c-0.7,0.7-1.8,0.7-2.5,0c-3.5-3.5-6.7-6.7-9.9-10.3c-0.4-0.4-0.7-0.7-1.4,0c-3.5,3.5-6.7,6.7-9.9,10.3
				c-0.7,0.7-1.8,0.7-2.5,0c-0.7-0.7-0.7-1.4-0.4-2.1l0.4-0.4c3.5-3.5,7.1-7.1,11-11c0.4-0.4,0.4-0.7,0.4-1.1c0-3.5,0-7.1,0-10.6
				c0-1.1,0.4-1.4,1.4-1.8c0.7-0.4,1.4,0,1.8,0.7c0.4,0.4,0.4,0.7,0.4,1.1C111,443.4,111,445.1,111,446.9z"/>
		</g>
		<g>
			<path class="st0" d="M6.8,432v-47.8c0-6.7,1.1-12.4,2.8-17.7s4.3-9.2,7.4-12.4c5-5,11-7.4,18.4-7.4h0.4c3.9,0,7.4,0.7,10.6,1.8
				c2.8,1.1,5.7,2.8,7.8,4.6c1.8,1.8,3.5,3.9,5.3,6.4c1.4,2.5,2.8,4.6,3.9,7.1c0.7-3.5,2.1-6.7,3.5-9.9c1.4-3.2,3.5-6,5.7-8.5
				c2.1-2.5,5-4.3,7.8-5.7c3.2-1.4,6.4-2.1,10.6-2.1h0.4c5,0,9.2,1.1,13.1,2.8c3.9,2.1,7.1,5,9.9,8.5s5,8.2,6.4,13.1
				c1.4,5,2.1,10.6,2.1,17V432H6.8z M60.3,385.3c0-4.3-0.4-8.2-1.4-12c-1.1-3.5-2.5-6.7-4.6-9.6c-2.1-2.5-4.6-4.6-7.4-6.4
				c-3.2-1.4-6.4-2.1-10.3-2.1h-0.4c-6.4,0-11.7,2.5-15.6,7.4c-3.9,5-6,12-6,21.6v39.3h46.1v-38.3H60.3z M115.2,381.4
				c0-9.9-2.1-17.7-6.4-23.7s-9.9-8.9-17.4-8.9h-0.4c-7.1,0-12.8,3.2-16.7,9.2c-3.9,6-6,14.9-6,26.2v39.3h46.8V381.4z"/>
			<path class="st0" d="M124.8,282.5c0,8.9-1.8,17-5,24.1s-7.8,13.1-13.1,18.4c-5.3,5-11.7,8.9-18.8,11.7
				c-7.1,2.8-14.9,4.3-22.7,4.3h-0.4c-7.8,0-15.6-1.4-22.7-4.3c-7.1-2.8-13.5-6.7-19.1-12c-5.7-5-9.9-11.3-13.1-18.4S5,291,5,282.1
				s1.8-16.7,5-23.7c3.2-7.1,7.8-13.5,13.1-18.4s11.7-8.9,19.1-11.7c7.1-2.8,14.9-4.3,22.7-4.3h0.4c7.8,0,15.6,1.4,22.7,4.3
				c7.1,2.8,13.5,6.7,19.1,11.7c5.7,5,9.9,11.3,13.1,18.4C123.4,265.8,124.8,273.6,124.8,282.5z M117,282.1c0-7.1-1.4-13.8-3.9-19.8
				c-2.8-6-6.4-11.3-11-15.6c-4.6-4.3-10.3-7.8-16.7-10.3c-6.4-2.5-13.1-3.5-20.2-3.5h-0.4c-7.1,0-13.8,1.4-20.2,3.9
				c-6.4,2.5-12,6-16.7,10.3c-4.6,4.3-8.5,9.6-11.3,15.6s-4.3,12.8-4.3,19.8s1.4,13.8,3.9,19.8c2.8,6,6.4,11.3,11,15.6
				c4.6,4.3,10.3,7.8,16.7,10.3s13.1,3.5,20.2,3.5h0.4c7.1,0,13.8-1.4,20.2-3.9c6.4-2.5,12-6,16.7-10.3c4.6-4.3,8.5-9.6,11.3-15.6
				C115.6,296,117,289.6,117,282.1z"/>
			<path class="st0" d="M124.8,164.8c0,8.9-1.8,17-5,24.1s-7.8,13.1-13.1,18.4c-5.3,5-11.7,8.9-19.1,11.7
				c-7.1,2.8-14.9,4.3-22.7,4.3h-0.4c-7.8,0-15.6-1.4-22.7-4.3c-7.1-2.8-13.5-6.7-19.1-12s-9.9-11.3-13.1-18.4s-5-15.2-5-24.1
				s1.8-16.7,5-23.7s7.8-13.5,13.1-18.4c5.3-5,11.7-8.9,19.1-11.7c7.1-2.8,14.9-4.3,22.7-4.3h0.4c7.8,0,15.6,1.4,22.7,4.3
				c7.1,2.8,13.5,6.7,19.1,11.7c5.7,5,9.9,11.3,13.1,18.4C123.4,148.2,124.8,156,124.8,164.8z M117,164.5c0-7.1-1.4-13.8-3.9-19.8
				c-2.8-6-6.4-11.3-11-15.6c-4.6-4.3-10.3-7.8-16.7-10.3c-6.4-2.5-13.1-3.5-20.2-3.5h-0.4c-7.1,0-13.8,1.4-20.2,3.9
				c-6.4,2.5-12,6-16.7,10.3c-4.6,4.3-8.5,9.6-11.3,15.6c-2.8,6-4.3,12.8-4.3,19.8s1.4,13.8,3.9,19.8c2.8,6,6.4,11.3,11,15.6
				c4.6,4.3,10.3,7.8,16.7,10.3c6.4,2.5,13.1,3.5,20.2,3.5h0.4c7.1,0,13.8-1.4,20.2-3.9c6.4-2.5,12-6,16.7-10.3
				c4.6-4.3,8.5-9.6,11.3-15.6C115.6,178.3,117,171.6,117,164.5z"/>
			<polygon class="st0" points="6.8,100.3 6.8,91.8 83.3,91.8 6.8,17.8 6.8,6.1 58.2,56.8 123,4 123,15.3 64.2,63.1 93.3,92.2 
				122.7,92.2 122.7,100.7 6.8,100.7 			"/>
		</g>
	</g>
</g>
</svg>
