<?xml version="1.0" encoding="utf-8"?>
<!-- Generator: Adobe Illustrator 20.0.0, SVG Export Plug-In . SVG Version: 6.00 Build 0)  -->
<svg version="1.1" id="Capa_1" xmlns="http://www.w3.org/2000/svg" xmlns:xlink="http://www.w3.org/1999/xlink" x="0px" y="0px"
	 viewBox="0 0 471.1 160" style="enable-background:new 0 0 471.1 160;" xml:space="preserve">
<style type="text/css">
	.st0{fill:#5D5D5D;}
</style>
<g>
	<g>
		<path class="st0" d="M293.5,68.3c-5.7,1.1-10.3,5.1-12.3,10.5c0,0.1-0.1,0.1-0.1,0.2c-0.1,0.3-0.2,0.6-0.3,0.9
			c-0.1,0.3-0.2,0.6-0.2,0.9c-0.1,0.2-0.1,0.5-0.1,0.7c-0.1,0.3-0.1,0.7-0.2,1.1c0,0.1,0,0.3,0,0.4c0,0.5-0.1,1-0.1,1.5v21.8h8.6
			V84.4h0c0-4.1,3.2-7.4,7.3-7.7c0.1,0,0.2,0,0.3,0h0.1v0c0,0,0,0,0.1,0c0,0,0,0,0.1,0v0h0.1h4v-8.4c-1-0.2-3.2-0.3-4.2-0.3
			C295.5,68,294.5,68.1,293.5,68.3"/>
		<path class="st0" d="M309.5,88.4c0-0.3,0-0.6,0-0.9c0-6.1,4.9-11,10.9-11c3.4,0,6.4,1.5,8.4,4L309.5,88.4z M339.2,83.9l0.1,0
			c-1.7-9-9.6-15.8-19-15.8c-10.7,0-19.3,8.7-19.3,19.5c0,10.7,9.7,19.5,20.4,19.5c6.2,0,13.4-3.2,16.9-7.8l-6.2-5
			c-2,2.6-7.2,4.3-10.7,4.3c-3.1,0-7-1.3-9-3.4L339.2,83.9L339.2,83.9z"/>
	</g>
	<rect x="2.1" y="68.8" class="st0" width="8.4" height="37.4"/>
	<path class="st0" d="M253.6,85.9L253.6,85.9C253.6,85.8,253.6,85.8,253.6,85.9c0-9.8-7.9-17.8-17.7-17.8c-3.4,0-6.6,1-9.2,2.6v-2
		h-8.4v37.4h8.5c0,0,0-6.5,0-6.5V85.8c0-5.1,4.1-9.2,9.2-9.2c5.1,0,9.2,4.1,9.2,9.2v0.1v20.3h8.5V85.9z"/>
	<path class="st0" d="M185.4,88.4c0-0.3,0-0.6,0-0.9c0-6.1,4.9-11,10.9-11c3.4,0,6.4,1.5,8.4,4L185.4,88.4z M215.1,83.9l0.1,0
		c-1.7-9-9.6-15.8-19-15.8c-10.7,0-19.3,8.7-19.3,19.5c0,10.7,9.7,19.5,20.4,19.5c6.2,0,13.4-3.2,16.9-7.8l-6.2-5
		c-2,2.6-7.2,4.3-10.7,4.3c-3.1,0-7-1.3-9-3.4L215.1,83.9L215.1,83.9z"/>
	<path class="st0" d="M6.3,64.7c3.2,0,5.7-2.6,5.7-5.7c0-3.2-2.6-5.7-5.7-5.7c-3.2,0-5.7,2.6-5.7,5.7C0.6,62.2,3.1,64.7,6.3,64.7"/>
	<path class="st0" d="M63.9,88.4c0-0.3,0-0.6,0-0.9c0-6.1,4.9-11,10.9-11c3.4,0,6.4,1.5,8.4,4L63.9,88.4z M93.6,83.9l0.1,0
		c-1.7-9-9.6-15.8-19-15.8c-10.7,0-19.3,8.7-19.3,19.5c0,10.7,9.7,19.5,20.4,19.5c6.2,0,13.4-3.2,16.9-7.8l-6.2-5
		c-2,2.6-7.2,4.3-10.7,4.3c-3.1,0-7-1.3-9-3.4L93.6,83.9L93.6,83.9z"/>
	<path class="st0" d="M126.6,87.5c0,6.1-4.9,11-10.9,11c-6,0-10.9-4.9-10.9-11c0-6.1,4.9-11,10.9-11
		C121.7,76.5,126.6,81.4,126.6,87.5L126.6,87.5z M115.7,68c-10.7,0-19.3,8.7-19.3,19.5c0,10.7,8.6,19.5,19.3,19.5
		c4.1,0,7.8-1.3,10.9-3.4l0.3,2.6h8.1V87.5C135,76.7,126.3,68,115.7,68"/>
	<path class="st0" d="M43.9,87.5c0,6-4.9,10.9-10.9,10.9c-4.7,0-8.7-3-10.2-7.1v0c-0.5-1.2-0.7-2.5-0.7-3.8c0-1.3,0.2-2.5,0.6-3.7
		c1.5-4.3,5.5-7.3,10.3-7.3c6,0,10.8,4.9,10.9,10.9V87.5z M43.9,54.5v17C40.8,69.3,37,68,33,68c-10.7,0-19.4,8.7-19.4,19.5
		c0,10.7,8.7,19.5,19.4,19.5c10.7,0,19.3-8.7,19.3-19.5v-33H43.9z"/>
	<path class="st0" d="M166.4,94c-2,2.6-5.1,4.3-8.7,4.3c-6,0-10.9-4.9-10.9-10.9c0-6,4.9-10.9,10.9-10.9c4.2,0,7.8,2.3,9.6,5.8
		l7.9-3.3c-3.2-6.5-9.8-11-17.5-11c-10.7,0-19.5,8.7-19.5,19.5c0,10.7,8.7,19.5,19.5,19.5c7.1,0,13.3-3.8,16.7-9.5L166.4,94z"/>
	<path class="st0" d="M275.7,98.9h-0.6c-3,0-5.4-2.4-5.4-5.4V83.2h0v-5h6.1v-7.3h-6.1V58.5h-8.4v12.3h-5.4v7.3h5.4v16.2h0.1
		c0,0.1,0,0.2,0,0.4c0,6.7,5.4,12.2,12.2,12.2c0.8,0,1.5-0.1,2.3-0.2V98.9z"/>
</g>
<g>
	<path class="st0" d="M363.4,56.2h3.4l9.1,23.2h-3.4l-2.5-7h-9.8l-2.6,7h-3.2L363.4,56.2z M361.1,69.8h7.9L365.1,59H365L361.1,69.8z
		"/>
	<path class="st0" d="M378.2,56.2h3.1v23.2h-3.1V56.2z"/>
	<path class="st0" d="M385.9,63.2c0.5-1.5,1.2-2.8,2.1-3.9c0.9-1.1,2.1-2,3.5-2.7c1.4-0.7,3-1,4.8-1c1.8,0,3.5,0.3,4.8,1
		c1.4,0.7,2.5,1.6,3.5,2.7c0.9,1.1,1.6,2.4,2.1,3.9c0.5,1.5,0.7,3,0.7,4.6c0,1.6-0.2,3.1-0.7,4.6c-0.5,1.5-1.2,2.8-2.1,3.9
		c-0.9,1.1-2.1,2-3.5,2.7c-1.4,0.7-3,1-4.8,1c-1.8,0-3.5-0.3-4.8-1c-1.4-0.7-2.5-1.6-3.5-2.7c-0.9-1.1-1.6-2.4-2.1-3.9
		c-0.5-1.5-0.7-3-0.7-4.6C385.2,66.2,385.5,64.7,385.9,63.2z M388.8,71.2c0.3,1.1,0.8,2.2,1.4,3.1c0.6,0.9,1.5,1.6,2.5,2.2
		c1,0.6,2.2,0.8,3.6,0.8c1.4,0,2.6-0.3,3.6-0.8s1.9-1.3,2.5-2.2c0.6-0.9,1.1-1.9,1.4-3.1c0.3-1.1,0.5-2.3,0.5-3.5
		c0-1.2-0.2-2.3-0.5-3.5c-0.3-1.1-0.8-2.2-1.4-3.1c-0.6-0.9-1.5-1.6-2.5-2.2c-1-0.6-2.2-0.8-3.6-0.8c-1.4,0-2.6,0.3-3.6,0.8
		c-1,0.6-1.9,1.3-2.5,2.2c-0.6,0.9-1.1,1.9-1.4,3.1c-0.3,1.1-0.5,2.3-0.5,3.5C388.3,68.9,388.5,70.1,388.8,71.2z"/>
	<path class="st0" d="M422,73.8c0.1,1.1,0.6,2,1.4,2.6c0.8,0.6,1.8,0.9,2.9,0.9c1.7,0,3-0.7,3.8-2.2c0.8-1.5,1.3-3.7,1.4-6.7
		l-0.1-0.1c-0.5,1-1.3,1.7-2.2,2.3c-1,0.6-2,0.9-3.1,0.9c-1.2,0-2.2-0.2-3.1-0.6c-0.9-0.4-1.7-0.9-2.3-1.6c-0.6-0.7-1.1-1.5-1.4-2.4
		c-0.3-0.9-0.5-2-0.5-3.1c0-1.1,0.2-2.1,0.6-3c0.4-0.9,0.9-1.7,1.6-2.4c0.7-0.7,1.5-1.2,2.4-1.5c0.9-0.4,1.9-0.6,3-0.6
		c1.1,0,2.1,0.2,3,0.5c1,0.3,1.8,0.9,2.5,1.7c0.7,0.8,1.3,1.9,1.7,3.4s0.6,3.2,0.6,5.4c0,4-0.6,7-1.9,9.2c-1.3,2.1-3.3,3.2-6.1,3.2
		c-1,0-1.9-0.1-2.7-0.4c-0.8-0.2-1.5-0.6-2.1-1.1c-0.6-0.5-1.1-1.1-1.5-1.9c-0.4-0.7-0.6-1.6-0.7-2.6H422z M430.6,62
		c-0.2-0.6-0.5-1.2-0.9-1.7c-0.4-0.5-0.9-0.9-1.5-1.2c-0.6-0.3-1.3-0.4-2-0.4c-0.8,0-1.5,0.2-2.1,0.5c-0.6,0.3-1,0.7-1.4,1.2
		c-0.4,0.5-0.6,1.1-0.8,1.7c-0.2,0.6-0.2,1.3-0.2,2c0,0.6,0.1,1.2,0.3,1.8c0.2,0.6,0.5,1.1,0.9,1.6c0.4,0.5,0.9,0.8,1.4,1.1
		c0.6,0.3,1.2,0.4,1.8,0.4c0.7,0,1.4-0.1,1.9-0.4c0.6-0.3,1.1-0.6,1.5-1.1c0.4-0.5,0.7-1,0.9-1.6c0.2-0.6,0.3-1.3,0.3-1.9
		C431,63.3,430.9,62.6,430.6,62z"/>
	<path class="st0" d="M447.3,79.3h-2.8V62.9h-6v-2.2c0.8,0,1.5-0.1,2.3-0.2c0.7-0.1,1.4-0.3,2-0.7c0.6-0.3,1.1-0.8,1.5-1.3
		c0.4-0.6,0.7-1.3,0.8-2.1h2.1V79.3z"/>
	<path class="st0" d="M453.5,64.1c0.1-1.4,0.4-2.6,0.9-3.8c0.5-1.1,1.3-2.1,2.3-2.8c1-0.7,2.4-1.1,4.2-1.1c1.8,0,3.2,0.4,4.2,1.1
		c1,0.7,1.8,1.7,2.3,2.8c0.5,1.1,0.8,2.4,0.9,3.8c0.1,1.4,0.2,2.7,0.2,4c0,0.8,0,1.7-0.1,2.6c0,0.9-0.2,1.8-0.3,2.7
		c-0.2,0.9-0.4,1.7-0.7,2.5c-0.3,0.8-0.8,1.4-1.3,2c-0.6,0.6-1.3,1-2.1,1.4c-0.9,0.3-1.9,0.5-3.1,0.5c-1.2,0-2.2-0.2-3.1-0.5
		c-0.9-0.3-1.6-0.8-2.1-1.4s-1-1.3-1.3-2c-0.3-0.8-0.6-1.6-0.7-2.5c-0.2-0.9-0.3-1.8-0.3-2.7c0-0.9-0.1-1.8-0.1-2.6
		C453.3,66.8,453.4,65.4,453.5,64.1z M456.3,70.9c0.1,1.1,0.2,2.1,0.5,3c0.3,0.9,0.8,1.7,1.4,2.4c0.6,0.6,1.6,1,2.7,1
		c1.2,0,2.1-0.3,2.7-1c0.6-0.6,1.1-1.4,1.4-2.4c0.3-0.9,0.5-1.9,0.5-3c0.1-1.1,0.1-2,0.1-2.9c0-0.6,0-1.2,0-1.9c0-0.7-0.1-1.4-0.2-2
		c-0.1-0.7-0.2-1.3-0.4-2c-0.2-0.6-0.5-1.2-0.8-1.7c-0.4-0.5-0.8-0.9-1.3-1.2c-0.5-0.3-1.2-0.5-2-0.5c-0.8,0-1.4,0.2-2,0.5
		c-0.5,0.3-1,0.7-1.3,1.2c-0.4,0.5-0.6,1.1-0.8,1.7c-0.2,0.6-0.3,1.3-0.4,2c-0.1,0.7-0.2,1.4-0.2,2c0,0.7,0,1.3,0,1.9
		C456.2,68.9,456.2,69.9,456.3,70.9z"/>
</g>
</svg>
