<?xml version="1.0" encoding="utf-8"?>
<!-- Generator: Adobe Illustrator 19.2.1, SVG Export Plug-In . SVG Version: 6.00 Build 0)  -->
<svg version="1.1" id="Capa_1" xmlns="http://www.w3.org/2000/svg" xmlns:xlink="http://www.w3.org/1999/xlink" x="0px" y="0px"
	 viewBox="0 0 50 50" style="enable-background:new 0 0 50 50;" xml:space="preserve">
<style type="text/css">
	.st0{fill:#FFFFFF;}
	.st1{font-family:'HelveticaNeue-Medium';}
	.st2{font-size:5.2129px;}
</style>
<g>
	<path class="st0" d="M41,19.8c0.3,0.3,0.8,0.4,1.2,0.4c0.5,0,1-0.2,1.4-0.6c0.7-0.8,0.6-1.9-0.2-2.6L27.3,3.1
		c-0.7-0.6-1.7-0.6-2.4,0L8.7,17c-0.8,0.7-0.9,1.8-0.2,2.6c0.7,0.8,1.8,0.9,2.6,0.2l15-12.9L41,19.8z"/>
	<path class="st0" d="M37.5,28.9c0-0.3,0.1-0.6,0.1-0.9c0-3.3-2.7-6-6.1-6c-3.3,0-6,2.7-6,6.1c0,3.3,2.7,6,6.1,6
		c0.5,0,1.1-0.1,1.6-0.2c0.3,0.6,0.6,1.4,1,2.2h4.1c-5.2-4.5-5.2-4.5-5.2-4.5l2.1-2.3l4.1,3.9v-3.5L37.5,28.9z M35.1,29.1l-2.2,2.3
		c-0.3,0.1-0.7,0.2-1.1,0.2c-0.9,0-1.8-0.3-2.5-0.9c-1.1-1-1.4-2.6-0.8-3.9c0-0.1,0.1-0.1,0.2-0.1c0.1,0,0.2,0,0.2,0.1l2.2,2.1
		c0.3,0.3,0.9,0.3,1.2,0c0.2-0.2,0.2-0.4,0.2-0.6c0-0.2-0.1-0.4-0.3-0.6l-2.2-2.1C30,25.4,30,25.4,30,25.3c0-0.1,0.1-0.1,0.1-0.2
		c0.5-0.2,1-0.4,1.5-0.4c0.9,0,1.8,0.3,2.5,0.9C35,26.5,35.4,27.9,35.1,29.1"/>
	<g>
		<path class="st0" d="M13.7,37.1h0.8V41h2.3v0.7h-3.1V37.1z"/>
		<path class="st0" d="M17.3,37.1h3.3v0.7h-2.5V39h2.3v0.7h-2.3V41h2.5v0.7h-3.3V37.1z"/>
		<path class="st0" d="M21.3,37.1h0.8l2.1,3.4h0v-3.4H25v4.6h-0.8l-2.1-3.4h0v3.4h-0.8V37.1z"/>
		<path class="st0" d="M30.1,39.4c0,1.3-0.8,2.4-2.2,2.4c-1.4,0-2.2-1.1-2.2-2.4c0-1.3,0.8-2.4,2.2-2.4C29.3,37,30.1,38.1,30.1,39.4
			z M26.5,39.4c0,0.9,0.4,1.7,1.4,1.7c1,0,1.4-0.9,1.4-1.7s-0.4-1.7-1.4-1.7C26.9,37.7,26.5,38.5,26.5,39.4z"/>
		<path class="st0" d="M30.3,37.1h0.8l1.1,3.6h0l1.2-3.6h0.8l-1.6,4.6h-0.9L30.3,37.1z"/>
		<path class="st0" d="M38.9,39.4c0,1.3-0.8,2.4-2.2,2.4s-2.2-1.1-2.2-2.4c0-1.3,0.8-2.4,2.2-2.4S38.9,38.1,38.9,39.4z M35.3,39.4
			c0,0.9,0.4,1.7,1.4,1.7c1,0,1.4-0.9,1.4-1.7s-0.4-1.7-1.4-1.7C35.7,37.7,35.3,38.5,35.3,39.4z"/>
	</g>
	<text transform="matrix(1 0 0 1 39.2786 41.692)" class="st0 st1 st2"> </text>
	<g>
		<path class="st0" d="M14.8,43.5h0.9l1.5,3.9h-0.9l-0.3-0.9h-1.5l-0.3,0.9h-0.9L14.8,43.5z M14.7,45.9h1l-0.5-1.4h0L14.7,45.9z"/>
		<path class="st0" d="M18.3,44.2h-1.2v-0.7h3.2v0.7h-1.2v3.2h-0.9V44.2z"/>
		<path class="st0" d="M22.4,43.5h0.9V45h1.6v-1.5h0.9v3.9h-0.9v-1.7h-1.6v1.7h-0.9V43.5z"/>
		<path class="st0" d="M28.2,43.4c1.2,0,1.9,0.9,1.9,2.1c0,1.1-0.7,2-1.9,2s-1.9-0.9-1.9-2C26.3,44.3,27,43.4,28.2,43.4z M28.2,46.7
			c0.8,0,1.1-0.7,1.1-1.3c0-0.7-0.3-1.3-1.1-1.3s-1.1,0.7-1.1,1.3C27.1,46.1,27.4,46.7,28.2,46.7z"/>
		<path class="st0" d="M30.7,43.5h1.2l0.9,2.7h0l0.9-2.7h1.2v3.9h-0.8v-2.8h0l-1,2.8h-0.7l-1-2.8h0v2.8h-0.8V43.5z"/>
		<path class="st0" d="M35.7,43.5h2.9v0.7h-2.1V45h1.9v0.7h-1.9v1h2.1v0.7h-3V43.5z"/>
	</g>
	<path class="st0" d="M26.2,34.8c-0.5-0.4-0.9-0.8-1.3-1.3L23,34.6l-1.4-2.3l1.8-1.1c-0.2-0.6-0.4-1.2-0.5-1.8l-2.1,0l0-2.7l2.1,0
		c0.1-0.6,0.2-1.2,0.5-1.8l-1.8-1l1.3-2.3l1.8,1c0.4-0.5,0.8-0.9,1.3-1.3L25,19.5l2.3-1.4l1.1,1.8c0.6-0.2,1.2-0.4,1.8-0.5l0-2.1
		l2.7,0l0,2.1c0.6,0.1,1.2,0.2,1.8,0.5l1-1.8l2.3,1.3l-1,1.8c0.5,0.4,0.9,0.8,1.3,1.3l1.1-0.6v-2c0-0.3-0.1-0.5-0.3-0.7L26.7,8.7
		c-0.3-0.3-0.9-0.3-1.2,0L16,16.9c0.1,0-0.5,0.4-2.6,2.3c-0.2,0.2-0.6,0.7-0.5,1c0,4,0,13.8,0,14.5c-0.2,0.9,0.3,1.4,0.9,1.4
		c3.8,0,8.5,0.1,10.5,0h1.2L26.2,34.8z"/>
</g>
</svg>
