<?xml version="1.0" encoding="utf-8"?>
<!-- Generator: Adobe Illustrator 20.0.0, SVG Export Plug-In . SVG Version: 6.00 Build 0)  -->
<svg version="1.1" xmlns="http://www.w3.org/2000/svg" xmlns:xlink="http://www.w3.org/1999/xlink" x="0px" y="0px"
	 viewBox="0 0 50 50" style="enable-background:new 0 0 50 50;" xml:space="preserve">
<style type="text/css">
	.st0{display:none;}
	.st1{display:inline;}
	.st2{fill:#FFFFFF;}
</style>
<g id="Capa_1" class="st0">
	<g class="st1">
		<path class="st2" d="M25,0C11.8,0,1,11.2,1,25s10.7,25,24,25s24-11.2,24-25S38.3,0,25,0 M25,1.6c12.4,0,22.5,10.5,22.5,23.4
			S37.4,48.4,25,48.4S2.6,37.9,2.6,25S12.6,1.6,25,1.6"/>
		<path class="st2" d="M25,1.4C37.5,1.4,47.6,12,47.6,25S37.5,48.6,25,48.6C12.6,48.6,2.4,38,2.4,25S12.6,1.4,25,1.4 M25,0
			C11.8,0,1,11.2,1,25s10.7,25,24,25s24-11.2,24-25S38.3,0,25,0"/>
		<path class="st2" d="M27.8,38.2c-0.1-0.2-0.3-0.3-0.5-0.3s-0.4,0.1-0.6,0.2c-1,1.2-2,2.3-3.3,3.2c-0.3,0.2-0.4,0.7-0.1,1
			c0.1,0.2,0.3,0.3,0.5,0.3c0.1,0,0.3,0,0.4-0.1c1-0.8,2-1.7,2.9-2.7c0.3,0.4,0.5,0.8,0.8,1.2c0.2,0.3,0.7,0.3,0.9,0.1
			c0.1-0.1,0.2-0.3,0.2-0.5s0-0.4-0.2-0.5C28.5,39.4,28.1,38.8,27.8,38.2"/>
		<path class="st2" d="M28.8,31c0-0.3-0.2-0.6-0.5-0.7s-0.6,0.1-0.7,0.4c-1.5,3.6-3.6,7.2-8.3,9.7C19,40.6,18.8,41,19,41.3
			c0.1,0.2,0.3,0.4,0.6,0.4c0.1,0,0.2,0,0.3-0.1c4.5-2.4,6.7-5.8,7.9-8.2c0.3,1.7,1,3.9,2.6,5.7c0.1,0.1,0.3,0.2,0.5,0.2
			s0.3-0.1,0.5-0.2c0.1-0.1,0.2-0.3,0.2-0.5s-0.1-0.4-0.2-0.5C28.9,35.4,28.8,31,28.8,31"/>
		<path class="st2" d="M36,13.8c-1.7-2.9-4.3-5-7.6-5.8c-7.7-2-13.6,3.6-15.2,9.9l-0.1,0.6c-0.3,1.4-0.8,2.8-1.6,3.9
			c-0.2,0.3-0.1,0.7,0.2,1c0.1,0.1,0.3,0.1,0.5,0.1s0.3-0.1,0.4-0.3c0.9-1.3,1.5-2.8,1.8-4.5l0.1-0.6c1.4-5.6,6.7-10.7,13.6-8.9
			c2.9,0.7,5.3,2.6,6.7,5.1c2.1,3.8,1.6,7.8,1.3,9.4v0.1c-0.4,1.8-0.5,3.8-0.3,5.4c0,0.4,0.3,0.6,0.7,0.6c0,0,0,0,0.1,0
			c0.2,0,0.3-0.1,0.4-0.3c0.1-0.1,0.2-0.3,0.1-0.5c-0.1-1.5,0-3.3,0.3-5l0,0C37.8,22.5,38.4,18,36,13.8"/>
		<path class="st2" d="M34.6,23.6L34.6,23.6c0-0.1,0-0.1,0-0.1l0,0c0-0.1,0-0.2,0.1-0.4c0-0.1,0-0.1,0-0.2s0-0.3,0.1-0.4
			c0-0.1,0-0.3,0-0.4s0-0.2,0-0.3c0-0.2,0-0.4,0-0.6c0-0.1,0-0.1,0-0.2c0-0.3,0-0.6,0-0.8v-0.1c0-0.3,0-0.7-0.1-1V19
			c-0.1-0.4-0.1-0.7-0.2-1.1c0-0.1-0.1-0.2-0.1-0.3c-0.1-0.3-0.2-0.6-0.3-1c-0.2-0.4-0.4-0.8-0.6-1.2c-1.2-2.2-3.3-3.7-5.7-4.4
			c-5.9-1.5-10.5,2.9-11.7,7.7L16,19.1l0,0l0,0c-0.7,3.8-2.8,6.3-4.3,7.7c-0.1,0.1-0.2,0.3-0.2,0.5s0,0.4,0.2,0.5
			c0.1,0.1,0.3,0.2,0.5,0.2s0.3,0,0.5-0.2c1.7-1.6,4-4.3,4.8-8.5l0.1-0.4c0.1-0.3,0.1-0.5,0.2-0.7l0,0c1.3-3.9,5.1-7.1,9.9-5.9
			c2.1,0.5,3.8,1.9,4.9,3.7c0.1,0.2,0.2,0.4,0.3,0.6c0.1,0.2,0.2,0.3,0.2,0.5c0,0.1,0.1,0.3,0.1,0.4c0.1,0.2,0.2,0.5,0.2,0.7
			c0,0.1,0,0.2,0.1,0.3c0.1,0.3,0.1,0.5,0.2,0.8c0,0.1,0,0.1,0,0.2c0,0.3,0.1,0.6,0.1,0.8c0,0.1,0,0.1,0,0.1c0,0.3,0,0.5,0,0.8
			c0,0.1,0,0.1,0,0.2c0,0.2,0,0.5,0,0.7c0,0.1,0,0.2,0,0.3c0,0.1,0,0.3-0.1,0.4c0,0.2-0.1,0.3-0.1,0.5v0.1v0.1
			c-0.3,1.6-1.1,7.1,0.9,10.4c0.1,0.2,0.3,0.3,0.6,0.3c0.1,0,0.2,0,0.4-0.1s0.3-0.3,0.3-0.4c0-0.2,0-0.4-0.1-0.5
			C33.4,30.1,34.4,24.7,34.6,23.6"/>
		<path class="st2" d="M31.7,23L31.7,23c0.2-1.1,0.6-3.8-0.7-6.2c-0.9-1.5-2.2-2.5-3.9-3c-4.2-1.1-7.3,2-8.2,5.5v0.2
			c-1.1,6.1-5.1,9.4-6.7,10.6c-0.3,0.2-0.4,0.6-0.2,1c0.2,0.3,0.6,0.4,0.9,0.2c1.8-1.2,6.1-4.9,7.3-11.4v-0.2
			c0.7-2.9,3.2-5.4,6.6-4.5c1.3,0.3,2.4,1.1,3.1,2.3c1.1,2,0.7,4.4,0.6,5.1v0.1c-0.5,2.8-1.4,9.8,2.1,13.9c0.1,0.1,0.3,0.2,0.5,0.2
			s0.3-0.1,0.4-0.2c0.1-0.1,0.2-0.3,0.2-0.5s-0.1-0.4-0.2-0.5C30.3,32,31.3,25.1,31.7,23"/>
		<path class="st2" d="M26.7,29.6c1.6-3.6,2.1-6.9,2.1-7.2c0.1-0.4,0.5-2.4-0.4-3.9c-0.4-0.8-1.1-1.3-2.1-1.6
			c-2.8-0.7-4.3,1.9-4.7,3.4c-1.4,7.2-6.1,11.2-8.1,12.6c-0.3,0.2-0.4,0.6-0.2,1c0.2,0.3,0.6,0.4,0.9,0.2c2.1-1.5,7.2-5.7,8.7-13.4
			c0-0.1,0.8-2.9,3.1-2.4c0.6,0.1,1,0.4,1.2,0.9c0.6,1.1,0.2,2.9,0.2,2.9v0.1c0,0.1-0.4,3.1-1.9,6.5c-1.4,3.1-3.9,7.3-8.5,9.4
			c-0.3,0.2-0.5,0.6-0.3,0.9c0.1,0.2,0.3,0.4,0.6,0.4c0.1,0,0.2,0,0.3-0.1C21.5,37.5,24.6,34.3,26.7,29.6"/>
		<path class="st2" d="M26,21.2c0-0.2,0-0.4-0.1-0.5c-0.1-0.2-0.3-0.3-0.4-0.3c-0.4-0.1-0.7,0.2-0.8,0.6c0,0.1-2,10.9-10,14.6
			c-0.2,0.1-0.3,0.2-0.4,0.4c-0.1,0.2-0.1,0.4,0,0.5c0.1,0.3,0.3,0.4,0.6,0.4c0.1,0,0.2,0,0.3-0.1C23.9,32.9,25.9,21.7,26,21.2"/>
	</g>
</g>
<g id="Capa_2">
	<g>
		<g>
			<path class="st2" d="M25,2.3c12.5,0,22.7,10.2,22.7,22.7c0,12.5-10.2,22.7-22.7,22.7C12.5,47.7,2.3,37.5,2.3,25
				C2.3,12.5,12.5,2.3,25,2.3 M25,0.7C11.6,0.7,0.7,11.6,0.7,25c0,13.4,10.9,24.3,24.3,24.3c13.4,0,24.3-10.9,24.3-24.3
				C49.3,11.6,38.4,0.7,25,0.7"/>
		</g>
		<polygon class="st2" points="25.2,24.5 33.4,20 24.7,15 16.4,19.7 16.4,19.7 		"/>
		<g>
			<path class="st2" d="M15.6,20.1l-7.3,4.1c-0.2,0.1-0.4,0.4-0.4,0.7c0,0.3,0.1,0.5,0.4,0.7l7.4,4.2L15.6,20.1L15.6,20.1z"/>
			<path class="st2" d="M34.1,11c0-0.3-0.1-0.5-0.4-0.7c-0.2-0.1-0.5-0.1-0.8,0l-7.5,4.3l8.7,5V11z"/>
		</g>
		<polygon class="st2" points="25.4,34.4 34.1,29.7 34.1,20.4 25.4,25.2 		"/>
		<polygon class="st2" points="24.7,25 16.4,20.5 16.4,30.1 24.7,34.8 24.7,34.8 		"/>
		<g>
			<path class="st2" d="M25.4,35.2L25.4,35.2l7.6,4.3c0.1,0.1,0.2,0.1,0.4,0.1c0.1,0,0.3,0,0.4-0.1c0.2-0.1,0.4-0.4,0.4-0.7v-8.4
				L25.4,35.2z"/>
		</g>
	</g>
</g>
</svg>
