<?xml version="1.0" encoding="utf-8"?>
<!-- Generator: Adobe Illustrator 19.2.1, SVG Export Plug-In . SVG Version: 6.00 Build 0)  -->
<svg version="1.1" id="Capa_1" xmlns="http://www.w3.org/2000/svg" xmlns:xlink="http://www.w3.org/1999/xlink" x="0px" y="0px"
	 viewBox="0 0 50 50" style="enable-background:new 0 0 50 50;" xml:space="preserve">
<style type="text/css">
	.st0{fill:#FFFFFF;}
	.st1{font-family:'HelveticaNeue-Medium';}
	.st2{font-size:6.1337px;}
</style>
<g>
	<path class="st0" d="M42.6,23c0.4,0.4,0.9,0.5,1.4,0.5c0.6,0,1.2-0.2,1.6-0.7c0.8-0.9,0.7-2.2-0.2-3.1L26.5,3.3
		c-0.8-0.7-2-0.7-2.8,0L4.6,19.7c-0.9,0.8-1.1,2.1-0.2,3.1c0.8,0.9,2.1,1.1,3.1,0.2L25.1,7.8L42.6,23z"/>
	<path class="st0" d="M38.5,33.7c0-0.4,0.1-0.7,0.1-1.1c0-3.9-3.2-7.1-7.2-7.1c-3.9,0-7.1,3.2-7.1,7.2c0,3.9,3.2,7.1,7.2,7.1
		c0.6,0,1.3-0.1,1.9-0.2c0.4,0.7,0.7,1.6,1.2,2.6h4.8c-6.1-5.3-6.1-5.3-6.1-5.3l2.5-2.7l4.8,4.6v-4.1L38.5,33.7z M35.6,33.9
		l-2.6,2.7c-0.4,0.1-0.8,0.2-1.3,0.2c-1.1,0-2.1-0.4-2.9-1.1c-1.3-1.2-1.6-3.1-0.9-4.6c0-0.1,0.1-0.1,0.2-0.1c0.1,0,0.2,0,0.2,0.1
		l2.6,2.5c0.4,0.4,1.1,0.4,1.4,0c0.2-0.2,0.2-0.5,0.2-0.7s-0.1-0.5-0.4-0.7l-2.6-2.5c0-0.2,0-0.2,0-0.4s0.1-0.1,0.1-0.2
		c0.6-0.2,1.2-0.5,1.8-0.5c1.1,0,2.1,0.4,2.9,1.1C35.5,30.9,36,32.5,35.6,33.9"/>
	<text transform="matrix(1 0 0 1 40.5652 48.7517)" class="st0 st1 st2"> </text>
	<path class="st0" d="M25.2,40.6c-0.6-0.5-1.1-0.9-1.5-1.5l-2.2,1.3l-1.6-2.7l2.1-1.3c-0.2-0.7-0.5-1.4-0.6-2.1h-2.5v-3.2h2.5
		c0.1-0.7,0.2-1.4,0.6-2.1l-2.1-1.2l1.5-2.7l2.1,1.2c0.5-0.6,0.9-1.1,1.5-1.5l-1.2-2.1l2.7-1.6l1.3,2.1c0.7-0.2,1.4-0.5,2.1-0.6
		v-2.5h3.2v2.5c0.7,0.1,1.4,0.2,2.1,0.6l1.2-2.1l2.7,1.5l-1.2,2.1c0.6,0.5,1.1,0.9,1.5,1.5l1.3-0.7v-2.4c0-0.4-0.1-0.6-0.4-0.8
		L25.8,9.9c-0.4-0.4-1.1-0.4-1.4,0l-11.2,9.6c0.1,0-0.6,0.5-3.1,2.7c-0.2,0.2-0.7,0.8-0.6,1.2c0,4.7,0,16.2,0,17.1
		c-0.2,1.1,0.4,1.6,1.1,1.6c4.5,0,10,0.1,12.4,0h1.4L25.2,40.6z"/>
</g>
</svg>
