<?xml version="1.0" encoding="utf-8"?>
<!-- Generator: Adobe Illustrator 20.0.0, SVG Export Plug-In . SVG Version: 6.00 Build 0)  -->
<svg version="1.1" id="Capa_1" xmlns="http://www.w3.org/2000/svg" xmlns:xlink="http://www.w3.org/1999/xlink" x="0px" y="0px"
	 viewBox="0 0 136.3 23.1" style="enable-background:new 0 0 136.3 23.1;" xml:space="preserve">
<style type="text/css">
	.st0{fill:#474747;}
</style>
<g id="Capa_2">
</g>
<g id="Capa_1_1_">
	<g>
		<path class="st0" d="M64.8,10.6c1.4,0,3.1,0,4.8,0c1.1,0,1.4,0.6,1.4,1.4c0,5.4-4.3,10.2-9.7,10.8c-6,0.6-11.1-3.1-12.2-9.1
			S52.2,2,58.2,0.9c3.7-0.6,6.8,0.6,9.4,2.8c0.6,0.6,0.9,1.4,0.3,2s-1.4,0.6-2,0c-2.8-2-5.4-2.8-8.5-1.7s-4.8,3.1-5.4,6.3
			c-1.1,4.3,2,8.8,6.3,9.7c4.5,1.1,9.1-2,9.9-6.3c0-0.3,0-0.6-0.3-0.6c-2.6,0-5.1,0-7.4,0c-0.9,0-1.4-0.6-1.4-1.1
			c0-0.9,0.6-1.4,1.4-1.4C61.7,10.6,63.1,10.6,64.8,10.6z"/>
		<path class="st0" d="M34.7,1c6,0,10.8,4.8,11.1,10.5c0.3,6.3-4.8,11.4-11.1,11.4s-11.1-5.1-11.1-11.4C23.9,5.8,28.7,1,34.7,1z
			 M34.7,3.8c-4.5,0-8.2,3.7-8.2,8.5c0,4.5,4,8.2,8.5,8c4.3-0.3,8-3.7,8-8.5C42.9,7.5,39.2,3.8,34.7,3.8z"/>
		<path class="st0" d="M83.3,5.5c-0.3,0.6-0.6,0.9-0.9,1.4c-2.6,5.1-5.1,10.2-7.7,15.3c-0.3,0.6-0.9,0.9-1.4,0.6
			c-0.6,0-1.1-0.6-1.1-1.1c0-0.3,0-0.6,0.3-1.1c2.6-5.1,5.1-10.2,7.7-15.3c0.6-1.1,1.1-2.3,1.7-3.4C82.2,1.3,82.5,1,83.3,1
			c0.6,0,1.1,0.3,1.4,0.9c3.1,6.3,6.3,12.5,9.4,18.8c0.3,1.1,0,2-0.9,2.3s-1.4,0-2-0.9c-2.8-5.4-5.4-10.8-8-16.2
			C83.3,5.8,83.3,5.8,83.3,5.5z"/>
		<path class="st0" d="M10.5,17.2c0-1.4,0-2.8,0-4.3c0-0.3,0-0.6-0.3-0.9C7.4,9.2,4.5,6.3,2,3.5C1.7,3.2,1.7,3.2,1.4,2.9
			c-0.6-0.6-0.6-1.4,0-2s1.4-0.6,2,0c2.8,2.8,5.4,5.4,8,8.2c0.3,0.3,0.6,0.6,1.1,0c2.8-2.8,5.4-5.4,8-8.2c0.6-0.6,1.4-0.6,2,0
			s0.6,1.1,0.3,1.7l-0.3,0.3c-2.8,2.8-5.7,5.7-8.8,8.8c-0.3,0.3-0.3,0.6-0.3,0.9c0,2.8,0,5.7,0,8.5c0,0.9-0.3,1.1-1.1,1.4
			c-0.6,0.3-1.1,0-1.4-0.6c-0.3-0.3-0.3-0.6-0.3-0.9C10.5,20,10.5,18.6,10.5,17.2z"/>
	</g>
	<g>
		<path class="st0" d="M94.2,0.5h4.6c0.7,0,1.2,0.1,1.7,0.2s0.9,0.5,1.2,0.7c0.5,0.5,0.7,1,0.7,1.9l0,0c0,0.3-0.1,0.7-0.1,1
			c-0.1,0.2-0.2,0.6-0.5,0.8c-0.1,0.1-0.3,0.3-0.6,0.5c-0.2,0.1-0.5,0.2-0.7,0.3c0.3,0.1,0.7,0.2,0.9,0.3c0.3,0.1,0.6,0.3,0.8,0.6
			c0.2,0.2,0.5,0.5,0.6,0.8s0.2,0.6,0.2,1l0,0c0,0.5-0.1,0.9-0.2,1.3c-0.2,0.3-0.5,0.7-0.8,0.9s-0.8,0.5-1.3,0.6s-1,0.2-1.6,0.2h-5
			V0.5H94.2z M98.9,5.7c0.5,0,0.8,0,1.2-0.1c0.3-0.1,0.7-0.2,0.9-0.5c0.2-0.2,0.5-0.5,0.6-0.7c0.1-0.3,0.2-0.6,0.2-1l0,0
			c0-0.6-0.2-1.2-0.7-1.5S99.9,1.3,99,1.3h-3.8v4.5L98.9,5.7L98.9,5.7z M99.2,11.2c0.9,0,1.7-0.2,2.3-0.6c0.6-0.5,0.8-0.9,0.8-1.7
			l0,0c0-0.7-0.3-1.3-0.9-1.6c-0.6-0.3-1.5-0.6-2.6-0.6H95v4.5H99.2z"/>
		<path class="st0" d="M109,12.1c-0.8,0-1.6-0.1-2.3-0.5c-0.7-0.3-1.3-0.8-1.9-1.3c-0.5-0.5-0.8-1.2-1.2-1.9
			c-0.2-0.7-0.5-1.5-0.5-2.2l0,0c0-0.8,0.1-1.5,0.5-2.2c0.2-0.7,0.7-1.3,1.2-1.9s1.2-0.9,1.9-1.3c0.7-0.3,1.5-0.5,2.3-0.5
			s1.6,0.1,2.3,0.5s1.3,0.8,1.9,1.3s0.8,1.2,1.2,1.9c0.2,0.7,0.5,1.5,0.5,2.2l0,0c0,0.8-0.1,1.5-0.5,2.2c-0.2,0.7-0.7,1.3-1.2,1.9
			c-0.5,0.6-1.2,0.9-1.9,1.3C110.6,11.9,109.8,12.1,109,12.1z M109,11.3c0.7,0,1.4-0.1,2-0.3s1.2-0.6,1.5-1c0.5-0.5,0.8-1,1-1.6
			s0.3-1.3,0.3-2l0,0c0-0.7-0.1-1.4-0.3-2c-0.2-0.6-0.6-1.2-1-1.6S111.6,2,111,1.6c-0.6-0.2-1.3-0.5-2-0.5s-1.4,0.1-2,0.3
			s-1.2,0.6-1.5,1c-0.5,0.5-0.8,1-1,1.6s-0.3,1.3-0.3,2l0,0c0,0.7,0.1,1.4,0.3,2c0.2,0.6,0.6,1.2,1,1.6c0.5,0.5,0.9,0.8,1.5,1.2
			C107.6,11.2,108.3,11.3,109,11.3z"/>
		<path class="st0" d="M120.5,12.1c-0.8,0-1.6-0.1-2.3-0.5s-1.3-0.8-1.9-1.3c-0.5-0.5-0.8-1.2-1.2-1.9c-0.2-0.7-0.5-1.5-0.5-2.2l0,0
			c0-0.8,0.1-1.5,0.5-2.2c0.2-0.7,0.7-1.3,1.2-1.9s1.2-0.9,1.9-1.3c0.7-0.3,1.5-0.5,2.3-0.5s1.6,0.1,2.3,0.5s1.3,0.8,1.9,1.3
			s0.8,1.2,1.2,1.9c0.2,0.7,0.5,1.5,0.5,2.2l0,0c0,0.8-0.1,1.5-0.5,2.2c-0.2,0.7-0.7,1.3-1.2,1.9c-0.5,0.6-1.2,0.9-1.9,1.3
			C122.1,11.9,121.3,12.1,120.5,12.1z M120.5,11.3c0.7,0,1.4-0.1,2-0.3s1.2-0.6,1.5-1c0.5-0.5,0.8-1,1-1.6s0.3-1.3,0.3-2l0,0
			c0-0.7-0.1-1.4-0.3-2s-0.6-1.2-1-1.6s-0.9-0.8-1.5-1.2c-0.6-0.2-1.3-0.5-2-0.5s-1.4,0.1-2,0.3s-1.2,0.6-1.5,1
			c-0.5,0.5-0.8,1-1,1.6s-0.3,1.3-0.3,2l0,0c0,0.7,0.1,1.4,0.3,2s0.6,1.2,1,1.6c0.5,0.5,0.9,0.8,1.5,1.2
			C119.2,11.2,119.8,11.3,120.5,11.3z"/>
		<path class="st0" d="M126.8,0.5h0.8v7.6l7.3-7.6h1.2l-5,5l5.2,6.4h-1.2l-4.6-5.8L127.6,9v2.9h-0.8L126.8,0.5L126.8,0.5z"/>
	</g>
</g>
<g>
	<path class="st0" d="M95.6,17.7c-0.3,0-0.5,0-0.7-0.1s-0.4-0.2-0.6-0.4c-0.2-0.2-0.3-0.4-0.4-0.6c-0.1-0.2-0.1-0.5-0.1-0.7l0,0
		c0-0.3,0-0.5,0.1-0.7c0.1-0.2,0.2-0.4,0.4-0.6c0.2-0.2,0.4-0.3,0.6-0.4c0.2-0.1,0.5-0.1,0.7-0.1s0.3,0,0.4,0c0.1,0,0.3,0.1,0.4,0.1
		c0.1,0,0.2,0.1,0.3,0.2c0.1,0.1,0.2,0.1,0.3,0.2l-0.3,0.3c-0.2-0.1-0.3-0.3-0.5-0.4c-0.2-0.1-0.4-0.1-0.6-0.1s-0.4,0-0.6,0.1
		s-0.3,0.2-0.4,0.3c-0.1,0.1-0.2,0.3-0.3,0.5s-0.1,0.4-0.1,0.6l0,0c0,0.2,0,0.4,0.1,0.6c0.1,0.2,0.2,0.3,0.3,0.5
		c0.1,0.1,0.3,0.2,0.4,0.3c0.2,0.1,0.4,0.1,0.6,0.1s0.5,0,0.6-0.1c0.2-0.1,0.4-0.2,0.5-0.4l0.3,0.3c-0.1,0.1-0.2,0.2-0.3,0.3
		c-0.1,0.1-0.2,0.1-0.3,0.2c-0.1,0.1-0.2,0.1-0.4,0.1C95.9,17.7,95.8,17.7,95.6,17.7z"/>
	<path class="st0" d="M99.4,17.7c-0.3,0-0.5,0-0.8-0.2c-0.2-0.1-0.4-0.2-0.6-0.4c-0.2-0.2-0.3-0.4-0.4-0.6c-0.1-0.2,0-0.4,0-0.6l0,0
		c0-0.2,0-0.5,0.1-0.7c0.1-0.2,0.2-0.4,0.4-0.6c0.2-0.2,0.4-0.3,0.6-0.4c0.2-0.1,0.5-0.2,0.8-0.2s0.5,0,0.8,0.1
		c0.2,0.1,0.4,0.2,0.6,0.4s0.3,0.4,0.4,0.6c0.1,0.2,0.1,0.5,0.1,0.7l0,0c0,0.2,0,0.5-0.1,0.7c-0.1,0.2-0.2,0.4-0.4,0.6
		s-0.4,0.3-0.6,0.4C99.9,17.7,99.6,17.7,99.4,17.7z M99.4,17.4c0.2,0,0.4,0,0.6-0.1s0.3-0.2,0.4-0.3c0.1-0.1,0.2-0.3,0.3-0.5
		s0.1-0.4,0.1-0.6l0,0c0-0.2,0-0.4-0.1-0.6c-0.1-0.2-0.2-0.3-0.3-0.5c-0.1-0.1-0.3-0.2-0.5-0.3s-0.4-0.1-0.6-0.1s-0.4,0-0.6,0.1
		s-0.3,0.2-0.4,0.3c-0.1,0.1-0.2,0.3-0.3,0.5s-0.1,0.4-0.1,0.6l0,0c0,0.2,0,0.4,0.1,0.6c0.1,0.2,0.2,0.3,0.3,0.5
		c0.1,0.1,0.3,0.2,0.5,0.3C99.1,17.3,99.1,17.4,99.4,17.4z"/>
	<path class="st0" d="M102.1,14h0.4l2.3,2.9V14h0.4v3.6h-0.3l-2.3-3v3h-0.4V14H102.1z"/>
	<path class="st0" d="M107.4,14h0.4l1,3l1-3h0.3l1,3l1-3h0.4l-1.3,3.7h-0.3l-1-2.9l-1,2.9h-0.3L107.4,14z"/>
	<path class="st0" d="M113.6,14h0.4v3.6h-0.4V14z"/>
	<path class="st0" d="M115.1,14h0.4l2.3,2.9V14h0.4v3.6h-0.3l-2.3-3v3h-0.4L115.1,14L115.1,14z"/>
	<path class="st0" d="M119.1,14h1.3c0.3,0,0.5,0,0.8,0.1c0.2,0.1,0.4,0.2,0.6,0.4s0.3,0.4,0.4,0.6c0.1,0.2,0.1,0.5,0.1,0.7l0,0
		c0,0.3,0,0.5-0.1,0.7c-0.1,0.2-0.2,0.4-0.4,0.6s-0.4,0.3-0.6,0.4s-0.5,0.1-0.8,0.1h-1.3V14z M120.4,17.3c0.2,0,0.4,0,0.6-0.1
		s0.3-0.2,0.5-0.3c0.1-0.1,0.2-0.3,0.3-0.5s0.1-0.4,0.1-0.6l0,0c0-0.2,0-0.4-0.1-0.6c-0.1-0.2-0.2-0.3-0.3-0.5
		c-0.1-0.1-0.3-0.2-0.5-0.3s-0.4-0.1-0.6-0.1h-0.8v2.9h0.8V17.3z"/>
	<path class="st0" d="M124.9,17.7c-0.3,0-0.5,0-0.8-0.2c-0.2-0.1-0.4-0.2-0.6-0.4c-0.2-0.2-0.3-0.4-0.4-0.6
		c-0.1-0.2-0.1-0.5-0.1-0.7l0,0c0-0.2,0-0.5,0.1-0.7c0.1-0.2,0.2-0.4,0.4-0.6c0.2-0.2,0.4-0.3,0.6-0.4c0.2-0.1,0.5-0.2,0.8-0.2
		s0.5,0,0.8,0.1c0.2,0.1,0.4,0.2,0.6,0.4s0.3,0.4,0.4,0.6c0.1,0.2,0.1,0.5,0.1,0.7l0,0c0,0.2,0,0.5-0.1,0.7
		c-0.1,0.2-0.2,0.4-0.4,0.6c-0.2,0.2-0.4,0.3-0.6,0.4C125.4,17.7,125.1,17.7,124.9,17.7z M124.9,17.4c0.2,0,0.4,0,0.6-0.1
		s0.3-0.2,0.4-0.3c0.1-0.1,0.2-0.3,0.3-0.5c0.1-0.2,0.1-0.4,0.1-0.6l0,0c0-0.2,0-0.4-0.1-0.6c-0.1-0.2-0.2-0.3-0.3-0.5
		c-0.1-0.1-0.3-0.2-0.5-0.3s-0.4-0.1-0.6-0.1s-0.4,0-0.6,0.1s-0.3,0.2-0.4,0.3c-0.1,0.1-0.2,0.3-0.3,0.5c-0.1,0.2-0.1,0.4-0.1,0.6
		l0,0c0,0.2,0,0.4,0.1,0.6c0.1,0.2,0.2,0.3,0.3,0.5c0.1,0.1,0.3,0.2,0.5,0.3S124.6,17.4,124.9,17.4z"/>
	<path class="st0" d="M127.4,14h0.4l1,3l1-3h0.3l1,3l1-3h0.4l-1.3,3.7h-0.3l-1-2.9l-1,2.9h-0.3L127.4,14z"/>
	<path class="st0" d="M134.6,17.7c-0.3,0-0.6,0-0.8-0.1s-0.5-0.2-0.7-0.4l0.3-0.3c0.2,0.2,0.4,0.3,0.6,0.4c0.2,0.1,0.4,0.1,0.7,0.1
		c0.2,0,0.4-0.1,0.6-0.2c0.1-0.1,0.2-0.3,0.2-0.4l0,0c0-0.1,0-0.2,0-0.2c0-0.1-0.1-0.1-0.1-0.2c-0.1-0.1-0.2-0.1-0.3-0.2
		c-0.1,0-0.3-0.1-0.5-0.1s-0.4-0.1-0.5-0.2c-0.2-0.1-0.3-0.1-0.4-0.2c-0.1-0.1-0.2-0.2-0.2-0.3s-0.1-0.2-0.1-0.4l0,0
		c0-0.1,0-0.3,0.1-0.4c0.1-0.1,0.1-0.2,0.2-0.3c0.1-0.1,0.2-0.2,0.4-0.2c0.1,0,0.3-0.1,0.5-0.1c0.3,0,0.5,0,0.7,0.1s0.4,0.2,0.6,0.3
		l-0.2,0.3c-0.2-0.1-0.3-0.2-0.5-0.3s-0.4-0.1-0.5-0.1c-0.2,0-0.4,0.1-0.6,0.2c-0.1,0.1-0.2,0.3-0.2,0.4l0,0c0,0.1,0,0.2,0,0.2
		c0,0.1,0.1,0.1,0.2,0.2c0.1,0.1,0.2,0.1,0.3,0.2c0.1,0,0.3,0.1,0.5,0.1c0.4,0.1,0.7,0.2,0.9,0.4c0.2,0.2,0.3,0.4,0.3,0.7l0,0
		c0,0.2,0,0.3-0.1,0.4s-0.1,0.2-0.3,0.3c-0.1,0.1-0.2,0.2-0.4,0.2C134.9,17.7,134.8,17.7,134.6,17.7z"/>
</g>
</svg>
