<svg id="Capa_1" data-name="Capa 1" xmlns="http://www.w3.org/2000/svg" viewBox="0 0 100 100"><defs><style>.cls-1{fill:#4da7bc;}</style></defs><title>icon</title><path class="cls-1" d="M27,31.73V47.14H42.61V31.73h4.21V68.58H42.61V51.3H27V68.58H22.86V31.73Z"/><path class="cls-1" d="M52.68,32.2a56.92,56.92,0,0,1,9.21-.76C68.1,31.44,72.53,33,75.47,36s4.73,7.21,4.73,13.12S78.51,60,75.37,63.32s-8.31,5.26-14.83,5.26a64.17,64.17,0,0,1-7.86-.43ZM57,64.51a25.17,25.17,0,0,0,4.38.27c9.26,0,14.29-5.64,14.29-15.51,0-8.62-4.43-14.1-13.59-14.1a22.63,22.63,0,0,0-5.08.49Z"/><path class="cls-1" d="M50.09.17A49.91,49.91,0,1,0,100,50.09,49.91,49.91,0,0,0,50.09.17ZM49.74,96A45.69,45.69,0,1,1,95.43,50.29,45.69,45.69,0,0,1,49.74,96Z"/></svg>