<?xml version="1.0" encoding="utf-8"?>
<!-- Generator: Adobe Illustrator 16.0.0, SVG Export Plug-In . SVG Version: 6.00 Build 0)  -->
<!DOCTYPE svg PUBLIC "-//W3C//DTD SVG 1.1//EN" "http://www.w3.org/Graphics/SVG/1.1/DTD/svg11.dtd">
<svg version="1.1" id="Capa_6" xmlns="http://www.w3.org/2000/svg" xmlns:xlink="http://www.w3.org/1999/xlink" x="0px" y="0px"
	 width="594.565px" height="595.281px" viewBox="124.019 0 594.565 595.281" enable-background="new 124.019 0 594.565 595.281"
	 xml:space="preserve">
<title>icon</title>
<g id="Capa_8">
	<path fill="#FFFFFF" d="M421.302,0.715c-164.185,0-297.283,133.098-297.283,297.282c0,164.186,133.099,297.284,297.283,297.284
		s297.282-133.099,297.282-297.283C718.584,133.812,585.487,0.715,421.302,0.715L421.302,0.715z M419.218,571.469
		c-150.311,0-272.162-121.852-272.162-272.162c0-150.312,121.852-272.162,272.162-272.162c150.288,0,272.13,121.814,272.162,272.103
		c0.033,150.311-121.791,272.188-272.103,272.222C419.258,571.469,419.239,571.469,419.218,571.469z"/>
	<path fill="#FFFFFF" d="M276.887,365.145h-16.072V233.291h78.637v14.465h-62.564v42.563h55.48v14.466h-55.48V365.145z"/>
	<path fill="#FFFFFF" d="M378.62,290.378h69.112v-57.087h16.072v131.854h-16.072v-60.302H378.62v60.302h-16.013V233.291h16.072
		L378.62,290.378z"/>
	<path fill="#FFFFFF" d="M604.053,298.652c0.048,7.319-0.914,14.611-2.857,21.668c-1.808,6.542-4.728,12.724-8.632,18.275
		c-3.934,5.497-8.812,10.254-14.405,14.049c-6.218,4.149-13.076,7.246-20.3,9.167c-4.674,1.301-9.455,2.178-14.286,2.619
		c-5.119,0.477-10.676,0.715-16.668,0.715h-29.764V233.291h30.121c5.992,0,11.548,0.237,16.668,0.714
		c4.831,0.441,9.612,1.318,14.286,2.619c7.146,1.925,13.938,4.979,20.12,9.049c5.548,3.69,10.388,8.348,14.287,13.751
		c3.822,5.423,6.682,11.464,8.453,17.858C603.049,284.234,604.051,291.426,604.053,298.652z M588.099,298.652
		c0.486-10.884-2.449-21.646-8.394-30.776c-5.862-8.062-14.238-13.946-23.811-16.727c-4.363-1.317-8.853-2.176-13.394-2.561
		c-4.921-0.476-10.478-0.714-16.668-0.714h-12.501v102.805h12.263c6.19,0,11.747-0.237,16.668-0.714
		c4.541-0.385,9.03-1.243,13.394-2.56c9.681-2.856,18.086-8.951,23.812-17.264C585.477,320.766,588.488,309.782,588.099,298.652z"/>
</g>
</svg>
