<?xml version="1.0" encoding="utf-8"?>
<!-- Generator: Adobe Illustrator 16.0.0, SVG Export Plug-In . SVG Version: 6.00 Build 0)  -->
<!DOCTYPE svg PUBLIC "-//W3C//DTD SVG 1.1//EN" "http://www.w3.org/Graphics/SVG/1.1/DTD/svg11.dtd">
<svg version="1.1" id="Capa_6" xmlns="http://www.w3.org/2000/svg" xmlns:xlink="http://www.w3.org/1999/xlink" x="0px" y="0px"
	 width="594.208px" height="595.281px" viewBox="124.376 0 594.208 595.281" enable-background="new 124.376 0 594.208 595.281"
	 xml:space="preserve">
<title>icon</title>
<g id="Capa_10">
	<path fill="#FFFFFF" d="M421.481,0C257.395,0,124.376,133.018,124.376,297.104c0,164.087,133.019,297.104,297.104,297.104
		s297.104-133.018,297.104-297.104C718.584,133.018,585.567,0,421.481,0L421.481,0z M419.397,570.279
		c-150.212,0-271.983-121.771-271.983-271.984c0-150.212,121.771-271.983,271.983-271.983
		c150.213,0,271.983,121.771,271.983,271.983c0,0.021,0,0.04,0,0.06C691.348,448.544,569.586,570.279,419.397,570.279z"/>
	<path fill="#FFFFFF" d="M487.615,208.348l-35.002-45.182H384.87l-27.918,45.182h-96.078V409.91h313.533V208.348H487.615z
		 M553.573,387.29H283.019V224.838h82.922l23.812-36.432h58.456l30.181,36.432h75.184V387.29z"/>
	<polygon fill="#FFFFFF" points="283.019,174.298 283.019,208.408 294.507,208.408 294.507,186.263 327.724,186.263 
		327.724,208.408 338.379,208.408 338.379,174.298 	"/>
	<path fill="#FFFFFF" d="M319.747,364.55l46.074-113.104h11.906l46.074,113.104h-14.763l-13.691-34.05h-47.325l-13.513,34.05
		H319.747z M371.656,269.304c-5.04,14.089-9.861,26.887-14.465,38.396l-4.227,10.655h37.502l-4.285-10.655
		c-4.644-11.906-9.366-24.705-14.168-38.396H371.656z"/>
	<path fill="#FFFFFF" d="M446.185,317.701v46.849h-14.704V251.446h31.134c5.278,0,9.763,0.179,13.453,0.536
		c3.412,0.317,6.795,0.895,10.12,1.727c7.409,1.562,14.149,5.389,19.287,10.953c4.534,5.404,6.909,12.296,6.667,19.347
		c0.202,4.154-0.445,8.308-1.905,12.203c-1.527,3.559-3.777,6.761-6.607,9.405c-2.988,2.741-6.434,4.938-10.18,6.488
		c-4.219,1.76-8.637,2.999-13.155,3.691v0.357l35.717,48.336h-14.882l-37.146-46.849L446.185,317.701z M446.185,264.126v41.67
		h14.524c4.524,0,8.374-0.139,11.549-0.417c2.908-0.315,5.779-0.914,8.571-1.786c4.576-1.112,8.72-3.557,11.906-7.023
		c2.893-3.552,4.376-8.045,4.167-12.62c0.188-4.325-1.232-8.567-3.988-11.906c-2.871-3.127-6.597-5.342-10.716-6.369
		c-2.532-0.69-5.122-1.149-7.738-1.369c-3.016-0.277-6.826-0.417-11.43-0.417L446.185,264.126z"/>
</g>
</svg>
