<?xml version="1.0" encoding="utf-8"?>
<!-- Generator: Adobe Illustrator 16.0.0, SVG Export Plug-In . SVG Version: 6.00 Build 0)  -->
<!DOCTYPE svg PUBLIC "-//W3C//DTD SVG 1.1//EN" "http://www.w3.org/Graphics/SVG/1.1/DTD/svg11.dtd">
<svg version="1.1" id="Capa_6" xmlns="http://www.w3.org/2000/svg" xmlns:xlink="http://www.w3.org/1999/xlink" x="0px" y="0px"
	 width="592.542px" height="595.281px" viewBox="122.65 0 592.542 595.281" enable-background="new 122.65 0 592.542 595.281"
	 xml:space="preserve">
<title>icon</title>
<g id="Capa_9">
	<path fill="#FFFFFF" d="M418.862,1.369C255.236,1.402,122.617,134.074,122.65,297.7c0.033,163.626,132.705,296.244,296.33,296.211
		c163.604-0.032,296.212-132.668,296.212-296.271c0-163.626-132.646-296.271-296.271-296.271
		C418.901,1.369,418.881,1.369,418.862,1.369z M416.778,570.1c-149.785-0.033-271.183-121.484-271.149-271.27
		C145.66,149.046,267.112,27.648,416.897,27.68c149.762,0.033,271.15,121.448,271.15,271.21c0,149.785-121.425,271.21-271.21,271.21
		H416.778z"/>
	<path fill="#FFFFFF" d="M267.243,126.735v224.48h311.748v-224.48H267.243z M414.991,264.662
		c-4.773,27.836-26.441,49.719-54.229,54.766c-12.322,2.56-50.241,0-50.241,0V160.011c0,0,39.169-0.477,52.266,0
		c26.668,0.952,48.038,35.717,52.265,53.575C417.71,230.51,417.69,247.745,414.991,264.662z M541.132,319.427
		c0,0-37.979,2.56-50.242,0c-27.788-5.047-49.456-26.93-54.229-54.766c-2.653-16.842-2.653-33.995,0-50.837
		c4.167-18.216,25.597-52.802,52.266-53.575c13.036-0.477,52.266,0,52.266,0L541.132,319.427z"/>
	<text transform="matrix(1 0 0 1 267.2424 462.5349)" fill="#FFFFFF" font-family="'ArialMT'" font-size="71.4336">DOL</text>
	<text transform="matrix(1 0 0 1 447.9104 462.5349)" fill="#FFFFFF" font-family="'ArialMT'" font-size="71.4336">B</text>
	<text transform="matrix(1 0 0 1 507.1995 462.5349)" fill="#FFFFFF" font-family="'ArialMT'" font-size="71.4336">Y</text>
</g>
</svg>
