<?xml version="1.0" encoding="utf-8"?>
<!-- Generator: Adobe Illustrator 20.0.0, SVG Export Plug-In . SVG Version: 6.00 Build 0)  -->
<svg version="1.1" id="Capa_1_copia" xmlns="http://www.w3.org/2000/svg" xmlns:xlink="http://www.w3.org/1999/xlink" x="0px"
	 y="0px" viewBox="0 0 812.4 298" style="enable-background:new 0 0 812.4 298;" xml:space="preserve">
<style type="text/css">
	.st0{fill:#FFFFFF;}
</style>
<title>phab2_pro</title>
<g id="Capa_2">
	<path class="st0" d="M566.2,204c-24.2,0-43.4-19.8-43.4-43.7l0,0c0-23.9,19.8-43.4,43.7-43.2c23.9,0,43.4,19.8,43.2,43.7
		C609.4,184.7,590.2,204,566.2,204 M566.2,82.8c-15.6,0-30.7,4.6-43.4,13.7V28.8h-33.7v131.7c0.2,42.7,34.9,77.1,77.6,76.8
		s77.1-34.9,76.8-77.6C643.1,117.2,608.7,83,566.2,82.8"/>
	<path class="st0" d="M77.6,204c-24.2,0-43.4-19.5-43.4-43.7l0,0l0,0c0-23.9,19.8-43.4,43.7-43.2c23.9,0,43.4,19.8,43.2,43.7
		C120.8,184.7,101.5,204,77.6,204 M77.6,82.8C34.9,83,0.3,117.6,0.5,160.3v119.8h33.7v-55.6c12.7,8.8,28.1,13.4,43.4,13.4
		c42.7,0,77.6-34.9,77.3-77.6C154.9,117.4,120.3,82.8,77.6,82.8"/>
	<path class="st0" d="M442.3,160.3c-0.2,23.9-20,43.2-43.9,42.9c-23.9-0.2-43.2-20-42.9-43.9c0.2-23.9,19.5-42.9,43.4-42.9
		c24.2,0,43.4,19.5,43.4,43.7C442.3,160.3,442.3,160.3,442.3,160.3z M398.9,82.8c-42.9,0-77.6,34.6-77.6,77.6s34.6,77.6,77.6,77.6
		c15.6,0,30.7-4.6,43.4-13.2v10.5h33.4v-74.9C476,117.6,441.6,83,398.9,82.8"/>
	<path class="st0" d="M308.6,154L308.6,154v-0.5c0-38.8-31.5-70.5-70.3-70.5h-0.2c-12.9,0-25.9,3.7-36.8,10.5V28.6h-33.7V235H201
		l0.2-26.1v-55.1c0-20.2,16.3-36.6,36.6-36.6s36.6,16.3,36.6,36.6l0,0V235h33.7v-81L308.6,154L308.6,154z"/>
</g>
<path class="st0" d="M674.3,227.6l56.8-51.1c6.4-5.4,11.3-10.9,15.7-15.6c3.9-4,7.4-8.4,10.5-13c2.5-3.6,4.4-7.5,5.8-11.5
	c1.2-3.8,1.7-7.7,1.7-11.5c0-4.7-1-9.3-3-13.6c-1.8-4-4.3-7.5-7.5-10.5c-3.1-2.9-6.9-5.1-10.9-6.5c-4.2-1.4-8.6-2.2-13-2.1
	c-8.8-0.1-17.5,2.3-24.9,7.4c-6.7,4.8-13.2,11.7-19.7,20.9l-8.4-5.3c3.1-4.8,6.6-9.3,10.5-13.6c3.5-3.9,7.4-7.4,11.7-10.5
	c4.4-2.9,9.2-5.1,14.3-6.5c5.8-1.7,11.8-2.5,17.8-2.5c6.1-0.1,12.2,1,18,3.1c5.2,2.1,10,4.9,14.3,8.6c4.2,3.6,7.4,8.2,9.5,13.2
	c2.3,5.1,3.5,10.8,3.4,16.3v0.4c0.1,4.9-0.6,9.9-2.1,14.7c-1.6,4.9-3.8,9.6-6.7,13.9c-3.4,5.1-7.4,9.9-11.7,14.3
	c-4.8,4.8-10.5,10.5-17.1,16.3l-46.4,41.8h85.9v10.9H674.9v-8.3h-0.6V227.6z"/>
</svg>
