<svg id="Capa_1_copia" data-name="Capa 1 copia" xmlns="http://www.w3.org/2000/svg" viewBox="0 0 439.14 141.38"><defs><style>.cls-1{fill:#fff;}</style></defs><title>phab2_pro</title><g id="Capa_2" data-name="Capa 2"><path class="cls-1" d="M245.75,119.54a17.91,17.91,0,0,1-17.82-17.91h0a17.82,17.82,0,1,1,17.82,17.91m0-49.72a31.21,31.21,0,0,0-17.82,5.58V47.67H214.1v54a31.65,31.65,0,1,0,31.65-31.81" transform="translate(-13.9 -9.31)"/><path class="cls-1" d="M45.46,119.54a17.86,17.86,0,0,1-17.82-17.91h0a17.82,17.82,0,1,1,17.82,17.91m0-49.72A31.7,31.7,0,0,0,13.9,101.64v49.05H27.72V127.87a31.34,31.34,0,0,0,17.82,5.5,31.77,31.77,0,0,0-.08-63.54" transform="translate(-13.9 -9.31)"/><path class="cls-1" d="M195,101.64a17.82,17.82,0,1,1-17.82-18,17.86,17.86,0,0,1,17.82,18ZM177.21,69.83A31.81,31.81,0,1,0,195,128v4.25h13.74V101.64a31.7,31.7,0,0,0-31.56-31.81" transform="translate(-13.9 -9.31)"/><path class="cls-1" d="M140.23,99h0v-.17a28.86,28.86,0,0,0-28.9-28.9,28,28,0,0,0-15.07,4.33V47.59H82.44V132.2H96.18l.08-10.66V98.89a15,15,0,1,1,30,0V132.2h13.82V99Z" transform="translate(-13.9 -9.31)"/></g><path class="cls-1" d="M278.58,126.3l43.77-39.41c4.85-4.2,8.72-8.4,12.11-12a78.37,78.37,0,0,0,8.08-10A42,42,0,0,0,347.06,56a28.18,28.18,0,0,0,1.29-8.88,25.52,25.52,0,0,0-2.26-10.5,24.65,24.65,0,0,0-5.81-8.08,23.27,23.27,0,0,0-8.4-5,29.59,29.59,0,0,0-10-1.62,33.29,33.29,0,0,0-19.22,5.65c-5.17,3.71-10.17,9-15.18,16.15L281,39.57a78.23,78.23,0,0,1,8.08-10.5,61.06,61.06,0,0,1,9-8.08,37.69,37.69,0,0,1,11-5,50.26,50.26,0,0,1,13.73-1.94,38.6,38.6,0,0,1,13.89,2.42,37.6,37.6,0,0,1,11,6.62A28.11,28.11,0,0,1,355,33.27a28,28,0,0,1,2.58,12.6v.32a36.81,36.81,0,0,1-1.62,11.31,40.4,40.4,0,0,1-5.17,10.66,75.39,75.39,0,0,1-9,11c-3.71,3.71-8.08,8.08-13.24,12.6L292.79,124H359v8.4H279.07V126h-.48Z" transform="translate(-13.9 -9.31)"/><path class="cls-1" d="M377.22,9.74h10.31a12.11,12.11,0,0,1,4.05.63,8.61,8.61,0,0,1,3,1.78,7.82,7.82,0,0,1,1.91,2.76,9.17,9.17,0,0,1,.67,3.55v.07a8.85,8.85,0,0,1-.79,3.86,7.87,7.87,0,0,1-2.18,2.77A9.45,9.45,0,0,1,391,26.84a13.75,13.75,0,0,1-4,.56h-4.22V35h-5.55Zm9.95,12.72a4.51,4.51,0,0,0,3.24-1.1,3.61,3.61,0,0,0,1.15-2.72v-.07a3.44,3.44,0,0,0-1.21-2.85,5.11,5.11,0,0,0-3.3-1h-4.29v7.71Z" transform="translate(-13.9 -9.31)"/><path class="cls-1" d="M401.29,9.74h11.53q4.79,0,7.35,2.56a7.79,7.79,0,0,1,2.16,5.77v.07a7.91,7.91,0,0,1-1.5,5A8.67,8.67,0,0,1,416.93,26l6.16,9h-6.49L411.2,26.9h-4.36V35h-5.55ZM412.46,22a4.61,4.61,0,0,0,3.15-1,3.29,3.29,0,0,0,1.1-2.59v-.07a3.22,3.22,0,0,0-1.15-2.7,5.1,5.1,0,0,0-3.21-.9h-5.51V22Z" transform="translate(-13.9 -9.31)"/><path class="cls-1" d="M439.6,35.4a13.75,13.75,0,0,1-5.37-1A13.32,13.32,0,0,1,430,31.6a12.41,12.41,0,0,1-2.78-4.11,13,13,0,0,1-1-5.06v-.07a12.75,12.75,0,0,1,1-5.06,12.9,12.9,0,0,1,7-7,14.61,14.61,0,0,1,10.76,0,13.35,13.35,0,0,1,4.24,2.78,12.43,12.43,0,0,1,2.77,4.11,12.94,12.94,0,0,1,1,5.06v.07a12.76,12.76,0,0,1-1,5.06,12.9,12.9,0,0,1-7,7A13.89,13.89,0,0,1,439.6,35.4Zm.07-5.12a7.57,7.57,0,0,0,3.06-.61,7,7,0,0,0,2.4-1.69,8,8,0,0,0,1.55-2.5,8.26,8.26,0,0,0,.56-3v-.07a8.41,8.41,0,0,0-.56-3.06,7.55,7.55,0,0,0-4-4.23,7.39,7.39,0,0,0-3.06-.63,7.56,7.56,0,0,0-3.08.61,7,7,0,0,0-2.38,1.7,8,8,0,0,0-1.55,2.5,8.26,8.26,0,0,0-.56,3v.07a8.4,8.4,0,0,0,.56,3.06,7.61,7.61,0,0,0,4,4.24A7.35,7.35,0,0,0,439.67,30.28Z" transform="translate(-13.9 -9.31)"/></svg>