<?xml version="1.0" encoding="utf-8"?>
<!-- Generator: Adobe Illustrator 20.0.0, SVG Export Plug-In . SVG Version: 6.00 Build 0)  -->
<svg version="1.1" id="Capa_1" xmlns="http://www.w3.org/2000/svg" xmlns:xlink="http://www.w3.org/1999/xlink" x="0px" y="0px"
	 viewBox="0 0 792 243" style="enable-background:new 0 0 792 243;" xml:space="preserve">
<style type="text/css">
	.st0{clip-path:url(#SVGID_2_);}
	.st1{clip-path:url(#SVGID_4_);fill:#7CC0DE;}
	.st2{clip-path:url(#SVGID_6_);fill:#FFFFFF;}
	.st3{fill:#CE7C99;}
	.st4{fill:#75CBED;}
	.st5{fill:#DB662E;}
</style>
<g>
	<g>
		<g>
			<defs>
				<rect id="SVGID_1_" x="61.8" y="9" width="242.4" height="83.5"/>
			</defs>
			<clipPath id="SVGID_2_">
				<use xlink:href="#SVGID_1_"  style="overflow:visible;"/>
			</clipPath>
			<g class="st0">
				<defs>
					<rect id="SVGID_3_" x="61.8" y="8.9" width="242.4" height="83.6"/>
				</defs>
				<clipPath id="SVGID_4_">
					<use xlink:href="#SVGID_3_"  style="overflow:visible;"/>
				</clipPath>
				<rect x="61.8" y="9" class="st1" width="242.4" height="83.5"/>
			</g>
		</g>
		<g>
			<defs>
				<rect id="SVGID_5_" x="61.8" y="8.9" width="242.4" height="83.6"/>
			</defs>
			<clipPath id="SVGID_6_">
				<use xlink:href="#SVGID_5_"  style="overflow:visible;"/>
			</clipPath>
			<path class="st2" d="M167.4,37.1c-3.6,0-7.7,1.7-10.1,5.1v0v0v-4.6h-8.5v32.1h8.5V51.5c0-3.3,2.5-6.8,7-6.8
				c3.5,0,7.2,2.5,7.2,6.8v18.3h8.5V49.9C180,42.5,174.9,37.1,167.4,37.1"/>
			<polyline class="st2" points="240.7,37.7 233,59.6 225.2,37.7 215.5,37.7 228.3,69.8 237.7,69.8 250.5,37.7 240.7,37.7 			"/>
			<path class="st2" d="M139.6,59.9c-3.6,2.8-5.6,3.4-8.9,3.4c-2.9,0-5.3-0.9-6.9-2.6l21.8-9.4c-0.5-3.5-1.8-6.6-3.7-9
				c-2.9-3.4-7.1-5.3-12.3-5.3c-9.4,0-16.5,7.2-16.5,16.6c0,9.7,7.1,16.6,17.4,16.6c5.8,0,11.7-2.8,14.4-6.1L139.6,59.9 M123.2,47.3
				c1.5-2,3.8-3.2,6.6-3.2c3.1,0,5.4,1.8,6.6,4.5L121.5,55C121.1,51.8,121.9,49.2,123.2,47.3z"/>
			<polyline class="st2" points="112.3,61.7 92.9,61.7 92.9,28.1 84.2,28.1 84.2,69.8 112.3,69.8 112.3,61.7 			"/>
			<path class="st2" d="M265.8,70.3c-9.3,0-16.7-7.2-16.7-16.6c0-9.3,7.4-16.6,16.8-16.6c9.3,0,16.7,7.2,16.7,16.6
				C282.6,63,275.2,70.3,265.8,70.3 M265.8,44.7c-4.8,0-8.2,3.7-8.2,9c0,5.1,3.7,9,8.3,9c4.8,0,8.2-3.8,8.2-9
				C274.1,48.7,270.5,44.7,265.8,44.7"/>
			<path class="st2" d="M200,70.3c-9.3,0-16.7-7.2-16.7-16.6c0-9.3,7.4-16.6,16.8-16.6c9.3,0,16.7,7.2,16.7,16.6
				C216.8,63,209.4,70.3,200,70.3 M200,44.7c-4.8,0-8.2,3.7-8.2,9c0,5.1,3.7,9,8.3,9c4.8,0,8.2-3.8,8.2-9
				C208.4,48.7,204.7,44.7,200,44.7"/>
			<path class="st2" d="M283.7,66h-1.4v-0.8h3.6V66h-1.4v3.8h-0.9V66 M286.9,65.2h0.9l1.4,2.2l1.3-2.2h0.9v4.6h-0.8v-3.3l-1.4,2.2
				h-0.1l-1.4-2.2v3.3h-0.8V65.2z"/>
		</g>
	</g>
	<g>
		<path class="st3" d="M38.7,193.7L38.7,193.7c-0.1-4.2,3.3-7.6,7.5-7.7l43-0.5c4.2-0.1,7.6,3.3,7.7,7.5l0,0
			c0.1,4.2-3.3,7.6-7.5,7.7l-43,0.5C42.2,201.3,38.7,197.9,38.7,193.7z"/>
	</g>
	<g>
		<path class="st4" d="M38.2,158.1L38.2,158.1c0-4.2,3.3-7.6,7.5-7.7l36.6-0.5c4.2-0.1,7.6,3.3,7.7,7.5l0,0c0.1,4.2-3.3,7.6-7.5,7.7
			l-36.6,0.5C41.7,165.6,38.3,162.3,38.2,158.1z"/>
	</g>
	<g>
		<path class="st3" d="M37.8,123.5L37.8,123.5c-0.1-4.2,3.3-7.6,7.5-7.7l43-0.5c4.2-0.1,7.6,3.3,7.7,7.5l0,0
			c0.1,4.2-3.3,7.6-7.5,7.7l-43,0.5C41.3,131,37.8,127.7,37.8,123.5z"/>
	</g>
	<g>
		<path class="st5" d="M46.1,201L46.1,201c-4.2,0.1-7.6-3.3-7.7-7.5l-0.9-70.1c-0.1-4.2,3.3-7.6,7.5-7.7l0,0
			c4.2-0.1,7.6,3.3,7.7,7.5l0.9,70.1C53.7,197.5,50.3,201,46.1,201z"/>
	</g>
	<g>
		<path class="st3" d="M233.7,167.5l-0.2-0.2c26-10.4,19.7-52.2-11.6-52.2h-32.7c-4.1,0-7.4,3.2-7.4,7.5v45H233.7z M196.9,129.9h25
			c17,0,16,25.8,0,25.8h-25V129.9z"/>
	</g>
	<g>
		<path class="st4" d="M189.5,200.5L189.5,200.5c-4.2,0-7.6-3.4-7.6-7.6v-70.1c0-4.2,3.4-7.6,7.6-7.6l0,0c4.2,0,7.6,3.4,7.6,7.6
			v70.1C197.1,197.1,193.7,200.5,189.5,200.5z"/>
	</g>
	<g>
		<path class="st3" d="M258.8,192.9L258.8,192.9c0-4.2,3.4-7.6,7.6-7.6h43c4.2,0,7.6,3.4,7.6,7.6l0,0c0,4.2-3.4,7.6-7.6,7.6h-43
			C262.3,200.5,258.8,197,258.8,192.9z"/>
	</g>
	<g>
		<path class="st4" d="M258.8,157.2L258.8,157.2c0-4.2,3.4-7.6,7.6-7.6H303c4.2,0,7.6,3.4,7.6,7.6l0,0c0,4.2-3.4,7.6-7.6,7.6h-36.6
			C262.3,164.8,258.8,161.4,258.8,157.2z"/>
	</g>
	<g>
		<path class="st3" d="M258.8,122.6L258.8,122.6c0-4.2,3.4-7.6,7.6-7.6h43c4.2,0,7.6,3.4,7.6,7.6l0,0c0,4.2-3.4,7.6-7.6,7.6h-43
			C262.3,130.2,258.8,126.8,258.8,122.6z"/>
	</g>
	<g>
		<path class="st5" d="M266.2,200.3L266.2,200.3c-4.2,0-7.6-3.4-7.6-7.6v-70.1c0-4.2,3.4-7.6,7.6-7.6l0,0c4.2,0,7.6,3.4,7.6,7.6
			v70.1C273.8,196.9,270.4,200.3,266.2,200.3z"/>
	</g>
	<g>
		<path class="st5" d="M398.4,200.1L398.4,200.1c-3.4,2.4-8.2,1.5-10.6-1.9l-20.6-29.4c-2.4-3.4-1.5-8.2,1.9-10.6l0,0
			c3.4-2.4,8.2-1.5,10.6,1.9l20.6,29.4C402.7,193,401.9,197.7,398.4,200.1z"/>
	</g>
	<g>
		<path class="st3" d="M384.5,167.3l-0.2-0.2c26.1-10.4,19.7-52.2-11.6-52.2h-32.7c-4.1,0-7.4,3.2-7.4,7.5v45H384.5z M347.8,129.7
			h25c17,0,16,25.8,0,25.8h-25V129.7z"/>
	</g>
	<g>
		<path class="st4" d="M340.4,200.3L340.4,200.3c-4.2,0-7.6-3.4-7.6-7.6v-70.1c0-4.2,3.4-7.6,7.6-7.6l0,0c4.2,0,7.6,3.4,7.6,7.6
			v70.1C347.9,196.9,344.5,200.3,340.4,200.3z"/>
	</g>
	<g>
		<path class="st3" d="M449,192.9L449,192.9c0-4.2,3.4-7.6,7.6-7.6h43c4.2,0,7.6,3.4,7.6,7.6l0,0c0,4.2-3.4,7.6-7.6,7.6h-43
			C452.4,200.5,449,197,449,192.9z"/>
	</g>
	<g>
		<path class="st4" d="M449,157.2L449,157.2c0-4.2,3.4-7.6,7.6-7.6h36.6c4.2,0,7.6,3.4,7.6,7.6l0,0c0,4.2-3.4,7.6-7.6,7.6h-36.6
			C452.4,164.8,449,161.4,449,157.2z"/>
	</g>
	<g>
		<path class="st3" d="M449,122.6L449,122.6c0-4.2,3.4-7.6,7.6-7.6h43c4.2,0,7.6,3.4,7.6,7.6l0,0c0,4.2-3.4,7.6-7.6,7.6h-43
			C452.4,130.2,449,126.8,449,122.6z"/>
	</g>
	<g>
		<path class="st5" d="M456.3,200.3L456.3,200.3c-4.2,0-7.6-3.4-7.6-7.6v-70.1c0-4.2,3.4-7.6,7.6-7.6l0,0c4.2,0,7.6,3.4,7.6,7.6
			v70.1C463.9,196.9,460.5,200.3,456.3,200.3z"/>
	</g>
	<g>
		<path class="st5" d="M533.8,199.6L533.8,199.6c-4.2,0-7.6-3.4-7.6-7.6v-70.1c0-4.2,3.4-7.6,7.6-7.6l0,0c4.2,0,7.6,3.4,7.6,7.6V192
			C541.4,196.2,538,199.6,533.8,199.6z"/>
	</g>
	<g>
		<path class="st4" d="M596.2,197.8L596.2,197.8c-3.2,2.7-8,2.2-10.7-1l-57.8-70.1c-2.6-3.2-2.2-8,1-10.7l0,0c3.2-2.7,8-2.2,10.7,1
			l57.8,70.1C599.8,190.4,599.4,195.2,596.2,197.8z"/>
	</g>
	<g>
		<path class="st3" d="M591.7,199.6L591.7,199.6c-4.2,0-7.6-3.4-7.6-7.6v-70.1c0-4.2,3.4-7.6,7.6-7.6l0,0c4.2,0,7.6,3.4,7.6,7.6V192
			C599.2,196.2,595.8,199.6,591.7,199.6z"/>
	</g>
	<g>
		<path class="st3" d="M698,192.1L698,192.1c0-4.2,3.4-7.6,7.6-7.6h43c4.2,0,7.6,3.4,7.6,7.6l0,0c0,4.2-3.4,7.6-7.6,7.6h-43
			C701.4,199.7,698,196.3,698,192.1z"/>
	</g>
	<g>
		<path class="st4" d="M698,156.4L698,156.4c0-4.2,3.4-7.6,7.6-7.6h36.6c4.2,0,7.6,3.4,7.6,7.6l0,0c0,4.2-3.4,7.6-7.6,7.6h-36.6
			C701.4,164,698,160.6,698,156.4z"/>
	</g>
	<g>
		<path class="st3" d="M698,121.8L698,121.8c0-4.2,3.4-7.6,7.6-7.6h43c4.2,0,7.6,3.4,7.6,7.6l0,0c0,4.2-3.4,7.6-7.6,7.6h-43
			C701.4,129.4,698,126,698,121.8z"/>
	</g>
	<g>
		<path class="st5" d="M705.3,199.5L705.3,199.5c-4.2,0-7.6-3.4-7.6-7.6v-70.1c0-4.2,3.4-7.6,7.6-7.6l0,0c4.2,0,7.6,3.4,7.6,7.6
			v70.1C712.9,196.1,709.5,199.5,705.3,199.5z"/>
	</g>
	<path class="st4" d="M424.4,200.8L424.4,200.8c-4.2,0-7.6-3.4-7.6-7.6v-70.1c0-4.2,3.4-7.6,7.6-7.6l0,0c4.2,0,7.6,3.4,7.6,7.6v70.1
		C432,197.4,428.6,200.8,424.4,200.8z"/>
	<g>
		<path class="st3" d="M166.1,198.9L166.1,198.9c-3.7,2.4-8.7,1.4-11.1-2.3l-45.2-69.1c-2.4-3.7-1.4-8.7,2.3-11.1l0,0
			c3.7-2.4,8.7-1.4,11.1,2.3l45.2,69.1C170.8,191.5,169.8,196.5,166.1,198.9z"/>
	</g>
	<g>
		<path class="st4" d="M110.6,198.5L110.6,198.5c-3.6-2.5-4.4-7.5-1.9-11.1l47.1-66.3c2.5-3.6,7.5-4.4,11.1-1.9l0,0
			c3.6,2.5,4.4,7.5,1.9,11.1l-47.1,66.3C119.1,200.2,114.2,201.1,110.6,198.5z"/>
	</g>
	<g>
		<path class="st4" d="M630.3,158.7c0.5-23.2,25.5-36.3,45.2-24.3c8.8,5.3,16.7-8.4,8-13.7c-30.2-18.3-68.3,3.1-69.1,38
			C614.2,168.9,630,168.9,630.3,158.7L630.3,158.7z"/>
	</g>
	<g>
		<path class="st5" d="M322.8,57c47,0,93.9,0,140.9,0c79.6,0,159.2,0,238.8,0c25.9,0,51.8,0,77.7,0c-2.1-2.1-4.2-4.2-6.3-6.3
			c0,59.7,0,119.4,0,179c0,0.8,0,1.7,0,2.5c2.1-2.1,4.2-4.2,6.3-6.3c-31.6,0-63.3,0-94.9,0c-73.2,0-146.5,0-219.7,0
			c-82.3,0-164.5,0-246.8,0c-58.7,0-117.5,0-176.2,0c-10.5,0-21,0-31.5,0c2.1,2.1,4.2,4.2,6.3,6.3c0-59.7,0-119.4,0-179
			c0-0.8,0-1.7,0-2.5c-2.1,2.1-4.2,4.2-6.3,6.3c12.2,0,24.4,0,36.6,0c8.2,0,8.2-12.7,0-12.7c-12.2,0-24.4,0-36.6,0
			c-3.5,0-6.3,2.9-6.3,6.3c0,59.7,0,119.4,0,179c0,0.8,0,1.7,0,2.5c0,3.5,2.9,6.3,6.3,6.3c31.6,0,63.3,0,94.9,0
			c73.2,0,146.5,0,219.7,0c82.3,0,164.5,0,246.8,0c58.7,0,117.5,0,176.2,0c10.5,0,21,0,31.5,0c3.5,0,6.3-2.9,6.3-6.3
			c0-59.7,0-119.4,0-179c0-0.8,0-1.7,0-2.5c0-3.5-2.9-6.3-6.3-6.3c-47,0-93.9,0-140.9,0c-79.6,0-159.2,0-238.8,0
			c-25.9,0-51.8,0-77.7,0C314.6,44.3,314.6,57,322.8,57L322.8,57z"/>
	</g>
	<g>
		<path class="st5" d="M675.3,181.4c-19.7,11.6-44.3-1.6-44.8-24.6c-0.2-10.2-16.1-10.2-15.8,0c0.8,34.8,38.5,56.1,68.7,38.3
			C692.1,189.9,684.1,176.2,675.3,181.4L675.3,181.4z"/>
	</g>
</g>
</svg>
