<svg id="Capa_6" data-name="Capa 6" xmlns="http://www.w3.org/2000/svg" viewBox="0 0 100 100"><defs><style>.cls-1,.cls-2{fill:#4b9bae;}.cls-2{font-size:16.89px;font-family:FranklinGothic-Medium, Franklin Gothic Medium;}.cls-3{letter-spacing:-0.02em;}</style></defs><title>icon</title><g id="Capa_9" data-name="Capa 9"><path class="cls-1" d="M49.65.23A49.77,49.77,0,1,0,99.43,50,49.77,49.77,0,0,0,49.65.23Zm-.35,95.54A45.56,45.56,0,1,1,94.87,50.21,45.56,45.56,0,0,1,49.31,95.77Z"/><path class="cls-1" d="M24.18,21.29V59H76.55V21.29ZM49,44.46a11.29,11.29,0,0,1-9.11,9.2c-2.07.43-8.44,0-8.44,0V26.88s6.58-.08,8.78,0c4.48.16,8.07,6,8.78,9A27.44,27.44,0,0,1,49,44.46Zm21.19,9.2s-6.38.43-8.44,0a11.29,11.29,0,0,1-9.11-9.2,27.44,27.44,0,0,1,0-8.54c.7-3.06,4.3-8.87,8.78-9,2.19-.08,8.78,0,8.78,0Z"/><text class="cls-2" transform="translate(24.18 77.7)">DOL<tspan class="cls-3" x="30.35" y="0">B</tspan><tspan x="40.31" y="0">Y</tspan></text></g></svg>