<svg id="Capa_6" data-name="Capa 6" xmlns="http://www.w3.org/2000/svg" viewBox="0 0 100 100"><defs><style>.cls-1{fill:#4b9bae;}.cls-2{fill:#4892a3;}.cls-3{fill:#478a9a;}</style></defs><title>icon</title><g id="Capa_10" data-name="Capa 10"><path class="cls-1" d="M50.09,0A49.91,49.91,0,1,0,100,49.91,49.91,49.91,0,0,0,50.09,0Zm-.35,95.8A45.69,45.69,0,1,1,95.43,50.12,45.69,45.69,0,0,1,49.74,95.8Z"/><path class="cls-2" d="M61.2,35l-5.88-7.59H43.94L39.25,35H23.11V68.86H75.78V35ZM72.28,65.06H26.83V37.77H40.76l4-6.12h9.82l5.07,6.12H72.28Z"/><polygon class="cls-3" points="26.83 29.28 26.83 35.01 28.76 35.01 28.76 31.29 34.34 31.29 34.34 35.01 36.13 35.01 36.13 29.28 26.83 29.28"/><path class="cls-2" d="M33,61.24l7.74-19h2l7.74,19H48L45.7,55.52H37.75l-2.27,5.72Zm8.72-16q-1.27,3.55-2.43,6.45l-.71,1.79h6.3l-.72-1.79q-1.17-3-2.38-6.45Z"/><path class="cls-2" d="M54.24,53.37v7.87H51.77v-19H57q1.33,0,2.26.09a11.33,11.33,0,0,1,1.7.29,6.13,6.13,0,0,1,3.24,1.84,4.8,4.8,0,0,1,1.12,3.25A5.13,5.13,0,0,1,65,49.76a4.7,4.7,0,0,1-1.11,1.58,5.83,5.83,0,0,1-1.71,1.09,9.46,9.46,0,0,1-2.21.62v.06l6,8.12H63.47l-6.24-7.87Zm0-9v7h2.44q1.14,0,1.94-.07A7.58,7.58,0,0,0,60.06,51a4,4,0,0,0,2-1.18,3.13,3.13,0,0,0,.7-2.12,2.94,2.94,0,0,0-.67-2,3.64,3.64,0,0,0-1.8-1.07,7.25,7.25,0,0,0-1.3-.23q-.76-.07-1.92-.07Z"/></g></svg>