<?xml version="1.0" encoding="utf-8"?>
<!-- Generator: Adobe Illustrator 20.0.0, SVG Export Plug-In . SVG Version: 6.00 Build 0)  -->
<svg version="1.1" id="Capa_1" xmlns="http://www.w3.org/2000/svg" xmlns:xlink="http://www.w3.org/1999/xlink" x="0px" y="0px"
	 viewBox="0 0 667 344.9" style="enable-background:new 0 0 667 344.9;" xml:space="preserve">
<style type="text/css">
	.st0{display:none;}
	.st1{display:inline;}
	.st2{fill:#5D5D5D;}
	.st3{fill:#FFFFFF;}
	.st4{fill-rule:evenodd;clip-rule:evenodd;fill:#FFFFFF;}
</style>
<g id="Capa_1_1_" class="st0">
	<g class="st1">
		<g>
			<path class="st2" d="M293.5,57.6c-5.7,1.1-10.3,5.1-12.3,10.5c0,0.1-0.1,0.1-0.1,0.2c-0.1,0.3-0.2,0.6-0.3,0.9
				c-0.1,0.3-0.2,0.6-0.2,0.9c-0.1,0.2-0.1,0.5-0.1,0.7c-0.1,0.3-0.1,0.7-0.2,1.1c0,0.1,0,0.3,0,0.4c0,0.5-0.1,1-0.1,1.5v21.8h8.6
				V73.7l0,0c0-4.1,3.2-7.4,7.3-7.7c0.1,0,0.2,0,0.3,0h0.1l0,0c0,0,0,0,0.1,0c0,0,0,0,0.1,0l0,0h0.1h4v-8.4c-1-0.2-3.2-0.3-4.2-0.3
				C295.5,57.3,294.5,57.4,293.5,57.6"/>
			<path class="st2" d="M309.5,77.7c0-0.3,0-0.6,0-0.9c0-6.1,4.9-11,10.9-11c3.4,0,6.4,1.5,8.4,4L309.5,77.7z M339.2,73.2h0.1
				c-1.7-9-9.6-15.8-19-15.8c-10.7,0-19.3,8.7-19.3,19.5c0,10.7,9.7,19.5,20.4,19.5c6.2,0,13.4-3.2,16.9-7.8l-6.2-5
				c-2,2.6-7.2,4.3-10.7,4.3c-3.1,0-7-1.3-9-3.4L339.2,73.2L339.2,73.2z"/>
		</g>
		<rect x="2.1" y="58.1" class="st2" width="8.4" height="37.4"/>
		<path class="st2" d="M253.6,75.2L253.6,75.2C253.6,75.1,253.6,75.1,253.6,75.2c0-9.8-7.9-17.8-17.7-17.8c-3.4,0-6.6,1-9.2,2.6v-2
			h-8.4v37.4h8.5v-6.5V75.1c0-5.1,4.1-9.2,9.2-9.2c5.1,0,9.2,4.1,9.2,9.2v0.1v20.3h8.5V75.2H253.6z"/>
		<path class="st2" d="M185.4,77.7c0-0.3,0-0.6,0-0.9c0-6.1,4.9-11,10.9-11c3.4,0,6.4,1.5,8.4,4L185.4,77.7z M215.1,73.2h0.1
			c-1.7-9-9.6-15.8-19-15.8c-10.7,0-19.3,8.7-19.3,19.5c0,10.7,9.7,19.5,20.4,19.5c6.2,0,13.4-3.2,16.9-7.8l-6.2-5
			c-2,2.6-7.2,4.3-10.7,4.3c-3.1,0-7-1.3-9-3.4L215.1,73.2L215.1,73.2z"/>
		<path class="st2" d="M6.3,54c3.2,0,5.7-2.6,5.7-5.7c0-3.2-2.6-5.7-5.7-5.7c-3.2,0-5.7,2.6-5.7,5.7C0.6,51.5,3.1,54,6.3,54"/>
		<path class="st2" d="M63.9,77.7c0-0.3,0-0.6,0-0.9c0-6.1,4.9-11,10.9-11c3.4,0,6.4,1.5,8.4,4L63.9,77.7z M93.6,73.2L93.6,73.2
			c-1.6-9-9.5-15.8-18.9-15.8c-10.7,0-19.3,8.7-19.3,19.5c0,10.7,9.7,19.5,20.4,19.5c6.2,0,13.4-3.2,16.9-7.8l-6.2-5
			c-2,2.6-7.2,4.3-10.7,4.3c-3.1,0-7-1.3-9-3.4L93.6,73.2L93.6,73.2z"/>
		<path class="st2" d="M126.6,76.8c0,6.1-4.9,11-10.9,11s-10.9-4.9-10.9-11s4.9-11,10.9-11S126.6,70.7,126.6,76.8L126.6,76.8z
			 M115.7,57.3c-10.7,0-19.3,8.7-19.3,19.5c0,10.7,8.6,19.5,19.3,19.5c4.1,0,7.8-1.3,10.9-3.4l0.3,2.6h8.1V76.8
			C135,66,126.3,57.3,115.7,57.3"/>
		<path class="st2" d="M43.9,76.8c0,6-4.9,10.9-10.9,10.9c-4.7,0-8.7-3-10.2-7.1l0,0c-0.5-1.2-0.7-2.5-0.7-3.8s0.2-2.5,0.6-3.7
			c1.5-4.3,5.5-7.3,10.3-7.3C39,65.8,43.8,70.7,43.9,76.8L43.9,76.8z M43.9,43.8v17c-3.1-2.2-6.9-3.5-10.9-3.5
			c-10.7,0-19.4,8.7-19.4,19.5c0,10.7,8.7,19.5,19.4,19.5s19.3-8.7,19.3-19.5v-33H43.9z"/>
		<path class="st2" d="M166.4,83.3c-2,2.6-5.1,4.3-8.7,4.3c-6,0-10.9-4.9-10.9-10.9s4.9-10.9,10.9-10.9c4.2,0,7.8,2.3,9.6,5.8
			l7.9-3.3c-3.2-6.5-9.8-11-17.5-11c-10.7,0-19.5,8.7-19.5,19.5c0,10.7,8.7,19.5,19.5,19.5c7.1,0,13.3-3.8,16.7-9.5L166.4,83.3z"/>
		<path class="st2" d="M275.7,88.2h-0.6c-3,0-5.4-2.4-5.4-5.4V72.5l0,0v-5h6.1v-7.3h-6.1V47.8h-8.4v12.3h-5.4v7.3h5.4v16.2h0.1
			c0,0.1,0,0.2,0,0.4c0,6.7,5.4,12.2,12.2,12.2c0.8,0,1.5-0.1,2.3-0.2v-7.8H275.7z"/>
	</g>
	<g class="st1">
		<path class="st2" d="M365,57.3h2.7l17.4,37.6h-3l-4.7-10.5h-22l-4.8,10.5h-2.9L365,57.3z M376.1,81.9l-9.8-21.6l-9.9,21.6H376.1z"
			/>
		<path class="st2" d="M393.3,57.5h2.8v37.4h-2.8V57.5z"/>
		<path class="st2" d="M424.7,95.5c-2.8,0-5.4-0.5-7.7-1.6c-2.3-1-4.3-2.5-5.9-4.2c-1.6-1.8-2.9-3.8-3.8-6.1
			c-0.9-2.3-1.3-4.7-1.3-7.3v-0.1c0-2.6,0.5-5,1.4-7.3s2.2-4.4,3.8-6.2c1.6-1.8,3.6-3.2,5.9-4.2s4.9-1.6,7.7-1.6
			c2.8,0,5.4,0.5,7.7,1.6c2.3,1,4.3,2.5,5.9,4.2c1.6,1.8,2.9,3.8,3.8,6.1c0.9,2.3,1.3,4.8,1.3,7.3v0.1c0,2.6-0.5,5-1.4,7.3
			s-2.2,4.4-3.8,6.2c-1.6,1.8-3.6,3.2-6,4.2C430.1,95,427.5,95.5,424.7,95.5z M424.8,93c2.3,0,4.4-0.4,6.4-1.3
			c1.9-0.9,3.6-2.1,5-3.6s2.5-3.3,3.3-5.3s1.2-4.2,1.2-6.5v-0.1c0-2.3-0.4-4.5-1.2-6.5c-0.8-2-1.9-3.8-3.3-5.3
			c-1.4-1.5-3.1-2.7-5-3.6c-2-0.9-4.1-1.3-6.4-1.3s-4.4,0.4-6.4,1.3c-1.9,0.9-3.6,2.1-5,3.6c-1.4,1.5-2.5,3.3-3.3,5.3
			s-1.2,4.2-1.2,6.5v0.1c0,2.3,0.4,4.5,1.2,6.5c0.8,2,1.9,3.8,3.3,5.3s3.1,2.7,5,3.6S422.5,93,424.8,93z"/>
		<path class="st2" d="M479.1,95.5c-2.3,0-4.4-0.4-6.2-1.3c-1.8-0.9-3.5-2-5-3.3l1.8-2.1c1.6,1.4,3.2,2.5,4.7,3.2s3.1,1.1,4.9,1.1
			c1.9,0,3.6-0.5,5.2-1.4c1.6-1,2.9-2.3,4-4s1.9-3.7,2.5-6.1c0.6-2.3,0.8-4.9,0.7-7.7c-0.5,1-1.2,1.9-1.9,2.7
			c-0.7,0.9-1.6,1.6-2.5,2.3c-1,0.7-2,1.2-3.2,1.6s-2.5,0.6-4,0.6c-1.9,0-3.6-0.3-5.2-0.9s-2.9-1.4-4.1-2.4c-1.1-1-2-2.2-2.7-3.6
			c-0.6-1.4-1-2.9-1-4.5v-0.1c0-1.7,0.3-3.3,1-4.9c0.6-1.5,1.5-2.9,2.7-4s2.5-2,4.1-2.7s3.4-1,5.3-1c2,0,3.8,0.3,5.4,1
			s2.9,1.6,4.1,2.7c0.7,0.7,1.4,1.5,2,2.4c0.6,0.9,1.1,1.9,1.5,3.1s0.7,2.5,0.9,4c0.2,1.5,0.3,3.2,0.3,5v0.1c0,3-0.4,5.7-1.1,8.1
			c-0.8,2.5-1.8,4.6-3.2,6.4c-1.4,1.8-3,3.2-4.8,4.2C483.2,95,481.2,95.5,479.1,95.5z M480,78.5c1.6,0,3-0.3,4.3-0.8
			s2.4-1.3,3.3-2.2c0.9-0.9,1.6-1.9,2.1-3s0.7-2.3,0.7-3.5v-0.1c0-1.3-0.3-2.5-0.8-3.7s-1.3-2.2-2.2-3c-0.9-0.9-2.1-1.5-3.4-2
			s-2.7-0.7-4.3-0.7c-1.5,0-2.9,0.3-4.1,0.8s-2.3,1.3-3.1,2.2c-0.9,0.9-1.5,2-2,3.2s-0.7,2.4-0.7,3.7v0.1c0,1.3,0.2,2.5,0.7,3.6
			s1.2,2.1,2.1,2.8c0.9,0.8,2,1.4,3.2,1.9C477.1,78.2,478.5,78.5,480,78.5z"/>
		<path class="st2" d="M507.2,60.2l-7.2,2.5l-0.7-2.2l8.6-3.1h2.2V95h-2.8V60.2H507.2z"/>
		<path class="st2" d="M534.5,95.5c-2.4,0-4.5-0.5-6.4-1.5s-3.5-2.4-4.9-4.2c-1.3-1.8-2.4-3.8-3.1-6.1c-0.7-2.3-1.1-4.8-1.1-7.3
			v-0.1c0-2.6,0.4-5,1.1-7.4s1.8-4.4,3.1-6.2c1.4-1.8,3-3.2,4.9-4.2s4-1.6,6.4-1.6s4.5,0.5,6.4,1.5s3.5,2.4,4.9,4.2
			c1.3,1.8,2.4,3.8,3.1,6.1c0.7,2.3,1.1,4.8,1.1,7.3v0.1c0,2.6-0.4,5-1.1,7.4c-0.7,2.3-1.8,4.4-3.1,6.2c-1.4,1.8-3,3.2-4.9,4.2
			C539,95,536.8,95.5,534.5,95.5z M534.6,93c1.9,0,3.7-0.5,5.2-1.4c1.6-0.9,2.9-2.2,4-3.7s1.9-3.3,2.5-5.3s0.9-4.1,0.9-6.3v-0.1
			c0-2.2-0.3-4.3-0.9-6.3c-0.6-2-1.4-3.8-2.5-5.4c-1.1-1.5-2.4-2.8-4-3.7c-1.6-0.9-3.3-1.4-5.2-1.4s-3.7,0.5-5.2,1.4
			c-1.6,0.9-2.9,2.2-4,3.7c-1.1,1.5-1.9,3.3-2.5,5.3s-0.9,4.1-0.9,6.3v0.1c0,2.2,0.3,4.3,0.9,6.3c0.6,2,1.4,3.8,2.5,5.4
			s2.4,2.8,4,3.8C530.9,92.6,532.7,93,534.6,93z"/>
	</g>
</g>
<g>
	<path class="st3" d="M196,128.1l-20.7,0l0-49.2l0-0.2c0-12.3-10.1-22.3-22.5-22.3c-12.4,0-22.4,10-22.4,22.3l0,33.6
		c0,0,0,15.8,0,15.8l-20.7,0L109.5,2.6l20.6,0l0,39.6c6.6-4,14.3-6.4,22.6-6.4c23.8,0,43.2,19.2,43.2,42.9c0,0.1,0,0.1,0,0.2
		L196,128.1z M277.4,82.7c0,14.7-11.9,26.6-26.6,26.6c-14.7,0-26.7-11.9-26.7-26.6c0-14.7,11.9-26.7,26.6-26.7
		C265.4,56,277.4,68,277.4,82.7L277.4,82.7z M250.7,35.5c-26.1,0-47.2,21.2-47.2,47.3c0,26.1,21.2,47.2,47.3,47.2
		c9.9,0,19.1-3.1,26.7-8.3v6.4l20.5,0l0-45.4C297.9,56.6,276.8,35.5,250.7,35.5 M54.9,109.5c-14.7,0-26.6-11.9-26.7-26.6l0,0
		c0-14.7,11.9-26.7,26.6-26.7c14.7,0,26.7,11.9,26.7,26.6C81.5,97.6,69.6,109.5,54.9,109.5 M54.8,35.6c-26.1,0-47.2,21.2-47.2,47.3
		l0.1,72.9l20.6,0l0-33.9c7.6,5.2,16.8,8.2,26.6,8.2c26.1,0,47.2-21.2,47.2-47.3C102,56.7,80.9,35.6,54.8,35.6 M352.8,109.3
		c-14.7,0-26.7-11.9-26.7-26.6l0,0c0-14.7,11.9-26.6,26.7-26.7c14.7,0,26.6,11.9,26.6,26.6C379.4,97.3,367.5,109.3,352.8,109.3
		 M352.7,35.4c-9.9,0-19.1,3.1-26.7,8.2l0-41.2l-20.6,0l0.1,80.2c0,26.1,21.2,47.2,47.3,47.2c26.1,0,47.2-21.2,47.2-47.3
		C400,56.5,378.8,35.4,352.7,35.4"/>
	<g>
		<path class="st3" d="M415.7,121.7l34-30.6c15-13.6,20.2-21.4,20.2-31c0-11.8-9.7-19.4-20.6-19.4c-11.6,0-19.2,6-26.7,16.9
			l-5.1-3.4c7.9-12.1,16.4-19.5,32.5-19.5c15.5,0,27.2,10.7,27.2,24.9v0.3c0,12.5-6.8,20.8-22.8,35.3l-27.9,25.2l51.7,0v6.5l-62.4,0
			L415.7,121.7z"/>
		<path class="st3" d="M517.5,35.2l19.6,0c11.9,0,20,6,20.1,16.4v0.2c0,11.3-9.8,17.1-21,17.1l-14.6,0l0,20l-4,0L517.5,35.2z
			 M536.3,65.2c10,0,16.8-5.2,16.8-13.2v-0.2c0-8.5-6.6-12.9-16.4-12.9l-15.3,0l0,26.3L536.3,65.2z"/>
		<path class="st3" d="M561.4,35.2l22.7,0c6.6,0,12,2.1,15.2,5.3c2.5,2.5,4.1,6.1,4.1,10v0.1c0,9-6.7,14.1-15.8,15.3l17.8,22.9
			l-5.1,0l-17.2-22.2l-17.7,0l0,22.2l-4,0L561.4,35.2z M583.6,63c9,0,15.7-4.5,15.7-12.3v-0.2c0-7.2-5.7-11.7-15.5-11.7l-18.4,0
			l0,24.1L583.6,63z"/>
		<path class="st3" d="M607.5,62.1V62c0-14.6,10.8-27.8,27.2-27.8c16.3,0,27.1,12.9,27.1,27.6v0.2c0,14.6-10.8,27.7-27.2,27.8
			C618.3,89.7,607.5,76.7,607.5,62.1z M657.6,62.1v-0.1c0-13.3-9.7-24.1-23.1-24.1c-13.3,0-22.9,10.7-22.9,24V62
			c0,13.3,9.7,24.1,23.1,24.1C648.1,86.1,657.6,75.3,657.6,62.1z"/>
	</g>
	<g>
		<polygon class="st3" points="669,194.7 8.5,194.7 8.5,190 669,190 		"/>
	</g>
	<g>
		<g>
			<polygon class="st3" points="154.6,259.9 154.6,301.2 188.7,320.8 189.3,320.5 189.2,279.9 			"/>
			<polygon class="st3" points="228,259 192.1,279.9 192.1,318.8 228,298 			"/>
			<polygon class="st3" points="188.7,238.7 155.4,257.1 190.7,277.4 223.9,258.2 			"/>
			<path class="st3" d="M192.1,322.1v0.7c0,0,30.3,17.8,32.2,18.5c2.4,0.9,3.8-0.6,3.8-3c0-2.4,0-37,0-37L192.1,322.1z"/>
			<path class="st3" d="M228,257.4c0,0,0-32.1,0-35.6c0-2.5-2.2-3.5-3.8-2.6c-1.7,0.9-32.5,17.9-32.5,17.9L228,257.4z"/>
			<path class="st3" d="M151.7,259.1c0,0-27,14.8-30.5,16.8c-3.5,2-2.9,4.4-0.5,5.8c2.4,1.4,31,17.9,31,17.9L151.7,259.1z"/>
		</g>
		<g>
			<path class="st4" d="M379.5,318.5l0-54.7l9.7,0l0,5.9c0,0,0.2,1.2,0.8,0.4c3.2-5.7,12.3-9.3,19.6-8.5c13,1.4,18.2,10.5,18.5,21.9
				c0.3,11.4,0.1,34.9,0.1,34.9l-10,0l0-32.1c-0.1-3.8-1-7.8-3.8-11c-5.3-6.1-17.2-5.9-22.1,2.4c-1.3,2.2-3.2,4.6-3,7.3l0,33.4
				L379.5,318.5z"/>
			<polygon class="st4" points="294.1,318.5 294,248.1 271.4,248.1 271.4,238.1 326.7,238.1 326.7,248 304.7,248 304.7,318.5 			"/>
			<path class="st4" d="M492.4,263.8l-10.1,0l0,4.8c0,1.3,0.1,2.1-0.4,1.6c-0.7-0.7-1.3-1.2-1.8-1.7c-6.6-6.5-14.4-8.3-23.3-6.4
				c-9.5,2.1-18.5,11.7-19.6,23.6c-0.4,1-0.3,5.5,0,9.9c1,8.5,5,15.5,12,20c10.8,6.9,24.5,5.3,32.2-4.4c0.2-0.3,1-0.5,1,0.1
				c0,2.4,0.1,4.2,0,6.6c-0.6,7.8-4.2,14.3-11.2,16.4c-7.5,2.2-15.4,1.1-21-5.4c-1.1-1.3-2.4-3.9-2.4-3.9l-8.7,4.1
				c12.1,20.4,32.6,19.5,46.7,5.5c5.3-5.2,6.5-12.2,6.5-19.3L492.4,263.8z M482.5,290c0,5.5-1.1,10-4.2,13.9c-8,10.1-24,7.9-29.1-4
				c-2.4-5.7-2.5-11.6-0.5-17.3c2.6-7.3,9.8-12.2,16.9-11.7c8.1,0.6,14.4,5.8,16.2,13.7C482.3,286.5,482.6,288.5,482.5,290z"/>
			<path class="st4" d="M368.4,285.5c-0.1-9.7-3.8-17.4-13.1-21.6c-8-3.6-15.5-2.3-17.3-2c-7.1,1.3-12.7,4.8-16.2,11.3
				c-0.3,0.7-1,1.8-1,1.8l9.7,3.9c5.7-7,10.8-8.6,15.9-7.6c5.9,1.1,10.6,4.2,11.6,10.8c0.1,1.3,0.1,2.4-0.1,3.1
				c-6.8-2.4-13.8-3.6-21-2.2c-9.4,1.8-16.8,6.4-17.8,16.9c-0.3,3.9,0.1,6.3,1.2,9c3.3,7,9,10.3,16.5,10.9
				c10.8,1.4,17.2-3.9,20.9-8.3c0.6-0.4,0.4,0.4,0.4,1c0,1.3,0,6,0,6l10.2,0C368.6,318.5,368.5,296.2,368.4,285.5z M358.2,297.4
				c-2.1,10-14.5,16.1-23.4,11.4c-5.1-2.7-6.2-8.2-2.6-12.8c3.5-4.3,8.3-5.1,13.7-5c3.3-0.1,6.7,0.5,10,1.9
				C358,293.8,358.7,295,358.2,297.4z"/>
			<path class="st4" d="M556.5,286.3c-0.6-3.1-1.3-6.2-2.7-9.1c-5.3-10.5-14-15.7-25.7-15.8c-5.4-0.1-10.8,1-15.4,4
				c-7.5,5-11.8,12-12.7,21c-0.3,2.9-0.3,5.8,0,8.7c1.3,13.7,12.4,23.9,24.8,24.6c2.3,0.3,4.7,0.3,7,0c4.4-0.6,8.5-1.9,12.2-4.4
				c7.2-4.9,11.2-11.8,12.6-20.3C556.8,292.1,556.8,289.2,556.5,286.3z M538.6,306.9c-3.3,2.4-6.4,3.4-10.4,3.4
				c-11,0-19.3-10.1-17.9-21.7c1.1-9.2,6.7-16,14.4-17.4c9.5-1.7,18,3.6,20.7,12.9C548,292.9,545.3,302.1,538.6,306.9z"/>
		</g>
	</g>
</g>
</svg>
