<?xml version="1.0" encoding="utf-8"?>
<!-- Generator: Adobe Illustrator 20.0.0, SVG Export Plug-In . SVG Version: 6.00 Build 0)  -->
<svg version="1.1" id="Capa_1" xmlns="http://www.w3.org/2000/svg" xmlns:xlink="http://www.w3.org/1999/xlink" x="0px" y="0px"
	 viewBox="0 0 471.1 160" style="enable-background:new 0 0 471.1 160;" xml:space="preserve">
<style type="text/css">
	.st0{fill:#FFFFFF;}
</style>
<g>
	<path class="st0" d="M302.8,82.5c0,7.2-5.8,12.9-12.9,12.9c-5.4,0-9.9-3.3-11.9-7.9c0,0,0,0,0-0.1c-0.6-1.5-1-3.2-1-5
		c0-1.6,0.3-3.1,0.8-4.5c1.8-5,6.5-8.5,12.1-8.5c7.1,0,12.8,5.8,12.9,12.9V82.5z M302.8,43.4v20.1c-3.7-2.5-8.1-4-12.9-4
		c-12.7,0-22.9,10.3-22.9,23s10.2,23,22.9,23c12.6,0,22.9-10.3,22.9-23V43.4H302.8z M56.2,82.5c0,7.2-5.8,12.9-12.9,12.9
		c-5.5,0-10.3-3.5-12.1-8.4l0,0c-0.5-1.4-0.8-2.9-0.8-4.5c0-1.5,0.3-3,0.7-4.3c1.8-5,6.6-8.7,12.2-8.7
		C50.4,69.5,56.1,75.3,56.2,82.5C56.2,82.4,56.2,82.5,56.2,82.5z M56.2,43.4v20c-3.7-2.5-8.1-4-12.9-4c-12.6,0-22.9,10.3-22.9,23
		s10.3,23,22.9,23s22.9-10.3,22.9-23v-39H56.2z M253.4,82.5c0,7.2-5.8,13-12.9,13c-7.1,0-12.9-5.8-12.9-13s5.8-13,12.9-13
		C247.6,69.5,253.4,75.3,253.4,82.5L253.4,82.5z M240.5,59.5c-12.7,0-22.9,10.3-22.9,23s10.3,23,22.9,23c4.8,0,9.2-1.5,12.9-4v3.1
		h10V82.5C263.4,69.8,253.1,59.5,240.5,59.5 M141.2,95.5c-7.1,0-12.9-5.8-12.9-13s5.8-13,12.9-13c7.1,0,12.9,5.8,12.9,13l0,0
		C154.1,89.7,148.3,95.5,141.2,95.5 M141.2,59.5c-12.6,0-22.9,10.3-22.9,23s10.2,23,22.9,23c4.8,0,9.2-1.5,12.9-4v3.1h10V82.5
		C164.1,69.8,153.8,59.5,141.2,59.5 M115.3,78.2c-2-10.7-11.3-18.7-22.5-18.7c-12.6,0-22.9,10.3-22.9,23s11.5,23,24.1,23
		c7.4,0,15.9-3.8,20-9.3l-7.4-5.9c-2.4,3.1-8.5,5.1-12.7,5.1c-3.7,0-8.3-1.6-10.6-4.1L115,78.2v-0.1L115.3,78.2z M102.7,74.2
		l-22.8,9.4c0-0.4-0.1-0.7-0.1-1.1c0-7.2,5.8-13,12.9-13C96.8,69.5,100.3,71.3,102.7,74.2 M6.8,60.3h10v44.3h-10
		C6.8,104.6,6.8,60.3,6.8,60.3z M11.8,55.6c-3.8,0-6.8-3-6.8-6.8S8,42,11.8,42s6.8,3,6.8,6.8C18.6,52.5,15.5,55.6,11.8,55.6"/>
	<path class="st0" d="M190.9,95.5c-7.1,0-12.9-5.8-12.9-13l0,0c0-7.2,5.8-13,12.9-13c7.1,0,12.9,5.8,12.9,13
		C203.9,89.7,198.1,95.5,190.9,95.5 M190.9,59.5c-12.6,0-22.9,10.3-22.9,23V118h10v-16.5c3.7,2.5,8.1,4,12.9,4
		c12.7,0,22.9-10.3,22.9-23C213.8,69.8,203.6,59.5,190.9,59.5"/>
</g>
<g>
	<path class="st0" d="M345.4,46h-16.1v-2h18.4v1.5L335,71.8h-2.3L345.4,46z"/>
	<path class="st0" d="M356.9,46l-5.4,1.8l-0.6-1.6l6.4-2.3h1.6v28h-2.1V46z"/>
	<path class="st0" d="M377.2,72.3c-1.8,0-3.4-0.4-4.8-1.2c-1.4-0.8-2.6-1.8-3.6-3.1c-1-1.3-1.8-2.8-2.3-4.6
		c-0.5-1.7-0.8-3.5-0.8-5.5v-0.1c0-1.9,0.3-3.7,0.8-5.5c0.5-1.7,1.3-3.3,2.3-4.6c1-1.3,2.2-2.4,3.6-3.1c1.4-0.8,3-1.2,4.8-1.2
		c1.8,0,3.4,0.4,4.8,1.2c1.4,0.8,2.6,1.8,3.6,3.1c1,1.3,1.8,2.8,2.3,4.6c0.5,1.7,0.8,3.5,0.8,5.5v0.1c0,1.9-0.3,3.7-0.8,5.5
		c-0.5,1.7-1.3,3.3-2.3,4.6c-1,1.3-2.2,2.4-3.6,3.1C380.5,71.9,378.9,72.3,377.2,72.3z M377.2,70.4c1.4,0,2.7-0.3,3.9-1
		c1.2-0.7,2.1-1.6,2.9-2.8c0.8-1.2,1.4-2.5,1.9-4c0.4-1.5,0.7-3,0.7-4.7v-0.1c0-1.6-0.2-3.2-0.7-4.7c-0.4-1.5-1.1-2.8-1.9-4
		c-0.8-1.2-1.8-2.1-3-2.8c-1.2-0.7-2.5-1.1-3.9-1.1s-2.7,0.3-3.9,1s-2.1,1.6-2.9,2.8c-0.8,1.2-1.4,2.5-1.9,4c-0.4,1.5-0.7,3-0.7,4.7
		v0.1c0,1.6,0.2,3.2,0.7,4.7c0.4,1.5,1.1,2.8,1.9,4c0.8,1.2,1.8,2.1,3,2.8C374.5,70,375.8,70.4,377.2,70.4z"/>
	<path class="st0" d="M404.8,72.2c-2.2,0-4.2-0.4-6-1.1c-1.8-0.7-3.5-1.8-5.2-3.3l1.3-1.5c0.8,0.7,1.5,1.3,2.3,1.8
		c0.8,0.5,1.5,0.9,2.3,1.3c0.8,0.3,1.6,0.6,2.5,0.8c0.9,0.2,1.8,0.3,2.9,0.3c1,0,2-0.1,2.9-0.4c0.9-0.3,1.6-0.7,2.2-1.2
		c0.6-0.5,1.1-1.1,1.4-1.7c0.3-0.7,0.5-1.4,0.5-2.2v-0.1c0-0.7-0.1-1.4-0.3-2c-0.2-0.6-0.6-1.1-1.2-1.6c-0.6-0.5-1.4-0.9-2.4-1.3
		c-1-0.4-2.3-0.7-3.9-1.1c-1.7-0.3-3.1-0.7-4.3-1.2c-1.2-0.5-2.2-1-2.9-1.6c-0.8-0.6-1.3-1.3-1.6-2.2c-0.3-0.8-0.5-1.8-0.5-2.8v-0.1
		c0-1,0.2-2,0.7-2.9c0.4-0.9,1.1-1.7,1.9-2.3c0.8-0.7,1.7-1.2,2.8-1.5c1.1-0.4,2.3-0.6,3.6-0.6c2,0,3.7,0.3,5.2,0.8
		c1.5,0.6,2.9,1.4,4.3,2.5l-1.3,1.6c-1.3-1.1-2.7-1.9-4-2.4c-1.3-0.5-2.8-0.7-4.3-0.7c-1,0-2,0.1-2.8,0.4c-0.8,0.3-1.5,0.7-2.1,1.1
		c-0.6,0.5-1.1,1-1.4,1.7c-0.3,0.6-0.5,1.3-0.5,2v0.1c0,0.7,0.1,1.4,0.3,2s0.6,1.1,1.2,1.6c0.6,0.5,1.4,0.9,2.5,1.3s2.4,0.8,4,1.1
		c3.2,0.7,5.6,1.6,7,2.8c1.4,1.2,2.1,2.8,2.1,4.9v0.1c0,1.1-0.2,2.1-0.7,3.1c-0.5,0.9-1.1,1.7-1.9,2.4c-0.8,0.7-1.8,1.2-2.9,1.5
		C407.4,72,406.1,72.2,404.8,72.2z"/>
</g>
</svg>
