<svg id="Capa_6" data-name="Capa 6" xmlns="http://www.w3.org/2000/svg" viewBox="0 0 100 100"><defs><style>.cls-1{fill:#4b9bae;}.cls-2{fill:none;stroke:#4b9bae;stroke-miterlimit:10;stroke-width:2px;}</style></defs><title>icon</title><g id="Capa_7" data-name="Capa 7"><path class="cls-1" d="M50,0a50,50,0,1,0,50,50A50,50,0,0,0,50,0Zm-.35,96A45.77,45.77,0,1,1,95.42,50.21,45.77,45.77,0,0,1,49.65,96Z"/><rect class="cls-2" x="40.93" y="14.82" width="17.49" height="5.76"/><rect class="cls-2" x="33.89" y="20.58" width="31.35" height="60.58"/><rect class="cls-1" x="40.93" y="59.61" width="17.49" height="2.35"/><rect class="cls-1" x="40.83" y="65.79" width="17.49" height="2.35"/><rect class="cls-1" x="41.25" y="72.05" width="17.49" height="2.35"/><polygon class="cls-1" points="52.66 31.45 46.48 41.27 57.57 41.27 49.57 54.49 54.16 42.97 41.26 42.97 52.66 31.45"/></g></svg>