<?xml version="1.0" encoding="utf-8"?>
<!-- Generator: Adobe Illustrator 20.0.0, SVG Export Plug-In . SVG Version: 6.00 Build 0)  -->
<svg version="1.1" id="Capa_1" xmlns="http://www.w3.org/2000/svg" xmlns:xlink="http://www.w3.org/1999/xlink" x="0px" y="0px"
	 viewBox="0 0 667 160" style="enable-background:new 0 0 667 160;" xml:space="preserve">
<style type="text/css">
	.st0{display:none;}
	.st1{display:inline;}
	.st2{fill:#5D5D5D;}
	.st3{fill:#CA4583;}
</style>
<g id="Capa_1_1_" class="st0">
	<g class="st1">
		<g>
			<path class="st2" d="M293.5,68.3c-5.7,1.1-10.3,5.1-12.3,10.5c0,0.1-0.1,0.1-0.1,0.2c-0.1,0.3-0.2,0.6-0.3,0.9
				c-0.1,0.3-0.2,0.6-0.2,0.9c-0.1,0.2-0.1,0.5-0.1,0.7c-0.1,0.3-0.1,0.7-0.2,1.1c0,0.1,0,0.3,0,0.4c0,0.5-0.1,1-0.1,1.5v21.8h8.6
				V84.4l0,0c0-4.1,3.2-7.4,7.3-7.7c0.1,0,0.2,0,0.3,0h0.1l0,0c0,0,0,0,0.1,0c0,0,0,0,0.1,0l0,0h0.1h4v-8.4c-1-0.2-3.2-0.3-4.2-0.3
				C295.5,68,294.5,68.1,293.5,68.3"/>
			<path class="st2" d="M309.5,88.4c0-0.3,0-0.6,0-0.9c0-6.1,4.9-11,10.9-11c3.4,0,6.4,1.5,8.4,4L309.5,88.4z M339.2,83.9h0.1
				c-1.7-9-9.6-15.8-19-15.8c-10.7,0-19.3,8.7-19.3,19.5c0,10.7,9.7,19.5,20.4,19.5c6.2,0,13.4-3.2,16.9-7.8l-6.2-5
				c-2,2.6-7.2,4.3-10.7,4.3c-3.1,0-7-1.3-9-3.4L339.2,83.9L339.2,83.9z"/>
		</g>
		<rect x="2.1" y="68.8" class="st2" width="8.4" height="37.4"/>
		<path class="st2" d="M253.6,85.9L253.6,85.9C253.6,85.8,253.6,85.8,253.6,85.9c0-9.8-7.9-17.8-17.7-17.8c-3.4,0-6.6,1-9.2,2.6v-2
			h-8.4v37.4h8.5v-6.5V85.8c0-5.1,4.1-9.2,9.2-9.2c5.1,0,9.2,4.1,9.2,9.2v0.1v20.3h8.5V85.9H253.6z"/>
		<path class="st2" d="M185.4,88.4c0-0.3,0-0.6,0-0.9c0-6.1,4.9-11,10.9-11c3.4,0,6.4,1.5,8.4,4L185.4,88.4z M215.1,83.9h0.1
			c-1.7-9-9.6-15.8-19-15.8c-10.7,0-19.3,8.7-19.3,19.5c0,10.7,9.7,19.5,20.4,19.5c6.2,0,13.4-3.2,16.9-7.8l-6.2-5
			c-2,2.6-7.2,4.3-10.7,4.3c-3.1,0-7-1.3-9-3.4L215.1,83.9L215.1,83.9z"/>
		<path class="st2" d="M6.3,64.7c3.2,0,5.7-2.6,5.7-5.7c0-3.2-2.6-5.7-5.7-5.7c-3.2,0-5.7,2.6-5.7,5.7C0.6,62.2,3.1,64.7,6.3,64.7"
			/>
		<path class="st2" d="M63.9,88.4c0-0.3,0-0.6,0-0.9c0-6.1,4.9-11,10.9-11c3.4,0,6.4,1.5,8.4,4L63.9,88.4z M93.6,83.9L93.6,83.9
			c-1.6-9-9.5-15.8-18.9-15.8c-10.7,0-19.3,8.7-19.3,19.5c0,10.7,9.7,19.5,20.4,19.5c6.2,0,13.4-3.2,16.9-7.8l-6.2-5
			c-2,2.6-7.2,4.3-10.7,4.3c-3.1,0-7-1.3-9-3.4L93.6,83.9L93.6,83.9z"/>
		<path class="st2" d="M126.6,87.5c0,6.1-4.9,11-10.9,11s-10.9-4.9-10.9-11s4.9-11,10.9-11S126.6,81.4,126.6,87.5L126.6,87.5z
			 M115.7,68c-10.7,0-19.3,8.7-19.3,19.5c0,10.7,8.6,19.5,19.3,19.5c4.1,0,7.8-1.3,10.9-3.4l0.3,2.6h8.1V87.5
			C135,76.7,126.3,68,115.7,68"/>
		<path class="st2" d="M43.9,87.5c0,6-4.9,10.9-10.9,10.9c-4.7,0-8.7-3-10.2-7.1l0,0c-0.5-1.2-0.7-2.5-0.7-3.8s0.2-2.5,0.6-3.7
			c1.5-4.3,5.5-7.3,10.3-7.3C39,76.5,43.8,81.4,43.9,87.5L43.9,87.5z M43.9,54.5v17C40.8,69.3,37,68,33,68
			c-10.7,0-19.4,8.7-19.4,19.5c0,10.7,8.7,19.5,19.4,19.5s19.3-8.7,19.3-19.5v-33H43.9z"/>
		<path class="st2" d="M166.4,94c-2,2.6-5.1,4.3-8.7,4.3c-6,0-10.9-4.9-10.9-10.9s4.9-10.9,10.9-10.9c4.2,0,7.8,2.3,9.6,5.8l7.9-3.3
			c-3.2-6.5-9.8-11-17.5-11c-10.7,0-19.5,8.7-19.5,19.5c0,10.7,8.7,19.5,19.5,19.5c7.1,0,13.3-3.8,16.7-9.5L166.4,94z"/>
		<path class="st2" d="M275.7,98.9h-0.6c-3,0-5.4-2.4-5.4-5.4V83.2l0,0v-5h6.1v-7.3h-6.1V58.5h-8.4v12.3h-5.4v7.3h5.4v16.2h0.1
			c0,0.1,0,0.2,0,0.4c0,6.7,5.4,12.2,12.2,12.2c0.8,0,1.5-0.1,2.3-0.2v-7.8H275.7z"/>
	</g>
	<g class="st1">
		<path class="st2" d="M365,68h2.7l17.4,37.6h-3l-4.7-10.5h-22l-4.8,10.5h-2.9L365,68z M376.1,92.6L366.3,71l-9.9,21.6H376.1z"/>
		<path class="st2" d="M393.3,68.2h2.8v37.4h-2.8V68.2z"/>
		<path class="st2" d="M424.7,106.2c-2.8,0-5.4-0.5-7.7-1.6c-2.3-1-4.3-2.5-5.9-4.2c-1.6-1.8-2.9-3.8-3.8-6.1
			c-0.9-2.3-1.3-4.7-1.3-7.3v-0.1c0-2.6,0.5-5,1.4-7.3s2.2-4.4,3.8-6.2c1.6-1.8,3.6-3.2,5.9-4.2s4.9-1.6,7.7-1.6
			c2.8,0,5.4,0.5,7.7,1.6c2.3,1,4.3,2.5,5.9,4.2c1.6,1.8,2.9,3.8,3.8,6.1c0.9,2.3,1.3,4.8,1.3,7.3v0.1c0,2.6-0.5,5-1.4,7.3
			s-2.2,4.4-3.8,6.2c-1.6,1.8-3.6,3.2-6,4.2C430.1,105.7,427.5,106.2,424.7,106.2z M424.8,103.7c2.3,0,4.4-0.4,6.4-1.3
			c1.9-0.9,3.6-2.1,5-3.6s2.5-3.3,3.3-5.3s1.2-4.2,1.2-6.5v-0.1c0-2.3-0.4-4.5-1.2-6.5c-0.8-2-1.9-3.8-3.3-5.3s-3.1-2.7-5-3.6
			c-2-0.9-4.1-1.3-6.4-1.3s-4.4,0.4-6.4,1.3c-1.9,0.9-3.6,2.1-5,3.6s-2.5,3.3-3.3,5.3s-1.2,4.2-1.2,6.5V87c0,2.3,0.4,4.5,1.2,6.5
			c0.8,2,1.9,3.8,3.3,5.3s3.1,2.7,5,3.6S422.5,103.7,424.8,103.7z"/>
		<path class="st2" d="M479.1,106.2c-2.3,0-4.4-0.4-6.2-1.3c-1.8-0.9-3.5-2-5-3.3l1.8-2.1c1.6,1.4,3.2,2.5,4.7,3.2s3.1,1.1,4.9,1.1
			c1.9,0,3.6-0.5,5.2-1.4c1.6-1,2.9-2.3,4-4s1.9-3.7,2.5-6.1c0.6-2.3,0.8-4.9,0.7-7.7c-0.5,1-1.2,1.9-1.9,2.7
			c-0.7,0.9-1.6,1.6-2.5,2.3c-1,0.7-2,1.2-3.2,1.6s-2.5,0.6-4,0.6c-1.9,0-3.6-0.3-5.2-0.9s-2.9-1.4-4.1-2.4c-1.1-1-2-2.2-2.7-3.6
			c-0.6-1.4-1-2.9-1-4.5v-0.1c0-1.7,0.3-3.3,1-4.9c0.6-1.5,1.5-2.9,2.7-4s2.5-2,4.1-2.7s3.4-1,5.3-1c2,0,3.8,0.3,5.4,1
			s2.9,1.6,4.1,2.7c0.7,0.7,1.4,1.5,2,2.4s1.1,1.9,1.5,3.1s0.7,2.5,0.9,4c0.2,1.5,0.3,3.2,0.3,5V86c0,3-0.4,5.7-1.1,8.1
			c-0.8,2.5-1.8,4.6-3.2,6.4c-1.4,1.8-3,3.2-4.8,4.2C483.2,105.7,481.2,106.2,479.1,106.2z M480,89.2c1.6,0,3-0.3,4.3-0.8
			s2.4-1.3,3.3-2.2c0.9-0.9,1.6-1.9,2.1-3s0.7-2.3,0.7-3.5v-0.1c0-1.3-0.3-2.5-0.8-3.7s-1.3-2.2-2.2-3c-0.9-0.9-2.1-1.5-3.4-2
			s-2.7-0.7-4.3-0.7c-1.5,0-2.9,0.3-4.1,0.8s-2.3,1.3-3.1,2.2c-0.9,0.9-1.5,2-2,3.2s-0.7,2.4-0.7,3.7v0.1c0,1.3,0.2,2.5,0.7,3.6
			s1.2,2.1,2.1,2.8c0.9,0.8,2,1.4,3.2,1.9C477.1,88.9,478.5,89.2,480,89.2z"/>
		<path class="st2" d="M507.2,70.9l-7.2,2.5l-0.7-2.2l8.6-3.1h2.2v37.6h-2.8V70.9H507.2z"/>
		<path class="st2" d="M534.5,106.2c-2.4,0-4.5-0.5-6.4-1.5s-3.5-2.4-4.9-4.2c-1.3-1.8-2.4-3.8-3.1-6.1c-0.7-2.3-1.1-4.8-1.1-7.3V87
			c0-2.6,0.4-5,1.1-7.4s1.8-4.4,3.1-6.2c1.4-1.8,3-3.2,4.9-4.2s4-1.6,6.4-1.6s4.5,0.5,6.4,1.5s3.5,2.4,4.9,4.2
			c1.3,1.8,2.4,3.8,3.1,6.1c0.7,2.3,1.1,4.8,1.1,7.3v0.1c0,2.6-0.4,5-1.1,7.4c-0.7,2.3-1.8,4.4-3.1,6.2c-1.4,1.8-3,3.2-4.9,4.2
			C539,105.7,536.8,106.2,534.5,106.2z M534.6,103.7c1.9,0,3.7-0.5,5.2-1.4c1.6-0.9,2.9-2.2,4-3.7s1.9-3.3,2.5-5.3s0.9-4.1,0.9-6.3
			v-0.1c0-2.2-0.3-4.3-0.9-6.3c-0.6-2-1.4-3.8-2.5-5.4c-1.1-1.5-2.4-2.8-4-3.7c-1.6-0.9-3.3-1.4-5.2-1.4s-3.7,0.5-5.2,1.4
			c-1.6,0.9-2.9,2.2-4,3.7s-1.9,3.3-2.5,5.3s-0.9,4.1-0.9,6.3v0.1c0,2.2,0.3,4.3,0.9,6.3c0.6,2,1.4,3.8,2.5,5.4s2.4,2.8,4,3.8
			C530.9,103.3,532.7,103.7,534.6,103.7z"/>
	</g>
</g>
<g id="Capa_2">
	<g>
		<path class="st3" d="M280.4,100.8c-11.8,0-21.4-9.7-21.4-21.5l0,0c0-11.9,9.6-21.5,21.4-21.5s21.4,9.7,21.4,21.6
			C301.8,91.2,292.2,100.8,280.4,100.8 M280.4,41.1c-8,0-15.3,2.5-21.4,6.7V14.5h-16.6v64.8c0,21.1,17,38.2,38,38.2
			c20.9,0,38-17.1,38-38.2C318.3,58.2,301.3,41.1,280.4,41.1"/>
		<path class="st3" d="M39.9,100.8c-11.8,0-21.4-9.6-21.4-21.5l0,0c0-11.9,9.6-21.6,21.4-21.6s21.4,9.7,21.4,21.6
			C61.4,91.2,51.8,100.8,39.9,100.8 M39.9,41.1C19,41.1,2,58.2,2,79.3v58.9h16.6v-27.4c6.1,4.2,13.5,6.6,21.4,6.6
			c21,0,38-17.1,38-38.2C77.9,58.2,60.9,41.1,39.9,41.1"/>
		<path class="st3" d="M219.5,79.3c0,11.9-9.6,21.5-21.4,21.5c-11.8,0-21.4-9.7-21.4-21.5c0-11.9,9.6-21.6,21.4-21.6
			C209.9,57.7,219.5,67.4,219.5,79.3L219.5,79.3z M198.1,41.1c-21,0-38,17.1-38,38.2s17,38.2,38,38.2c7.9,0,15.3-2.5,21.4-6.6v5.1
			H236V79.3C236,58.2,219,41.1,198.1,41.1"/>
		<path class="st3" d="M153.7,76.1L153.7,76.1c0-0.1,0-0.1,0-0.2c0-19.2-15.5-34.7-34.7-34.7c-6.7,0-12.9,1.9-18.1,5.2v-32H84.3V116
			h16.5l0.1-12.8V76c0-10,8.1-18,18-18c10,0,18,8.1,18,18v0.2V116h16.6V76.1H153.7z"/>
	</g>
	<g>
		<path class="st3" d="M335.2,111l27.1-24.4c3-2.6,5.4-5.2,7.5-7.4c2.1-2.2,3.7-4.3,5-6.2c1.3-2,2.2-3.8,2.8-5.5
			c0.6-1.8,0.8-3.7,0.8-5.5c0-2.3-0.5-4.5-1.4-6.5s-2.1-3.6-3.6-5s-3.2-2.4-5.2-3.1c-2-0.7-4-1-6.2-1c-4.6,0-8.5,1.2-11.9,3.5
			c-3.2,2.3-6.3,5.6-9.4,10l-4-2.6c1.6-2.4,3.2-4.6,5-6.5c1.7-1.8,3.6-3.6,5.6-5c2.1-1.4,4.3-2.4,6.8-3.1c2.5-0.7,5.3-1.2,8.5-1.2
			c3.1,0,6,0.5,8.6,1.5s4.8,2.4,6.8,4.1c2,1.8,3.5,3.9,4.5,6.3c1.2,2.4,1.6,5.1,1.6,7.8v0.2c0,2.5-0.3,4.8-1,7s-1.7,4.4-3.2,6.6
			s-3.3,4.5-5.6,6.8c-2.3,2.3-5,5-8.2,7.8l-22.1,20h41v5.2h-49.5v-4h-0.3V111z"/>
		<path class="st3" d="M406.2,42.6h26.3c4,0,7.6,0.5,10.9,1.5c3.2,1,6.1,2.4,8.5,4.4s4.3,4.3,5.5,6.9c1.3,2.8,2,5.9,2,9.3v0.2
			c0,3.8-0.8,7.1-2.3,10s-3.6,5.3-6.1,7.3c-2.6,2-5.6,3.3-9,4.4c-3.5,0.9-7,1.5-10.8,1.5h-19.6v27.1h-5.4V42.6z M431.4,83.1
			c3.3,0,6.5-0.5,9.2-1.3c2.8-0.8,5.1-2.1,7.1-3.6c2-1.6,3.5-3.5,4.6-5.6c1.2-2.2,1.6-4.7,1.6-7.4V65c0-2.9-0.6-5.4-1.6-7.6
			c-1-2.2-2.5-4-4.5-5.4c-2-1.5-4.3-2.5-6.9-3.3s-5.6-1.2-8.9-1.2h-20.5v35.7L431.4,83.1L431.4,83.1L431.4,83.1z"/>
		<path class="st3" d="M475.3,42.6h5.4v67.6h42.6v4.8h-47.9V42.6H475.3z"/>
		<path class="st3" d="M568.1,116.2c-4.4,0-8.3-0.7-12-2.1c-3.6-1.4-6.8-3.3-9.4-6c-2.6-2.6-4.7-5.9-6.1-9.8
			c-1.5-3.9-2.2-8.4-2.2-13.5V42.6h5.4v41.8c0,8.6,2.2,15.3,6.5,19.9s10.4,7,18.1,7c3.7,0,7-0.6,9.9-1.6c3-1.2,5.5-2.8,7.6-5
			s3.7-5,4.8-8.3s1.7-7.1,1.7-11.5V42.6h5.4v41.7c0,5.2-0.7,9.8-2.2,13.7c-1.5,4-3.5,7.3-6.1,10c-2.6,2.6-5.8,4.7-9.3,6.1
			C576.5,115.5,572.5,116.2,568.1,116.2z"/>
		<path class="st3" d="M642.7,116c-5.8,0-11.1-0.9-15.7-2.9c-4.6-2-9.2-4.8-13.5-8.8l3.6-4c2,1.8,4,3.5,6,4.8s4,2.4,6.1,3.3
			s4.3,1.5,6.6,2s4.7,0.7,7.5,0.7c2.6,0,5.2-0.3,7.5-1s4.3-1.7,5.8-3c1.6-1.3,2.9-2.8,3.7-4.6c0.9-1.7,1.4-3.7,1.4-5.8v-0.2
			c0-2-0.3-3.7-0.9-5.2s-1.6-2.9-3.2-4.1c-1.6-1.3-3.7-2.4-6.2-3.3c-2.6-1-6-2-10.1-2.8c-4.4-0.9-8.1-2-11.2-3.1
			c-3.1-1.2-5.6-2.6-7.6-4.3c-2-1.6-3.5-3.5-4.3-5.6c-0.9-2.2-1.4-4.6-1.4-7.4v-0.2c0-2.6,0.6-5.2,1.7-7.5s2.8-4.4,4.8-6.1
			c2.1-1.7,4.5-3.1,7.4-4s6-1.5,9.3-1.5c5.3,0,9.8,0.7,13.6,2.2s7.6,3.7,11.3,6.7l-3.5,4.3c-3.5-3-6.9-5.1-10.4-6.3
			c-3.5-1.3-7.3-1.8-11.3-1.8c-2.6,0-5.1,0.3-7.3,1s-4,1.7-5.6,3c-1.5,1.3-2.8,2.6-3.6,4.4c-0.8,1.6-1.3,3.5-1.3,5.3v0.2
			c0,2,0.3,3.7,0.9,5.2c0.6,1.6,1.6,3,3.2,4.3c1.6,1.3,3.7,2.4,6.5,3.5c2.8,1,6.3,2,10.6,2.9c8.4,1.7,14.5,4.1,18.2,7.3
			c3.7,3.1,5.6,7.4,5.6,12.7v0.2c0,2.9-0.6,5.5-1.8,8.1c-1.2,2.4-2.9,4.5-5,6.2s-4.6,3.1-7.6,4C649.5,115.6,646.3,116,642.7,116z"/>
	</g>
</g>
</svg>
