<?xml version="1.0" standalone="no"?>
<!DOCTYPE svg PUBLIC "-//W3C//DTD SVG 1.1//EN" "http://www.w3.org/Graphics/SVG/1.1/DTD/svg11.dtd" >
<svg>
<metadata>
Created by FontForge 20120731 at Thu May 19 01:47:36 2016
 By ,,,
Copyright (c) The digitally encoded machine readable outline data for producing the typefaces licensed to you is copyrighted (c), 2011 by The Foundry, London. All rights reserved.
</metadata>
<defs>
<font id="LenovoDo-Medium" horiz-adv-x="607" >
  <font-face 
    font-family="Lenovo Do Medium"
    font-weight="500"
    font-stretch="normal"
    units-per-em="1000"
    panose-1="2 0 6 3 3 0 0 2 0 4"
    ascent="750"
    descent="-250"
    x-height="476"
    cap-height="667"
    bbox="-145 -315 1482 1013"
    underline-thickness="50"
    underline-position="-50"
    unicode-range="U+0020-FFF3"
  />
<missing-glyph horiz-adv-x="704" 
d="M585 -190h-466v996h466v-996zM204 -111h296v839h-296v-839z" />
    <glyph glyph-name="IJ" unicode="IJ" horiz-adv-x="695" 
d="M590 153q0 -27 -21 -50l-82 -82q-21 -21 -50 -21h-151q-30 0 -50 21l-82 82q-22 22 -22 50v44h91v-32q0 -6 6 -14l57 -57q6 -6 14 -6h121q9 0 14 6l57 57q7 7 7 14v414h-187v88h278v-514zM223 286h-90v293h-116v88h206v-381z" />
    <glyph glyph-name="ij" unicode="ij" horiz-adv-x="575" 
d="M481 -78v1q0 -31 -21 -52l-41 -41q-20 -20 -49 -20h-134v78h119q8 0 14 6l20 20q6 6 6 16v468h-101v78h187v-554zM194 0h-85v398h-102v78h187v-476zM201 574h-102v102h102v-102zM488 574h-102v102h102v-102z" />
    <glyph glyph-name="f_j" unicode="fj" horiz-adv-x="630" 
d="M536 -78q0 -30 -21 -51l-41 -41q-20 -20 -49 -20h-134v78h120q8 0 14 6l20 20q6 6 6 16v468h-258v-398h-86v398h-76v78h76v78q0 31 21 52l41 41q20 20 49 20h133v-78h-118q-8 0 -14 -6l-20 -20q-6 -6 -6 -16v-71h343v-554zM543 574h-102v102h102v-102z" />
    <glyph glyph-name="f_f" unicode="ff" horiz-adv-x="726" 
d="M193 398v-398h-86v398h-76v78h76v78q0 31 21 52l41 41q20 20 49 20h133v-78h-118q-8 0 -14 -6l-20 -20q-6 -6 -6 -16v-71h257v78q0 31 21 52l41 41q20 20 49 20h133v-78h-118q-8 0 -14 -6l-20 -20q-6 -6 -6 -16v-71h158v-78h-158v-398h-86v398h-257z" />
    <glyph glyph-name="fi" unicode="fi" horiz-adv-x="631" 
d="M536 0h-85v398h-258v-398h-86v398h-76v78h76v78q0 31 21 52l41 41q20 20 49 20h133v-78h-118q-8 0 -14 -6l-20 -20q-6 -6 -6 -16v-71h343v-476zM543 574h-102v102h102v-102z" />
    <glyph glyph-name="fl" unicode="fl" horiz-adv-x="631" 
d="M536 0h-85v589h-218q-8 0 -14 -6l-20 -20q-6 -6 -6 -16v-71h158v-78h-158v-398h-86v398h-76v78h76v78q0 31 21 52l41 41q20 20 49 20h318v-667z" />
    <glyph glyph-name="f_f_i" unicode="ffi" horiz-adv-x="974" 
d="M193 398v-398h-86v398h-76v78h76v78q0 31 21 52l41 41q20 20 49 20h133v-78h-118q-8 0 -14 -6l-20 -20q-6 -6 -6 -16v-71h257v78q0 31 21 52l41 41q20 20 49 20h133v-78h-118q-8 0 -14 -6l-20 -20q-6 -6 -6 -16v-71h343v-476h-85v398h-258v-398h-86v398h-257zM886 574
h-102v102h102v-102z" />
    <glyph glyph-name="f_f_l" unicode="ffl" horiz-adv-x="974" 
d="M194 398h-1v-398h-86v398h-76v78h76v78q0 31 21 52l41 41q20 20 49 20h133v-78h-118q-8 0 -14 -6l-20 -20q-6 -6 -6 -16l1 -71h256v78q0 31 21 52l41 41q20 20 49 20h318v-667h-85v589h-218q-8 0 -14 -6l-20 -20q-6 -6 -6 -16v-71h158v-78h-158v-398h-86v398h-256z" />
    <glyph glyph-name="f_t" unicode="ft" horiz-adv-x="729" 
d="M694 0h-133q-29 0 -49 20l-40 40q-21 21 -21 52v286h-258v-398h-86v398h-76v78h76v78q0 31 21 52l41 41q20 20 49 20h133v-78h-118q-8 0 -14 -6l-20 -20q-6 -6 -6 -16v-71h257v191h86v-191h158v-78h-158v-277q0 -11 6 -17l20 -20q6 -6 14 -6h118v-78z" />
    <glyph glyph-name=".notdef" horiz-adv-x="704" 
d="M585 -190h-466v996h466v-996zM204 -111h296v839h-296v-839z" />
    <glyph glyph-name=".notdef" horiz-adv-x="704" 
d="M585 -190h-466v996h466v-996zM204 -111h296v839h-296v-839z" />
    <glyph glyph-name=".null" horiz-adv-x="0" 
 />
    <glyph glyph-name="nonmarkingreturn" horiz-adv-x="333" 
 />
    <glyph glyph-name="space" unicode=" " horiz-adv-x="304" 
 />
    <glyph glyph-name="exclam" unicode="!" horiz-adv-x="304" 
d="M195 208h-86v459h86v-459zM205 0h-107v106h107v-106z" />
    <glyph glyph-name="quotedbl" unicode="&#x22;" horiz-adv-x="498" 
d="M387 467h-83v200h83v-200zM192 467h-82v200h82v-200z" />
    <glyph glyph-name="numbersign" unicode="#" 
d="M587 409h-128l-34 -127h110v-68h-129l-56 -214h-77l58 214h-125l-57 -214h-77l58 214h-110v68h127l35 127h-110v68h127l59 217h76l-58 -217h124l59 217h77l-59 -217h110v-68zM382 409h-123l-35 -127h124z" />
    <glyph glyph-name="dollar" unicode="$" 
d="M523 117q0 -29 -20 -49l-47 -47q-21 -21 -50 -21h-76v-95h-52v95h-78q-29 0 -49 20l-67 67l54 56l59 -59q6 -6 14 -6h67v218l-128 16q-27 4 -46.5 25.5t-19.5 48.5v164q0 29 20 49l47 47q21 21 50 21h76v95h52v-95h78q29 0 49 -20l67 -67l-54 -56l-59 59q-6 6 -14 6h-67
v-219l128 -15q27 -4 46.5 -25.5t19.5 -48.5v-164zM277 375l1 214h-66q-10 0 -14 -6l-23 -22q-6 -6 -6 -14v-141q0 -18 18 -20zM438 120v141q0 18 -18 20l-91 10v-213h66q10 0 14 6l23 22q6 6 6 14z" />
    <glyph glyph-name="percent" unicode="%" horiz-adv-x="974" 
d="M897 72q0 -17 -11 -28l-31 -31q-13 -13 -29 -13h-124q-16 0 -29 13l-31 31q-11 11 -11 28v257q0 17 11 28l31 31q13 13 29 13h121q19 0 32 -13l31 -31q11 -11 11 -28v-257zM699 672l-363 -672h-61l363 672h61zM343 338q0 -17 -11 -28l-31 -31q-13 -13 -29 -13h-124
q-16 0 -29 13l-31 31q-11 11 -11 28v257q0 17 11 28l31 31q13 13 29 13h121q19 0 32 -13l31 -31q11 -11 11 -28v-257zM834 80v241q0 5 -3 8l-11 11q-4 4 -9 4h-94q-5 0 -9 -4l-11 -11q-3 -3 -3 -8v-241q0 -5 3 -8l11 -11q4 -4 9 -4h95q5 0 9 4l10 10q3 3 3 9zM280 346v241
q0 5 -3 8l-11 11q-4 4 -9 4h-94q-5 0 -9 -4l-11 -11q-3 -3 -3 -8v-241q0 -5 3 -8l11 -11q4 -4 9 -4h95q5 0 9 4l10 10q3 3 3 9z" />
    <glyph glyph-name="ampersand" unicode="&#x26;" horiz-adv-x="726" 
d="M663 58l-57 -58l-81 81l-61 -60q-21 -21 -49 -21h-195q-28 0 -50 20l-44 44q-21 21 -21 51v140q0 29 21 50l87 87l-65 65q-24 24 -24 61q0 34 24 60l62 61q25 25 60 25q36 0 60 -24l63 -62q25 -27 25 -60q0 -36 -23 -59l-67 -66l198 -199l70 71l56 -55q-69 -71 -70 -71z
M323 503q19 19 1 39l-35 34q-20 20 -38 0l-34 -34q-19 -19 0 -39l53 -53zM469 136l-198 199l-73 -73q-7 -7 -7 -14v-130q0 -6 6 -14l20 -20q6 -6 14 -6h171q8 0 14 6z" />
    <glyph glyph-name="quotesingle" unicode="'" horiz-adv-x="304" 
d="M193 467h-83v200h83v-200z" />
    <glyph glyph-name="parenleft" unicode="(" horiz-adv-x="398" 
d="M363 -135l-57 -58l-195 195q-20 20 -20 49v512q0 29 20 49l195 195l57 -58l-166 -165q-21 -21 -21 -50v-453q0 -31 21 -50z" />
    <glyph glyph-name="parenright" unicode=")" horiz-adv-x="398" 
d="M307 51q0 -29 -20 -49l-195 -195l-57 58l166 165q21 21 21 50v453q0 31 -21 50l-166 166l57 58l195 -195q20 -20 20 -49v-512z" />
    <glyph glyph-name="asterisk" unicode="*" horiz-adv-x="600" 
d="M533 469l-176 -56l108 -145l-60 -47l-105 149l-105 -149l-60 46l107 146l-176 56l24 72l173 -57l-1 183h75l-1 -183l174 57z" />
    <glyph glyph-name="plus" unicode="+" 
d="M542 200h-200v-200h-76v200h-202v76h201v200h76v-200h201v-76z" />
    <glyph glyph-name="comma" unicode="," horiz-adv-x="304" 
d="M196 -71q0 -29 -20 -50l-49 -49l-57 56l30 30q7 7 7 14v176h89v-177z" />
    <glyph glyph-name="hyphen" unicode="-" horiz-adv-x="497" 
d="M389 201h-281v75h281v-75z" />
    <glyph glyph-name="period" unicode="." horiz-adv-x="304" 
d="M205 0h-107v106h107v-106z" />
    <glyph glyph-name="slash" unicode="/" horiz-adv-x="553" 
d="M513 755l-392 -839h-81l392 839h81z" />
    <glyph glyph-name="zero" unicode="0" 
d="M516 117q0 -29 -19 -48l-47 -47q-22 -22 -51 -22h-191q-29 0 -51 22l-47 47q-19 19 -19 48v433q0 29 19 48l47 47q22 22 51 22h191q29 0 51 -22l47 -47q19 -19 19 -48v-433zM431 122v424q0 9 -5 14l-23 23q-6 6 -15 6h-169q-9 0 -15 -6l-23 -23q-5 -5 -5 -14v-425
q0 -9 5 -14l23 -23q6 -6 15 -6h169q9 0 15 6l23 23q5 5 5 15z" />
    <glyph glyph-name="one" unicode="1" 
d="M479 0h-341v78h129v503l-85 -76l-54 53l122 109h101v-589h128v-78z" />
    <glyph glyph-name="two" unicode="2" 
d="M516 0h-425v213q0 45 41 64l287 128q12 5 12 18v123q0 9 -5 14l-23 23q-6 6 -15 6h-169q-9 0 -15 -6l-61 -61l-55 54l69 69q22 22 51 22h191q29 0 51 -22l47 -47q19 -19 19 -48v-144q0 -47 -41 -64l-287 -129q-12 -5 -12 -18v-117h340v-78z" />
    <glyph glyph-name="three" unicode="3" 
d="M516 117q0 -29 -19 -48l-47 -47q-22 -22 -51 -22h-191q-29 0 -51 22l-69 69l55 54l61 -61q6 -6 15 -6h169q9 0 15 6l23 23q5 5 5 14v142q0 10 -5 14l-29 30q-6 6 -15 6h-136v78h135q11 0 15 6l30 29q5 5 5 14v106q0 9 -5 14l-23 23q-6 6 -15 6h-169q-9 0 -15 -6l-61 -61
l-55 54l69 69q22 22 51 22h191q29 0 51 -22l47 -47q19 -19 19 -48v-113q0 -29 -21 -50l-35 -35l36 -36q20 -20 20 -48v-151z" />
    <glyph glyph-name="four" unicode="4" 
d="M520 179h-84v-179h-85v179h-296v71l267 417h113v-410h85v-78zM351 257v315l-199 -315h199z" />
    <glyph glyph-name="five" unicode="5" 
d="M516 117q0 -29 -19 -48l-47 -47q-22 -22 -51 -22h-191q-29 0 -51 22l-69 69l55 54l61 -61q6 -6 15 -6h169q9 0 15 6l23 23q5 5 5 14v173q0 7 -5 12l-23 23q-6 6 -15 6h-269v332h369v-78h-284v-176h195q29 0 51 -22l47 -47q19 -19 19 -46v-181z" />
    <glyph glyph-name="six" unicode="6" 
d="M519 576l-55 -54l-61 61q-6 6 -15 6h-169q-9 0 -15 -6l-23 -23q-5 -5 -5 -14v-203l48 48q22 22 51 22h124q29 0 51 -22l47 -47q19 -19 19 -48v-179q0 -29 -19 -48l-47 -47q-22 -22 -51 -22h-191q-29 0 -51 22l-47 47q-19 19 -19 48v433q0 29 19 48l47 47q22 22 51 22h191
q29 0 51 -22zM431 121v170q0 10 -5 15l-23 23q-6 6 -15 6h-109q-11 0 -15 -6l-83 -82q-5 -5 -5 -14v-112q0 -9 5 -14l23 -23q6 -6 15 -6h169q9 0 15 6l23 23q5 5 5 14z" />
    <glyph glyph-name="seven" unicode="7" 
d="M516 609l-274 -609h-92l267 589h-328v78h427v-58z" />
    <glyph glyph-name="eight" unicode="8" 
d="M516 117q0 -29 -19 -48l-47 -47q-22 -22 -51 -22h-191q-29 0 -51 22l-47 47q-19 20 -19 48v146q0 28 20 50l36 35l-35 35q-21 21 -21 51v116q0 29 19 48l47 47q22 22 51 22h191q29 0 51 -22l47 -47q19 -19 19 -48v-116q0 -29 -21 -50l-35 -35l35 -36q21 -21 21 -49v-147z
M431 438v108q0 9 -5 14l-23 23q-6 6 -15 6h-169q-9 0 -15 -6l-23 -23q-5 -5 -5 -14v-108q0 -10 5 -14l30 -30q7 -7 15 -7h155q9 0 15 6l30 30q5 5 5 15zM431 122v137q0 10 -5 14l-30 30q-7 7 -15 7h-155q-7 0 -15 -6l-30 -30q-5 -5 -5 -14v-139q0 -9 5 -14l23 -23
q6 -6 15 -6h169q9 0 15 6l23 23q5 5 5 15z" />
    <glyph glyph-name="nine" unicode="9" 
d="M516 117q0 -29 -19 -48l-47 -47q-22 -22 -51 -22h-191q-29 0 -51 22l-69 69l55 54l61 -61q6 -6 15 -6h169q9 0 15 6l23 23q5 5 5 14v203l-48 -48q-22 -22 -51 -22h-124q-29 0 -51 22l-47 47q-19 19 -19 48v179q0 29 19 48l47 47q22 22 51 22h191q29 0 51 -22l47 -47
q19 -19 19 -48v-433zM431 435v111q0 9 -5 14l-23 23q-6 6 -15 6h-169q-9 0 -15 -6l-23 -23q-5 -5 -5 -14v-170q0 -10 5 -15l23 -23q6 -6 15 -6h109q10 0 15 6l83 82q5 5 5 15z" />
    <glyph glyph-name="colon" unicode=":" horiz-adv-x="304" 
d="M205 370h-107v106h107v-106zM205 0h-107v106h107v-106z" />
    <glyph glyph-name="semicolon" unicode=";" horiz-adv-x="304" 
d="M205 370h-107v106h107v-106zM196 -71q0 -29 -20 -50l-49 -49l-57 56l30 30q7 7 7 14v176h89v-177z" />
    <glyph glyph-name="less" unicode="&#x3c;" 
d="M449 422l-184 -184l184 -184l-53 -54l-239 238l239 238z" />
    <glyph glyph-name="equal" unicode="=" 
d="M542 300h-477v76h477v-76zM542 102h-477v77h477v-77z" />
    <glyph glyph-name="greater" unicode="&#x3e;" 
d="M449 238l-238 -238l-53 54l184 184l-184 184l53 54z" />
    <glyph glyph-name="question" unicode="?" horiz-adv-x="509" 
d="M418 448q0 -27 -21 -50l-123 -123q-6 -6 -6 -14v-56h-86v59q0 30 20 49l124 124q6 6 6 14v96q0 9 -6 14l-22 22q-6 6 -14 6h-113q-9 0 -15 -6l-57 -57l-56 55l65 65q21 21 49 21h140q29 0 49 -21l45 -45q21 -21 21 -49v-104zM277 0h-106v106h106v-106z" />
    <glyph glyph-name="at" unicode="@" horiz-adv-x="820" 
d="M715 185q0 -9 -6 -14l-45 -46q-6 -6 -14 -6h-96q-8 0 -14 6l-44 44l-44 -44q-6 -6 -14 -6h-103q-8 0 -14 6l-63 63q-7 7 -7 14v214q0 8 6 14l64 64q6 6 14 6h100q8 0 14 -6l46 -46l11 52h67l-15 -69v-222q0 -8 6 -14l22 -22q15 -15 29 -3l16 16q6 6 6 14v306q0 9 -6 15
l-62 62q-6 6 -14 6h-289q-8 0 -14 -6l-63 -63q-6 -6 -6 -15v-399q0 -9 6 -15l63 -63q6 -6 14 -6h393v-78h-424q-8 0 -14 6l-110 110q-6 6 -6 14v463q0 8 6 14l110 110q6 6 14 6h351q8 0 14 -6l109 -109q6 -6 6 -15v-352zM484 260v99q0 8 -6 14l-58 58q-6 6 -14 6h-39
q-9 0 -15 -6l-20 -20q-6 -6 -6 -14v-175q0 -8 6 -14l20 -20q6 -6 15 -6h39q8 0 14 6l58 58q6 6 6 14z" />
    <glyph glyph-name="A" unicode="A" horiz-adv-x="689" 
d="M654 0h-93l-68 179h-299l-68 -179h-91l250 667h120zM460 263l-116 322l-118 -322h234z" />
    <glyph glyph-name="B" unicode="B" horiz-adv-x="701" 
d="M610 129q0 -28 -20 -50l-59 -58q-21 -21 -49 -21h-363v667h362q29 0 50 -21l59 -59q20 -20 20 -49v-97q0 -29 -21 -50l-58 -57l58 -58q21 -21 21 -49v-98zM520 451v75q0 8 -6 14l-33 33q-6 6 -14 6h-257v-203h236q8 0 14 6l54 54q6 6 6 15zM520 141v75q0 8 -6 14l-54 54
q-7 7 -14 7h-236v-203h256q10 0 14 6l33 33q7 7 7 14z" />
    <glyph glyph-name="C" unicode="C" horiz-adv-x="632" 
d="M583 115l-94 -94q-21 -21 -50 -21h-195q-29 0 -50 21l-82 82q-21 21 -21 50v361q0 29 21 50l82 82q21 21 50 21h195q29 0 50 -21l94 -94l-62 -62l-83 83q-6 6 -14 6h-165q-8 0 -14 -6l-57 -57q-6 -6 -6 -14v-337q0 -8 6 -14l57 -57q6 -6 14 -6h165q8 0 14 6l82 83z" />
    <glyph glyph-name="D" unicode="D" horiz-adv-x="702" 
d="M611 153q0 -27 -21 -50l-82 -82q-21 -21 -50 -21h-339v667h338q30 0 50 -21l82 -82q22 -22 22 -50v-361zM520 166v336q0 6 -6 14l-57 57q-6 6 -14 6h-233v-491h232q10 0 14 6l58 58q6 6 6 14z" />
    <glyph glyph-name="E" unicode="E" horiz-adv-x="641" 
d="M550 0h-431v667h431v-88h-340v-201h340v-88h-340v-202h340v-88z" />
    <glyph glyph-name="F" unicode="F" horiz-adv-x="614" 
d="M551 290h-341v-290h-91v667h432v-88h-341v-201h341v-88z" />
    <glyph glyph-name="G" unicode="G" horiz-adv-x="748" 
d="M671 0h-87l-19 95l-74 -74q-21 -21 -49 -21h-198q-29 0 -50 21l-82 82q-21 21 -21 50v361q0 29 21 50l82 82q21 21 50 21h247q28 0 49 -21l94 -94l-62 -62l-83 83q-6 6 -14 6h-216q-8 0 -14 -6l-57 -57q-6 -6 -6 -14v-337q0 -8 6 -14l57 -57q6 -6 14 -6h170q9 0 14 6
l105 104q6 6 6 14v78h-182v88h273v-248z" />
    <glyph glyph-name="H" unicode="H" horiz-adv-x="730" 
d="M611 0h-91v290h-310v-290h-91v667h91v-289h310v289h91v-667z" />
    <glyph glyph-name="I" unicode="I" horiz-adv-x="437" 
d="M388 0h-339v82h124v503h-124v82h339v-82h-124v-503h124v-82z" />
    <glyph glyph-name="J" unicode="J" horiz-adv-x="559" 
d="M454 153q0 -29 -21 -50l-82 -82q-21 -21 -50 -21h-143q-29 0 -50 21l-94 94l62 62l83 -83q6 -6 14 -6h113q8 0 14 6l57 57q6 6 6 14v414h-197v88h288v-514z" />
    <glyph glyph-name="K" unicode="K" horiz-adv-x="608" 
d="M598 0h-120l-268 290v-290h-91v667h91v-290l271 290h117l-312 -333z" />
    <glyph glyph-name="L" unicode="L" horiz-adv-x="574" 
d="M550 0h-431v667h91v-579h340v-88z" />
    <glyph glyph-name="M" unicode="M" horiz-adv-x="886" 
d="M767 0h-89v582l-189 -582h-92l-188 582v-582h-90v667h149l175 -542l175 542h149v-667z" />
    <glyph glyph-name="N" unicode="N" horiz-adv-x="730" 
d="M611 0h-136l-266 563v-563h-90v667h136l266 -563v563h90v-667z" />
    <glyph glyph-name="O" unicode="O" horiz-adv-x="735" 
d="M644 153q0 -27 -21 -50l-82 -82q-21 -21 -50 -21h-247q-29 0 -50 21l-82 82q-21 21 -21 50v361q0 29 21 50l82 82q21 21 50 21h246q30 0 50 -21l82 -82q22 -22 22 -50v-361zM553 166v336q0 6 -6 14l-57 57q-6 6 -14 6h-217q-8 0 -14 -6l-57 -57q-6 -6 -6 -14v-337
q0 -8 6 -14l57 -57q6 -6 14 -6h216q9 0 14 6l58 58q6 6 6 14z" />
    <glyph glyph-name="P" unicode="P" horiz-adv-x="663" 
d="M611 412q0 -29 -21 -50l-59 -59q-20 -20 -48 -20h-273v-283h-91v667h363q28 0 48 -20l59 -59q22 -22 22 -50v-126zM520 425v101q0 8 -6 14l-33 33q-6 6 -14 6h-257v-208h256q10 0 14 6l34 34q6 6 6 14z" />
    <glyph glyph-name="Q" unicode="Q" horiz-adv-x="735" 
d="M644 153q0 -27 -21 -50l-82 -82q-21 -21 -50 -21h-24l47 -110l-70 -29l-59 139h-141q-29 0 -50 21l-82 82q-21 21 -21 50v361q0 29 21 50l82 82q21 21 50 21h246q30 0 50 -21l82 -82q22 -22 22 -50v-361zM553 166v336q0 6 -6 14l-57 57q-6 6 -14 6h-217q-8 0 -14 -6
l-57 -57q-6 -6 -6 -14v-337q0 -8 6 -14l57 -57q6 -6 14 -6h88l-24 57l70 32l37 -89h45q9 0 14 6l58 58q6 6 6 14z" />
    <glyph glyph-name="R" unicode="R" horiz-adv-x="722" 
d="M659 0h-110l-190 274q-7 9 -17 9h-132v-283h-91v667h363q28 0 48 -20l59 -59q22 -22 22 -50v-126q0 -29 -21 -50l-59 -59q-20 -20 -48 -20h-25zM520 425v101q0 8 -6 14l-33 33q-6 6 -14 6h-257v-208h256q10 0 14 6l34 34q6 6 6 14z" />
    <glyph glyph-name="S" unicode="S" horiz-adv-x="707" 
d="M630 153q0 -27 -21 -50l-82 -82q-21 -21 -50 -21h-256q-29 0 -50 21l-94 94l62 62l83 -83q6 -6 14 -6h225q10 0 14 6l57 57q7 7 7 14v82q0 8 -6 13.5t-13 6.5l-377 49q-28 4 -47 25t-19 49v124q0 29 21 50l82 82q21 21 50 21h255q31 0 50 -21l95 -94l-62 -62l-83 83
q-6 6 -14 6h-226q-8 0 -14 -6l-57 -57q-6 -6 -6 -14v-82q0 -18 18 -20l378 -49q28 -4 47 -25t19 -49v-124z" />
    <glyph glyph-name="T" unicode="T" horiz-adv-x="561" 
d="M526 579h-200v-579h-91v579h-200v88h491v-88z" />
    <glyph glyph-name="U" unicode="U" horiz-adv-x="702" 
d="M597 153q0 -27 -21 -50l-82 -82q-21 -21 -50 -21h-186q-29 0 -50 21l-82 82q-21 21 -21 50v514h91v-502q0 -8 6 -14l57 -57q6 -6 14 -6h155q10 0 14 6l57 57q6 6 6 14v502h92v-514z" />
    <glyph glyph-name="V" unicode="V" horiz-adv-x="604" 
d="M583 667l-221 -667h-121l-220 667h93l189 -583l189 583h91z" />
    <glyph glyph-name="W" unicode="W" horiz-adv-x="866" 
d="M817 667l-143 -667h-125l-117 572l-117 -572h-124l-142 667h93l114 -575l115 575h129l113 -575l116 575h88z" />
    <glyph glyph-name="X" unicode="X" horiz-adv-x="600" 
d="M551 0h-104l-147 251l-149 -251h-102l201 333l-201 334h103l148 -252l148 252h102l-201 -333z" />
    <glyph glyph-name="Y" unicode="Y" horiz-adv-x="598" 
d="M577 667l-232 -372v-295h-91v295l-233 372h102l177 -283l177 283h100z" />
    <glyph glyph-name="Z" unicode="Z" horiz-adv-x="646" 
d="M569 0h-492v69l372 510h-372v88h492v-69l-373 -510h373v-88z" />
    <glyph glyph-name="bracketleft" unicode="[" horiz-adv-x="401" 
d="M352 -190h-233v996h233v-78h-148v-839h148v-79z" />
    <glyph glyph-name="backslash" unicode="\" horiz-adv-x="553" 
d="M513 -84h-80l-393 839h80z" />
    <glyph glyph-name="bracketright" unicode="]" horiz-adv-x="401" 
d="M282 -190h-233v78h147v839h-147v79h233v-996z" />
    <glyph glyph-name="asciicircum" unicode="^" 
d="M541 432l-54 -53l-183 183l-185 -183l-53 53l237 238z" />
    <glyph glyph-name="underscore" unicode="_" horiz-adv-x="500" 
d="M500 -315h-500v79h500v-79z" />
    <glyph glyph-name="grave" unicode="`" horiz-adv-x="465" 
d="M348 521h-92l-146 146h92z" />
    <glyph glyph-name="a" unicode="a" horiz-adv-x="574" 
d="M520 56l-56 -56l-53 53l-33 -33q-22 -20 -49 -20h-166q-29 0 -49 20l-44 44q-21 21 -21 51v78q0 30 21 51l39 39q21 21 50 21h231v54q0 8 -6 14l-20 20q-6 6 -14 6h-180q-10 0 -14 -6l-37 -37l-53 53l48 48q20 20 49 20h198q29 0 49 -20l44 -44q21 -21 21 -51v-253
q0 -6 6 -14zM390 151v79h-215q-8 0 -14 -6l-20 -20q-7 -7 -7 -14v-72q0 -6 6 -14l20 -20q6 -6 14 -6h143q9 0 14 6l53 52q6 6 6 15z" />
    <glyph glyph-name="b" unicode="b" horiz-adv-x="581" 
d="M518 116q0 -31 -21 -52l-44 -44q-20 -20 -49 -20h-130q-29 0 -49 20l-53 53l-17 -73h-80l16 79v588h85v-260l48 48q21 21 50 21h129q30 0 49 -20l44 -44q22 -22 22 -51v-245zM432 121v237q0 8 -6 14l-20 20q-6 6 -14 6h-116q-10 0 -14 -6l-79 -79q-7 -7 -7 -14v-122
q0 -6 6 -14l79 -79q6 -6 15 -6h116q8 0 14 6l20 20q6 6 6 17z" />
    <glyph glyph-name="c" unicode="c" horiz-adv-x="516" 
d="M481 84l-63 -64q-20 -20 -49 -20h-192q-29 0 -49 20l-44 44q-21 21 -21 51v246q0 30 21 51l44 44q20 20 49 20h191q30 0 49 -20l64 -63l-55 -56l-55 55q-6 6 -14 6h-168q-9 0 -14 -6l-20 -20q-7 -7 -7 -14v-240q0 -6 6 -14l20 -20q6 -6 14 -6h169q8 0 14 6l54 55z" />
    <glyph glyph-name="d" unicode="d" horiz-adv-x="581" 
d="M506 0h-80l-17 73l-53 -52q-21 -21 -49 -21h-130q-29 0 -49 20l-44 44q-21 21 -21 52v245q0 30 21 51l44 44q20 20 49 20h129q28 0 50 -20l48 -49v260h85v-588zM404 177v122q0 8 -6 14l-79 79q-6 6 -14 6h-116q-9 0 -14 -6l-20 -20q-7 -7 -7 -14v-237q0 -9 6 -17l20 -20
q6 -6 14 -6h116q9 0 15 6l79 79q6 6 6 14z" />
    <glyph glyph-name="e" unicode="e" horiz-adv-x="553" 
d="M489 217h-341v-98q0 -7 5 -14l21 -21q6 -6 14 -6h176q8 0 14 6l54 55l56 -55l-63 -64q-20 -20 -49 -20h-199q-29 0 -49 20l-44 44q-21 21 -21 51v246q0 30 21 51l44 44q20 20 49 20h198q30 0 49 -20l44 -44q21 -21 21 -51v-144zM404 292v66q0 8 -6 14l-20 20q-6 6 -14 6
h-175q-9 0 -14 -6l-20 -20q-5 -5 -7 -14v-66h256z" />
    <glyph glyph-name="f" unicode="f" horiz-adv-x="383" 
d="M351 398h-158v-398h-86v398h-76v78h76v78q0 31 21 52l41 41q20 20 49 20h133v-78h-118q-8 0 -14 -6l-20 -20q-6 -6 -6 -16v-71h158v-78z" />
    <glyph glyph-name="g" unicode="g" horiz-adv-x="581" 
d="M506 476l-16 -79v-472q0 -30 -21 -51l-44 -44q-21 -21 -49 -21h-199q-27 0 -49 20l-60 60l54 55l51 -51q6 -7 14 -7h177q6 0 14 6l20 20q6 6 6 14v143l-48 -48q-21 -21 -49 -21h-130q-29 0 -49 20l-44 44q-21 21 -21 51v245q0 31 21 52l44 44q20 20 49 20h129
q28 0 50 -20l53 -53l16 73h81zM404 177v122q0 8 -6 14l-79 79q-6 6 -14 6h-116q-9 0 -14 -6l-20 -20q-7 -7 -7 -16v-238q0 -6 6 -14l20 -20q6 -6 14 -6h116q9 0 15 6l79 79q6 6 6 14z" />
    <glyph glyph-name="h" unicode="h" horiz-adv-x="584" 
d="M493 0h-86v358q0 8 -6 14l-23 23q-7 7 -14 7h-84q-7 0 -15 -6l-82 -83q-6 -6 -6 -14v-299h-86v667h85v-260l48 48q21 21 50 21h104q30 0 49 -20l44 -44q22 -22 22 -51v-361z" />
    <glyph glyph-name="i" unicode="i" horiz-adv-x="289" 
d="M194 0h-85v398h-102v78h187v-476zM201 574h-102v102h102v-102z" />
    <glyph glyph-name="j" unicode="j" horiz-adv-x="292" 
d="M198 -78v1q0 -31 -21 -52l-41 -41q-20 -20 -49 -20h-134v78h120q8 0 14 6l20 20q6 6 6 16v468h-102v78h187v-554zM205 574h-102v102h102v-102z" />
    <glyph glyph-name="k" unicode="k" horiz-adv-x="500" 
d="M493 0h-109l-207 221v-221h-86v667h86v-388l180 197h109l-212 -225z" />
    <glyph glyph-name="l" unicode="l" horiz-adv-x="278" 
d="M184 0h-86v589h-101v78h187v-667z" />
    <glyph glyph-name="m" unicode="m" horiz-adv-x="815" 
d="M724 0h-86v358q0 8 -6 14l-23 23q-7 7 -14 7h-42q-8 0 -14 -6l-83 -83q-6 -6 -6 -14v-299h-85v358q0 6 -6 14l-24 23q-7 7 -14 7h-41q-7 0 -15 -6l-82 -83q-6 -6 -6 -14v-299h-86v393l-20 83h83l17 -74l53 53q21 21 50 21h62q29 0 49 -20l57 -57l56 56q21 21 49 21h62
q30 0 49 -20l44 -44q22 -22 22 -51v-361z" />
    <glyph glyph-name="n" unicode="n" horiz-adv-x="584" 
d="M493 0h-86v358q0 8 -6 14l-23 23q-7 7 -14 7h-84q-7 0 -15 -6l-82 -83q-6 -6 -6 -14v-299h-86v393l-20 83h83l17 -74l53 53q21 21 50 21h104q30 0 49 -20l44 -44q22 -22 22 -51v-361z" />
    <glyph glyph-name="o" unicode="o" horiz-adv-x="553" 
d="M490 117q0 -32 -21 -53l-44 -44q-20 -20 -49 -20h-199q-29 0 -49 20l-44 44q-21 21 -21 51v246q0 30 21 51l44 44q20 20 49 20h198q30 0 49 -20l44 -44q22 -22 22 -51v-244zM404 121v237q0 8 -6 14l-20 20q-6 6 -14 6h-175q-9 0 -14 -6l-20 -20q-7 -7 -7 -14v-240
q0 -6 6 -14l20 -20q6 -6 14 -6h176q8 0 14 6l20 20q6 6 6 17z" />
    <glyph glyph-name="p" unicode="p" horiz-adv-x="581" 
d="M518 115q0 -30 -21 -51l-44 -44q-20 -20 -49 -20h-130q-29 0 -49 20l-48 49v-260h-86v588l-16 79h80l16 -73l53 52q21 21 50 21h129q30 0 49 -20l44 -44q22 -22 22 -52v-245zM432 118v237q0 11 -6 17l-20 20q-6 6 -14 6h-116q-10 0 -14 -6l-79 -79q-7 -7 -7 -14v-122
q0 -6 6 -14l79 -79q6 -6 15 -6h116q8 0 14 6l20 20q6 6 6 14z" />
    <glyph glyph-name="q" unicode="q" horiz-adv-x="581" 
d="M506 476l-16 -79v-588h-86v260l-48 -48q-21 -21 -49 -21h-130q-29 0 -49 20l-44 44q-21 21 -21 51v245q0 31 21 52l44 44q20 20 49 20h129q28 0 50 -20l53 -53l16 73h81zM404 177v122q0 8 -6 14l-79 79q-6 6 -14 6h-116q-9 0 -14 -6l-20 -20q-7 -7 -7 -16v-238
q0 -6 6 -14l20 -20q6 -6 14 -6h116q9 0 15 6l79 79q6 6 6 14z" />
    <glyph glyph-name="r" unicode="r" horiz-adv-x="517" 
d="M468 286h-82v72q0 6 -6 14l-24 23q-7 7 -14 7h-62q-7 0 -15 -6l-82 -83q-6 -6 -6 -14v-299h-86v393l-20 83h83l17 -74l53 53q21 21 50 21h79q30 0 49 -20l44 -44q22 -22 22 -51v-75z" />
    <glyph glyph-name="s" unicode="s" horiz-adv-x="525" 
d="M462 116q0 -31 -21 -52l-44 -44q-20 -20 -49 -20h-174q-29 0 -49 20l-62 62l55 55l53 -53q6 -6 14 -6h151q8 0 14 6l20 20q6 6 6 16v49q0 18 -18 20l-232 29q-27 4 -45 23.5t-18 45.5v74q0 28 21 51l44 44q20 20 49 20h174q30 0 49 -20l62 -61l-55 -56l-53 53q-6 6 -14 6
h-151q-8 0 -14 -6l-20 -20q-6 -6 -6 -14v-46q0 -18 18 -20l233 -30q26 -3 44 -23t18 -46v-77z" />
    <glyph glyph-name="t" unicode="t" horiz-adv-x="387" 
d="M352 0h-133q-29 0 -49 20l-40 40q-21 21 -21 52v286h-77v78h76v191h86v-191h158v-78h-158v-277q0 -11 6 -17l20 -20q6 -6 14 -6h118v-78z" />
    <glyph glyph-name="u" unicode="u" horiz-adv-x="584" 
d="M513 0h-83l-18 74l-53 -53q-21 -21 -49 -21h-105q-29 0 -49 20l-44 44q-21 21 -21 51v361h85v-358q0 -6 6 -14l24 -23q7 -7 14 -7h84q8 0 14 6l83 83q6 6 6 14v299h85v-393z" />
    <glyph glyph-name="v" unicode="v" horiz-adv-x="495" 
d="M460 476l-153 -476h-118l-154 476h88l125 -400l126 400h86z" />
    <glyph glyph-name="w" unicode="w" horiz-adv-x="796" 
d="M747 476l-123 -476h-121l-105 401l-103 -401h-121l-125 476h86l99 -399l98 399h133l99 -399l97 399h86z" />
    <glyph glyph-name="x" unicode="x" horiz-adv-x="469" 
d="M448 0h-100l-114 170l-115 -170h-98l167 238l-166 238h99l114 -169l114 169h99l-166 -237z" />
    <glyph glyph-name="y" unicode="y" horiz-adv-x="474" 
d="M446 476l-230 -666h-87l59 182l-167 484h89l124 -370l125 370h87z" />
    <glyph glyph-name="z" unicode="z" horiz-adv-x="474" 
d="M435 0h-397v63l283 335h-283v78h397v-63l-283 -335h283v-78z" />
    <glyph glyph-name="braceleft" unicode="{" horiz-adv-x="398" 
d="M363 -137l-55 -56l-111 111q-21 21 -21 50v222q0 6 -6 14l-48 48q-27 25 -27 55q0 27 26 55l48 48q6 6 6 14v221q0 27 21 50l111 112l56 -56l-96 -96q-6 -6 -6 -14v-216q0 -27 -21 -50l-51 -50q-17 -18 0 -35l50 -51q21 -21 21 -50v-216q0 -8 6 -14z" />
    <glyph glyph-name="bar" unicode="|" horiz-adv-x="304" 
d="M192 -191h-82v858h82v-858z" />
    <glyph glyph-name="braceright" unicode="}" horiz-adv-x="398" 
d="M303 307q0 -29 -26 -55l-48 -48q-6 -6 -6 -14v-222q0 -27 -21 -50l-111 -111l-56 56l96 95q6 6 6 14v217q0 27 21 50l51 50q17 18 0 35l-50 51q-21 21 -21 50v216q0 6 -6 14l-97 96l55 56l111 -112q21 -21 21 -50v-221q0 -6 6 -14l48 -48q27 -27 27 -55z" />
    <glyph glyph-name="asciitilde" unicode="~" 
d="M562 285l-154 -154q-13 -13 -33 -13q-21 0 -34 13l-107 107q-11 11 -21 0l-114 -113l-54 53l146 146q12 12 33 12t34 -13l107 -107q10 -10 21 0l122 122z" />
    <glyph glyph-name="nbspace" unicode="&#xa0;" horiz-adv-x="304" 
 />
    <glyph glyph-name="exclamdown" unicode="&#xa1;" horiz-adv-x="304" 
d="M205 370h-106v106h106v-106zM195 -191h-86v459h86v-459z" />
    <glyph glyph-name="cent" unicode="&#xa2;" 
d="M513 84l-63 -64q-20 -20 -49 -20h-70v-96h-52v96h-70q-29 0 -49 20l-44 44q-21 21 -21 51v246q0 30 21 51l44 44q20 20 49 20h70v99h52v-99h69q30 0 49 -20l64 -63l-55 -56l-55 55q-6 6 -14 6h-58v-320h58q8 0 14 6l54 55zM279 78v320h-58q-9 0 -14 -6l-20 -20
q-7 -7 -7 -14v-240q0 -6 6 -14l20 -20q6 -6 14 -6h59z" />
    <glyph glyph-name="sterling" unicode="&#xa3;" 
d="M566 580l-56 -56l-59 59q-6 6 -15 6h-172q-10 0 -15 -6l-24 -24q-6 -6 -6 -14v-173h288v-78h-288v-216h343v-78h-485v78h57v216h-57v78h57v178q0 29 19 48l47 47q22 22 51 22h198q29 0 50 -21z" />
    <glyph glyph-name="currency" unicode="&#xa4;" 
d="M517 213q0 -27 -17 -49l49 -49l-53 -53l-50 49q-16 -15 -43 -15h-199q-26 0 -44 15l-50 -49l-53 53l49 50q-16 19 -16 46v246q0 27 16 46l-49 51l53 53l50 -50q20 15 44 15h198q26 0 44 -15l50 50l53 -53l-50 -51q18 -19 18 -46v-244zM431 217v237q0 8 -6 14l-20 20
q-6 6 -14 6h-175q-10 0 -14 -6l-20 -20q-7 -7 -7 -14v-240q0 -6 6 -14l20 -20q6 -6 14 -6h176q8 0 14 6l20 20q6 6 6 17z" />
    <glyph glyph-name="yen" unicode="&#xa5;" 
d="M572 667l-154 -245h99v-50h-130l-40 -62v-13h170v-50h-170v-247h-87v247h-170v50h170v13l-40 62h-130v50h99l-154 245h99l169 -275l170 275h99z" />
    <glyph glyph-name="brokenbar" unicode="&#xa6;" horiz-adv-x="304" 
d="M192 381h-82v286h82v-286zM192 -191h-82v286h82v-286z" />
    <glyph glyph-name="section" unicode="&#xa7;" 
d="M490 580l-55 -55l-58 58q-6 6 -15 6h-118q-9 0 -15 -6l-21 -21q-5 -5 -5 -14v-62q0 -11 8 -16l278 -174l-41 -67l-303 191q-28 17 -28 55v77q0 29 20 49l44 44q22 22 51 22h141q29 0 49 -20zM490 20q0 -29 -20 -49l-44 -44q-22 -22 -51 -22h-141q-30 0 -49 21l-68 66
l55 55l58 -58q6 -6 15 -6h118q9 0 15 6l21 21q5 5 5 14v63q0 10 -8 15l-278 174l41 67l303 -191q28 -17 28 -55v-77z" />
    <glyph glyph-name="dieresis" unicode="&#xa8;" horiz-adv-x="465" 
d="M386 574h-102v102h102v-102zM181 574h-102v102h102v-102z" />
    <glyph glyph-name="copyright" unicode="&#xa9;" horiz-adv-x="826" 
d="M770 333q0 -148 -104.5 -252.5t-252.5 -104.5t-252.5 104.5t-104.5 252.5t104.5 252.5t252.5 104.5t252.5 -104.5t104.5 -252.5zM695 333q0 117 -82.5 200.5t-199.5 83.5t-199.5 -83.5t-82.5 -200.5t82.5 -200.5t199.5 -83.5t199.5 83.5t82.5 200.5zM566 206l-61 -61
q-14 -14 -34 -14h-120q-20 0 -34 14l-56 56q-14 13 -14 34v198q0 20 14 34l56 55q15 15 34 15h120q19 0 34 -15l61 -61l-45 -45l-49 50q-6 4 -10 4h-102q-4 0 -10 -4l-32 -33q-4 -4 -4 -10v-179q0 -6 4 -10l32 -32q4 -4 10 -4h102q6 0 10 4l49 49z" />
    <glyph glyph-name="ordfeminine" unicode="&#xaa;" horiz-adv-x="386" 
d="M354 372l-38 -38l-34 34l-20 -20q-13 -14 -36 -14h-126q-22 0 -36 14l-31 32q-16 15 -16 37v47q0 22 16 37l31 32q14 14 36 14h167v36q0 7 -4 11l-11 11q-4 4 -10 4h-139q-6 0 -10 -4l-22 -22l-38 38l32 32q13 14 36 14h143q22 0 36 -14l31 -32q15 -14 15 -37l1 -179
q0 -7 4 -10zM267 428v61h-163q-8 0 -11 -4l-12 -11q-4 -4 -4 -8v-47q0 -8 4 -11l12 -12q3 -4 11 -4h127q7 0 10 4l22 22q4 3 4 10z" />
    <glyph glyph-name="guillemotleft" unicode="&#xab;" horiz-adv-x="593" 
d="M502 108l-55 -55l-124 124q-25 25 -25 61t25 61l124 124l55 -55l-116 -116q-14 -14 0 -28zM295 108l-55 -55l-124 124q-25 25 -25 61t25 61l124 124l55 -55l-116 -116q-14 -14 0 -28z" />
    <glyph glyph-name="logicalnot" unicode="&#xac;" 
d="M542 0h-76v286h-401v76h477v-362z" />
    <glyph glyph-name="registered" unicode="&#xae;" horiz-adv-x="544" 
d="M502 460q0 -95 -67.5 -162.5t-162.5 -67.5t-162.5 67.5t-67.5 162.5t67.5 162.5t162.5 67.5t162.5 -67.5t67.5 -162.5zM453 460q0 75 -53 129t-128 54t-128 -54t-53 -129t53 -129t128 -54t128 54t53 129zM376 330h-47l-70 104q-3 5 -9 5h-22v-109l-40 1v259h124
q19 0 33 -14l18 -18q11 -11 11 -31v-25q0 -20 -11 -31l-18 -18q-14 -14 -29 -14h-15zM334 500v29q0 5 -3 8l-13 13q-4 4 -9 4h-81v-79h81q5 0 9 4l13 13q3 3 3 8z" />
    <glyph glyph-name="macron" unicode="&#xaf;" horiz-adv-x="465" 
d="M387 570h-308v63h308v-63z" />
    <glyph glyph-name="degree" unicode="&#xb0;" 
d="M441 464q0 -38 -17 -56q-18 -17 -56 -17h-129q-38 0 -55 17q-18 18 -18 56v130q0 38 18 56q17 17 55 17h129q38 0 56 -17q17 -18 17 -56v-130zM378 475v108q0 25 -24 25h-100q-25 0 -25 -25v-108q0 -25 25 -25h100q24 0 24 25z" />
    <glyph glyph-name="plusminus" unicode="&#xb1;" 
d="M542 228h-200v-172h-76v172h-201v76h201v172h76v-172h200v-76zM542 -76h-477v76h477v-76z" />
    <glyph glyph-name="twosuperior" unicode="&#xb2;" horiz-adv-x="420" 
d="M343 266h-266v131q0 26 24 37l172 76q7 4 7 10v67q0 5 -3 8l-11 11q-4 4 -8 4h-98q-4 0 -8 -4l-41 -42l-41 41l49 49q13 13 30 13h122q17 0 30 -13l31 -31q11 -11 11 -28v-90q0 -26 -24 -37l-172 -77q-7 -3 -7 -10v-58h203v-57z" />
    <glyph glyph-name="threesuperior" unicode="&#xb3;" horiz-adv-x="420" 
d="M343 338q0 -17 -11 -28l-31 -31q-13 -13 -30 -13h-122q-17 0 -30 13l-49 49l41 41l42 -42q4 -4 8 -4h97q4 0 8 4l11 11q3 3 3 8v81q0 5 -3 8l-10 10q-4 4 -9 4h-91v57h91q5 0 9 4l10 10q3 3 3 8v59q0 5 -3 8l-11 11q-4 4 -8 4h-97q-4 0 -8 -4l-42 -42l-41 41l49 49
q13 13 30 13h58h64q17 0 30 -13l31 -31q11 -11 11 -28v-67q0 -17 -12 -29l-22 -22l22 -22q12 -12 12 -29v-88z" />
    <glyph glyph-name="acute" unicode="&#xb4;" horiz-adv-x="465" 
d="M356 667l-146 -146h-94l146 146h94z" />
    <glyph glyph-name="uni00B5" unicode="&#xb5;" 
d="M525 0h-83l-18 74l-53 -53q-21 -21 -49 -21h-62q-29 0 -39 10l-32 33v-234h-86v667h85v-341q0 -6 6 -14l41 -40q7 -7 14 -7h67q8 0 14 6l83 83q6 6 6 14v299h85v-393z" />
    <glyph glyph-name="paragraph" unicode="&#xb6;" horiz-adv-x="629" 
d="M510 0h-81v589h-77v-589h-82v307h-101q-29 0 -51 22l-52 52q-17 17 -17 48v116q0 31 17 48l52 52q22 22 51 22h341v-667zM270 385v204h-89q-9 0 -15 -6l-30 -30q-6 -6 -6 -14v-103q0 -9 5 -14l31 -31q6 -6 15 -6h89z" />
    <glyph glyph-name="periodcentered" unicode="&#xb7;" horiz-adv-x="304" 
d="M205 281h-107v106h107v-106z" />
    <glyph glyph-name="cedilla" unicode="&#xb8;" horiz-adv-x="465" 
d="M305 -88l-100 -100l-45 45l54 54l-55 55l46 46z" />
    <glyph glyph-name="onesuperior" unicode="&#xb9;" horiz-adv-x="420" 
d="M357 266h-266v57h104v271l-67 -67l-44 44l96 96h78v-344h99v-57z" />
    <glyph glyph-name="ordmasculine" unicode="&#xba;" horiz-adv-x="386" 
d="M347 417q0 -23 -15 -37l-31 -32q-14 -14 -36 -14h-144q-22 0 -36 14l-31 32q-16 15 -16 37v167q0 22 16 37l31 32q14 14 36 14h144q22 0 36 -14l31 -32q15 -14 15 -37v-167zM288 419v164q0 7 -4 11l-11 11q-4 4 -10 4h-138q-8 0 -11 -4l-12 -11q-4 -4 -4 -11v-164
q0 -8 4 -11l12 -12q3 -4 11 -4h138q6 0 10 4l11 12q4 3 4 11z" />
    <glyph glyph-name="guillemotright" unicode="&#xbb;" horiz-adv-x="593" 
d="M502 238q0 -36 -25 -61l-124 -124l-55 55l116 116q14 14 0 28l-116 116l55 55l124 -124q25 -25 25 -61zM295 238q0 -36 -25 -61l-124 -124l-55 55l116 116q14 14 0 28l-116 116l55 55l124 -124q25 -25 25 -61z" />
    <glyph glyph-name="onequarter" unicode="&#xbc;" horiz-adv-x="974" 
d="M909 104h-54v-104h-57v104h-180v49l160 248h77v-240h54v-57zM699 672l-363 -672h-61l363 672h61zM357 266h-266v57h104v271l-67 -67l-44 44l96 96h78v-344h99v-57zM795 161v165l-108 -165h108z" />
    <glyph glyph-name="onehalf" unicode="&#xbd;" horiz-adv-x="974" 
d="M897 0h-266v131q0 26 24 37l172 76q7 4 7 10v67q0 5 -3 8l-11 11q-4 4 -8 4h-97q-4 0 -8 -4l-42 -42l-41 41l49 49q13 13 30 13h122q17 0 30 -13l31 -31q11 -11 11 -28v-92q0 -27 -24 -37l-172 -75q-7 -3 -7 -10v-57h203v-58zM699 672l-363 -672h-61l363 672h61zM357 266
h-266v57h104v271l-67 -67l-44 44l96 96h78v-344h99v-57z" />
    <glyph glyph-name="threequarters" unicode="&#xbe;" horiz-adv-x="974" 
d="M909 104h-54v-104h-57v104h-180v49l160 248h77v-240h54v-57zM699 672l-363 -672h-61l363 672h61zM343 338q0 -17 -11 -28l-31 -31q-13 -13 -30 -13h-122q-17 0 -30 13l-49 49l41 41l42 -42q4 -4 8 -4h97q4 0 8 4l11 11q3 3 3 8v81q0 5 -3 8l-10 10q-4 4 -9 4h-91v57h91
q5 0 9 4l10 10q3 3 3 8v59q0 5 -3 8l-11 11q-4 4 -8 4h-97q-4 0 -8 -4l-42 -42l-41 41l49 49q13 13 30 13h58h64q17 0 30 -13l31 -31q11 -11 11 -28v-67q0 -17 -12 -29l-22 -22l22 -22q12 -12 12 -29v-88zM795 161v165l-108 -165h108z" />
    <glyph glyph-name="questiondown" unicode="&#xbf;" horiz-adv-x="509" 
d="M337 370h-106v106h106v-106zM460 -105l-65 -65q-21 -21 -50 -21h-139q-29 0 -50 21l-45 45q-20 20 -20 49v104q0 29 21 50l123 123q6 6 6 14v56h86v-59q0 -29 -20 -49l-124 -124q-7 -7 -7 -14v-96q0 -8 6 -14l22 -22q6 -6 15 -6h113q10 0 14 6l58 57z" />
    <glyph glyph-name="Agrave" unicode="&#xc0;" horiz-adv-x="689" 
d="M398 726h-92l-147 146h92zM654 0h-93l-68 179h-299l-68 -179h-91l250 667h120zM460 263l-116 322l-118 -322h234z" />
    <glyph glyph-name="Aacute" unicode="&#xc1;" horiz-adv-x="689" 
d="M534 872l-146 -146h-95l146 146h95zM654 0h-93l-68 179h-299l-68 -179h-91l250 667h120zM460 263l-116 322l-118 -322h234z" />
    <glyph glyph-name="Acircumflex" unicode="&#xc2;" horiz-adv-x="689" 
d="M531 740h-91l-95 96l-96 -96h-91l132 132h108zM654 0h-93l-68 179h-299l-68 -179h-91l250 667h120zM460 263l-116 322l-118 -322h234z" />
    <glyph glyph-name="Atilde" unicode="&#xc3;" horiz-adv-x="689" 
d="M540 801l-90 -59q-20 -13 -38 -13q-21 0 -42 14l-86 58q-8 6 -16 0l-82 -56l-36 51l88 58q19 14 39 14q21 0 41 -15l81 -56q9 -5 17 0l90 59zM654 0h-93l-68 179h-299l-68 -179h-91l250 667h120zM460 263l-116 322l-118 -322h234z" />
    <glyph glyph-name="Adieresis" unicode="&#xc4;" horiz-adv-x="689" 
d="M498 757h-102v101h102v-101zM293 757h-101v101h101v-101zM654 0h-93l-68 179h-299l-68 -179h-91l250 667h120zM460 263l-116 322l-118 -322h234z" />
    <glyph glyph-name="Aring" unicode="&#xc5;" horiz-adv-x="683" 
d="M648 0h-96l-64 179h-295l-64 -179h-94l222 594q-32 16 -32 56v90q0 28 19.5 48t48.5 20h94q29 0 49 -20t20 -48v-89q0 -36 -28 -55zM393 659v71q0 8 -6 14t-14 6h-65q-8 0 -14 -6t-6 -14v-71q0 -8 5.5 -14t13.5 -6h67q8 0 13.5 6t5.5 14zM458 262l-104 292q-2 6 -5 10
t-8 3q-8 0 -14 -13l-104 -292h235z" />
    <glyph glyph-name="AE" unicode="&#xc6;" horiz-adv-x="878" 
d="M787 0h-356v290h-235v-290h-91v514q0 28 21 51l82 81q21 21 49 21h530v-88h-265v-201h265v-88h-265v-202h265v-88zM431 378v201h-159q-8 0 -14 -6l-56 -56q-6 -6 -6 -14v-125h235z" />
    <glyph glyph-name="Ccedilla" unicode="&#xc7;" horiz-adv-x="632" 
d="M583 115l-94 -94q-21 -21 -50 -21h-90l88 -88l-100 -100l-45 46l54 54l-55 55l33 33h-80q-29 0 -50 21l-82 82q-21 21 -21 50v361q0 29 21 50l82 82q21 21 50 21h195q29 0 50 -21l94 -94l-62 -62l-83 83q-6 6 -14 6h-165q-8 0 -14 -6l-57 -57q-6 -6 -6 -14v-337
q0 -8 6 -14l57 -57q6 -6 14 -6h165q8 0 14 6l82 83z" />
    <glyph glyph-name="Egrave" unicode="&#xc8;" horiz-adv-x="641" 
d="M445 726h-92l-146 146h92zM550 0h-431v667h431v-88h-340v-201h340v-88h-340v-202h340v-88z" />
    <glyph glyph-name="Eacute" unicode="&#xc9;" horiz-adv-x="641" 
d="M464 872l-146 -146h-95l146 146h95zM550 0h-431v667h431v-88h-340v-201h340v-88h-340v-202h340v-88z" />
    <glyph glyph-name="Ecircumflex" unicode="&#xca;" horiz-adv-x="641" 
d="M520 740h-90l-96 96l-95 -96h-91l132 132h108zM550 0h-431v667h431v-88h-340v-201h340v-88h-340v-202h340v-88z" />
    <glyph glyph-name="Edieresis" unicode="&#xcb;" horiz-adv-x="641" 
d="M488 757h-102v101h102v-101zM283 757h-101v101h101v-101zM550 0h-431v667h431v-88h-340v-201h340v-88h-340v-202h340v-88z" />
    <glyph glyph-name="Igrave" unicode="&#xcc;" horiz-adv-x="437" 
d="M307 726h-92l-147 146h92zM388 0h-339v82h124v503h-124v82h339v-82h-124v-503h124v-82z" />
    <glyph glyph-name="Iacute" unicode="&#xcd;" horiz-adv-x="437" 
d="M371 872l-146 -146h-95l146 146h95zM388 0h-339v82h124v503h-124v82h339v-82h-124v-503h124v-82z" />
    <glyph glyph-name="Icircumflex" unicode="&#xce;" horiz-adv-x="437" 
d="M405 740h-91l-95 96l-96 -96h-91l132 132h108zM388 0h-339v82h124v503h-124v82h339v-82h-124v-503h124v-82z" />
    <glyph glyph-name="Idieresis" unicode="&#xcf;" horiz-adv-x="437" 
d="M372 757h-102v101h102v-101zM167 757h-101v101h101v-101zM388 0h-339v82h124v503h-124v82h339v-82h-124v-503h124v-82z" />
    <glyph glyph-name="Eth" unicode="&#xd0;" horiz-adv-x="702" 
d="M611 153q0 -27 -21 -50l-82 -82q-21 -21 -50 -21h-339v290l-93 -1v89h93v289h338q30 0 50 -21l82 -82q22 -22 22 -50v-361zM520 166v336q0 6 -6 14l-57 57q-6 6 -14 6h-233v-201h155v-89h-155v-201h232q10 0 14 6l58 58q6 6 6 14z" />
    <glyph glyph-name="Ntilde" unicode="&#xd1;" horiz-adv-x="730" 
d="M560 801l-90 -59q-20 -13 -38 -13q-21 0 -42 14l-86 58q-8 6 -16 0l-82 -56l-36 51l88 58q19 14 39 14q21 0 41 -15l81 -56q9 -5 17 0l90 59zM611 0h-136l-266 563v-563h-90v667h136l266 -563v563h90v-667z" />
    <glyph glyph-name="Ograve" unicode="&#xd2;" horiz-adv-x="735" 
d="M443 726h-92l-146 146h92zM644 153q0 -27 -21 -50l-82 -82q-21 -21 -50 -21h-247q-29 0 -50 21l-82 82q-21 21 -21 50v361q0 29 21 50l82 82q21 21 50 21h246q30 0 50 -21l82 -82q22 -22 22 -50v-361zM553 166v336q0 6 -6 14l-57 57q-6 6 -14 6h-217q-8 0 -14 -6l-57 -57
q-6 -6 -6 -14v-337q0 -8 6 -14l57 -57q6 -6 14 -6h216q9 0 14 6l58 58q6 6 6 14z" />
    <glyph glyph-name="Oacute" unicode="&#xd3;" horiz-adv-x="735" 
d="M534 872l-146 -146h-95l146 146h95zM644 153q0 -27 -21 -50l-82 -82q-21 -21 -50 -21h-247q-29 0 -50 21l-82 82q-21 21 -21 50v361q0 29 21 50l82 82q21 21 50 21h246q30 0 50 -21l82 -82q22 -22 22 -50v-361zM553 166v336q0 6 -6 14l-57 57q-6 6 -14 6h-217
q-8 0 -14 -6l-57 -57q-6 -6 -6 -14v-337q0 -8 6 -14l57 -57q6 -6 14 -6h216q9 0 14 6l58 58q6 6 6 14z" />
    <glyph glyph-name="Ocircumflex" unicode="&#xd4;" horiz-adv-x="735" 
d="M553 740h-90l-96 96l-95 -96h-91l132 132h108zM644 153q0 -27 -21 -50l-82 -82q-21 -21 -50 -21h-247q-29 0 -50 21l-82 82q-21 21 -21 50v361q0 29 21 50l82 82q21 21 50 21h246q30 0 50 -21l82 -82q22 -22 22 -50v-361zM553 166v336q0 6 -6 14l-57 57q-6 6 -14 6h-217
q-8 0 -14 -6l-57 -57q-6 -6 -6 -14v-337q0 -8 6 -14l57 -57q6 -6 14 -6h216q9 0 14 6l58 58q6 6 6 14z" />
    <glyph glyph-name="Otilde" unicode="&#xd5;" horiz-adv-x="735" 
d="M562 801l-89 -59q-21 -13 -39 -13q-20 0 -41 14l-86 58q-9 6 -17 0l-81 -56l-37 51l88 58q20 14 39 14q21 0 41 -15l82 -56q8 -5 16 0l90 59zM644 153q0 -27 -21 -50l-82 -82q-21 -21 -50 -21h-247q-29 0 -50 21l-82 82q-21 21 -21 50v361q0 29 21 50l82 82q21 21 50 21
h246q30 0 50 -21l82 -82q22 -22 22 -50v-361zM553 166v336q0 6 -6 14l-57 57q-6 6 -14 6h-217q-8 0 -14 -6l-57 -57q-6 -6 -6 -14v-337q0 -8 6 -14l57 -57q6 -6 14 -6h216q9 0 14 6l58 58q6 6 6 14z" />
    <glyph glyph-name="Odieresis" unicode="&#xd6;" horiz-adv-x="735" 
d="M520 757h-101v101h101v-101zM316 757h-102v101h102v-101zM644 153q0 -27 -21 -50l-82 -82q-21 -21 -50 -21h-247q-29 0 -50 21l-82 82q-21 21 -21 50v361q0 29 21 50l82 82q21 21 50 21h246q30 0 50 -21l82 -82q22 -22 22 -50v-361zM553 166v336q0 6 -6 14l-57 57
q-6 6 -14 6h-217q-8 0 -14 -6l-57 -57q-6 -6 -6 -14v-337q0 -8 6 -14l57 -57q6 -6 14 -6h216q9 0 14 6l58 58q6 6 6 14z" />
    <glyph glyph-name="multiply" unicode="&#xd7;" 
d="M518 74l-53 -54l-162 162l-161 -162l-53 53l161 162l-161 161l53 54l161 -162l162 162l53 -53l-161 -162z" />
    <glyph glyph-name="Oslash" unicode="&#xd8;" horiz-adv-x="735" 
d="M644 153q0 -27 -21 -50l-82 -82q-21 -21 -50 -21h-173l-33 -139l-56 14l30 125h-15q-29 0 -50 21l-82 82q-21 21 -21 50v361q0 29 21 50l82 82q21 21 50 21h175l34 141l55 -13l-31 -128h13q30 0 50 -21l82 -82q22 -22 22 -50v-361zM553 166v336q0 6 -6 14l-57 57
q-6 6 -14 6h-20l-117 -491h136q9 0 14 6l58 58q6 6 6 14zM397 579h-138q-8 0 -14 -6l-57 -57q-6 -6 -6 -14v-337q0 -8 6 -14l57 -57q6 -6 14 -6h21z" />
    <glyph glyph-name="Ugrave" unicode="&#xd9;" horiz-adv-x="702" 
d="M446 726h-92l-147 146h92zM597 153q0 -27 -21 -50l-82 -82q-21 -21 -50 -21h-186q-29 0 -50 21l-82 82q-21 21 -21 50v514h91v-502q0 -8 6 -14l57 -57q6 -6 14 -6h155q10 0 14 6l57 57q6 6 6 14v502h92v-514z" />
    <glyph glyph-name="Uacute" unicode="&#xda;" horiz-adv-x="702" 
d="M511 872l-146 -146h-94l146 146h94zM597 153q0 -27 -21 -50l-82 -82q-21 -21 -50 -21h-186q-29 0 -50 21l-82 82q-21 21 -21 50v514h91v-502q0 -8 6 -14l57 -57q6 -6 14 -6h155q10 0 14 6l57 57q6 6 6 14v502h92v-514z" />
    <glyph glyph-name="Ucircumflex" unicode="&#xdb;" horiz-adv-x="702" 
d="M537 740h-91l-95 96l-96 -96h-91l132 132h108zM597 153q0 -27 -21 -50l-82 -82q-21 -21 -50 -21h-186q-29 0 -50 21l-82 82q-21 21 -21 50v514h91v-502q0 -8 6 -14l57 -57q6 -6 14 -6h155q10 0 14 6l57 57q6 6 6 14v502h92v-514z" />
    <glyph glyph-name="Udieresis" unicode="&#xdc;" horiz-adv-x="702" 
d="M504 757h-101v101h101v-101zM300 757h-102v101h102v-101zM597 153q0 -27 -21 -50l-82 -82q-21 -21 -50 -21h-186q-29 0 -50 21l-82 82q-21 21 -21 50v514h91v-502q0 -8 6 -14l57 -57q6 -6 14 -6h155q10 0 14 6l57 57q6 6 6 14v502h92v-514z" />
    <glyph glyph-name="Yacute" unicode="&#xdd;" horiz-adv-x="598" 
d="M486 872l-146 -146h-95l146 146h95zM577 667l-232 -372v-295h-91v295l-233 372h102l177 -283l177 283h100z" />
    <glyph glyph-name="Thorn" unicode="&#xde;" horiz-adv-x="663" 
d="M611 270q0 -29 -21 -50l-59 -59q-20 -20 -48 -20h-273v-141h-91v667h91v-140h272q28 0 48 -20l59 -59q22 -22 22 -50v-128zM520 283v103q0 6 -6 14l-33 32q-7 7 -14 7h-257v-210h256q10 0 14 6l34 34q6 6 6 14z" />
    <glyph glyph-name="germandbls" unicode="&#xdf;" horiz-adv-x="565" 
d="M502 115q0 -29 -21 -50l-44 -44q-21 -21 -50 -21h-168v78h154q9 0 14 6l23 22q6 6 6 14v155q0 9 -6 14l-18 19q-6 6 -14 6h-131v78h130q7 0 14 5l19 19q6 6 6 15v116q0 9 -5 14l-22 22q-6 6 -14 6h-171q-10 0 -14 -6l-22 -21q-5 -5 -5 -14v-738h-86v741q0 30 20 49l45 46
q21 21 50 21h194q29 0 50 -21l45 -45q21 -21 21 -50v-119q0 -30 -21 -51l-28 -28l28 -28q21 -21 21 -49v-161z" />
    <glyph glyph-name="agrave" unicode="&#xe0;" horiz-adv-x="574" 
d="M369 521h-92l-147 146h92zM520 56l-56 -56l-53 53l-33 -33q-22 -20 -49 -20h-166q-29 0 -49 20l-44 44q-21 21 -21 51v78q0 30 21 51l39 39q21 21 50 21h231v54q0 8 -6 14l-20 20q-6 6 -14 6h-180q-10 0 -14 -6l-37 -37l-53 53l48 48q20 20 49 20h198q29 0 49 -20l44 -44
q21 -21 21 -51v-253q0 -6 6 -14zM390 151v79h-215q-8 0 -14 -6l-20 -20q-7 -7 -7 -14v-72q0 -6 6 -14l20 -20q6 -6 14 -6h143q9 0 14 6l53 52q6 6 6 15z" />
    <glyph glyph-name="aacute" unicode="&#xe1;" horiz-adv-x="574" 
d="M424 667l-146 -146h-95l146 146h95zM520 56l-56 -56l-53 53l-33 -33q-22 -20 -49 -20h-166q-29 0 -49 20l-44 44q-21 21 -21 51v78q0 30 21 51l39 39q21 21 50 21h231v54q0 8 -6 14l-20 20q-6 6 -14 6h-180q-10 0 -14 -6l-37 -37l-53 53l48 48q20 20 49 20h198
q29 0 49 -20l44 -44q21 -21 21 -51v-253q0 -6 6 -14zM390 151v79h-215q-8 0 -14 -6l-20 -20q-7 -7 -7 -14v-72q0 -6 6 -14l20 -20q6 -6 14 -6h143q9 0 14 6l53 52q6 6 6 15z" />
    <glyph glyph-name="acircumflex" unicode="&#xe2;" horiz-adv-x="574" 
d="M460 535h-90l-96 96l-95 -96h-91l132 132h108zM520 56l-56 -56l-53 53l-33 -33q-22 -20 -49 -20h-166q-29 0 -49 20l-44 44q-21 21 -21 51v78q0 30 21 51l39 39q21 21 50 21h231v54q0 8 -6 14l-20 20q-6 6 -14 6h-180q-10 0 -14 -6l-37 -37l-53 53l48 48q20 20 49 20h198
q29 0 49 -20l44 -44q21 -21 21 -51v-253q0 -6 6 -14zM390 151v79h-215q-8 0 -14 -6l-20 -20q-7 -7 -7 -14v-72q0 -6 6 -14l20 -20q6 -6 14 -6h143q9 0 14 6l53 52q6 6 6 15z" />
    <glyph glyph-name="atilde" unicode="&#xe3;" horiz-adv-x="574" 
d="M474 613l-89 -59q-20 -14 -39 -14q-20 0 -41 14l-86 58q-9 6 -17 1l-81 -56l-37 50l88 59q21 13 39 13q20 0 41 -14l82 -56q7 -5 16 0l90 58zM520 56l-56 -56l-53 53l-33 -33q-22 -20 -49 -20h-166q-29 0 -49 20l-44 44q-21 21 -21 51v78q0 30 21 51l39 39q21 21 50 21
h231v54q0 8 -6 14l-20 20q-6 6 -14 6h-180q-10 0 -14 -6l-37 -37l-53 53l48 48q20 20 49 20h198q29 0 49 -20l44 -44q21 -21 21 -51v-253q0 -6 6 -14zM390 151v79h-215q-8 0 -14 -6l-20 -20q-7 -7 -7 -14v-72q0 -6 6 -14l20 -20q6 -6 14 -6h143q9 0 14 6l53 52q6 6 6 15z
" />
    <glyph glyph-name="adieresis" unicode="&#xe4;" horiz-adv-x="574" 
d="M426 574h-102v102h102v-102zM221 574h-101v102h101v-102zM520 56l-56 -56l-53 53l-33 -33q-22 -20 -49 -20h-166q-29 0 -49 20l-44 44q-21 21 -21 51v78q0 30 21 51l39 39q21 21 50 21h231v54q0 8 -6 14l-20 20q-6 6 -14 6h-180q-10 0 -14 -6l-37 -37l-53 53l48 48
q20 20 49 20h198q29 0 49 -20l44 -44q21 -21 21 -51v-253q0 -6 6 -14zM390 151v79h-215q-8 0 -14 -6l-20 -20q-7 -7 -7 -14v-72q0 -6 6 -14l20 -20q6 -6 14 -6h143q9 0 14 6l53 52q6 6 6 15z" />
    <glyph glyph-name="aring" unicode="&#xe5;" horiz-adv-x="574" 
d="M520 56l-56 -56l-53 53l-33 -33q-22 -20 -49 -20h-166q-29 0 -49 20l-44 44q-21 21 -21 51v78q0 30 21 51l39 39q21 21 50 21h231v54q0 8 -6 14l-20 20q-6 6 -14 6h-180q-10 0 -14 -6l-37 -37l-53 53l48 48q8 8 18 13t16 5l5 1v0v0v0v0v0v0v0v0v0v1v0v0v0v0v1v0v0v1v0v0
v1v0v1v0v1v0v1v0v1v0v1v0v1v1v0v1v1v1v0v1v1v1v1v1v1v1v1v1v1v1v1v1v1v1v1v1v1v1v1v1v1v1v1v1v1v1v1v1v1v1v1v1v1v1v1v1v1v1v1v1v1v1v1v1v1v1v1v1v1v1v1v1v1v1v1v1v1v1v1v1v1v1v1v1v1v1v1v1v1v1v1v1v1v10q0 28 19 47t47 19h85q28 0 47.5 -19t19.5 -47v-3v-3v-3v-3v-3v-3v-3
v-3v-3v-3v-3v-3v-3v-3v-3v-3v-3v-3v-3v-3v-3v-3v-3v-3v-3v-2v-3v-3v-3v-3v-9q21 -1 39 -19l44 -44q21 -21 21 -51v-253q0 -6 6 -14zM309 495l1 67q0 8 -6 13.5t-13 5.5h-57q-8 0 -14 -6t-6 -13v-67q0 -7 6 -13t13 -6h57q8 0 13.5 6t5.5 13zM390 150v80h-215q-8 0 -14 -6
l-20 -20q-7 -7 -7 -14v-72q0 -6 6 -14l20 -20q6 -6 14 -6h143q9 0 14 6l53 52q6 6 6 14z" />
    <glyph glyph-name="ae" unicode="&#xe6;" horiz-adv-x="790" 
d="M727 217h-290v-99q0 -8 6 -14l20 -20q6 -6 14 -6h124q9 0 14 6l55 55l55 -55l-63 -64q-20 -20 -49 -20h-147q-30 0 -50 20l-30 31l-31 -31q-20 -20 -49 -20h-143q-29 0 -49 20l-44 44q-21 21 -21 51v67q0 30 21 50l39 40q20 20 50 20h193v66q0 6 -6 14l-20 20q-6 6 -14 6
h-142q-10 0 -14 -6l-37 -37l-53 53l48 48q20 20 49 20h153q29 0 49 -20l29 -29l29 29q20 20 49 20h141q29 0 49 -20l44 -44q21 -21 21 -51v-144zM642 292v66q0 6 -6 14l-20 20q-6 6 -14 6h-125q-8 0 -14 -6l-20 -20q-6 -6 -6 -14v-66h205zM352 136v82h-177q-9 0 -14 -6
l-20 -20q-7 -7 -7 -14v-60q0 -6 6 -14l20 -20q6 -6 14 -6h120q8 0 14 6l38 38q6 6 6 14z" />
    <glyph glyph-name="ccedilla" unicode="&#xe7;" horiz-adv-x="516" 
d="M481 84l-63 -64q-20 -20 -49 -20h-93l88 -88l-100 -100l-43 44l56 56l-57 57l31 31h-74q-29 0 -49 20l-44 44q-21 21 -21 51v246q0 30 21 51l44 44q20 20 49 20h191q30 0 49 -20l64 -63l-55 -56l-55 55q-6 6 -14 6h-168q-9 0 -14 -6l-20 -20q-7 -7 -7 -14v-240
q0 -6 6 -14l20 -20q6 -6 14 -6h169q8 0 14 6l54 55z" />
    <glyph glyph-name="egrave" unicode="&#xe8;" horiz-adv-x="553" 
d="M368 521h-92l-146 146h92zM489 217h-341v-98q0 -7 5 -14l21 -21q6 -6 14 -6h176q8 0 14 6l54 55l56 -55l-63 -64q-20 -20 -49 -20h-199q-29 0 -49 20l-44 44q-21 21 -21 51v246q0 30 21 51l44 44q20 20 49 20h198q30 0 49 -20l44 -44q21 -21 21 -51v-144zM404 292v66
q0 8 -6 14l-20 20q-6 6 -14 6h-175q-9 0 -14 -6l-20 -20q-5 -5 -7 -14v-66h256z" />
    <glyph glyph-name="eacute" unicode="&#xe9;" horiz-adv-x="553" 
d="M436 667l-146 -146h-94l146 146h94zM489 217h-341v-98q0 -7 5 -14l21 -21q6 -6 14 -6h176q8 0 14 6l54 55l56 -55l-63 -64q-20 -20 -49 -20h-199q-29 0 -49 20l-44 44q-21 21 -21 51v246q0 30 21 51l44 44q20 20 49 20h198q30 0 49 -20l44 -44q21 -21 21 -51v-144z
M404 292v66q0 8 -6 14l-20 20q-6 6 -14 6h-175q-9 0 -14 -6l-20 -20q-5 -5 -7 -14v-66h256z" />
    <glyph glyph-name="ecircumflex" unicode="&#xea;" horiz-adv-x="553" 
d="M462 535h-90l-96 96l-95 -96h-91l132 132h108zM489 217h-341v-98q0 -7 5 -14l21 -21q6 -6 14 -6h176q8 0 14 6l54 55l56 -55l-63 -64q-20 -20 -49 -20h-199q-29 0 -49 20l-44 44q-21 21 -21 51v246q0 30 21 51l44 44q20 20 49 20h198q30 0 49 -20l44 -44q21 -21 21 -51
v-144zM404 292v66q0 8 -6 14l-20 20q-6 6 -14 6h-175q-9 0 -14 -6l-20 -20q-5 -5 -7 -14v-66h256z" />
    <glyph glyph-name="edieresis" unicode="&#xeb;" horiz-adv-x="553" 
d="M427 574h-102v102h102v-102zM222 574h-102v102h102v-102zM489 217h-341v-98q0 -7 5 -14l21 -21q6 -6 14 -6h176q8 0 14 6l54 55l56 -55l-63 -64q-20 -20 -49 -20h-199q-29 0 -49 20l-44 44q-21 21 -21 51v246q0 30 21 51l44 44q20 20 49 20h198q30 0 49 -20l44 -44
q21 -21 21 -51v-144zM404 292v66q0 8 -6 14l-20 20q-6 6 -14 6h-175q-9 0 -14 -6l-20 -20q-5 -5 -7 -14v-66h256z" />
    <glyph glyph-name="igrave" unicode="&#xec;" horiz-adv-x="289" 
d="M208 521h-92l-146 146h92zM194 0h-85v398h-102v78h187v-476z" />
    <glyph glyph-name="iacute" unicode="&#xed;" horiz-adv-x="289" 
d="M231 667l-146 -146h-94l146 146h94zM194 0h-85v398h-102v78h187v-476z" />
    <glyph glyph-name="icircumflex" unicode="&#xee;" horiz-adv-x="289" 
d="M319 535h-90l-96 96l-95 -96h-91l132 132h108zM194 0h-85v398h-102v78h187v-476z" />
    <glyph glyph-name="idieresis" unicode="&#xef;" horiz-adv-x="289" 
d="M282 574h-102v102h102v-102zM77 574h-101v102h101v-102zM194 0h-85v398h-102v78h187v-476z" />
    <glyph glyph-name="eth" unicode="&#xf0;" horiz-adv-x="553" 
d="M490 117q0 -32 -21 -53l-44 -44q-20 -20 -49 -20h-199q-29 0 -49 20l-44 44q-21 21 -21 51v218q0 30 21 51l44 44q20 20 49 20h120l-95 95l-48 -48l-41 40l49 49l-55 55l53 54l56 -56l48 49l41 -40l-49 -49l212 -213q22 -22 22 -51v-216zM404 121v209q0 8 -6 14l-20 20
q-6 6 -14 6h-175q-9 0 -14 -6l-20 -20q-7 -7 -7 -14v-212q0 -6 6 -14l20 -20q6 -6 14 -6h176q8 0 14 6l20 20q6 6 6 17z" />
    <glyph glyph-name="ntilde" unicode="&#xf1;" horiz-adv-x="584" 
d="M484 613l-90 -59q-19 -14 -38 -14q-21 0 -42 14l-86 58q-8 6 -16 1l-82 -56l-36 50l88 59q19 13 39 13t41 -14l81 -56q8 -5 17 0l90 58zM493 0h-86v358q0 8 -6 14l-23 23q-7 7 -14 7h-84q-7 0 -15 -6l-82 -83q-6 -6 -6 -14v-299h-86v393l-20 83h83l17 -74l53 53
q21 21 50 21h104q30 0 49 -20l44 -44q22 -22 22 -51v-361z" />
    <glyph glyph-name="ograve" unicode="&#xf2;" horiz-adv-x="553" 
d="M360 521h-92l-147 146h92zM490 117q0 -32 -21 -53l-44 -44q-20 -20 -49 -20h-199q-29 0 -49 20l-44 44q-21 21 -21 51v246q0 30 21 51l44 44q20 20 49 20h198q30 0 49 -20l44 -44q22 -22 22 -51v-244zM404 121v237q0 8 -6 14l-20 20q-6 6 -14 6h-175q-9 0 -14 -6l-20 -20
q-7 -7 -7 -14v-240q0 -6 6 -14l20 -20q6 -6 14 -6h176q8 0 14 6l20 20q6 6 6 17z" />
    <glyph glyph-name="oacute" unicode="&#xf3;" horiz-adv-x="553" 
d="M431 667l-146 -146h-95l146 146h95zM490 117q0 -32 -21 -53l-44 -44q-20 -20 -49 -20h-199q-29 0 -49 20l-44 44q-21 21 -21 51v246q0 30 21 51l44 44q20 20 49 20h198q30 0 49 -20l44 -44q22 -22 22 -51v-244zM404 121v237q0 8 -6 14l-20 20q-6 6 -14 6h-175
q-9 0 -14 -6l-20 -20q-7 -7 -7 -14v-240q0 -6 6 -14l20 -20q6 -6 14 -6h176q8 0 14 6l20 20q6 6 6 17z" />
    <glyph glyph-name="ocircumflex" unicode="&#xf4;" horiz-adv-x="553" 
d="M462 535h-90l-96 96l-95 -96h-91l132 132h108zM490 117q0 -32 -21 -53l-44 -44q-20 -20 -49 -20h-199q-29 0 -49 20l-44 44q-21 21 -21 51v246q0 30 21 51l44 44q20 20 49 20h198q30 0 49 -20l44 -44q22 -22 22 -51v-244zM404 121v237q0 8 -6 14l-20 20q-6 6 -14 6h-175
q-9 0 -14 -6l-20 -20q-7 -7 -7 -14v-240q0 -6 6 -14l20 -20q6 -6 14 -6h176q8 0 14 6l20 20q6 6 6 17z" />
    <glyph glyph-name="otilde" unicode="&#xf5;" horiz-adv-x="553" 
d="M471 613l-89 -59q-20 -14 -39 -14q-20 0 -41 14l-86 58q-9 6 -17 1l-81 -56l-37 50l88 59q21 13 39 13q20 0 41 -14l82 -56q7 -5 16 0l90 58zM490 117q0 -32 -21 -53l-44 -44q-20 -20 -49 -20h-199q-29 0 -49 20l-44 44q-21 21 -21 51v246q0 30 21 51l44 44q20 20 49 20
h198q30 0 49 -20l44 -44q22 -22 22 -51v-244zM404 121v237q0 8 -6 14l-20 20q-6 6 -14 6h-175q-9 0 -14 -6l-20 -20q-7 -7 -7 -14v-240q0 -6 6 -14l20 -20q6 -6 14 -6h176q8 0 14 6l20 20q6 6 6 17z" />
    <glyph glyph-name="odieresis" unicode="&#xf6;" horiz-adv-x="553" 
d="M429 575l-102 -1v102h102v-101zM224 574h-101v102h101v-102zM490 117q0 -32 -21 -53l-44 -44q-20 -20 -49 -20h-199q-29 0 -49 20l-44 44q-21 21 -21 51v246q0 30 21 51l44 44q20 20 49 20h198q30 0 49 -20l44 -44q22 -22 22 -51v-244zM404 121v237q0 8 -6 14l-20 20
q-6 6 -14 6h-175q-9 0 -14 -6l-20 -20q-7 -7 -7 -14v-240q0 -6 6 -14l20 -20q6 -6 14 -6h176q8 0 14 6l20 20q6 6 6 17z" />
    <glyph glyph-name="divide" unicode="&#xf7;" 
d="M357 371h-107v106h107v-106zM542 200h-477v75h477v-75zM357 0h-107v106h107v-106z" />
    <glyph glyph-name="oslash" unicode="&#xf8;" horiz-adv-x="553" 
d="M490 117q0 -32 -21 -53l-44 -44q-20 -20 -49 -20h-150l-30 -94l-49 16l26 78q-25 0 -45 20l-44 44q-21 21 -21 51v246q0 30 21 51l44 44q20 20 49 20h149l31 96l49 -17l-26 -79q25 0 44 -20l44 -44q22 -21 22 -51v-244zM404 121v237q0 8 -6 14l-20 20q-6 6 -14 6h-9
l-104 -320h113q8 0 14 6l20 20q6 6 6 17zM301 398h-112q-9 0 -14 -6l-20 -20q-7 -7 -7 -14v-240q0 -6 6 -14l20 -20q6 -6 14 -6h9z" />
    <glyph glyph-name="ugrave" unicode="&#xf9;" horiz-adv-x="584" 
d="M384 521h-92l-147 146h92zM513 0h-83l-18 74l-53 -53q-21 -21 -49 -21h-105q-29 0 -49 20l-44 44q-21 21 -21 51v361h85v-358q0 -6 6 -14l24 -23q7 -7 14 -7h84q8 0 14 6l83 83q6 6 6 14v299h85v-393z" />
    <glyph glyph-name="uacute" unicode="&#xfa;" horiz-adv-x="584" 
d="M445 667l-146 -146h-95l146 146h95zM513 0h-83l-18 74l-53 -53q-21 -21 -49 -21h-105q-29 0 -49 20l-44 44q-21 21 -21 51v361h85v-358q0 -6 6 -14l24 -23q7 -7 14 -7h84q8 0 14 6l83 83q6 6 6 14v299h85v-393z" />
    <glyph glyph-name="ucircumflex" unicode="&#xfb;" horiz-adv-x="584" 
d="M478 535h-90l-96 96l-95 -96h-91l132 132h108zM513 0h-83l-18 74l-53 -53q-21 -21 -49 -21h-105q-29 0 -49 20l-44 44q-21 21 -21 51v361h85v-358q0 -6 6 -14l24 -23q7 -7 14 -7h84q8 0 14 6l83 83q6 6 6 14v299h85v-393z" />
    <glyph glyph-name="udieresis" unicode="&#xfc;" horiz-adv-x="584" 
d="M445 575l-102 -1v102h102v-101zM240 574h-102v102h102v-102zM513 0h-83l-18 74l-53 -53q-21 -21 -49 -21h-105q-29 0 -49 20l-44 44q-21 21 -21 51v361h85v-358q0 -6 6 -14l24 -23q7 -7 14 -7h84q8 0 14 6l83 83q6 6 6 14v299h85v-393z" />
    <glyph glyph-name="yacute" unicode="&#xfd;" horiz-adv-x="474" 
d="M418 667l-146 -146h-95l146 146h95zM446 476l-230 -666h-87l59 182l-167 484h89l124 -370l125 370h87z" />
    <glyph glyph-name="thorn" unicode="&#xfe;" horiz-adv-x="581" 
d="M518 116q0 -31 -21 -52l-44 -44q-20 -20 -49 -20h-130q-29 0 -49 20l-48 49v-260h-86v858h85v-260l48 48q21 21 50 21h129q30 0 49 -20l44 -44q22 -22 22 -51v-245zM432 121v237q0 8 -6 14l-20 20q-6 6 -14 6h-116q-10 0 -14 -6l-79 -79q-7 -7 -7 -14v-122q0 -6 6 -14
l79 -79q6 -6 15 -6h116q8 0 14 6l20 20q6 6 6 17z" />
    <glyph glyph-name="ydieresis" unicode="&#xff;" horiz-adv-x="474" 
d="M387 574h-102v102h102v-102zM182 574h-102v102h102v-102zM446 476l-230 -666h-87l59 182l-167 484h89l124 -370l125 370h87z" />
    <glyph glyph-name="Amacron" unicode="&#x100;" horiz-adv-x="689" 
d="M654 0h-93l-68 179h-299l-68 -179h-91l250 667h120zM460 263l-116 322l-118 -322h234zM498 765h-308v63h308v-63z" />
    <glyph glyph-name="amacron" unicode="&#x101;" horiz-adv-x="574" 
d="M520 56l-56 -56l-53 53l-33 -33q-22 -20 -49 -20h-166q-29 0 -49 20l-44 44q-21 21 -21 51v78q0 30 21 51l39 39q21 21 50 21h231v54q0 8 -6 14l-20 20q-6 6 -14 6h-180q-10 0 -14 -6l-37 -37l-53 53l48 48q20 20 49 20h198q29 0 49 -20l44 -44q21 -21 21 -51v-253
q0 -6 6 -14zM390 151v79h-215q-8 0 -14 -6l-20 -20q-7 -7 -7 -14v-72q0 -6 6 -14l20 -20q6 -6 14 -6h143q9 0 14 6l53 52q6 6 6 15zM429 570h-308v63h308v-63z" />
    <glyph glyph-name="Abreve" unicode="&#x102;" horiz-adv-x="689" 
d="M654 0h-93l-68 179h-299l-68 -179h-91l250 667h120zM460 263l-116 322l-118 -322h234zM490 826q0 -17 -15 -32l-51 -51q-12 -12 -34 -12h-92q-22 0 -34 12l-51 51q-15 15 -15 32v58h63v-53q0 -1 5 -9l30 -29q3 -3 10 -3h76q7 0 10 2l30 30q5 8 5 9v53h63v-58z" />
    <glyph glyph-name="abreve" unicode="&#x103;" horiz-adv-x="574" 
d="M520 56l-56 -56l-53 53l-33 -33q-22 -20 -49 -20h-166q-29 0 -49 20l-44 44q-21 21 -21 51v78q0 30 21 51l39 39q21 21 50 21h231v54q0 8 -6 14l-20 20q-6 6 -14 6h-180q-10 0 -14 -6l-37 -37l-53 53l48 48q20 20 49 20h198q29 0 49 -20l44 -44q21 -21 21 -51v-253
q0 -6 6 -14zM390 151v79h-215q-8 0 -14 -6l-20 -20q-7 -7 -7 -14v-72q0 -6 6 -14l20 -20q6 -6 14 -6h143q9 0 14 6l53 52q6 6 6 15zM423 609q0 -17 -15 -32l-51 -51q-12 -12 -34 -12h-92q-22 0 -34 12l-51 51q-15 15 -15 32v58h63v-53q0 -2 5 -9l30 -29q3 -3 10 -3h76
q7 0 10 2l30 30q5 7 5 9v53h63v-58z" />
    <glyph glyph-name="Aogonek" unicode="&#x104;" horiz-adv-x="689" 
d="M646 -34l-55 -55l54 -54l-45 -45l-100 100l89 88h-28l-68 179h-299l-68 -179h-91l250 667h120l249 -667h-42zM460 263l-116 322l-118 -322h234z" />
    <glyph glyph-name="aogonek" unicode="&#x105;" horiz-adv-x="574" 
d="M497 -34l-55 -55l54 -54l-45 -45l-100 100l101 100l-41 41l-33 -33q-22 -20 -49 -20h-166q-29 0 -49 20l-44 44q-21 21 -21 51v78q0 30 21 51l39 39q21 21 50 21h231v54q0 8 -6 14l-20 20q-6 6 -14 6h-180q-10 0 -14 -6l-37 -37l-53 53l48 48q20 20 49 20h198
q29 0 49 -20l44 -44q21 -21 21 -51v-253q0 -6 6 -14l39 -38l-56 -56zM390 151v79h-215q-8 0 -14 -6l-20 -20q-7 -7 -7 -14v-72q0 -6 6 -14l20 -20q6 -6 14 -6h143q9 0 14 6l53 52q6 6 6 15z" />
    <glyph glyph-name="Cacute" unicode="&#x106;" horiz-adv-x="632" 
d="M540 872l-146 -146h-95l146 146h95zM583 115l-94 -94q-21 -21 -50 -21h-195q-29 0 -50 21l-82 82q-21 21 -21 50v361q0 29 21 50l82 82q21 21 50 21h195q29 0 50 -21l94 -94l-62 -62l-83 83q-6 6 -14 6h-165q-8 0 -14 -6l-57 -57q-6 -6 -6 -14v-337q0 -8 6 -14l57 -57
q6 -6 14 -6h165q8 0 14 6l82 83z" />
    <glyph glyph-name="cacute" unicode="&#x107;" horiz-adv-x="516" 
d="M481 84l-63 -64q-20 -20 -49 -20h-192q-29 0 -49 20l-44 44q-21 21 -21 51v246q0 30 21 51l44 44q20 20 49 20h191q30 0 49 -20l64 -63l-55 -56l-55 55q-6 6 -14 6h-168q-9 0 -14 -6l-20 -20q-7 -7 -7 -14v-240q0 -6 6 -14l20 -20q6 -6 14 -6h169q8 0 14 6l54 55z
M468 667l-146 -146h-94l146 146h94z" />
    <glyph glyph-name="Ccircumflex" unicode="&#x108;" horiz-adv-x="632" 
d="M583 115l-94 -94q-21 -21 -50 -21h-195q-29 0 -50 21l-82 82q-21 21 -21 50v361q0 29 21 50l82 82q21 21 50 21h195q29 0 50 -21l94 -94l-62 -62l-83 83q-6 6 -14 6h-165q-8 0 -14 -6l-57 -57q-6 -6 -6 -14v-337q0 -8 6 -14l57 -57q6 -6 14 -6h165q8 0 14 6l82 83z
M523 726h-90l-96 96l-95 -96h-91l132 132h108z" />
    <glyph glyph-name="ccircumflex" unicode="&#x109;" horiz-adv-x="516" 
d="M481 84l-63 -64q-20 -20 -49 -20h-192q-29 0 -49 20l-44 44q-21 21 -21 51v246q0 30 21 51l44 44q20 20 49 20h191q30 0 49 -20l64 -63l-55 -56l-55 55q-6 6 -14 6h-168q-9 0 -14 -6l-20 -20q-7 -7 -7 -14v-240q0 -6 6 -14l20 -20q6 -6 14 -6h169q8 0 14 6l54 55z
M460 535h-90l-96 96l-95 -96h-91l132 132h108z" />
    <glyph glyph-name="Cdotaccent" unicode="&#x10a;" horiz-adv-x="632" 
d="M394 757h-101v101h101v-101zM583 115l-94 -94q-21 -21 -50 -21h-195q-29 0 -50 21l-82 82q-21 21 -21 50v361q0 29 21 50l82 82q21 21 50 21h195q29 0 50 -21l94 -94l-62 -62l-83 83q-6 6 -14 6h-165q-8 0 -14 -6l-57 -57q-6 -6 -6 -14v-337q0 -8 6 -14l57 -57
q6 -6 14 -6h165q8 0 14 6l82 83z" />
    <glyph glyph-name="cdotaccent" unicode="&#x10b;" horiz-adv-x="516" 
d="M481 84l-63 -64q-20 -20 -49 -20h-192q-29 0 -49 20l-44 44q-21 21 -21 51v246q0 30 21 51l44 44q20 20 49 20h191q30 0 49 -20l64 -63l-55 -56l-55 55q-6 6 -14 6h-168q-9 0 -14 -6l-20 -20q-7 -7 -7 -14v-240q0 -6 6 -14l20 -20q6 -6 14 -6h169q8 0 14 6l54 55z
M323 574h-102v102h102v-102z" />
    <glyph glyph-name="Ccaron" unicode="&#x10c;" horiz-adv-x="632" 
d="M583 115l-94 -94q-21 -21 -50 -21h-195q-29 0 -50 21l-82 82q-21 21 -21 50v361q0 29 21 50l82 82q21 21 50 21h195q29 0 50 -21l94 -94l-62 -62l-83 83q-6 6 -14 6h-165q-8 0 -14 -6l-57 -57q-6 -6 -6 -14v-337q0 -8 6 -14l57 -57q6 -6 14 -6h165q8 0 14 6l82 83z
M524 872l-132 -132h-108l-132 132h90l96 -96l95 96h91z" />
    <glyph glyph-name="ccaron" unicode="&#x10d;" horiz-adv-x="516" 
d="M481 84l-63 -64q-20 -20 -49 -20h-192q-29 0 -49 20l-44 44q-21 21 -21 51v246q0 30 21 51l44 44q20 20 49 20h191q30 0 49 -20l64 -63l-55 -56l-55 55q-6 6 -14 6h-168q-9 0 -14 -6l-20 -20q-7 -7 -7 -14v-240q0 -6 6 -14l20 -20q6 -6 14 -6h169q8 0 14 6l54 55z
M460 667l-132 -132h-108l-132 132h90l96 -96l95 96h91z" />
    <glyph glyph-name="Dcaron" unicode="&#x10e;" horiz-adv-x="702" 
d="M611 153q0 -27 -21 -50l-82 -82q-21 -21 -50 -21h-339v667h338q30 0 50 -21l82 -82q22 -22 22 -50v-361zM520 166v336q0 6 -6 14l-57 57q-6 6 -14 6h-233v-491h232q10 0 14 6l58 58q6 6 6 14zM534 872l-132 -132h-108l-132 132h90l96 -96l95 96h91z" />
    <glyph glyph-name="dcaron" unicode="&#x10f;" horiz-adv-x="657" 
d="M506 0h-80l-17 73l-53 -52q-21 -21 -49 -21h-130q-29 0 -49 20l-44 44q-21 21 -21 52v245q0 30 21 51l44 44q20 20 49 20h129q28 0 50 -20l48 -49v260h85v-588zM404 177v122q0 8 -6 14l-79 79q-6 6 -14 6h-116q-9 0 -14 -6l-20 -20q-7 -7 -7 -14v-237q0 -9 6 -17l20 -20
q6 -6 14 -6h116q9 0 15 6l79 79q6 6 6 14zM527 499l30 30q7 7 7 14v124h85v-127q0 -30 -20 -50l-46 -46z" />
    <glyph glyph-name="Dcroat" unicode="&#x110;" horiz-adv-x="702" 
d="M611 153q0 -27 -21 -50l-82 -82q-21 -21 -50 -21h-339v290l-93 -1v89h93v289h338q30 0 50 -21l82 -82q22 -22 22 -50v-361zM520 166v336q0 6 -6 14l-57 57q-6 6 -14 6h-233v-201h155v-89h-155v-201h232q10 0 14 6l58 58q6 6 6 14z" />
    <glyph glyph-name="dcroat" unicode="&#x111;" horiz-adv-x="581" 
d="M506 0h-80l-17 73l-53 -52q-21 -21 -49 -21h-130q-29 0 -49 20l-44 44q-21 21 -21 52v245q0 30 21 51l44 44q20 20 49 20h129q28 0 50 -20l48 -49v111h-159v78h159v71h85v-71h76v-78h-76v-439zM404 177v122q0 8 -6 14l-79 79q-6 6 -14 6h-116q-9 0 -14 -6l-20 -20
q-7 -7 -7 -14v-237q0 -9 6 -17l20 -20q6 -6 14 -6h116q9 0 15 6l79 79q6 6 6 14z" />
    <glyph glyph-name="Emacron" unicode="&#x112;" horiz-adv-x="641" 
d="M550 0h-431v667h431v-88h-340v-201h340v-88h-340v-202h340v-88zM489 765h-308v63h308v-63z" />
    <glyph glyph-name="emacron" unicode="&#x113;" horiz-adv-x="553" 
d="M489 217h-341v-98q0 -7 5 -14l21 -21q6 -6 14 -6h176q8 0 14 6l54 55l56 -55l-63 -64q-20 -20 -49 -20h-199q-29 0 -49 20l-44 44q-21 21 -21 51v246q0 30 21 51l44 44q20 20 49 20h198q30 0 49 -20l44 -44q21 -21 21 -51v-144zM404 292v66q0 8 -6 14l-20 20q-6 6 -14 6
h-175q-9 0 -14 -6l-20 -20q-5 -5 -7 -14v-66h256zM430 570h-308v63h308v-63z" />
    <glyph glyph-name="Ebreve" unicode="&#x114;" horiz-adv-x="641" 
d="M550 0h-431v667h431v-88h-340v-201h340v-88h-340v-202h340v-88zM481 826q0 -17 -15 -32l-51 -51q-12 -12 -34 -12h-92q-22 0 -34 12l-51 51q-15 15 -15 32v58h63v-53q0 -1 5 -9l30 -29q3 -3 10 -3h76q7 0 10 2l30 30q5 8 5 9v53h63v-58z" />
    <glyph glyph-name="ebreve" unicode="&#x115;" horiz-adv-x="553" 
d="M489 217h-341v-98q0 -7 5 -14l21 -21q6 -6 14 -6h176q8 0 14 6l54 55l56 -55l-63 -64q-20 -20 -49 -20h-199q-29 0 -49 20l-44 44q-21 21 -21 51v246q0 30 21 51l44 44q20 20 49 20h198q30 0 49 -20l44 -44q21 -21 21 -51v-144zM404 292v66q0 8 -6 14l-20 20q-6 6 -14 6
h-175q-9 0 -14 -6l-20 -20q-5 -5 -7 -14v-66h256zM422 609q0 -17 -15 -32l-51 -51q-12 -12 -34 -12h-92q-22 0 -34 12l-51 51q-15 15 -15 32v58h63v-53q0 -2 5 -9l30 -29q3 -3 10 -3h76q7 0 10 2l30 30q5 7 5 9v53h63v-58z" />
    <glyph glyph-name="Edotaccent" unicode="&#x116;" horiz-adv-x="641" 
d="M390 757h-101v101h101v-101zM550 0h-431v667h431v-88h-340v-201h340v-88h-340v-202h340v-88z" />
    <glyph glyph-name="edotaccent" unicode="&#x117;" horiz-adv-x="553" 
d="M489 217h-341v-98q0 -7 5 -14l21 -21q6 -6 14 -6h176q8 0 14 6l54 55l56 -55l-63 -64q-20 -20 -49 -20h-199q-29 0 -49 20l-44 44q-21 21 -21 51v246q0 30 21 51l44 44q20 20 49 20h198q30 0 49 -20l44 -44q21 -21 21 -51v-144zM404 292v66q0 8 -6 14l-20 20q-6 6 -14 6
h-175q-9 0 -14 -6l-20 -20q-5 -5 -7 -14v-66h256zM327 574h-102v102h102v-102z" />
    <glyph glyph-name="Eogonek" unicode="&#x118;" horiz-adv-x="641" 
d="M485 0h-366v667h431v-88h-340v-201h340v-88h-340v-202h340v-88h-42l34 -34l-55 -55l54 -54l-45 -45l-100 100z" />
    <glyph glyph-name="eogonek" unicode="&#x119;" horiz-adv-x="553" 
d="M372 -34l-55 -55l54 -54l-45 -45l-100 100l89 88h-138q-29 0 -49 20l-44 44q-21 21 -21 51v246q0 30 21 51l44 44q20 20 49 20h198q30 0 49 -20l44 -44q21 -21 21 -51v-144h-341v-98q0 -7 5 -14l21 -21q6 -6 14 -6h176q8 0 14 6l54 55l56 -55l-63 -64q-20 -20 -49 -20
h-38zM404 292v66q0 8 -6 14l-20 20q-6 6 -14 6h-175q-9 0 -14 -6l-20 -20q-5 -5 -7 -14v-66h256z" />
    <glyph glyph-name="Ecaron" unicode="&#x11a;" horiz-adv-x="641" 
d="M550 0h-431v667h431v-88h-340v-201h340v-88h-340v-202h340v-88zM520 872l-132 -132h-108l-132 132h90l96 -96l95 96h91z" />
    <glyph glyph-name="ecaron" unicode="&#x11b;" horiz-adv-x="553" 
d="M489 217h-341v-98q0 -7 5 -14l21 -21q6 -6 14 -6h176q8 0 14 6l54 55l56 -55l-63 -64q-20 -20 -49 -20h-199q-29 0 -49 20l-44 44q-21 21 -21 51v246q0 30 21 51l44 44q20 20 49 20h198q30 0 49 -20l44 -44q21 -21 21 -51v-144zM404 292v66q0 8 -6 14l-20 20q-6 6 -14 6
h-175q-9 0 -14 -6l-20 -20q-5 -5 -7 -14v-66h256zM462 667l-132 -132h-108l-132 132h90l96 -96l95 96h91z" />
    <glyph glyph-name="Gcircumflex" unicode="&#x11c;" horiz-adv-x="748" 
d="M671 0h-87l-19 95l-74 -74q-21 -21 -49 -21h-198q-29 0 -50 21l-82 82q-21 21 -21 50v361q0 29 21 50l82 82q21 21 50 21h247q28 0 49 -21l94 -94l-62 -62l-83 83q-6 6 -14 6h-216q-8 0 -14 -6l-57 -57q-6 -6 -6 -14v-337q0 -8 6 -14l57 -57q6 -6 14 -6h170q9 0 14 6
l105 104q6 6 6 14v78h-182v88h273v-248zM560 740h-90l-96 96l-95 -96h-91l132 132h108z" />
    <glyph glyph-name="gcircumflex" unicode="&#x11d;" horiz-adv-x="581" 
d="M506 476l-16 -79v-472q0 -30 -21 -51l-44 -44q-21 -21 -49 -21h-199q-27 0 -49 20l-60 60l54 55l51 -51q6 -7 14 -7h177q6 0 14 6l20 20q6 6 6 14v143l-48 -48q-21 -21 -49 -21h-130q-29 0 -49 20l-44 44q-21 21 -21 51v245q0 31 21 52l44 44q20 20 49 20h129
q28 0 50 -20l53 -53l16 73h81zM404 177v122q0 8 -6 14l-79 79q-6 6 -14 6h-116q-9 0 -14 -6l-20 -20q-7 -7 -7 -16v-238q0 -6 6 -14l20 -20q6 -6 14 -6h116q9 0 15 6l79 79q6 6 6 14zM472 535h-90l-96 96l-95 -96h-91l132 132h108z" />
    <glyph glyph-name="Gbreve" unicode="&#x11e;" horiz-adv-x="748" 
d="M671 0h-87l-19 95l-74 -74q-21 -21 -49 -21h-198q-29 0 -50 21l-82 82q-21 21 -21 50v361q0 29 21 50l82 82q21 21 50 21h247q28 0 49 -21l94 -94l-62 -62l-83 83q-6 6 -14 6h-216q-8 0 -14 -6l-57 -57q-6 -6 -6 -14v-337q0 -8 6 -14l57 -57q6 -6 14 -6h170q9 0 14 6
l105 104q6 6 6 14v78h-182v88h273v-248zM517 826q0 -17 -15 -32l-51 -51q-12 -12 -34 -12h-92q-22 0 -34 12l-51 51q-15 15 -15 32v58h63v-53q0 -1 5 -9l30 -29q3 -3 10 -3h76q7 0 10 2l30 30q5 8 5 9v53h63v-58z" />
    <glyph glyph-name="gbreve" unicode="&#x11f;" horiz-adv-x="581" 
d="M506 476l-16 -79v-472q0 -30 -21 -51l-44 -44q-21 -21 -49 -21h-199q-27 0 -49 20l-60 60l54 55l51 -51q6 -7 14 -7h177q6 0 14 6l20 20q6 6 6 14v143l-48 -48q-21 -21 -49 -21h-130q-29 0 -49 20l-44 44q-21 21 -21 51v245q0 31 21 52l44 44q20 20 49 20h129
q28 0 50 -20l53 -53l16 73h81zM404 177v122q0 8 -6 14l-79 79q-6 6 -14 6h-116q-9 0 -14 -6l-20 -20q-7 -7 -7 -16v-238q0 -6 6 -14l20 -20q6 -6 14 -6h116q9 0 15 6l79 79q6 6 6 14zM432 609q0 -17 -15 -32l-51 -51q-12 -12 -34 -12h-92q-22 0 -34 12l-51 51q-15 15 -15 32
v58h63v-53q0 -2 5 -9l30 -29q3 -3 10 -3h76q7 0 10 2l30 30q5 7 5 9v53h63v-58z" />
    <glyph glyph-name="Gdotaccent" unicode="&#x120;" horiz-adv-x="748" 
d="M424 757h-101v101h101v-101zM671 0h-87l-19 95l-74 -74q-21 -21 -49 -21h-198q-29 0 -50 21l-82 82q-21 21 -21 50v361q0 29 21 50l82 82q21 21 50 21h247q28 0 49 -21l94 -94l-62 -62l-83 83q-6 6 -14 6h-216q-8 0 -14 -6l-57 -57q-6 -6 -6 -14v-337q0 -8 6 -14l57 -57
q6 -6 14 -6h170q9 0 14 6l105 104q6 6 6 14v78h-182v88h273v-248z" />
    <glyph glyph-name="gdotaccent" unicode="&#x121;" horiz-adv-x="581" 
d="M506 476l-16 -79v-472q0 -30 -21 -51l-44 -44q-21 -21 -49 -21h-199q-27 0 -49 20l-60 60l54 55l51 -51q6 -7 14 -7h177q6 0 14 6l20 20q6 6 6 14v143l-48 -48q-21 -21 -49 -21h-130q-29 0 -49 20l-44 44q-21 21 -21 51v245q0 31 21 52l44 44q20 20 49 20h129
q28 0 50 -20l53 -53l16 73h81zM404 177v122q0 8 -6 14l-79 79q-6 6 -14 6h-116q-9 0 -14 -6l-20 -20q-7 -7 -7 -16v-238q0 -6 6 -14l20 -20q6 -6 14 -6h116q9 0 15 6l79 79q6 6 6 14zM335 574h-102v102h102v-102z" />
    <glyph glyph-name="Gcommaaccent" unicode="&#x122;" horiz-adv-x="748" 
d="M296 -211l30 30q7 7 7 14v124h88v-127q0 -30 -20 -50l-49 -48zM671 0h-87l-19 95l-74 -74q-21 -21 -49 -21h-198q-29 0 -50 21l-82 82q-21 21 -21 50v361q0 29 21 50l82 82q21 21 50 21h247q28 0 49 -21l94 -94l-62 -62l-83 83q-6 6 -14 6h-216q-8 0 -14 -6l-57 -57
q-6 -6 -6 -14v-337q0 -8 6 -14l57 -57q6 -6 14 -6h170q9 0 14 6l105 104q6 6 6 14v78h-182v88h273v-248z" />
    <glyph glyph-name="gcommaaccent" unicode="&#x123;" horiz-adv-x="581" 
d="M506 476l-16 -79v-472q0 -30 -21 -51l-44 -44q-21 -21 -49 -21h-199q-27 0 -49 20l-60 60l54 55l51 -51q6 -7 14 -7h177q6 0 14 6l20 20q6 6 6 14v143l-48 -48q-21 -21 -49 -21h-130q-29 0 -49 20l-44 44q-21 21 -21 51v245q0 31 21 52l44 44q20 20 49 20h129
q28 0 50 -20l53 -53l16 73h81zM404 177v122q0 8 -6 14l-79 79q-6 6 -14 6h-116q-9 0 -14 -6l-20 -20q-7 -7 -7 -16v-238q0 -6 6 -14l20 -20q6 -6 14 -6h116q9 0 15 6l79 79q6 6 6 14zM348 703l-30 -30q-7 -7 -7 -14v-124h-85v127q0 30 20 50l46 46z" />
    <glyph glyph-name="Hcircumflex" unicode="&#x124;" horiz-adv-x="730" 
d="M611 0h-91v290h-310v-290h-91v667h91v-289h310v289h91v-667zM551 740h-90l-96 96l-95 -96h-91l132 132h108z" />
    <glyph glyph-name="hcircumflex" unicode="&#x125;" horiz-adv-x="584" 
d="M493 0h-86v358q0 8 -6 14l-23 23q-7 7 -14 7h-84q-7 0 -15 -6l-82 -83q-6 -6 -6 -14v-299h-86v667h85v-260l48 48q21 21 50 21h104q30 0 49 -20l44 -44q22 -22 22 -51v-361zM319 725h-90l-96 96l-95 -96h-91l132 132h108z" />
    <glyph glyph-name="Hbar" unicode="&#x126;" horiz-adv-x="730" 
d="M611 0h-91v290h-310v-290h-91v490h-90v88h90v89h91v-89h309v89h92v-89h90v-88h-90v-490zM210 378h309v112h-309v-112z" />
    <glyph glyph-name="hbar" unicode="&#x127;" horiz-adv-x="584" 
d="M176 518v-111l48 48q21 21 50 21h104q30 0 49 -20l44 -44q22 -22 22 -51v-361h-86v358q0 8 -6 14l-23 23q-7 7 -14 7h-84q-7 0 -15 -6l-82 -83q-6 -6 -6 -14v-299h-86v518h-76v78h76v71h85v-71h159v-78h-159z" />
    <glyph glyph-name="Itilde" unicode="&#x128;" horiz-adv-x="437" 
d="M414 801l-90 -59q-20 -13 -38 -13q-21 0 -42 14l-86 58q-8 6 -16 0l-82 -56l-36 51l88 58q19 14 39 14q21 0 41 -15l81 -56q9 -5 17 0l90 59zM388 0h-339v82h124v503h-124v82h339v-82h-124v-503h124v-82z" />
    <glyph glyph-name="itilde" unicode="&#x129;" horiz-adv-x="289" 
d="M194 0h-85v398h-102v78h187v-476zM328 613l-90 -59q-19 -14 -38 -14q-21 0 -42 14l-86 58q-8 6 -16 1l-82 -56l-36 50l88 59q19 13 39 13t41 -14l81 -56q8 -5 17 0l90 58z" />
    <glyph glyph-name="Imacron" unicode="&#x12a;" horiz-adv-x="437" 
d="M388 0h-339v82h124v503h-124v82h339v-82h-124v-503h124v-82zM373 765h-308v63h308v-63z" />
    <glyph glyph-name="imacron" unicode="&#x12b;" horiz-adv-x="289" 
d="M194 0h-85v398h-102v78h187v-476zM287 570h-308v63h308v-63z" />
    <glyph glyph-name="Ibreve" unicode="&#x12c;" horiz-adv-x="437" 
d="M388 0h-339v82h124v503h-124v82h339v-82h-124v-503h124v-82zM365 826q0 -17 -15 -32l-51 -51q-12 -12 -34 -12h-92q-22 0 -34 12l-51 51q-15 15 -15 32v58h63v-53q0 -1 5 -9l30 -29q3 -3 10 -3h76q7 0 10 2l30 30q5 8 5 9v53h63v-58z" />
    <glyph glyph-name="ibreve" unicode="&#x12d;" horiz-adv-x="289" 
d="M194 0h-85v398h-102v78h187v-476zM279 609q0 -17 -15 -32l-51 -51q-12 -12 -34 -12h-92q-22 0 -34 12l-51 51q-15 15 -15 32v58h63v-53q0 -2 5 -9l30 -29q3 -3 10 -3h76q7 0 10 2l30 30q5 7 5 9v53h63v-58z" />
    <glyph glyph-name="Iogonek" unicode="&#x12e;" horiz-adv-x="437" 
d="M323 0h-274v82h124v503h-124v82h339v-82h-124v-503h124v-82h-42l34 -34l-55 -55l54 -54l-45 -45l-100 100z" />
    <glyph glyph-name="iogonek" unicode="&#x12f;" horiz-adv-x="289" 
d="M201 574h-102v102h102v-102zM109 0h62l-89 -88l100 -100l45 45l-54 54l55 55l-34 34v476h-187v-78h102v-398z" />
    <glyph glyph-name="Idotaccent" unicode="&#x130;" horiz-adv-x="437" 
d="M269 757h-101v101h101v-101zM388 0h-339v82h124v503h-124v82h339v-82h-124v-503h124v-82z" />
    <glyph glyph-name="dotlessi" unicode="&#x131;" horiz-adv-x="289" 
d="M194 0h-85v398h-102v78h187v-476z" />
    <glyph glyph-name="Jcircumflex" unicode="&#x134;" horiz-adv-x="559" 
d="M454 153q0 -29 -21 -50l-82 -82q-21 -21 -50 -21h-143q-29 0 -50 21l-94 94l62 62l83 -83q6 -6 14 -6h113q8 0 14 6l57 57q6 6 6 14v414h-197v88h288v-514zM494 740h-90l-96 96l-95 -96h-91l132 132h108z" />
    <glyph glyph-name="jcircumflex" unicode="&#x135;" horiz-adv-x="292" 
d="M198 -78v1q0 -31 -21 -52l-41 -41q-20 -20 -49 -20h-134v78h120q8 0 14 6l20 20q6 6 6 16v468h-102v78h187v-554zM323 535h-90l-96 96l-95 -96h-91l132 132h108z" />
    <glyph glyph-name="Kcommaaccent" unicode="&#x136;" horiz-adv-x="608" 
d="M261 -211l30 30q7 7 7 14v124h88v-127q0 -30 -20 -50l-49 -48zM598 0h-120l-268 290v-290h-91v667h91v-290l271 290h117l-312 -333z" />
    <glyph glyph-name="kcommaaccent" unicode="&#x137;" horiz-adv-x="500" 
d="M185 -211l30 30q7 7 7 14v124h85v-127q0 -30 -20 -50l-46 -46zM493 0h-109l-207 221v-221h-86v667h86v-388l180 197h109l-212 -225z" />
    <glyph glyph-name="Lacute" unicode="&#x139;" horiz-adv-x="574" 
d="M550 0h-431v667h91v-579h340v-88zM361 872l-146 -146h-94l146 146h94z" />
    <glyph glyph-name="lacute" unicode="&#x13a;" horiz-adv-x="278" 
d="M184 0h-86v589h-101v78h187v-667zM221 858l-146 -146h-94l146 146h94z" />
    <glyph glyph-name="Lcommaaccent" unicode="&#x13b;" horiz-adv-x="574" 
d="M252 -211l30 30q7 7 7 14v124h88v-127q0 -30 -20 -50l-49 -48zM550 0h-431v667h91v-579h340v-88z" />
    <glyph glyph-name="lcommaaccent" unicode="&#x13c;" horiz-adv-x="278" 
d="M62 -211l30 30q7 7 7 14v124h85v-127q0 -30 -20 -50l-46 -46zM184 0h-86v589h-101v78h187v-667z" />
    <glyph glyph-name="Lcaron" unicode="&#x13d;" horiz-adv-x="574" 
d="M292 499l30 30q7 7 7 14v124h88v-127q0 -30 -20 -50l-49 -48zM550 0h-431v667h91v-579h340v-88z" />
    <glyph glyph-name="lcaron" unicode="&#x13e;" horiz-adv-x="350" 
d="M184 0h-86v589h-101v78h187v-667zM219 499l30 30q7 7 7 14v124h85v-127q0 -30 -20 -50l-46 -46z" />
    <glyph glyph-name="Ldot" unicode="&#x13f;" horiz-adv-x="574" 
d="M550 0h-431v667h91v-579h340v-88zM506 330h-107v106h107v-106z" />
    <glyph glyph-name="ldot" unicode="&#x140;" horiz-adv-x="385" 
d="M184 0h-86v589h-101v78h187v-667zM385 284h-102v102h102v-102z" />
    <glyph glyph-name="Lslash" unicode="&#x141;" horiz-adv-x="574" 
d="M549 0h-430v258l-57 -57l-40 40l97 97v329h91v-238l61 61l40 -40l-101 -101v-261h339v-88z" />
    <glyph glyph-name="lslash" unicode="&#x142;" horiz-adv-x="278" 
d="M279 442l-95 -95v-347h-86v261l-54 -54l-40 40l94 94v248h-101v78h186v-241l56 56z" />
    <glyph glyph-name="Nacute" unicode="&#x143;" horiz-adv-x="730" 
d="M611 0h-136l-266 563v-563h-90v667h136l266 -563v563h90v-667zM555 872l-146 -146h-94l146 146h94z" />
    <glyph glyph-name="nacute" unicode="&#x144;" horiz-adv-x="584" 
d="M493 0h-86v358q0 8 -6 14l-23 23q-7 7 -14 7h-84q-7 0 -15 -6l-82 -83q-6 -6 -6 -14v-299h-86v393l-20 83h83l17 -74l53 53q21 21 50 21h104q30 0 49 -20l44 -44q22 -22 22 -51v-361zM491 667l-146 -146h-94l146 146h94z" />
    <glyph glyph-name="Ncommaaccent" unicode="&#x145;" horiz-adv-x="730" 
d="M295 -211l30 30q7 7 7 14v124h88v-127q0 -30 -20 -50l-49 -48zM611 0h-136l-266 563v-563h-90v667h136l266 -563v563h90v-667z" />
    <glyph glyph-name="ncommaaccent" unicode="&#x146;" horiz-adv-x="584" 
d="M217 -211l30 30q7 7 7 14v124h85v-127q0 -30 -20 -50l-46 -46zM493 0h-86v358q0 8 -6 14l-23 23q-7 7 -14 7h-84q-7 0 -15 -6l-82 -83q-6 -6 -6 -14v-299h-86v393l-20 83h83l17 -74l53 53q21 21 50 21h104q30 0 49 -20l44 -44q22 -22 22 -51v-361z" />
    <glyph glyph-name="Ncaron" unicode="&#x147;" horiz-adv-x="730" 
d="M611 0h-136l-266 563v-563h-90v667h136l266 -563v563h90v-667zM551 872l-132 -132h-108l-132 132h90l96 -96l95 96h91z" />
    <glyph glyph-name="ncaron" unicode="&#x148;" horiz-adv-x="584" 
d="M493 0h-86v358q0 8 -6 14l-23 23q-7 7 -14 7h-84q-7 0 -15 -6l-82 -83q-6 -6 -6 -14v-299h-86v393l-20 83h83l17 -74l53 53q21 21 50 21h104q30 0 49 -20l44 -44q22 -22 22 -51v-361zM475 667l-132 -132h-108l-132 132h90l96 -96l95 96h91z" />
    <glyph glyph-name="Eng" unicode="&#x14a;" horiz-adv-x="730" 
d="M306 -190v88h137q8 0 14 6l57 57q6 6 6 14v25h-45l-266 563v-563h-90v667h136l265 -561v561h91v-704q0 -29 -21 -50l-82 -82q-21 -21 -50 -21h-152z" />
    <glyph glyph-name="eng" unicode="&#x14b;" horiz-adv-x="584" 
d="M493 -78q0 -30 -21 -51l-41 -41q-20 -20 -49 -20h-134v78h119q8 0 14 6l20 20q6 6 6 16v428q0 8 -6 14l-23 23q-7 7 -14 7h-84q-7 0 -15 -6l-82 -83q-6 -6 -6 -14v-299h-86v393l-20 83h83l17 -74l53 53q21 21 50 21h104q30 0 49 -20l44 -44q22 -22 22 -51v-439z" />
    <glyph glyph-name="Omacron" unicode="&#x14c;" horiz-adv-x="735" 
d="M644 153q0 -27 -21 -50l-82 -82q-21 -21 -50 -21h-247q-29 0 -50 21l-82 82q-21 21 -21 50v361q0 29 21 50l82 82q21 21 50 21h246q30 0 50 -21l82 -82q22 -22 22 -50v-361zM553 166v336q0 6 -6 14l-57 57q-6 6 -14 6h-217q-8 0 -14 -6l-57 -57q-6 -6 -6 -14v-337
q0 -8 6 -14l57 -57q6 -6 14 -6h216q9 0 14 6l58 58q6 6 6 14zM521 765h-308v63h308v-63z" />
    <glyph glyph-name="omacron" unicode="&#x14d;" horiz-adv-x="553" 
d="M490 117q0 -32 -21 -53l-44 -44q-20 -20 -49 -20h-199q-29 0 -49 20l-44 44q-21 21 -21 51v246q0 30 21 51l44 44q20 20 49 20h198q30 0 49 -20l44 -44q22 -22 22 -51v-244zM404 121v237q0 8 -6 14l-20 20q-6 6 -14 6h-175q-9 0 -14 -6l-20 -20q-7 -7 -7 -14v-240
q0 -6 6 -14l20 -20q6 -6 14 -6h176q8 0 14 6l20 20q6 6 6 17zM430 570h-308v63h308v-63z" />
    <glyph glyph-name="Obreve" unicode="&#x14e;" horiz-adv-x="735" 
d="M513 826q0 -17 -15 -32l-51 -51q-12 -12 -34 -12h-92q-22 0 -34 12l-51 51q-15 15 -15 32v58h63v-53q0 -1 5 -9l30 -29q3 -3 10 -3h76q7 0 10 2l30 30q5 8 5 9v53h63v-58zM644 153q0 -27 -21 -50l-82 -82q-21 -21 -50 -21h-247q-29 0 -50 21l-82 82q-21 21 -21 50v361
q0 29 21 50l82 82q21 21 50 21h246q30 0 50 -21l82 -82q22 -22 22 -50v-361zM553 166v336q0 6 -6 14l-57 57q-6 6 -14 6h-217q-8 0 -14 -6l-57 -57q-6 -6 -6 -14v-337q0 -8 6 -14l57 -57q6 -6 14 -6h216q9 0 14 6l58 58q6 6 6 14z" />
    <glyph glyph-name="obreve" unicode="&#x14f;" horiz-adv-x="553" 
d="M490 117q0 -32 -21 -53l-44 -44q-20 -20 -49 -20h-199q-29 0 -49 20l-44 44q-21 21 -21 51v246q0 30 21 51l44 44q20 20 49 20h198q30 0 49 -20l44 -44q22 -22 22 -51v-244zM404 121v237q0 8 -6 14l-20 20q-6 6 -14 6h-175q-9 0 -14 -6l-20 -20q-7 -7 -7 -14v-240
q0 -6 6 -14l20 -20q6 -6 14 -6h176q8 0 14 6l20 20q6 6 6 17zM422 609q0 -17 -15 -32l-51 -51q-12 -12 -34 -12h-92q-22 0 -34 12l-51 51q-15 15 -15 32v58h63v-53q0 -2 5 -9l30 -29q3 -3 10 -3h76q7 0 10 2l30 30q5 7 5 9v53h63v-58z" />
    <glyph glyph-name="Ohungarumlaut" unicode="&#x150;" horiz-adv-x="735" 
d="M649 872l-146 -146h-94l146 146h94zM458 872l-146 -146h-94l146 146h94zM644 153q0 -27 -21 -50l-82 -82q-21 -21 -50 -21h-247q-29 0 -50 21l-82 82q-21 21 -21 50v361q0 29 21 50l82 82q21 21 50 21h246q30 0 50 -21l82 -82q22 -22 22 -50v-361zM553 166v336q0 6 -6 14
l-57 57q-6 6 -14 6h-217q-8 0 -14 -6l-57 -57q-6 -6 -6 -14v-337q0 -8 6 -14l57 -57q6 -6 14 -6h216q9 0 14 6l58 58q6 6 6 14z" />
    <glyph glyph-name="ohungarumlaut" unicode="&#x151;" horiz-adv-x="553" 
d="M556 667l-146 -146h-94l146 146h94zM379 667l-146 -146h-94l146 146h94zM490 117q0 -32 -21 -53l-44 -44q-20 -20 -49 -20h-199q-29 0 -49 20l-44 44q-21 21 -21 51v246q0 30 21 51l44 44q20 20 49 20h198q30 0 49 -20l44 -44q22 -22 22 -51v-244zM404 121v237q0 8 -6 14
l-20 20q-6 6 -14 6h-175q-9 0 -14 -6l-20 -20q-7 -7 -7 -14v-240q0 -6 6 -14l20 -20q6 -6 14 -6h176q8 0 14 6l20 20q6 6 6 17z" />
    <glyph glyph-name="OE" unicode="&#x152;" horiz-adv-x="864" 
d="M773 0h-529q-29 0 -50 21l-82 82q-21 21 -21 50v361q0 29 21 50l82 82q21 21 50 21h529v-88h-265v-201h265v-88h-265v-202h265v-88zM417 88v491h-158q-8 0 -14 -6l-57 -57q-6 -6 -6 -14v-337q0 -8 6 -14l57 -57q6 -6 14 -6h158z" />
    <glyph glyph-name="oe" unicode="&#x153;" horiz-adv-x="804" 
d="M741 217h-290v-99q0 -8 6 -14l20 -20q6 -6 14 -6h124q9 0 14 6l55 55l55 -55l-63 -64q-20 -20 -49 -20h-140q-30 0 -50 20l-28 28l-29 -28q-20 -20 -49 -20h-154q-29 0 -49 20l-44 44q-21 21 -21 51v246q0 30 21 51l44 44q20 20 49 20h153q28 0 50 -20l28 -29l29 29
q20 20 49 20h141q29 0 49 -20l44 -44q21 -21 21 -51v-144zM656 292v66q0 6 -6 14l-20 20q-6 6 -14 6h-125q-8 0 -14 -6l-20 -20q-6 -6 -6 -14v-66h205zM367 119v239q0 6 -6 14l-20 20q-6 6 -14 6h-138q-9 0 -14 -6l-20 -20q-7 -7 -7 -14v-240q0 -6 6 -14l20 -20q6 -6 14 -6
h138q10 0 14 6l21 21q6 6 6 14z" />
    <glyph glyph-name="Racute" unicode="&#x154;" horiz-adv-x="722" 
d="M659 0h-110l-190 274q-7 9 -17 9h-132v-283h-91v667h363q28 0 48 -20l59 -59q22 -22 22 -50v-126q0 -29 -21 -50l-59 -59q-20 -20 -48 -20h-25zM520 425v101q0 8 -6 14l-33 33q-6 6 -14 6h-257v-208h256q10 0 14 6l34 34q6 6 6 14zM526 872l-146 -146h-94l146 146h94z
" />
    <glyph glyph-name="racute" unicode="&#x155;" horiz-adv-x="517" 
d="M468 286h-82v72q0 6 -6 14l-24 23q-7 7 -14 7h-62q-7 0 -15 -6l-82 -83q-6 -6 -6 -14v-299h-86v393l-20 83h83l17 -74l53 53q21 21 50 21h79q30 0 49 -20l44 -44q22 -22 22 -51v-75zM476 667l-146 -146h-94l146 146h94z" />
    <glyph glyph-name="Rcommaaccent" unicode="&#x156;" horiz-adv-x="722" 
d="M285 -211l30 30q7 7 7 14v124h88v-127q0 -30 -20 -50l-49 -48zM659 0h-110l-190 274q-7 9 -17 9h-132v-283h-91v667h363q28 0 48 -20l59 -59q22 -22 22 -50v-126q0 -29 -21 -50l-59 -59q-20 -20 -48 -20h-25zM520 425v101q0 8 -6 14l-33 33q-6 6 -14 6h-257v-208h256
q10 0 14 6l34 34q6 6 6 14z" />
    <glyph glyph-name="rcommaaccent" unicode="&#x157;" horiz-adv-x="517" 
d="M55 -211l30 30q7 7 7 14v124h85v-127q0 -30 -20 -50l-46 -46zM468 286h-82v72q0 6 -6 14l-24 23q-7 7 -14 7h-62q-7 0 -15 -6l-82 -83q-6 -6 -6 -14v-299h-86v393l-20 83h83l17 -74l53 53q21 21 50 21h79q30 0 49 -20l44 -44q22 -22 22 -51v-75z" />
    <glyph glyph-name="Rcaron" unicode="&#x158;" horiz-adv-x="722" 
d="M659 0h-110l-190 274q-7 9 -17 9h-132v-283h-91v667h363q28 0 48 -20l59 -59q22 -22 22 -50v-126q0 -29 -21 -50l-59 -59q-20 -20 -48 -20h-25zM520 425v101q0 8 -6 14l-33 33q-6 6 -14 6h-257v-208h256q10 0 14 6l34 34q6 6 6 14zM535 872l-132 -132h-108l-132 132h90
l96 -96l95 96h91z" />
    <glyph glyph-name="rcaron" unicode="&#x159;" horiz-adv-x="517" 
d="M468 286h-82v72q0 6 -6 14l-24 23q-7 7 -14 7h-62q-7 0 -15 -6l-82 -83q-6 -6 -6 -14v-299h-86v393l-20 83h83l17 -74l53 53q21 21 50 21h79q30 0 49 -20l44 -44q22 -22 22 -51v-75zM465 667l-132 -132h-108l-132 132h90l96 -96l95 96h91z" />
    <glyph glyph-name="Sacute" unicode="&#x15a;" horiz-adv-x="707" 
d="M630 153q0 -27 -21 -50l-82 -82q-21 -21 -50 -21h-256q-29 0 -50 21l-94 94l62 62l83 -83q6 -6 14 -6h225q10 0 14 6l57 57q7 7 7 14v82q0 8 -6 13.5t-13 6.5l-377 49q-28 4 -47 25t-19 49v124q0 29 21 50l82 82q21 21 50 21h255q31 0 50 -21l95 -94l-62 -62l-83 83
q-6 6 -14 6h-226q-8 0 -14 -6l-57 -57q-6 -6 -6 -14v-82q0 -18 18 -20l378 -49q28 -4 47 -25t19 -49v-124zM544 872l-146 -146h-94l146 146h94z" />
    <glyph glyph-name="sacute" unicode="&#x15b;" horiz-adv-x="525" 
d="M462 116q0 -31 -21 -52l-44 -44q-20 -20 -49 -20h-174q-29 0 -49 20l-62 62l55 55l53 -53q6 -6 14 -6h151q8 0 14 6l20 20q6 6 6 16v49q0 18 -18 20l-232 29q-27 4 -45 23.5t-18 45.5v74q0 28 21 51l44 44q20 20 49 20h174q30 0 49 -20l62 -61l-55 -56l-53 53q-6 6 -14 6
h-151q-8 0 -14 -6l-20 -20q-6 -6 -6 -14v-46q0 -18 18 -20l233 -30q26 -3 44 -23t18 -46v-77zM433 667l-146 -146h-94l146 146h94z" />
    <glyph glyph-name="Scircumflex" unicode="&#x15c;" horiz-adv-x="707" 
d="M630 153q0 -27 -21 -50l-82 -82q-21 -21 -50 -21h-256q-29 0 -50 21l-94 94l62 62l83 -83q6 -6 14 -6h225q10 0 14 6l57 57q7 7 7 14v82q0 8 -6 13.5t-13 6.5l-377 49q-28 4 -47 25t-19 49v124q0 29 21 50l82 82q21 21 50 21h255q31 0 50 -21l95 -94l-62 -62l-83 83
q-6 6 -14 6h-226q-8 0 -14 -6l-57 -57q-6 -6 -6 -14v-82q0 -18 18 -20l378 -49q28 -4 47 -25t19 -49v-124zM539 740h-90l-96 96l-95 -96h-91l132 132h108z" />
    <glyph glyph-name="scircumflex" unicode="&#x15d;" horiz-adv-x="525" 
d="M462 116q0 -31 -21 -52l-44 -44q-20 -20 -49 -20h-174q-29 0 -49 20l-62 62l55 55l53 -53q6 -6 14 -6h151q8 0 14 6l20 20q6 6 6 16v49q0 18 -18 20l-232 29q-27 4 -45 23.5t-18 45.5v74q0 28 21 51l44 44q20 20 49 20h174q30 0 49 -20l62 -61l-55 -56l-53 53q-6 6 -14 6
h-151q-8 0 -14 -6l-20 -20q-6 -6 -6 -14v-46q0 -18 18 -20l233 -30q26 -3 44 -23t18 -46v-77zM449 535h-90l-96 96l-95 -96h-91l132 132h108z" />
    <glyph glyph-name="Scedilla" unicode="&#x15e;" horiz-adv-x="707" 
d="M452 -88l-100 -100l-45 45l54 54l-55 55l34 34h-119q-29 0 -50 21l-94 94l62 62l83 -83q6 -6 14 -6h225q10 0 14 6l57 57q7 7 7 14v82q0 8 -6 13.5t-13 6.5l-377 49q-28 4 -47 25t-19 49v124q0 29 21 50l82 82q21 21 50 21h255q31 0 50 -21l95 -94l-62 -62l-83 83
q-6 6 -14 6h-226q-8 0 -14 -6l-57 -57q-6 -6 -6 -14v-82q0 -18 18 -20l378 -49q28 -4 47 -25t19 -49v-124q0 -27 -21 -50l-82 -82q-21 -21 -50 -21h-113z" />
    <glyph glyph-name="scedilla" unicode="&#x15f;" horiz-adv-x="525" 
d="M362 -88l-100 -100l-45 45l54 54l-55 55l34 34h-76q-29 0 -49 20l-62 62l55 55l53 -53q6 -6 14 -6h151q8 0 14 6l20 20q6 6 6 16v49q0 18 -18 20l-232 29q-27 4 -45 23.5t-18 45.5v74q0 28 21 51l44 44q20 20 49 20h174q30 0 49 -20l62 -61l-55 -56l-53 53q-6 6 -14 6
h-151q-8 0 -14 -6l-20 -20q-6 -6 -6 -14v-46q0 -18 18 -20l233 -30q26 -3 44 -23t18 -46v-77q0 -31 -21 -52l-44 -44q-20 -20 -49 -20h-74z" />
    <glyph glyph-name="Scaron" unicode="&#x160;" horiz-adv-x="707" 
d="M539 872l-132 -132h-108l-132 132h90l96 -96l95 96h91zM630 153q0 -27 -21 -50l-82 -82q-21 -21 -50 -21h-256q-29 0 -50 21l-94 94l62 62l83 -83q6 -6 14 -6h225q10 0 14 6l57 57q7 7 7 14v82q0 8 -6 13.5t-13 6.5l-377 49q-28 4 -47 25t-19 49v124q0 29 21 50l82 82
q21 21 50 21h255q31 0 50 -21l95 -94l-62 -62l-83 83q-6 6 -14 6h-226q-8 0 -14 -6l-57 -57q-6 -6 -6 -14v-82q0 -18 18 -20l378 -49q28 -4 47 -25t19 -49v-124z" />
    <glyph glyph-name="scaron" unicode="&#x161;" horiz-adv-x="525" 
d="M449 667l-132 -132h-108l-132 132h90l96 -96l95 96h91zM462 116q0 -31 -21 -52l-44 -44q-20 -20 -49 -20h-174q-29 0 -49 20l-62 62l55 55l53 -53q6 -6 14 -6h151q8 0 14 6l20 20q6 6 6 16v49q0 18 -18 20l-232 29q-27 4 -45 23.5t-18 45.5v74q0 28 21 51l44 44
q20 20 49 20h174q30 0 49 -20l62 -61l-55 -56l-53 53q-6 6 -14 6h-151q-8 0 -14 -6l-20 -20q-6 -6 -6 -14v-46q0 -18 18 -20l233 -30q26 -3 44 -23t18 -46v-77z" />
    <glyph glyph-name="Tcommaaccent" unicode="&#x162;" horiz-adv-x="561" 
d="M199 -211l30 30q7 7 7 14v124h88v-127q0 -30 -20 -50l-49 -48zM526 579h-200v-579h-91v579h-200v88h491v-88z" />
    <glyph glyph-name="tcommaaccent" unicode="&#x163;" horiz-adv-x="387" 
d="M72 -211l30 30q7 7 7 14v124h85v-127q0 -30 -20 -50l-46 -46zM352 0h-133q-29 0 -49 20l-40 40q-21 21 -21 52v286h-77v78h76v191h86v-191h158v-78h-158v-277q0 -11 6 -17l20 -20q6 -6 14 -6h118v-78z" />
    <glyph glyph-name="Tcaron" unicode="&#x164;" horiz-adv-x="561" 
d="M526 579h-200v-579h-91v579h-200v88h491v-88zM466 872l-132 -132h-108l-132 132h90l96 -96l95 96h91z" />
    <glyph glyph-name="tcaron" unicode="&#x165;" horiz-adv-x="390" 
d="M352 0h-133q-29 0 -49 20l-40 40q-21 21 -21 52v286h-77v78h76v191h86v-191h158v-78h-158v-277q0 -11 6 -17l20 -20q6 -6 14 -6h118v-78zM254 592l30 30q7 7 7 14v124h85v-127q0 -30 -20 -50l-46 -46z" />
    <glyph glyph-name="Tbar" unicode="&#x166;" horiz-adv-x="561" 
d="M411 378v-88h-85v-290h-91v290h-85v88h85v201h-200v88h491v-88h-200v-201h85z" />
    <glyph glyph-name="tbar" unicode="&#x167;" horiz-adv-x="387" 
d="M352 0h-133q-29 0 -49 20l-40 40q-21 21 -21 52v108h-77v78h77v100h-77v78h76v191h86v-191h158v-78h-158v-100h158v-78h-158v-99q0 -11 6 -17l20 -20q6 -6 14 -6h118v-78z" />
    <glyph glyph-name="Utilde" unicode="&#x168;" horiz-adv-x="702" 
d="M597 153q0 -27 -21 -50l-82 -82q-21 -21 -50 -21h-186q-29 0 -50 21l-82 82q-21 21 -21 50v514h91v-502q0 -8 6 -14l57 -57q6 -6 14 -6h155q10 0 14 6l57 57q6 6 6 14v502h92v-514zM546 802l-90 -59q-19 -14 -38 -14q-21 0 -42 14l-86 58q-8 6 -16 1l-82 -56l-36 50
l88 59q20 13 39 13q20 0 41 -14l81 -56q8 -5 17 0l90 58z" />
    <glyph glyph-name="utilde" unicode="&#x169;" horiz-adv-x="584" 
d="M513 0h-83l-18 74l-53 -53q-21 -21 -49 -21h-105q-29 0 -49 20l-44 44q-21 21 -21 51v361h85v-358q0 -6 6 -14l24 -23q7 -7 14 -7h84q8 0 14 6l83 83q6 6 6 14v299h85v-393zM487 613l-90 -59q-19 -14 -38 -14q-21 0 -42 14l-86 58q-8 6 -16 1l-82 -56l-36 50l88 59
q19 13 39 13t41 -14l81 -56q8 -5 17 0l90 58z" />
    <glyph glyph-name="Umacron" unicode="&#x16a;" horiz-adv-x="702" 
d="M597 153q0 -27 -21 -50l-82 -82q-21 -21 -50 -21h-186q-29 0 -50 21l-82 82q-21 21 -21 50v514h91v-502q0 -8 6 -14l57 -57q6 -6 14 -6h155q10 0 14 6l57 57q6 6 6 14v502h92v-514zM505 765h-308v63h308v-63z" />
    <glyph glyph-name="umacron" unicode="&#x16b;" horiz-adv-x="584" 
d="M513 0h-83l-18 74l-53 -53q-21 -21 -49 -21h-105q-29 0 -49 20l-44 44q-21 21 -21 51v361h85v-358q0 -6 6 -14l24 -23q7 -7 14 -7h84q8 0 14 6l83 83q6 6 6 14v299h85v-393zM446 570h-308v63h308v-63z" />
    <glyph glyph-name="Ubreve" unicode="&#x16c;" horiz-adv-x="702" 
d="M597 153q0 -27 -21 -50l-82 -82q-21 -21 -50 -21h-186q-29 0 -50 21l-82 82q-21 21 -21 50v514h91v-502q0 -8 6 -14l57 -57q6 -6 14 -6h155q10 0 14 6l57 57q6 6 6 14v502h92v-514zM497 826q0 -17 -15 -32l-51 -51q-12 -12 -34 -12h-92q-22 0 -34 12l-51 51
q-15 15 -15 32v58h63v-53q0 -1 5 -9l30 -29q3 -3 10 -3h76q7 0 10 2l30 30q5 8 5 9v53h63v-58z" />
    <glyph glyph-name="ubreve" unicode="&#x16d;" horiz-adv-x="584" 
d="M513 0h-83l-18 74l-53 -53q-21 -21 -49 -21h-105q-29 0 -49 20l-44 44q-21 21 -21 51v361h85v-358q0 -6 6 -14l24 -23q7 -7 14 -7h84q8 0 14 6l83 83q6 6 6 14v299h85v-393zM438 609q0 -17 -15 -32l-51 -51q-12 -12 -34 -12h-92q-22 0 -34 12l-51 51q-15 15 -15 32v58h63
v-53q0 -2 5 -9l30 -29q3 -3 10 -3h76q7 0 10 2l30 30q5 7 5 9v53h63v-58z" />
    <glyph glyph-name="Uring" unicode="&#x16e;" horiz-adv-x="702" 
d="M597 153q0 -27 -21 -50l-82 -82q-21 -21 -50 -21h-186q-29 0 -50 21l-82 82q-21 21 -21 50v514h91v-502q0 -8 6 -14l57 -57q6 -6 14 -6h155q10 0 14 6l57 57q6 6 6 14v502h92v-514zM461 775q0 -28 -19.5 -47.5t-47.5 -19.5h-85q-28 0 -47.5 19t-19.5 47v89q0 28 19 47.5
t47 19.5h85q28 0 48 -19t20 -47v-89zM399 786v66q0 8 -6 14t-13 6h-57q-7 0 -13 -6t-6 -13v-67q0 -7 6 -13.5t13 -6.5h57q7 0 13 6t6 14z" />
    <glyph glyph-name="uring" unicode="&#x16f;" horiz-adv-x="584" 
d="M513 0h-83l-18 74l-53 -53q-21 -21 -49 -21h-105q-29 0 -49 20l-44 44q-21 21 -21 51v361h85v-358q0 -6 6 -14l24 -23q7 -7 14 -7h84q8 0 14 6l83 83q6 6 6 14v299h85v-393zM401 578q0 -28 -19.5 -47.5t-47.5 -19.5h-85q-28 0 -47.5 19t-19.5 47v89q0 28 19 47.5t47 19.5
h85q28 0 48 -19t20 -47v-89zM339 589v66q0 8 -6 14t-13 6h-57q-7 0 -13 -5.5t-6 -13.5v-67q0 -7 6 -13.5t13 -6.5h57q7 0 13 6t6 14z" />
    <glyph glyph-name="Uhungarumlaut" unicode="&#x170;" horiz-adv-x="702" 
d="M634 872l-146 -146h-94l146 146h94zM443 872l-146 -146h-94l146 146h94zM597 153q0 -27 -21 -50l-82 -82q-21 -21 -50 -21h-186q-29 0 -50 21l-82 82q-21 21 -21 50v514h91v-502q0 -8 6 -14l57 -57q6 -6 14 -6h155q10 0 14 6l57 57q6 6 6 14v502h92v-514z" />
    <glyph glyph-name="uhungarumlaut" unicode="&#x171;" horiz-adv-x="584" 
d="M513 0h-83l-18 74l-53 -53q-21 -21 -49 -21h-105q-29 0 -49 20l-44 44q-21 21 -21 51v361h85v-358q0 -6 6 -14l24 -23q7 -7 14 -7h84q8 0 14 6l83 83q6 6 6 14v299h85v-393zM577 667l-146 -146h-94l146 146h94zM400 667l-146 -146h-94l146 146h94z" />
    <glyph glyph-name="Uogonek" unicode="&#x172;" horiz-adv-x="702" 
d="M440 -34l-55 -55l54 -54l-45 -45l-100 100l89 88h-125q-29 0 -50 21l-82 82q-21 21 -21 50v514h91v-502q0 -8 6 -14l57 -57q6 -6 14 -6h155q10 0 14 6l57 57q6 6 6 14v502h92v-514q0 -27 -21 -50l-82 -82q-21 -21 -50 -21h-38z" />
    <glyph glyph-name="uogonek" unicode="&#x173;" horiz-adv-x="584" 
d="M492 83l21 -83h-60l34 -34l-55 -55l54 -54l-45 -45l-100 100l89 88l-18 74l-53 -53q-21 -21 -49 -21h-105q-29 0 -49 20l-44 44q-21 21 -21 51v361h85v-358q0 -6 6 -14l24 -23q7 -7 14 -7h84q8 0 14 6l83 83q6 6 6 14v299h85v-393z" />
    <glyph glyph-name="Wcircumflex" unicode="&#x174;" horiz-adv-x="866" 
d="M817 667l-143 -667h-125l-117 572l-117 -572h-124l-142 667h93l114 -575l115 575h129l113 -575l116 575h88zM619 740h-90l-96 96l-95 -96h-91l132 132h108z" />
    <glyph glyph-name="wcircumflex" unicode="&#x175;" horiz-adv-x="796" 
d="M747 476l-123 -476h-121l-105 401l-103 -401h-121l-125 476h86l99 -399l98 399h133l99 -399l97 399h86zM584 535h-90l-96 96l-95 -96h-91l132 132h108z" />
    <glyph glyph-name="Ycircumflex" unicode="&#x176;" horiz-adv-x="598" 
d="M577 667l-232 -372v-295h-91v295l-233 372h102l177 -283l177 283h100zM485 740h-90l-96 96l-95 -96h-91l132 132h108z" />
    <glyph glyph-name="ycircumflex" unicode="&#x177;" horiz-adv-x="474" 
d="M446 476l-230 -666h-87l59 182l-167 484h89l124 -370l125 370h87zM420 535h-90l-96 96l-95 -96h-91l132 132h108z" />
    <glyph glyph-name="Ydieresis" unicode="&#x178;" horiz-adv-x="598" 
d="M452 757h-101v101h101v-101zM248 757h-102v101h102v-101zM577 667l-232 -372v-295h-91v295l-233 372h102l177 -283l177 283h100z" />
    <glyph glyph-name="Zacute" unicode="&#x179;" horiz-adv-x="646" 
d="M569 0h-492v69l372 510h-372v88h492v-69l-373 -510h373v-88zM513 872l-146 -146h-94l146 146h94z" />
    <glyph glyph-name="zacute" unicode="&#x17a;" horiz-adv-x="474" 
d="M435 0h-397v63l283 335h-283v78h397v-63l-283 -335h283v-78zM423 667l-146 -146h-94l146 146h94z" />
    <glyph glyph-name="Zdotaccent" unicode="&#x17b;" horiz-adv-x="646" 
d="M372 757h-101v101h101v-101zM569 0h-492v69l372 510h-372v88h492v-69l-373 -510h373v-88z" />
    <glyph glyph-name="zdotaccent" unicode="&#x17c;" horiz-adv-x="474" 
d="M435 0h-397v63l283 335h-283v78h397v-63l-283 -335h283v-78zM287 574h-102v102h102v-102z" />
    <glyph glyph-name="Zcaron" unicode="&#x17d;" horiz-adv-x="646" 
d="M509 872l-132 -132h-108l-133 132h91l95 -96l96 96h91zM569 0h-492v69l372 510h-372v88h492v-69l-373 -510h373v-88z" />
    <glyph glyph-name="zcaron" unicode="&#x17e;" horiz-adv-x="474" 
d="M423 667l-132 -132h-108l-132 132h90l96 -96l95 96h91zM435 0h-397v63l283 335h-283v78h397v-63l-283 -335h283v-78z" />
    <glyph glyph-name="florin" unicode="&#x192;" 
d="M463 398h-158v-478q0 -28 -20 -48l-68 -68l-55 55l52 53q6 6 6 14v472h-77v78h76v78q0 31 21 52l41 41q20 20 49 20h133v-78h-118q-8 0 -14 -6l-20 -20q-6 -6 -6 -16v-71h158v-78z" />
    <glyph glyph-name="Aringacute" unicode="&#x1fa;" horiz-adv-x="683" 
d="M648 0h-96l-64 179h-295l-64 -179h-94l222 594q-32 16 -32 56v90q0 28 19.5 48t48.5 20h94q29 0 49 -20t20 -48v-89q0 -36 -28 -55zM393 659v71q0 8 -6 14t-14 6h-65q-8 0 -14 -6t-6 -14v-71q0 -8 5.5 -14t13.5 -6h67q8 0 13.5 6t5.5 14zM458 262l-104 292q-2 6 -5 10
t-8 3q-8 0 -14 -13l-104 -292h235zM534 1013l-146 -146h-95l146 146h95z" />
    <glyph glyph-name="aringacute" unicode="&#x1fb;" horiz-adv-x="574" 
d="M520 56l-56 -56l-53 53l-33 -33q-22 -20 -49 -20h-166q-29 0 -49 20l-44 44q-21 21 -21 51v78q0 30 21 51l39 39q21 21 50 21h231v54q0 8 -6 14l-20 20q-6 6 -14 6h-180q-10 0 -14 -6l-37 -37l-53 53l48 48q8 8 18 13t16 5l5 1v0v0v0v0v0v0v0v0v0v1v0v0v0v0v1v0v0v1v0v0
v1v0v1v0v1v0v1v0v1v0v1v0v1v1v0v1v1v1v0v1v1v1v1v1v1v1v1v1v1v1v1v1v1v1v1v1v1v1v1v1v1v1v1v1v1v1v1v1v1v1v1v1v1v1v1v1v1v1v1v1v1v1v1v1v1v1v1v1v1v1v1v1v1v1v1v1v1v1v1v1v1v1v1v1v1v1v1v1v1v1v1v1v1v10q0 28 19 47t47 19h85q28 0 47.5 -19t19.5 -47v-3v-3v-3v-3v-3v-3v-3
v-3v-3v-3v-3v-3v-3v-3v-3v-3v-3v-3v-3v-3v-3v-3v-3v-3v-3v-2v-3v-3v-3v-3v-9q21 -1 39 -19l44 -44q21 -21 21 -51v-253q0 -6 6 -14zM309 495l1 67q0 8 -6 13.5t-13 5.5h-57q-8 0 -14 -6t-6 -13v-67q0 -7 6 -13t13 -6h57q8 0 13.5 6t5.5 13zM390 150v80h-215q-8 0 -14 -6
l-20 -20q-7 -7 -7 -14v-72q0 -6 6 -14l20 -20q6 -6 14 -6h143q9 0 14 6l53 52q6 6 6 14zM424 830l-146 -146h-95l146 146h95z" />
    <glyph glyph-name="AEacute" unicode="&#x1fc;" horiz-adv-x="878" 
d="M654 872l-146 -146h-95l146 146h95zM787 0h-356v290h-235v-290h-91v514q0 28 21 51l82 81q21 21 49 21h530v-88h-265v-201h265v-88h-265v-202h265v-88zM431 378v201h-159q-8 0 -14 -6l-56 -56q-6 -6 -6 -14v-125h235z" />
    <glyph glyph-name="aeacute" unicode="&#x1fd;" horiz-adv-x="790" 
d="M727 217h-290v-99q0 -8 6 -14l20 -20q6 -6 14 -6h124q9 0 14 6l55 55l55 -55l-63 -64q-20 -20 -49 -20h-147q-30 0 -50 20l-30 31l-31 -31q-20 -20 -49 -20h-143q-29 0 -49 20l-44 44q-21 21 -21 51v67q0 30 21 50l39 40q20 20 50 20h193v66q0 6 -6 14l-20 20q-6 6 -14 6
h-142q-10 0 -14 -6l-37 -37l-53 53l48 48q20 20 49 20h153q29 0 49 -20l29 -29l29 29q20 20 49 20h141q29 0 49 -20l44 -44q21 -21 21 -51v-144zM642 292v66q0 6 -6 14l-20 20q-6 6 -14 6h-125q-8 0 -14 -6l-20 -20q-6 -6 -6 -14v-66h205zM352 136v82h-177q-9 0 -14 -6
l-20 -20q-7 -7 -7 -14v-60q0 -6 6 -14l20 -20q6 -6 14 -6h120q8 0 14 6l38 38q6 6 6 14zM547 667l-146 -146h-94l146 146h94z" />
    <glyph glyph-name="Oslashacute" unicode="&#x1fe;" horiz-adv-x="735" 
d="M644 153q0 -27 -21 -50l-82 -82q-21 -21 -50 -21h-173l-33 -139l-56 14l30 125h-15q-29 0 -50 21l-82 82q-21 21 -21 50v361q0 29 21 50l82 82q21 21 50 21h175l34 141l55 -13l-31 -128h13q30 0 50 -21l82 -82q22 -22 22 -50v-361zM553 166v336q0 6 -6 14l-57 57
q-6 6 -14 6h-20l-117 -491h136q9 0 14 6l58 58q6 6 6 14zM397 579h-138q-8 0 -14 -6l-57 -57q-6 -6 -6 -14v-337q0 -8 6 -14l57 -57q6 -6 14 -6h21zM499 872l-146 -146h-95l146 146h95z" />
    <glyph glyph-name="oslashacute" unicode="&#x1ff;" horiz-adv-x="553" 
d="M490 117q0 -32 -21 -53l-44 -44q-20 -20 -49 -20h-150l-30 -94l-49 16l26 78q-25 0 -45 20l-44 44q-21 21 -21 51v246q0 30 21 51l44 44q20 20 49 20h149l31 96l49 -17l-26 -79q25 0 44 -20l44 -44q22 -21 22 -51v-244zM404 121v237q0 8 -6 14l-20 20q-6 6 -14 6h-9
l-104 -320h113q8 0 14 6l20 20q6 6 6 17zM301 398h-112q-9 0 -14 -6l-20 -20q-7 -7 -7 -14v-240q0 -6 6 -14l20 -20q6 -6 14 -6h9zM431 667l-146 -146h-95l146 146h95z" />
    <glyph glyph-name="Scommaaccent" unicode="&#x218;" horiz-adv-x="707" 
d="M272 -211l30 30q7 7 7 14v124h88v-127q0 -30 -20 -50l-49 -48zM630 153q0 -27 -21 -50l-82 -82q-21 -21 -50 -21h-256q-29 0 -50 21l-94 94l62 62l83 -83q6 -6 14 -6h225q10 0 14 6l57 57q7 7 7 14v82q0 8 -6 13.5t-13 6.5l-377 49q-28 4 -47 25t-19 49v124q0 29 21 50
l82 82q21 21 50 21h255q31 0 50 -21l95 -94l-62 -62l-83 83q-6 6 -14 6h-226q-8 0 -14 -6l-57 -57q-6 -6 -6 -14v-82q0 -18 18 -20l378 -49q28 -4 47 -25t19 -49v-124z" />
    <glyph glyph-name="scommaaccent" unicode="&#x219;" horiz-adv-x="525" 
d="M187 -211l30 30q7 7 7 14v124h85v-127q0 -30 -20 -50l-46 -46zM462 116q0 -31 -21 -52l-44 -44q-20 -20 -49 -20h-174q-29 0 -49 20l-62 62l55 55l53 -53q6 -6 14 -6h151q8 0 14 6l20 20q6 6 6 16v49q0 18 -18 20l-232 29q-27 4 -45 23.5t-18 45.5v74q0 28 21 51l44 44
q20 20 49 20h174q30 0 49 -20l62 -61l-55 -56l-53 53q-6 6 -14 6h-151q-8 0 -14 -6l-20 -20q-6 -6 -6 -14v-46q0 -18 18 -20l233 -30q26 -3 44 -23t18 -46v-77z" />
    <glyph glyph-name="uni021A" unicode="&#x21a;" horiz-adv-x="561" 
d="M199 -211l30 30q7 7 7 14v124h88v-127q0 -30 -20 -50l-49 -48zM526 579h-200v-579h-91v579h-200v88h491v-88z" />
    <glyph glyph-name="uni021B" unicode="&#x21b;" horiz-adv-x="387" 
d="M72 -211l30 30q7 7 7 14v124h85v-127q0 -30 -20 -50l-46 -46zM352 0h-133q-29 0 -49 20l-40 40q-21 21 -21 52v286h-77v78h76v191h86v-191h158v-78h-158v-277q0 -11 6 -17l20 -20q6 -6 14 -6h118v-78z" />
    <glyph glyph-name="circumflex" unicode="&#x2c6;" horiz-adv-x="465" 
d="M419 535h-90l-96 96l-95 -96h-91l132 132h108z" />
    <glyph glyph-name="caron" unicode="&#x2c7;" horiz-adv-x="465" 
d="M419 667l-132 -132h-108l-132 132h90l96 -96l95 96h91z" />
    <glyph glyph-name="breve" unicode="&#x2d8;" horiz-adv-x="465" 
d="M379 609q0 -17 -15 -32l-51 -51q-12 -12 -34 -12h-92q-22 0 -34 12l-51 51q-15 15 -15 32v58h63v-53q0 -2 5 -9l30 -29q3 -3 10 -3h76q7 0 10 2l30 30q5 7 5 9v53h63v-58z" />
    <glyph glyph-name="dotaccent" unicode="&#x2d9;" horiz-adv-x="465" 
d="M283 574h-102v102h102v-102z" />
    <glyph glyph-name="ring" unicode="&#x2da;" horiz-adv-x="465" 
d="M342 578q0 -28 -19.5 -47.5t-47.5 -19.5h-85q-28 0 -47.5 19t-19.5 47v89q0 28 19 47.5t47 19.5h85q28 0 48 -19t20 -47v-89zM280 589v66q0 8 -6 14t-13 6h-57q-8 0 -13.5 -5.5t-5.5 -13.5v-67q0 -7 6 -13.5t13 -6.5h57q7 0 13 6t6 14z" />
    <glyph glyph-name="ogonek" unicode="&#x2db;" horiz-adv-x="465" 
d="M305 -34l-55 -55l54 -54l-45 -45l-100 100l101 100z" />
    <glyph glyph-name="tilde" unicode="&#x2dc;" horiz-adv-x="465" 
d="M428 613l-90 -59q-19 -14 -38 -14q-21 0 -42 14l-86 58q-8 6 -16 1l-82 -56l-36 50l88 59q20 13 39 13q20 0 41 -14l81 -56q8 -5 17 0l90 58z" />
    <glyph glyph-name="hungarumlaut" unicode="&#x2dd;" horiz-adv-x="465" 
d="M431 667l-146 -146h-94l146 146h94zM254 667l-146 -146h-94l146 146h94z" />
    <glyph glyph-name="Delta" unicode="&#x394;" horiz-adv-x="685" 
d="M33 0l251 667h120l248 -667h-619zM528 84l-186 501l-187 -501h373z" />
    <glyph glyph-name="Omega" unicode="&#x3a9;" horiz-adv-x="735" 
d="M316 92v-92h-225v88h103l-82 82q-21 21 -21 50v294q0 29 21 50l82 82q21 21 50 21h247q29 0 50 -21l82 -82q21 -21 21 -50v-294q0 -29 -21 -50l-82 -82h103v-88h-225v92l128 126q6 6 6 14v270q0 8 -6 14l-57 57q-6 6 -14 6h-217q-8 0 -14 -6l-57 -57q-6 -6 -6 -14v-270
q0 -8 6 -14z" />
    <glyph glyph-name="mu" unicode="&#x3bc;" 
d="M525 0h-83l-18 74l-53 -53q-21 -21 -49 -21h-62q-29 0 -39 10l-32 33v-234h-86v667h85v-341q0 -6 6 -14l41 -40q7 -7 14 -7h67q8 0 14 6l83 83q6 6 6 14v299h85v-393z" />
    <glyph glyph-name="pi" unicode="&#x3c0;" horiz-adv-x="545" 
d="M532 476v-78h-82v-398h-85v398h-185v-398h-85v398h-82v78h519z" />
    <glyph glyph-name="Wgrave" unicode="&#x1e80;" horiz-adv-x="866" 
d="M817 667l-143 -667h-125l-117 572l-117 -572h-124l-142 667h93l114 -575l115 575h129l113 -575l116 575h88zM530 726h-92l-146 146h92z" />
    <glyph glyph-name="wgrave" unicode="&#x1e81;" horiz-adv-x="796" 
d="M747 476l-123 -476h-121l-105 401l-103 -401h-121l-125 476h86l99 -399l98 399h133l99 -399l97 399h86zM491 521h-92l-146 146h92z" />
    <glyph glyph-name="Wacute" unicode="&#x1e82;" horiz-adv-x="866" 
d="M817 667l-143 -667h-125l-117 572l-117 -572h-124l-142 667h93l114 -575l115 575h129l113 -575l116 575h88zM591 872l-146 -146h-94l146 146h94z" />
    <glyph glyph-name="wacute" unicode="&#x1e83;" horiz-adv-x="796" 
d="M747 476l-123 -476h-121l-105 401l-103 -401h-121l-125 476h86l99 -399l98 399h133l99 -399l97 399h86zM544 667l-146 -146h-94l146 146h94z" />
    <glyph glyph-name="Wdieresis" unicode="&#x1e84;" horiz-adv-x="866" 
d="M586 757h-102v101h102v-101zM381 757h-101v101h101v-101zM817 667l-143 -667h-125l-117 572l-117 -572h-124l-142 667h93l114 -575l115 575h129l113 -575l116 575h88z" />
    <glyph glyph-name="wdieresis" unicode="&#x1e85;" horiz-adv-x="796" 
d="M747 476l-123 -476h-121l-105 401l-103 -401h-121l-125 476h86l99 -399l98 399h133l99 -399l97 399h86zM551 574h-102v102h102v-102zM346 574h-102v102h102v-102z" />
    <glyph glyph-name="Ygrave" unicode="&#x1ef2;" horiz-adv-x="598" 
d="M577 667l-232 -372v-295h-91v295l-233 372h102l177 -283l177 283h100zM385 726h-92l-146 146h92z" />
    <glyph glyph-name="ygrave" unicode="&#x1ef3;" horiz-adv-x="474" 
d="M446 476l-230 -666h-87l59 182l-167 484h89l124 -370l125 370h87zM291 521h-92l-146 146h92z" />
    <glyph glyph-name="figuredash" unicode="&#x2012;" 
d="M542 200h-478v76h478v-76z" />
    <glyph glyph-name="endash" unicode="&#x2013;" 
d="M553 201h-500v75h500v-75z" />
    <glyph glyph-name="emdash" unicode="&#x2014;" horiz-adv-x="1000" 
d="M900 201h-800v75h800v-75z" />
    <glyph glyph-name="quoteleft" unicode="&#x2018;" horiz-adv-x="304" 
d="M233 637l-30 -30q-7 -7 -7 -14v-176h-88v177q0 30 20 50l49 48z" />
    <glyph glyph-name="quoteright" unicode="&#x2019;" horiz-adv-x="304" 
d="M196 490q0 -29 -20 -50l-49 -49l-57 56l30 30q7 7 7 14v176h89v-177z" />
    <glyph glyph-name="quotesinglbase" unicode="&#x201a;" horiz-adv-x="304" 
d="M196 -71q0 -29 -20 -50l-49 -49l-57 56l30 30q7 7 7 14v176h89v-177z" />
    <glyph glyph-name="quotedblleft" unicode="&#x201c;" horiz-adv-x="541" 
d="M470 637l-30 -30q-7 -7 -7 -14v-176h-88v177q0 30 20 50l49 48zM233 637l-30 -30q-7 -7 -7 -14v-176h-88v177q0 30 20 50l49 48z" />
    <glyph glyph-name="quotedblright" unicode="&#x201d;" horiz-adv-x="541" 
d="M433 490q0 -29 -20 -50l-49 -49l-57 56l30 30q7 7 7 14v176h89v-177zM195 490h1q0 -29 -20 -50l-49 -49l-57 56l30 30q7 7 7 14v176h88v-177z" />
    <glyph glyph-name="quotedblbase" unicode="&#x201e;" horiz-adv-x="541" 
d="M433 -71q0 -29 -20 -50l-49 -49l-57 56l30 30q7 7 7 14v176h89v-177zM195 -71h1q0 -29 -20 -50l-49 -49l-57 56l30 30q7 7 7 14v176h88v-177z" />
    <glyph glyph-name="dagger" unicode="&#x2020;" 
d="M492 400h-146v-491h-85v491h-146v78h146v191h85v-191h146v-78z" />
    <glyph glyph-name="daggerdbl" unicode="&#x2021;" 
d="M492 187h-146v-278h-85v277h-146v78h146v136h-146v78h146v191h85v-191h146v-78h-146v-135h146v-78z" />
    <glyph glyph-name="bullet" unicode="&#x2022;" horiz-adv-x="500" 
d="M334 250h-168v168h168v-168z" />
    <glyph glyph-name="ellipsis" unicode="&#x2026;" horiz-adv-x="1000" 
d="M886 0h-106v106h106v-106zM553 0h-106v106h106v-106zM220 0h-106v106h106v-106z" />
    <glyph glyph-name="perthousand" unicode="&#x2030;" horiz-adv-x="1394" 
d="M1317 72q0 -17 -11 -28l-31 -31q-13 -13 -29 -13h-124q-16 0 -29 13l-31 31q-11 11 -11 28v257q0 17 11 28l31 31q13 13 29 13h121q19 0 32 -13l31 -31q11 -11 11 -28v-257zM897 72q0 -17 -11 -28l-31 -31q-13 -13 -29 -13h-124q-16 0 -29 13l-31 31q-11 11 -11 28v257
q0 17 11 28l31 31q13 13 29 13h121q19 0 32 -13l31 -31q11 -11 11 -28v-257zM699 672l-363 -672h-61l363 672h61zM343 338q0 -17 -11 -28l-31 -31q-13 -13 -29 -13h-124q-16 0 -29 13l-31 31q-11 11 -11 28v257q0 17 11 28l31 31q13 13 29 13h121q19 0 32 -13l31 -31
q11 -11 11 -28v-257zM1254 80v241q0 5 -3 8l-11 11q-4 4 -9 4h-94q-5 0 -9 -4l-11 -11q-3 -3 -3 -8v-241q0 -5 3 -8l11 -11q4 -4 9 -4h95q5 0 9 4l10 10q3 3 3 9zM834 80v241q0 5 -3 8l-11 11q-4 4 -9 4h-94q-5 0 -9 -4l-11 -11q-3 -3 -3 -8v-241q0 -5 3 -8l11 -11
q4 -4 9 -4h95q5 0 9 4l10 10q3 3 3 9zM280 346v241q0 5 -3 8l-11 11q-4 4 -9 4h-94q-5 0 -9 -4l-11 -11q-3 -3 -3 -8v-241q0 -5 3 -8l11 -11q4 -4 9 -4h95q5 0 9 4l10 10q3 3 3 9z" />
    <glyph glyph-name="guilsinglleft" unicode="&#x2039;" horiz-adv-x="386" 
d="M295 108l-55 -55l-124 124q-25 25 -25 61t25 61l124 124l55 -55l-116 -116q-14 -14 0 -28z" />
    <glyph glyph-name="guilsinglright" unicode="&#x203a;" horiz-adv-x="386" 
d="M295 238q0 -36 -25 -61l-124 -124l-55 55l116 116q14 14 0 28l-116 116l55 55l124 -124q25 -25 25 -61z" />
    <glyph glyph-name="fraction" unicode="&#x2044;" horiz-adv-x="134" 
d="M279 672l-363 -672h-61l363 672h61z" />
    <glyph glyph-name="zerosuperior" unicode="&#x2070;" horiz-adv-x="420" 
d="M343 338q0 -17 -11 -28l-31 -31q-13 -13 -29 -13h-124q-16 0 -29 13l-31 31q-11 11 -11 28v257q0 17 11 28l31 31q13 13 29 13h121q19 0 32 -13l31 -31q11 -11 11 -28v-257zM280 346v241q0 5 -3 8l-11 11q-4 4 -9 4h-94q-5 0 -9 -4l-11 -11q-3 -3 -3 -8v-241q0 -5 3 -8
l11 -11q4 -4 9 -4h95q5 0 9 4l10 10q3 3 3 9z" />
    <glyph glyph-name="foursuperior" unicode="&#x2074;" horiz-adv-x="418" 
d="M354 370h-54v-104h-57v104h-180v49l160 248h77v-240h54v-57zM240 427v165l-108 -165h108z" />
    <glyph glyph-name="fivesuperior" unicode="&#x2075;" horiz-adv-x="420" 
d="M343 338q0 -17 -11 -28l-31 -31q-13 -13 -30 -13h-120q-17 0 -30 13l-49 49l41 41l42 -42q4 -4 8 -4h96q4 0 8 4l10 10q3 3 3 8v94q0 5 -3 8l-11 11q-4 4 -9 4h-163v205h224v-57h-161v-91h112q19 0 32 -13l31 -31q11 -11 11 -28v-109z" />
    <glyph glyph-name="sixsuperior" unicode="&#x2076;" horiz-adv-x="420" 
d="M350 605l-41 -41l-42 42q-4 4 -8 4h-96q-5 0 -9 -4l-11 -11q-3 -3 -3 -8v-99l19 19q12 12 30 12h81q18 0 30 -12l32 -32q11 -11 11 -28v-109q0 -17 -11 -28l-31 -31q-13 -13 -29 -13h-124q-16 0 -29 13l-31 31q-11 11 -11 28v257q0 17 11 28l31 31q13 13 29 13h120
q20 0 33 -13zM280 346v95q0 5 -3 8l-10 10q-3 3 -8 3h-66q-5 0 -8 -3l-42 -42q-3 -3 -3 -8v-63q0 -5 3 -8l11 -11q4 -4 9 -4h95q5 0 9 4l10 10q3 3 3 9z" />
    <glyph glyph-name="sevensuperior" unicode="&#x2077;" horiz-adv-x="420" 
d="M343 620l-162 -354h-72l162 344h-200v57h272v-47z" />
    <glyph glyph-name="eightsuperior" unicode="&#x2078;" horiz-adv-x="420" 
d="M343 338q0 -17 -11 -28l-31 -31q-13 -13 -30 -13h-122q-17 0 -30 13l-31 31q-11 11 -11 28v88q0 17 12 29l22 22l-22 22q-12 12 -12 29v67q0 17 11 28l31 31q13 13 30 13h122q17 0 30 -13l31 -31q11 -11 11 -28v-67q0 -17 -12 -29l-22 -22l22 -22q12 -12 12 -29v-88z
M280 528v59q0 5 -3 8l-11 11q-4 4 -8 4h-96q-4 0 -8 -4l-11 -11q-3 -3 -3 -8v-59q0 -5 3 -8l10 -10q4 -4 9 -4h96q5 0 9 4l10 10q3 3 3 8zM280 346v81q0 5 -3 8l-10 10q-4 4 -9 4h-96q-5 0 -9 -4l-10 -10q-3 -3 -3 -8v-81q0 -5 3 -8l11 -11q4 -4 8 -4h96q4 0 8 4l11 11
q3 3 3 8z" />
    <glyph glyph-name="ninesuperior" unicode="&#x2079;" horiz-adv-x="420" 
d="M343 338q0 -17 -11 -28l-31 -31q-13 -13 -29 -13h-120q-20 0 -33 13l-49 49l41 41l42 -42q4 -4 8 -4h97q5 0 9 4l10 10q3 3 3 8v99l-19 -19q-12 -12 -30 -12h-81q-18 0 -30 12l-32 32q-11 11 -11 28v110q0 17 11 28l31 31q13 13 29 13h124q16 0 29 -13l31 -31
q11 -11 11 -28v-257zM280 523v64q0 5 -3 8l-11 11q-4 4 -9 4h-94q-5 0 -9 -4l-11 -11q-3 -3 -3 -9v-95q0 -5 3 -8l10 -10q3 -3 8 -3h66q5 0 8 3l42 42q3 3 3 8z" />
    <glyph glyph-name="parenleftsuperior" unicode="&#x207d;" horiz-adv-x="197" 
d="M11 599q0 20 14 34l119 119l42 -44l-102 -101q-10 -10 -10 -25v-264q0 -15 10 -24l102 -102l-42 -43l-119 118q-14 13 -14 33v299z" />
    <glyph glyph-name="parenrightsuperior" unicode="&#x207e;" horiz-adv-x="239" 
d="M186 302q0 -20 -14 -34l-119 -119l-42 44l102 101q10 10 10 25v264q0 15 -10 24l-102 102l42 43l119 -118q14 -13 14 -33v-299z" />
    <glyph glyph-name="zeroinferior" unicode="&#x2080;" horiz-adv-x="420" 
d="M343 72q0 -17 -11 -28l-31 -31q-13 -13 -29 -13h-124q-16 0 -29 13l-31 31q-11 11 -11 28v257q0 17 11 28l31 31q13 13 29 13h121q19 0 32 -13l31 -31q11 -11 11 -28v-257zM280 80v241q0 5 -3 8l-11 11q-4 4 -9 4h-94q-5 0 -9 -4l-11 -11q-3 -3 -3 -8v-241q0 -5 3 -8
l11 -11q4 -4 9 -4h95q5 0 9 4l10 10q3 3 3 9z" />
    <glyph glyph-name="oneinferior" unicode="&#x2081;" horiz-adv-x="420" 
d="M357 0h-266v57h104v271l-67 -67l-44 44l96 96h78v-344h99v-57z" />
    <glyph glyph-name="twoinferior" unicode="&#x2082;" horiz-adv-x="420" 
d="M343 0h-266v131q0 26 24 37l172 76q7 4 7 10v67q0 5 -3 8l-11 11q-4 4 -8 4h-98q-4 0 -8 -4l-41 -42l-41 41l49 49q13 13 30 13h122q17 0 30 -13l31 -31q11 -11 11 -28v-90q0 -26 -24 -37l-172 -77q-7 -3 -7 -10v-58h203v-57z" />
    <glyph glyph-name="threeinferior" unicode="&#x2083;" horiz-adv-x="420" 
d="M343 72q0 -17 -11 -28l-31 -31q-13 -13 -30 -13h-122q-17 0 -30 13l-49 49l41 41l42 -42q4 -4 8 -4h97q4 0 8 4l11 11q3 3 3 8v81q0 5 -3 8l-10 10q-4 4 -9 4h-91v57h91q5 0 9 4l10 10q3 3 3 8v59q0 5 -3 8l-11 11q-4 4 -8 4h-97q-4 0 -8 -4l-42 -42l-41 41l49 49
q13 13 30 13h58h64q17 0 30 -13l31 -31q11 -11 11 -28v-67q0 -17 -12 -29l-22 -22l22 -22q12 -12 12 -29v-88z" />
    <glyph glyph-name="fourinferior" unicode="&#x2084;" horiz-adv-x="418" 
d="M354 104h-54v-104h-57v104h-180v49l160 248h77v-240h54v-57zM240 161v165l-108 -165h108z" />
    <glyph glyph-name="fiveinferior" unicode="&#x2085;" horiz-adv-x="420" 
d="M344 180l-1 -108q0 -17 -11 -28l-31 -31q-13 -13 -30 -13h-120q-17 0 -30 13l-49 49l41 41l42 -42q4 -4 8 -4h96q4 0 8 4l10 10q3 3 3 8v94q0 5 -3 8l-11 11q-4 4 -9 4h-163v205h224v-57h-161v-91h112q19 0 32 -13l32 -32q11 -11 11 -28z" />
    <glyph glyph-name="sixinferior" unicode="&#x2086;" horiz-adv-x="420" 
d="M350 339l-41 -41l-42 42q-4 4 -8 4h-96q-5 0 -9 -4l-11 -11q-3 -3 -3 -8v-99l19 19q12 12 30 12h81q18 0 30 -12l32 -32q11 -11 11 -28v-109q0 -17 -11 -28l-31 -31q-13 -13 -29 -13h-124q-16 0 -29 13l-31 31q-11 11 -11 28v257q0 17 11 28l31 31q13 13 29 13h120
q20 0 33 -13zM280 80v95q0 5 -3 8l-10 10q-3 3 -8 3h-66q-5 0 -8 -3l-42 -42q-3 -3 -3 -8v-63q0 -5 3 -8l11 -11q4 -4 9 -4h95q5 0 9 4l10 10q3 3 3 9z" />
    <glyph glyph-name="seveninferior" unicode="&#x2087;" horiz-adv-x="420" 
d="M343 354l-162 -354h-72l162 344h-200v57h272v-47z" />
    <glyph glyph-name="eightinferior" unicode="&#x2088;" horiz-adv-x="420" 
d="M343 72q0 -17 -11 -28l-31 -31q-13 -13 -30 -13h-122q-17 0 -30 13l-31 31q-11 11 -11 28v88q0 17 12 29l22 22l-22 22q-12 12 -12 29v67q0 17 11 28l31 31q13 13 30 13h122q17 0 30 -13l31 -31q11 -11 11 -28v-67q0 -17 -12 -29l-22 -22l22 -22q12 -12 12 -29v-88z
M280 262v59q0 5 -3 8l-11 11q-4 4 -8 4h-96q-4 0 -8 -4l-11 -11q-3 -3 -3 -8v-59q0 -5 3 -8l10 -10q4 -4 9 -4h96q5 0 9 4l10 10q3 3 3 8zM280 80v81q0 5 -3 8l-10 10q-4 4 -9 4h-96q-5 0 -9 -4l-10 -10q-3 -3 -3 -8v-81q0 -5 3 -8l11 -11q4 -4 8 -4h96q4 0 8 4l11 11
q3 3 3 8z" />
    <glyph glyph-name="nineinferior" unicode="&#x2089;" horiz-adv-x="420" 
d="M343 72q0 -17 -11 -28l-31 -31q-13 -13 -29 -13h-120q-20 0 -33 13l-49 49l41 41l42 -42q4 -4 8 -4h97q5 0 9 4l10 10q3 3 3 8v99l-19 -19q-12 -12 -30 -12h-81q-18 0 -30 12l-32 32q-11 11 -11 28v110q0 17 11 28l31 31q13 13 29 13h124q16 0 29 -13l31 -31
q11 -11 11 -28v-257zM280 257v64q0 5 -3 8l-11 11q-4 4 -9 4h-94q-5 0 -9 -4l-11 -11q-3 -3 -3 -9v-95q0 -5 3 -8l10 -10q3 -3 8 -3h66q5 0 8 3l42 42q3 3 3 8z" />
    <glyph glyph-name="parenleftinferior" unicode="&#x208d;" horiz-adv-x="239" 
d="M53 333q0 20 14 34l119 119l42 -44l-102 -101q-10 -10 -10 -25v-264q0 -15 10 -24l102 -102l-42 -43l-119 118q-14 13 -14 33v299z" />
    <glyph glyph-name="parenrightinferior" unicode="&#x208e;" horiz-adv-x="239" 
d="M186 36q0 -20 -14 -34l-119 -119l-42 44l102 101q10 10 10 25v264q0 15 -10 24l-102 102l42 43l119 -118q14 -13 14 -33v-299z" />
    <glyph glyph-name="franc" unicode="&#x20a3;" horiz-adv-x="919" 
d="M447 307h-237v-307h-91v667h432v-88h-341v-184h237v-88zM870 205h-82v72q0 6 -6 14l-24 23q-7 7 -14 7h-42q-7 0 -15 -6l-82 -83q-6 -6 -6 -14v-218h-86v312l-20 83h83l17 -74l53 53q21 21 50 21h59q30 0 49 -20l44 -44q22 -22 22 -51v-75z" />
    <glyph glyph-name="lira" unicode="&#x20a4;" 
d="M134 297v75h-77v50h77v128q0 29 19 48l47 47q22 22 51 22h198q29 0 50 -21l67 -66l-56 -56l-59 59q-6 6 -15 6h-172q-10 0 -15 -6l-24 -24q-6 -6 -6 -14v-123h192v-50h-192v-75h192v-50h-192v-169h343v-78h-485v78h57v169h-77v50h77z" />
    <glyph glyph-name="peseta" unicode="&#x20a7;" horiz-adv-x="1545" 
d="M611 412q0 -29 -21 -50l-59 -59q-20 -20 -48 -20h-273v-283h-91v667h363q28 0 48 -20l59 -59q22 -22 22 -50v-126zM520 425v101q0 8 -6 14l-33 33q-6 6 -14 6h-257v-208h256q10 0 14 6l34 34q6 6 6 14zM985 0h-133q-29 0 -49 20l-40 40q-21 21 -21 52v286h-77v78h76v191
h86v-191h158v-78h-158v-277q0 -11 6 -17l20 -20q6 -6 14 -6h118v-78zM1482 116q0 -31 -21 -52l-44 -44q-20 -20 -49 -20h-174q-29 0 -49 20l-62 62l55 55l53 -53q6 -6 14 -6h151q8 0 14 6l20 20q6 6 6 16v49q0 18 -18 20l-232 29q-27 4 -45 23.5t-18 45.5v74q0 28 21 51
l44 44q20 20 49 20h174q30 0 49 -20l62 -61l-55 -56l-53 53q-6 6 -14 6h-151q-8 0 -14 -6l-20 -20q-6 -6 -6 -14v-46q0 -18 18 -20l233 -30q26 -3 44 -23t18 -46v-77z" />
    <glyph glyph-name="Euro" unicode="&#x20ac;" 
d="M559 115l-94 -94q-21 -21 -50 -21h-136q-29 0 -50 21l-82 82q-21 21 -21 50v94h-77v50h77v75h-77v50h77v92q0 29 21 50l82 82q21 21 50 21h136q29 0 50 -21l94 -94l-61 -60l-84 84q-6 6 -14 6h-106q-8 0 -14 -6l-60 -60q-6 -6 -6 -14v-80h133v-50h-133v-75h133v-50h-133
v-82q0 -8 6 -14l60 -60q6 -6 14 -6h106q8 0 14 6l84 84z" />
    <glyph glyph-name="afii61289" unicode="&#x2113;" horiz-adv-x="500" 
d="M249 269q-33 -171 -33 -208q0 -25 18 -25q26 0 51 54q8 18 19 18q13 0 13 -15q0 -23 -26 -60q-37 -47 -76 -47q-31 0 -49 23.5t-18 64.5q0 36 10 127q-41 -38 -49 -38q-5 0 -9.5 5t-4.5 11q0 10 20 27q23 20 50 52q41 216 89 318t108 102q29 0 46 -22t17 -59
q0 -87 -64 -192q-36 -58 -112 -136zM260 333q125 140 125 260q0 44 -23 44q-11 0 -22.5 -12.5t-18.5 -31.5q-31 -86 -61 -260z" />
    <glyph glyph-name="afii61352" unicode="&#x2116;" horiz-adv-x="1096" 
d="M611 0h-136l-266 563v-563h-90v667h136l266 -563v563h90v-667zM1057 417q0 -23 -15 -37l-31 -32q-14 -14 -36 -14h-144q-22 0 -36 14l-31 32q-16 15 -16 37v167q0 22 16 37l31 32q14 14 36 14h144q22 0 36 -14l31 -32q15 -14 15 -37v-167zM998 419v164q0 7 -4 11l-11 11
q-4 4 -10 4h-138q-8 0 -11 -4l-12 -11q-4 -4 -4 -11v-164q0 -8 4 -11l12 -12q3 -4 11 -4h138q6 0 10 4l11 12q4 3 4 11zM1057 228h-309v63h309v-63z" />
    <glyph glyph-name="trademark" unicode="&#x2122;" horiz-adv-x="954" 
d="M835 234h-66v345l-114 -345h-77l-114 345v-345h-66v433h102l117 -355l116 355h102v-433zM346 603h-134v-369h-68v369h-134v64h336v-64z" />
    <glyph glyph-name="uni2126" unicode="&#x2126;" horiz-adv-x="735" 
d="M316 92v-92h-225v88h103l-82 82q-21 21 -21 50v294q0 29 21 50l82 82q21 21 50 21h247q29 0 50 -21l82 -82q21 -21 21 -50v-294q0 -29 -21 -50l-82 -82h103v-88h-225v92l128 126q6 6 6 14v270q0 8 -6 14l-57 57q-6 6 -14 6h-217q-8 0 -14 -6l-57 -57q-6 -6 -6 -14v-270
q0 -8 6 -14z" />
    <glyph glyph-name="estimated" unicode="&#x212e;" horiz-adv-x="798" 
d="M769 311h-599q-6 0 -6 -4v-181q0 -10 9 -21q93 -98 227 -98q70 0 131.5 29.5t106.5 80.5h54q-51 -60 -128.5 -95t-164.5 -35q-153 0 -261.5 97.5t-108.5 235.5q0 137 108.5 234.5t261.5 97.5t261.5 -97.5t108.5 -234.5v-9zM634 335v181q0 12 -10 22q-92 94 -224 94
t-226 -97q-10 -10 -10 -23v-177q0 -5 6 -5h459q5 0 5 5z" />
    <glyph glyph-name="onethird" unicode="&#x2153;" horiz-adv-x="974" 
d="M897 72q0 -17 -11 -28l-31 -31q-13 -13 -30 -13h-122q-17 0 -30 13l-49 49l41 41l42 -42q4 -4 8 -4h97q4 0 8 4l11 11q3 3 3 8v81q0 5 -3 8l-10 10q-4 4 -9 4h-91v57h91q5 0 9 4l10 10q3 3 3 8v59q0 5 -3 8l-11 11q-4 4 -8 4h-97q-4 0 -8 -4l-42 -42l-41 41l49 49
q13 13 30 13h58h64q17 0 30 -13l31 -31q11 -11 11 -28v-67q0 -17 -12 -29l-22 -22l22 -22q12 -12 12 -29v-88zM699 672l-363 -672h-61l363 672h61zM357 266h-266v57h104v271l-67 -67l-44 44l96 96h78v-344h99v-57z" />
    <glyph glyph-name="twothirds" unicode="&#x2154;" horiz-adv-x="974" 
d="M897 72q0 -17 -11 -28l-31 -31q-13 -13 -30 -13h-122q-17 0 -30 13l-49 49l41 41l42 -42q4 -4 8 -4h97q4 0 8 4l11 11q3 3 3 8v81q0 5 -3 8l-10 10q-4 4 -9 4h-91v57h91q5 0 9 4l10 10q3 3 3 8v59q0 5 -3 8l-11 11q-4 4 -8 4h-97q-4 0 -8 -4l-42 -42l-41 41l49 49
q13 13 30 13h58h64q17 0 30 -13l31 -31q11 -11 11 -28v-67q0 -17 -12 -29l-22 -22l22 -22q12 -12 12 -29v-88zM699 672l-363 -672h-61l363 672h61zM343 266h-266v131q0 26 24 37l172 76q7 4 7 10v67q0 5 -3 8l-11 11q-4 4 -8 4h-98q-4 0 -8 -4l-41 -42l-41 41l49 49
q13 13 30 13h122q17 0 30 -13l31 -31q11 -11 11 -28v-90q0 -26 -24 -37l-172 -77q-7 -3 -7 -10v-58h203v-57z" />
    <glyph glyph-name="oneeighth" unicode="&#x215b;" horiz-adv-x="974" 
d="M897 72q0 -17 -11 -28l-31 -31q-13 -13 -30 -13h-122q-17 0 -30 13l-31 31q-11 11 -11 28v88q0 17 12 29l22 22l-22 22q-12 12 -12 29v67q0 17 11 28l31 31q13 13 30 13h122q17 0 30 -13l31 -31q11 -11 11 -28v-67q0 -17 -12 -29l-22 -22l22 -22q12 -12 12 -29v-88z
M699 672l-363 -672h-61l363 672h61zM357 266h-266v57h104v271l-67 -67l-44 44l96 96h78v-344h99v-57zM897 72v88q0 17 -12 29l-22 22l22 22q12 12 12 29v67q0 17 -11 28l-31 31q-13 13 -30 13h-122q-17 0 -30 -13l-31 -31q-11 -11 -11 -28v-67q0 -17 12 -29l22 -22l-22 -22
q-12 -12 -12 -29v-88q0 -17 11 -28l31 -31q13 -13 30 -13h122q17 0 30 13l31 31q11 11 11 28zM699 672h-61l-363 -672h61zM897 72q0 -17 -11 -28l-31 -31q-13 -13 -30 -13h-122q-17 0 -30 13l-31 31q-11 11 -11 28v88q0 17 12 29l22 22l-22 22q-12 12 -12 29v67q0 17 11 28
l31 31q13 13 30 13h122q17 0 30 -13l31 -31q11 -11 11 -28v-67q0 -17 -12 -29l-22 -22l22 -22q12 -12 12 -29v-88zM699 672l-363 -672h-61l363 672h61zM834 262v59q0 5 -3 8l-11 11q-4 4 -8 4h-96q-4 0 -8 -4l-11 -11q-3 -3 -3 -8v-59q0 -5 3 -8l10 -10q4 -4 9 -4h96
q5 0 9 4l10 10q3 3 3 8zM834 80v81q0 5 -3 8l-10 10q-4 4 -9 4h-96q-5 0 -9 -4l-10 -10q-3 -3 -3 -8v-81q0 -5 3 -8l11 -11q4 -4 8 -4h96q4 0 8 4l11 11q3 3 3 8zM834 262q0 -5 -3 -8l-10 -10q-4 -4 -9 -4h-96q-5 0 -9 4l-10 10q-3 3 -3 8v59q0 5 3 8l11 11q4 4 8 4h96
q4 0 8 -4l11 -11q3 -3 3 -8v-59zM834 80q0 -5 -3 -8l-11 -11q-4 -4 -8 -4h-96q-4 0 -8 4l-11 11q-3 3 -3 8v81q0 5 3 8l10 10q4 4 9 4h96q5 0 9 -4l10 -10q3 -3 3 -8v-81zM834 262v59q0 5 -3 8l-11 11q-4 4 -8 4h-96q-4 0 -8 -4l-11 -11q-3 -3 -3 -8v-59q0 -5 3 -8l10 -10
q4 -4 9 -4h96q5 0 9 4l10 10q3 3 3 8zM834 80v81q0 5 -3 8l-10 10q-4 4 -9 4h-96q-5 0 -9 -4l-10 -10q-3 -3 -3 -8v-81q0 -5 3 -8l11 -11q4 -4 8 -4h96q4 0 8 4l11 11q3 3 3 8z" />
    <glyph glyph-name="threeeighths" unicode="&#x215c;" horiz-adv-x="974" 
d="M897 72q0 -17 -11 -28l-31 -31q-13 -13 -30 -13h-122q-17 0 -30 13l-31 31q-11 11 -11 28v88q0 17 12 29l22 22l-22 22q-12 12 -12 29v67q0 17 11 28l31 31q13 13 30 13h122q17 0 30 -13l31 -31q11 -11 11 -28v-67q0 -17 -12 -29l-22 -22l22 -22q12 -12 12 -29v-88z
M699 672l-363 -672h-61l363 672h61zM343 338q0 -17 -11 -28l-31 -31q-13 -13 -30 -13h-122q-17 0 -30 13l-49 49l41 41l42 -42q4 -4 8 -4h97q4 0 8 4l11 11q3 3 3 8v81q0 5 -3 8l-10 10q-4 4 -9 4h-91v57h91q5 0 9 4l10 10q3 3 3 8v59q0 5 -3 8l-11 11q-4 4 -8 4h-97
q-4 0 -8 -4l-42 -42l-41 41l49 49q13 13 30 13h58h64q17 0 30 -13l31 -31q11 -11 11 -28v-67q0 -17 -12 -29l-22 -22l22 -22q12 -12 12 -29v-88zM834 262v59q0 5 -3 8l-11 11q-4 4 -8 4h-96q-4 0 -8 -4l-11 -11q-3 -3 -3 -8v-59q0 -5 3 -8l10 -10q4 -4 9 -4h96q5 0 9 4
l10 10q3 3 3 8zM834 80v81q0 5 -3 8l-10 10q-4 4 -9 4h-96q-5 0 -9 -4l-10 -10q-3 -3 -3 -8v-81q0 -5 3 -8l11 -11q4 -4 8 -4h96q4 0 8 4l11 11q3 3 3 8z" />
    <glyph glyph-name="fiveeighths" unicode="&#x215d;" horiz-adv-x="974" 
d="M897 72q0 -17 -11 -28l-31 -31q-13 -13 -30 -13h-122q-17 0 -30 13l-31 31q-11 11 -11 28v88q0 17 12 29l22 22l-22 22q-12 12 -12 29v67q0 17 11 28l31 31q13 13 30 13h122q17 0 30 -13l31 -31q11 -11 11 -28v-67q0 -17 -12 -29l-22 -22l22 -22q12 -12 12 -29v-88z
M699 672l-363 -672h-61l363 672h61zM343 338q0 -17 -11 -28l-31 -31q-13 -13 -30 -13h-120q-17 0 -30 13l-49 49l41 41l42 -42q4 -4 8 -4h96q4 0 8 4l10 10q3 3 3 8v94q0 5 -3 8l-11 11q-4 4 -9 4h-163v205h224v-57h-161v-91h112q19 0 32 -13l31 -31q11 -11 11 -28v-109z
M834 262v59q0 5 -3 8l-11 11q-4 4 -8 4h-96q-4 0 -8 -4l-11 -11q-3 -3 -3 -8v-59q0 -5 3 -8l10 -10q4 -4 9 -4h96q5 0 9 4l10 10q3 3 3 8zM834 80v81q0 5 -3 8l-10 10q-4 4 -9 4h-96q-5 0 -9 -4l-10 -10q-3 -3 -3 -8v-81q0 -5 3 -8l11 -11q4 -4 8 -4h96q4 0 8 4l11 11
q3 3 3 8z" />
    <glyph glyph-name="seveneighths" unicode="&#x215e;" horiz-adv-x="974" 
d="M897 72q0 -17 -11 -28l-31 -31q-13 -13 -30 -13h-122q-17 0 -30 13l-31 31q-11 11 -11 28v88q0 17 12 29l22 22l-22 22q-12 12 -12 29v67q0 17 11 28l31 31q13 13 30 13h122q17 0 30 -13l31 -31q11 -11 11 -28v-67q0 -17 -12 -29l-22 -22l22 -22q12 -12 12 -29v-88z
M699 672l-363 -672h-61l363 672h61zM343 620l-162 -354h-72l162 344h-200v57h272v-47zM834 262v59q0 5 -3 8l-11 11q-4 4 -8 4h-96q-4 0 -8 -4l-11 -11q-3 -3 -3 -8v-59q0 -5 3 -8l10 -10q4 -4 9 -4h96q5 0 9 4l10 10q3 3 3 8zM834 80v81q0 5 -3 8l-10 10q-4 4 -9 4h-96
q-5 0 -9 -4l-10 -10q-3 -3 -3 -8v-81q0 -5 3 -8l11 -11q4 -4 8 -4h96q4 0 8 4l11 11q3 3 3 8z" />
    <glyph glyph-name="arrowleft" unicode="&#x2190;" horiz-adv-x="807" 
d="M737 124l-52 -53l-219 220q-6 4 -15 6l-246 3l157 -153l-52 -53l-240 240l240 239l52 -52l-158 -154l258 3q27 1 48 -20z" />
    <glyph glyph-name="arrowup" unicode="&#x2191;" horiz-adv-x="807" 
d="M643 427l-52 -52l-154 158l3 -258q1 -27 -20 -48l-226 -227l-53 52l220 220q4 4 6 14l3 246l-153 -157l-53 52l240 240z" />
    <glyph glyph-name="arrowright" unicode="&#x2192;" horiz-adv-x="807" 
d="M737 333l-240 -239l-52 52l158 154l-258 -4q-27 0 -48 21l-227 226l52 52l219 -219q6 -4 15 -6l246 -3l-157 153l52 53z" />
    <glyph glyph-name="arrowdown" unicode="&#x2193;" horiz-adv-x="807" 
d="M665 615l-219 -220q-4 -4 -6 -14l-3 -246l153 157l53 -52l-240 -240l-239 240l52 52l154 -158l-4 258q0 27 21 48l226 227z" />
    <glyph glyph-name="uni2196" unicode="&#x2196;" horiz-adv-x="807" 
d="M737 296l-320 1q-30 0 -49 20l-227 231l3 -220h-74v339h339v-74l-219 3l223 -219q6 -6 14 -6h310v-75z" />
    <glyph glyph-name="uni2197" unicode="&#x2197;" horiz-adv-x="807" 
d="M737 328h-74l3 220l-227 -231q-19 -20 -49 -20l-320 -1v75h310q8 0 14 6l223 219l-219 -3v74h339v-339z" />
    <glyph glyph-name="uni2198" unicode="&#x2198;" horiz-adv-x="807" 
d="M737 0h-339v74l219 -3l-223 219q-6 6 -14 6h-310v74h320q30 0 49 -20l227 -231l-3 220h74v-339z" />
    <glyph glyph-name="uni2199" unicode="&#x2199;" horiz-adv-x="807" 
d="M737 296h-310q-8 0 -14 -6l-223 -219l219 3v-74h-339v339h74l-3 -220l227 231q19 20 49 20l320 1v-75z" />
    <glyph glyph-name="partialdiff" unicode="&#x2202;" 
d="M146 522l-55 54l69 69q22 22 51 22h191q29 0 51 -22l47 -47q19 -19 19 -48v-433q0 -29 -19 -48l-47 -47q-22 -22 -51 -22h-191q-29 0 -51 22l-47 47q-19 19 -19 48v179q0 29 19 48l47 47q22 22 51 22h124q29 0 51 -22l48 -48v203q0 9 -5 14l-23 23q-6 6 -15 6h-169
q-9 0 -15 -6zM179 291v-170q0 -9 5 -14l23 -23q6 -6 15 -6h169q9 0 15 6l23 23q5 5 5 14v112q0 9 -5 14l-83 82q-4 6 -15 6h-109q-9 0 -15 -6l-23 -23q-5 -5 -5 -15z" />
    <glyph glyph-name="uni2206" unicode="&#x2206;" horiz-adv-x="685" 
d="M33 0l251 667h120l248 -667h-619zM528 84l-186 501l-187 -501h373z" />
    <glyph glyph-name="product" unicode="&#x220f;" horiz-adv-x="714" 
d="M704 750v-82h-101v-918h-91v918h-310v-918h-91v918h-101v82h694z" />
    <glyph glyph-name="summation" unicode="&#x2211;" horiz-adv-x="657" 
d="M614 750v-222h-85v134h-380l216 -348l27 -43l-244 -434h387v135h89v-222h-597v63l259 458l-259 418v61h587z" />
    <glyph glyph-name="minus" unicode="&#x2212;" 
d="M542 200h-478v76h478v-76z" />
    <glyph glyph-name="radical" unicode="&#x221a;" horiz-adv-x="667" 
d="M203 70l195 709q14 48 48 48h272v-72h-233q-7 0 -10 -2.5t-6 -12.5l-205 -740h-123l-71 267q-2 9 -5 12t-10 3h-98v71h138q17 0 32 -15q10 -11 14 -33z" />
    <glyph glyph-name="infinity" unicode="&#x221e;" horiz-adv-x="771" 
d="M385 440l31 29q20 18 46 18h139q26 0 43 -16l42 -39q19 -21 19 -43v-16v-115v-16q0 -22 -19 -43l-42 -39q-17 -16 -43 -16h-139q-26 0 -46 18l-31 29l-31 -29q-20 -18 -46 -18h-138q-27 0 -43 16l-42 39q-20 19 -20 43v13v121v13q0 24 20 43l42 39q17 16 43 16h138
q26 0 46 -18zM583 419h-111q-7 0 -12 -4l-31 -28q-5 -5 -5 -11v-121q0 -6 5 -11l31 -28q4 -4 12 -4h112q7 0 11 4l35 31q5 5 5 11v115q0 6 -5 11l-35 31q-4 4 -12 4zM294 419h-110q-8 0 -12 -4l-31 -28q-5 -5 -5 -11v-121q0 -6 5 -11l31 -28q4 -4 12 -4h111q8 0 12 4l34 31
q5 5 5 11v115q0 6 -5 11l-34 31q-4 4 -13 4z" />
    <glyph glyph-name="integral" unicode="&#x222b;" horiz-adv-x="500" 
d="M54 -249v78h118q8 0 14 6l20 20q6 6 6 16v767q0 31 21 52l40 40q20 20 49 20h133v-78h-118q-8 0 -14 -6l-20 -20q-6 -6 -6 -16v-767q0 -31 -21 -52l-41 -40q-20 -20 -49 -20h-132z" />
    <glyph glyph-name="approxequal" unicode="&#x2248;" 
d="M560 393l-150 -150q-14 -12 -33 -12q-22 0 -34 12l-108 108q-10 10 -21 0l-117 -117l-50 50l145 145q12 12 33 12q23 0 34 -13l107 -106q11 -11 21 0l122 122zM560 193l-154 -154q-14 -12 -33 -12q-22 0 -34 12l-108 108q-10 10 -21 0l-113 -113l-50 50l141 141
q12 12 33 12q22 1 34 -13l107 -106q11 -11 21 0l127 125z" />
    <glyph glyph-name="notequal" unicode="&#x2260;" 
d="M542 103h-339l-102 -103l-36 35l68 68h-67v76h144l121 121h-265v76h341l100 100l35 -34l-67 -66h67v-76h-143l-120 -121h263v-76z" />
    <glyph glyph-name="lessequal" unicode="&#x2264;" 
d="M433 110l-57 -56l-211 212l211 211l57 -55l-156 -156zM468 -76h-329v76h329v-76z" />
    <glyph glyph-name="greaterequal" unicode="&#x2265;" 
d="M442 266l-211 -212l-57 56l156 156l-156 156l57 55zM468 -76h-329v76h329v-76z" />
    <glyph glyph-name="lozenge" unicode="&#x25ca;" horiz-adv-x="667" 
d="M333 -46l-282 380l282 380l283 -380zM333 588l-184 -254l184 -255l185 255z" />
    <glyph glyph-name="Euro.fitted" unicode="&#xe002;" 
d="M559 115l-94 -94q-21 -21 -50 -21h-136q-29 0 -50 21l-82 82q-21 21 -21 50v94h-77v50h77v75h-77v50h77v92q0 29 21 50l82 82q21 21 50 21h136q29 0 50 -21l94 -94l-61 -60l-84 84q-6 6 -14 6h-106q-8 0 -14 -6l-60 -60q-6 -6 -6 -14v-80h133v-50h-133v-75h133v-50h-133
v-82q0 -8 6 -14l60 -60q6 -6 14 -6h106q8 0 14 6l84 84z" />
    <glyph glyph-name="Dotaccent" unicode="&#xefed;" horiz-adv-x="465" 
d="M284 757h-101v101h101v-101z" />
    <glyph glyph-name="Breve" unicode="&#xefee;" horiz-adv-x="465" 
d="M379 826q0 -17 -15 -32l-51 -51q-12 -12 -34 -12h-92q-22 0 -34 12l-51 51q-15 15 -15 32v58h63v-53q0 -1 5 -9l30 -29q3 -3 10 -3h76q7 0 10 2l30 30q5 8 5 9v53h63v-58z" />
    <glyph glyph-name="Ogonek" unicode="&#xeff1;" horiz-adv-x="465" 
d="M305 -34l-55 -55l54 -54l-45 -45l-100 100l101 100z" />
    <glyph glyph-name="Cedilla" unicode="&#xeff2;" horiz-adv-x="465" 
d="M305 -88l-100 -100l-45 45l54 54l-55 55l46 46z" />
    <glyph glyph-name="Tilde" unicode="&#xeff5;" horiz-adv-x="465" 
d="M428 801l-90 -59q-19 -13 -38 -13q-21 0 -42 14l-86 58q-8 6 -16 0l-82 -56l-36 51l88 58q19 14 39 14q21 0 41 -15l81 -56q9 -5 17 0l90 59z" />
    <glyph glyph-name="Circumflex" unicode="&#xeff7;" horiz-adv-x="465" 
d="M419 740h-90l-96 96l-95 -96h-91l132 132h108z" />
    <glyph glyph-name="parenleft.dnom" unicode="&#xf62c;" horiz-adv-x="239" 
d="M53 333q0 20 14 34l119 119l42 -44l-102 -101q-10 -10 -10 -25v-264q0 -15 10 -24l102 -102l-42 -43l-119 118q-14 13 -14 33v299z" />
    <glyph glyph-name="parenright.dnom" unicode="&#xf62d;" horiz-adv-x="239" 
d="M186 36q0 -20 -14 -34l-119 -119l-42 44l102 101q10 10 10 25v264q0 15 -10 24l-102 102l42 43l119 -118q14 -13 14 -33v-299z" />
    <glyph glyph-name="parenleft.numr" unicode="&#xf631;" horiz-adv-x="197" 
d="M11 599q0 20 14 34l119 119l42 -44l-102 -101q-10 -10 -10 -25v-264q0 -15 10 -24l102 -102l-42 -43l-119 118q-14 13 -14 33v299z" />
    <glyph glyph-name="parenright.numr" unicode="&#xf632;" horiz-adv-x="239" 
d="M186 302q0 -20 -14 -34l-119 -119l-42 44l102 101q10 10 10 25v264q0 15 -10 24l-102 102l42 43l119 -118q14 -13 14 -33v-299z" />
    <glyph glyph-name="zero.fitted" unicode="&#xf639;" 
d="M516 117q0 -29 -19 -48l-47 -47q-22 -22 -51 -22h-191q-29 0 -51 22l-47 47q-19 19 -19 48v433q0 29 19 48l47 47q22 22 51 22h191q29 0 51 -22l47 -47q19 -19 19 -48v-433zM431 122v424q0 9 -5 14l-23 23q-6 6 -15 6h-169q-9 0 -15 -6l-23 -23q-5 -5 -5 -14v-425
q0 -9 5 -14l23 -23q6 -6 15 -6h169q9 0 15 6l23 23q5 5 5 15z" />
    <glyph glyph-name="two.fitted" unicode="&#xf63a;" 
d="M516 0h-425v213q0 45 41 64l287 128q12 5 12 18v123q0 9 -5 14l-23 23q-6 6 -15 6h-169q-9 0 -15 -6l-61 -61l-55 54l69 69q22 22 51 22h191q29 0 51 -22l47 -47q19 -19 19 -48v-144q0 -47 -41 -64l-287 -129q-12 -5 -12 -18v-117h340v-78z" />
    <glyph glyph-name="three.fitted" unicode="&#xf63b;" 
d="M516 117q0 -29 -19 -48l-47 -47q-22 -22 -51 -22h-191q-29 0 -51 22l-69 69l55 54l61 -61q6 -6 15 -6h169q9 0 15 6l23 23q5 5 5 14v142q0 10 -5 14l-29 30q-6 6 -15 6h-136v78h135q11 0 15 6l30 29q5 5 5 14v106q0 9 -5 14l-23 23q-6 6 -15 6h-169q-9 0 -15 -6l-61 -61
l-55 54l69 69q22 22 51 22h191q29 0 51 -22l47 -47q19 -19 19 -48v-113q0 -29 -21 -50l-35 -35l36 -36q20 -20 20 -48v-151z" />
    <glyph glyph-name="four.fitted" unicode="&#xf63c;" 
d="M520 179h-84v-179h-85v179h-296v71l267 417h113v-410h85v-78zM351 257v315l-199 -315h199z" />
    <glyph glyph-name="five.fitted" unicode="&#xf63d;" 
d="M516 117q0 -29 -19 -48l-47 -47q-22 -22 -51 -22h-191q-29 0 -51 22l-69 69l55 54l61 -61q6 -6 15 -6h169q9 0 15 6l23 23q5 5 5 14v173q0 7 -5 12l-23 23q-6 6 -15 6h-269v332h369v-78h-284v-176h195q29 0 51 -22l47 -47q19 -19 19 -46v-181z" />
    <glyph glyph-name="six.fitted" unicode="&#xf63e;" 
d="M519 576l-55 -54l-61 61q-6 6 -15 6h-169q-9 0 -15 -6l-23 -23q-5 -5 -5 -14v-203l48 48q22 22 51 22h124q29 0 51 -22l47 -47q19 -19 19 -48v-179q0 -29 -19 -48l-47 -47q-22 -22 -51 -22h-191q-29 0 -51 22l-47 47q-19 19 -19 48v433q0 29 19 48l47 47q22 22 51 22h191
q29 0 51 -22zM431 121v170q0 10 -5 15l-23 23q-6 6 -15 6h-109q-11 0 -15 -6l-83 -82q-5 -5 -5 -14v-112q0 -9 5 -14l23 -23q6 -6 15 -6h169q9 0 15 6l23 23q5 5 5 14z" />
    <glyph glyph-name="seven.fitted" unicode="&#xf63f;" 
d="M516 609l-274 -609h-92l267 589h-328v78h427v-58z" />
    <glyph glyph-name="eight.fitted" unicode="&#xf640;" 
d="M516 117q0 -29 -19 -48l-47 -47q-22 -22 -51 -22h-191q-29 0 -51 22l-47 47q-19 20 -19 48v146q0 28 20 50l36 35l-35 35q-21 21 -21 51v116q0 29 19 48l47 47q22 22 51 22h191q29 0 51 -22l47 -47q19 -19 19 -48v-116q0 -29 -21 -50l-35 -35l35 -36q21 -21 21 -49v-147z
M431 438v108q0 9 -5 14l-23 23q-6 6 -15 6h-169q-9 0 -15 -6l-23 -23q-5 -5 -5 -14v-108q0 -10 5 -14l30 -30q7 -7 15 -7h155q9 0 15 6l30 30q5 5 5 15zM431 122v137q0 10 -5 14l-30 30q-7 7 -15 7h-155q-7 0 -15 -6l-30 -30q-5 -5 -5 -14v-139q0 -9 5 -14l23 -23
q6 -6 15 -6h169q9 0 15 6l23 23q5 5 5 15z" />
    <glyph glyph-name="nine.fitted" unicode="&#xf641;" 
d="M516 117q0 -29 -19 -48l-47 -47q-22 -22 -51 -22h-191q-29 0 -51 22l-69 69l55 54l61 -61q6 -6 15 -6h169q9 0 15 6l23 23q5 5 5 14v203l-48 -48q-22 -22 -51 -22h-124q-29 0 -51 22l-47 47q-19 19 -19 48v179q0 29 19 48l47 47q22 22 51 22h191q29 0 51 -22l47 -47
q19 -19 19 -48v-433zM431 435v111q0 9 -5 14l-23 23q-6 6 -15 6h-169q-9 0 -15 -6l-23 -23q-5 -5 -5 -14v-170q0 -10 5 -15l23 -23q6 -6 15 -6h109q10 0 15 6l83 82q5 5 5 15z" />
    <glyph glyph-name="zero.dnom" unicode="&#xf655;" horiz-adv-x="420" 
d="M343 72q0 -17 -11 -28l-31 -31q-13 -13 -29 -13h-124q-16 0 -29 13l-31 31q-11 11 -11 28v257q0 17 11 28l31 31q13 13 29 13h121q19 0 32 -13l31 -31q11 -11 11 -28v-257zM280 80v241q0 5 -3 8l-11 11q-4 4 -9 4h-94q-5 0 -9 -4l-11 -11q-3 -3 -3 -8v-241q0 -5 3 -8
l11 -11q4 -4 9 -4h95q5 0 9 4l10 10q3 3 3 9z" />
    <glyph glyph-name="one.dnom" unicode="&#xf656;" horiz-adv-x="420" 
d="M357 0h-266v57h104v271l-67 -67l-44 44l96 96h78v-344h99v-57z" />
    <glyph glyph-name="two.dnom" unicode="&#xf657;" horiz-adv-x="420" 
d="M343 0h-266v131q0 26 24 37l172 76q7 4 7 10v67q0 5 -3 8l-11 11q-4 4 -8 4h-98q-4 0 -8 -4l-41 -42l-41 41l49 49q13 13 30 13h122q17 0 30 -13l31 -31q11 -11 11 -28v-90q0 -26 -24 -37l-172 -77q-7 -3 -7 -10v-58h203v-57z" />
    <glyph glyph-name="three.dnom" unicode="&#xf658;" horiz-adv-x="420" 
d="M343 72q0 -17 -11 -28l-31 -31q-13 -13 -30 -13h-122q-17 0 -30 13l-49 49l41 41l42 -42q4 -4 8 -4h97q4 0 8 4l11 11q3 3 3 8v81q0 5 -3 8l-10 10q-4 4 -9 4h-91v57h91q5 0 9 4l10 10q3 3 3 8v59q0 5 -3 8l-11 11q-4 4 -8 4h-97q-4 0 -8 -4l-42 -42l-41 41l49 49
q13 13 30 13h58h64q17 0 30 -13l31 -31q11 -11 11 -28v-67q0 -17 -12 -29l-22 -22l22 -22q12 -12 12 -29v-88z" />
    <glyph glyph-name="four.dnom" unicode="&#xf659;" horiz-adv-x="418" 
d="M354 104h-54v-104h-57v104h-180v49l160 248h77v-240h54v-57zM240 161v165l-108 -165h108z" />
    <glyph glyph-name="five.dnom" unicode="&#xf65a;" horiz-adv-x="420" 
d="M344 180l-1 -108q0 -17 -11 -28l-31 -31q-13 -13 -30 -13h-120q-17 0 -30 13l-49 49l41 41l42 -42q4 -4 8 -4h96q4 0 8 4l10 10q3 3 3 8v94q0 5 -3 8l-11 11q-4 4 -9 4h-163v205h224v-57h-161v-91h112q19 0 32 -13l32 -32q11 -11 11 -28z" />
    <glyph glyph-name="six.dnom" unicode="&#xf65b;" horiz-adv-x="420" 
d="M350 339l-41 -41l-42 42q-4 4 -8 4h-96q-5 0 -9 -4l-11 -11q-3 -3 -3 -8v-99l19 19q12 12 30 12h81q18 0 30 -12l32 -32q11 -11 11 -28v-109q0 -17 -11 -28l-31 -31q-13 -13 -29 -13h-124q-16 0 -29 13l-31 31q-11 11 -11 28v257q0 17 11 28l31 31q13 13 29 13h120
q20 0 33 -13zM280 80v95q0 5 -3 8l-10 10q-3 3 -8 3h-66q-5 0 -8 -3l-42 -42q-3 -3 -3 -8v-63q0 -5 3 -8l11 -11q4 -4 9 -4h95q5 0 9 4l10 10q3 3 3 9z" />
    <glyph glyph-name="seven.dnom" unicode="&#xf65c;" horiz-adv-x="420" 
d="M343 354l-162 -354h-72l162 344h-200v57h272v-47z" />
    <glyph glyph-name="eight.dnom" unicode="&#xf65d;" horiz-adv-x="420" 
d="M343 72q0 -17 -11 -28l-31 -31q-13 -13 -30 -13h-122q-17 0 -30 13l-31 31q-11 11 -11 28v88q0 17 12 29l22 22l-22 22q-12 12 -12 29v67q0 17 11 28l31 31q13 13 30 13h122q17 0 30 -13l31 -31q11 -11 11 -28v-67q0 -17 -12 -29l-22 -22l22 -22q12 -12 12 -29v-88z
M280 262v59q0 5 -3 8l-11 11q-4 4 -8 4h-96q-4 0 -8 -4l-11 -11q-3 -3 -3 -8v-59q0 -5 3 -8l10 -10q4 -4 9 -4h96q5 0 9 4l10 10q3 3 3 8zM280 80v81q0 5 -3 8l-10 10q-4 4 -9 4h-96q-5 0 -9 -4l-10 -10q-3 -3 -3 -8v-81q0 -5 3 -8l11 -11q4 -4 8 -4h96q4 0 8 4l11 11
q3 3 3 8z" />
    <glyph glyph-name="nine.dnom" unicode="&#xf65e;" horiz-adv-x="420" 
d="M343 72q0 -17 -11 -28l-31 -31q-13 -13 -29 -13h-120q-20 0 -33 13l-49 49l41 41l42 -42q4 -4 8 -4h97q5 0 9 4l10 10q3 3 3 8v99l-19 -19q-12 -12 -30 -12h-81q-18 0 -30 12l-32 32q-11 11 -11 28v110q0 17 11 28l31 31q13 13 29 13h124q16 0 29 -13l31 -31
q11 -11 11 -28v-257zM280 257v64q0 5 -3 8l-11 11q-4 4 -9 4h-94q-5 0 -9 -4l-11 -11q-3 -3 -3 -9v-95q0 -5 3 -8l10 -10q3 -3 8 -3h66q5 0 8 3l42 42q3 3 3 8z" />
    <glyph glyph-name="zero.numr" unicode="&#xf661;" horiz-adv-x="420" 
d="M343 338q0 -17 -11 -28l-31 -31q-13 -13 -29 -13h-124q-16 0 -29 13l-31 31q-11 11 -11 28v257q0 17 11 28l31 31q13 13 29 13h121q19 0 32 -13l31 -31q11 -11 11 -28v-257zM280 346v241q0 5 -3 8l-11 11q-4 4 -9 4h-94q-5 0 -9 -4l-11 -11q-3 -3 -3 -8v-241q0 -5 3 -8
l11 -11q4 -4 9 -4h95q5 0 9 4l10 10q3 3 3 9z" />
    <glyph glyph-name="one.numr" unicode="&#xf662;" horiz-adv-x="420" 
d="M357 266h-266v57h104v271l-67 -67l-44 44l96 96h78v-344h99v-57z" />
    <glyph glyph-name="two.numr" unicode="&#xf663;" horiz-adv-x="420" 
d="M343 266h-266v131q0 26 24 37l172 76q7 4 7 10v67q0 5 -3 8l-11 11q-4 4 -8 4h-98q-4 0 -8 -4l-41 -42l-41 41l49 49q13 13 30 13h122q17 0 30 -13l31 -31q11 -11 11 -28v-90q0 -26 -24 -37l-172 -77q-7 -3 -7 -10v-58h203v-57z" />
    <glyph glyph-name="three.numr" unicode="&#xf664;" horiz-adv-x="420" 
d="M343 338q0 -17 -11 -28l-31 -31q-13 -13 -30 -13h-122q-17 0 -30 13l-49 49l41 41l42 -42q4 -4 8 -4h97q4 0 8 4l11 11q3 3 3 8v81q0 5 -3 8l-10 10q-4 4 -9 4h-91v57h91q5 0 9 4l10 10q3 3 3 8v59q0 5 -3 8l-11 11q-4 4 -8 4h-97q-4 0 -8 -4l-42 -42l-41 41l49 49
q13 13 30 13h58h64q17 0 30 -13l31 -31q11 -11 11 -28v-67q0 -17 -12 -29l-22 -22l22 -22q12 -12 12 -29v-88z" />
    <glyph glyph-name="four.numr" unicode="&#xf665;" horiz-adv-x="418" 
d="M354 370h-54v-104h-57v104h-180v49l160 248h77v-240h54v-57zM240 427v165l-108 -165h108z" />
    <glyph glyph-name="five.numr" unicode="&#xf666;" horiz-adv-x="420" 
d="M343 338q0 -17 -11 -28l-31 -31q-13 -13 -30 -13h-120q-17 0 -30 13l-49 49l41 41l42 -42q4 -4 8 -4h96q4 0 8 4l10 10q3 3 3 8v94q0 5 -3 8l-11 11q-4 4 -9 4h-163v205h224v-57h-161v-91h112q19 0 32 -13l31 -31q11 -11 11 -28v-109z" />
    <glyph glyph-name="six.numr" unicode="&#xf667;" horiz-adv-x="420" 
d="M350 605l-41 -41l-42 42q-4 4 -8 4h-96q-5 0 -9 -4l-11 -11q-3 -3 -3 -8v-99l19 19q12 12 30 12h81q18 0 30 -12l32 -32q11 -11 11 -28v-109q0 -17 -11 -28l-31 -31q-13 -13 -29 -13h-124q-16 0 -29 13l-31 31q-11 11 -11 28v257q0 17 11 28l31 31q13 13 29 13h120
q20 0 33 -13zM280 346v95q0 5 -3 8l-10 10q-3 3 -8 3h-66q-5 0 -8 -3l-42 -42q-3 -3 -3 -8v-63q0 -5 3 -8l11 -11q4 -4 9 -4h95q5 0 9 4l10 10q3 3 3 9z" />
    <glyph glyph-name="seven.numr" unicode="&#xf668;" horiz-adv-x="420" 
d="M343 620l-162 -354h-72l162 344h-200v57h272v-47z" />
    <glyph glyph-name="eight.numr" unicode="&#xf669;" horiz-adv-x="420" 
d="M343 338q0 -17 -11 -28l-31 -31q-13 -13 -30 -13h-122q-17 0 -30 13l-31 31q-11 11 -11 28v88q0 17 12 29l22 22l-22 22q-12 12 -12 29v67q0 17 11 28l31 31q13 13 30 13h122q17 0 30 -13l31 -31q11 -11 11 -28v-67q0 -17 -12 -29l-22 -22l22 -22q12 -12 12 -29v-88z
M280 528v59q0 5 -3 8l-11 11q-4 4 -8 4h-96q-4 0 -8 -4l-11 -11q-3 -3 -3 -8v-59q0 -5 3 -8l10 -10q4 -4 9 -4h96q5 0 9 4l10 10q3 3 3 8zM280 346v81q0 5 -3 8l-10 10q-4 4 -9 4h-96q-5 0 -9 -4l-10 -10q-3 -3 -3 -8v-81q0 -5 3 -8l11 -11q4 -4 8 -4h96q4 0 8 4l11 11
q3 3 3 8z" />
    <glyph glyph-name="nine.numr" unicode="&#xf66a;" horiz-adv-x="420" 
d="M343 338q0 -17 -11 -28l-31 -31q-13 -13 -29 -13h-120q-20 0 -33 13l-49 49l41 41l42 -42q4 -4 8 -4h97q5 0 9 4l10 10q3 3 3 8v99l-19 -19q-12 -12 -30 -12h-81q-18 0 -30 12l-32 32q-11 11 -11 28v110q0 17 11 28l31 31q13 13 29 13h124q16 0 29 -13l31 -31
q11 -11 11 -28v-257zM280 523v64q0 5 -3 8l-11 11q-4 4 -9 4h-94q-5 0 -9 -4l-11 -11q-3 -3 -3 -9v-95q0 -5 3 -8l10 -10q3 -3 8 -3h66q5 0 8 3l42 42q3 3 3 8z" />
    <glyph glyph-name="Acute" unicode="&#xf6c9;" horiz-adv-x="465" 
d="M357 872l-146 -146h-95l146 146h95z" />
    <glyph glyph-name="Caron" unicode="&#xf6ca;" horiz-adv-x="465" 
d="M420 872l-132 -132h-108l-133 132h91l95 -96l96 96h91z" />
    <glyph glyph-name="Dieresis" unicode="&#xf6cb;" horiz-adv-x="465" 
d="M387 757h-102v101h102v-101zM182 757h-101v101h101v-101z" />
    <glyph glyph-name="Grave" unicode="&#xf6ce;" horiz-adv-x="465" 
d="M348 726h-92l-147 146h92z" />
    <glyph glyph-name="Hungarumlaut" unicode="&#xf6cf;" horiz-adv-x="465" 
d="M448 872l-146 -146h-94l146 146h94zM257 872l-146 -146h-94l146 146h94z" />
    <glyph glyph-name="Macron" unicode="&#xf6d0;" horiz-adv-x="465" 
d="M387 765h-308v63h308v-63z" />
    <glyph glyph-name="one.fitted" unicode="&#xf6dc;" 
d="M479 0h-341v78h129v503l-85 -76l-54 53l122 109h101v-589h128v-78z" />
    <glyph glyph-name="Foundry" unicode="&#xf8ff;" horiz-adv-x="842" 
d="M751 117q0 -29 -19 -48l-47 -47q-22 -22 -51 -22h-426q-29 0 -51 22l-47 47q-19 19 -19 48v433q0 29 19 48l47 47q22 22 51 22h426q29 0 51 -22l47 -47q19 -19 19 -48v-433zM673 122v424q0 9 -5 14l-29 29q-6 6 -15 6h-406q-9 0 -15 -6l-29 -29q-5 -5 -5 -14v-425
q0 -9 5 -14l29 -29q6 -6 15 -6h123v206h-76v72h76v70q0 32 21 52l41 41q19 20 49 20h122v-72h-115q-8 0 -14 -6l-20 -20q-6 -6 -6 -16v-69h155v-72h-155v-206h205q9 0 15 6l29 29q5 5 5 15z" />
    <glyph glyph-name="Ring" unicode="&#xfff3;" horiz-adv-x="465" 
d="M342 775q0 -28 -19.5 -47.5t-47.5 -19.5h-85q-28 0 -47.5 19t-19.5 47v89q0 28 19 47.5t47 19.5h85q28 0 48 -19t20 -47v-89zM280 786v66q0 8 -6 14t-13 6h-57q-8 0 -13.5 -6t-5.5 -13v-67q0 -7 6 -13.5t13 -6.5h57q7 0 13 6t6 14z" />
    <glyph glyph-name="commaaccent" horiz-adv-x="465" 
d="M144 -211l30 30q7 7 7 14v124h85v-127q0 -30 -20 -50l-46 -46z" />
    <glyph glyph-name="Commaaccent" horiz-adv-x="465" 
d="M142 -211l30 30q7 7 7 14v124h88v-127q0 -30 -20 -50l-49 -48z" />
    <glyph glyph-name="dollar.fitted" 
d="M523 117q0 -29 -20 -49l-47 -47q-21 -21 -50 -21h-76v-95h-52v95h-78q-29 0 -49 20l-67 67l54 56l59 -59q6 -6 14 -6h67v218l-128 16q-27 4 -46.5 25.5t-19.5 48.5v164q0 29 20 49l47 47q21 21 50 21h76v95h52v-95h78q29 0 49 -20l67 -67l-54 -56l-59 59q-6 6 -14 6h-67
v-219l128 -15q27 -4 46.5 -25.5t19.5 -48.5v-164zM277 375l1 214h-66q-10 0 -14 -6l-23 -22q-6 -6 -6 -14v-141q0 -18 18 -20zM438 120v141q0 18 -18 20l-91 10v-213h66q10 0 14 6l23 22q6 6 6 14z" />
    <glyph glyph-name="cent.fitted" 
d="M513 84l-63 -64q-20 -20 -49 -20h-70v-96h-52v96h-70q-29 0 -49 20l-44 44q-21 21 -21 51v246q0 30 21 51l44 44q20 20 49 20h70v99h52v-99h69q30 0 49 -20l64 -63l-55 -56l-55 55q-6 6 -14 6h-58v-320h58q8 0 14 6l54 55zM279 78v320h-58q-9 0 -14 -6l-20 -20
q-7 -7 -7 -14v-240q0 -6 6 -14l20 -20q6 -6 14 -6h59z" />
    <glyph glyph-name="sterling.fitted" 
d="M566 580l-56 -56l-59 59q-6 6 -15 6h-172q-10 0 -15 -6l-24 -24q-6 -6 -6 -14v-173h288v-78h-288v-216h343v-78h-485v78h57v216h-57v78h57v178q0 29 19 48l47 47q22 22 51 22h198q29 0 50 -21z" />
    <glyph glyph-name="florin.fitted" 
d="M463 398h-158v-478q0 -28 -20 -48l-68 -68l-55 55l52 53q6 6 6 14v472h-77v78h76v78q0 31 21 52l41 41q20 20 49 20h133v-78h-118q-8 0 -14 -6l-20 -20q-6 -6 -6 -16v-71h158v-78z" />
    <glyph glyph-name="yen.fitted" 
d="M572 667l-154 -245h99v-50h-130l-40 -62v-13h170v-50h-170v-247h-87v247h-170v50h170v13l-40 62h-130v50h99l-154 245h99l169 -275l170 275h99z" />
    <glyph glyph-name="commaaccent.cap" horiz-adv-x="465" 
d="M144 -211l30 30q7 7 7 14v124h85v-127q0 -30 -20 -50l-46 -46z" />
    </font>
</defs>
</svg>
