<svg xmlns="http://www.w3.org/2000/svg" viewBox="0 0 100 100"><defs><style>.cls-1{fill:#4da7bc;}.cls-2,.cls-3{fill:none;stroke:#4da7bc;stroke-miterlimit:10;}.cls-2{stroke-width:2px;}.cls-3{stroke-width:4px;}</style></defs><title>icon</title><g id="Capa_3" data-name="Capa 3"><path class="cls-1" d="M50-.06a50,50,0,1,0,50,50A50,50,0,0,0,50-.06Zm-.35,95.94A45.75,45.75,0,1,1,95.4,50.13,45.75,45.75,0,0,1,49.65,95.88Z"/><path class="cls-2" d="M77.91,38.59c-9.4,11.06.07,22,.16,22"/><path class="cls-2" d="M73.74,33.58c-16.81,15.66.13,31.19.28,31.19"/><path class="cls-2" d="M20.78,38.24c9.4,11.06-.07,22-.16,22"/><path class="cls-2" d="M25,33.22c16.81,15.66-.13,31.19-.28,31.19"/><rect class="cls-2" x="41.33" y="24.35" width="15.75" height="34.34" rx="3.83" ry="3.83"/><path class="cls-3" d="M60.71,47v9A8.73,8.73,0,0,1,52,64.76H46.42a8.73,8.73,0,0,1-8.71-8.71V47"/><line class="cls-2" x1="49.21" y1="65.46" x2="49.21" y2="71.76"/><line class="cls-2" x1="42.59" y1="71.76" x2="55.2" y2="71.76"/></g></svg>