<?xml version="1.0" encoding="utf-8"?>
<!-- Generator: Adobe Illustrator 16.0.0, SVG Export Plug-In . SVG Version: 6.00 Build 0)  -->
<!DOCTYPE svg PUBLIC "-//W3C//DTD SVG 1.1//EN" "http://www.w3.org/Graphics/SVG/1.1/DTD/svg11.dtd">
<svg version="1.1" id="Capa_1" xmlns="http://www.w3.org/2000/svg" xmlns:xlink="http://www.w3.org/1999/xlink" x="0px" y="0px"
	 width="594.208px" height="595.281px" viewBox="124.376 0 594.208 595.281" enable-background="new 124.376 0 594.208 595.281"
	 xml:space="preserve">
<title>icon</title>
<path fill="#FFFFFF" d="M284.031,188.883v91.732h92.923v-91.732h25.062v219.361h-25.062V305.379h-92.923v102.865h-24.645V188.883
	H284.031z"/>
<path fill="#FFFFFF" d="M436.898,191.68c18.123-2.991,36.458-4.505,54.825-4.524c36.968,0,63.338,9.286,80.84,27.145
	c17.501,17.858,28.156,42.92,28.156,78.102c0,35.181-10.06,64.767-28.752,84.529c-18.691,19.764-49.468,31.313-88.28,31.313
	c-15.634,0.104-31.26-0.75-46.789-2.561V191.68z M462.615,384.015c8.627,1.294,17.352,1.832,26.073,1.607
	c55.123,0,85.065-33.574,85.065-92.328c0-51.313-26.371-83.935-80.898-83.935c-10.158-0.171-20.303,0.808-30.24,2.917V384.015z"/>
<path fill="#FFFFFF" d="M421.481,1.012c-164.086,0-297.104,133.018-297.104,297.104c0,164.087,133.019,297.104,297.104,297.104
	c164.063,0,297.071-132.981,297.104-297.045C718.617,134.09,585.626,1.045,421.54,1.012C421.52,1.012,421.5,1.012,421.481,1.012z
	 M419.397,571.469c-150.212,0-271.983-121.771-271.983-271.984c0-150.212,121.771-271.983,271.983-271.983
	c150.166,0,271.918,121.699,271.983,271.865c0.066,150.212-121.651,272.037-271.864,272.103
	C419.476,571.469,419.437,571.469,419.397,571.469z"/>
</svg>
