<?xml version="1.0" encoding="utf-8"?>
<!-- Generator: Adobe Illustrator 19.2.1, SVG Export Plug-In . SVG Version: 6.00 Build 0)  -->
<svg version="1.1" id="Capa_1" xmlns="http://www.w3.org/2000/svg" xmlns:xlink="http://www.w3.org/1999/xlink" x="0px" y="0px"
	 viewBox="0 0 110.9 127.5" style="enable-background:new 0 0 110.9 127.5;" xml:space="preserve">
<style type="text/css">
	.st0{fill:#8CC1E2;}
	.st1{fill:#FFFFFF;}
	.st2{font-family:'HelveticaNeue-Medium';}
	.st3{font-size:11.2327px;}
	.st4{font-size:9.1635px;}
	.st5{font-family:'HelveticaNeue-Bold';}
	.st6{font-size:9.6651px;}
</style>
<rect class="st0" width="110.9" height="127.5"/>
<g>
	<path class="st1" d="M81.7,52.3c0.6,0.5,1.4,0.8,2.1,0.8c0.9,0,1.8-0.4,2.5-1.1c1.2-1.4,1-3.4-0.3-4.6L57.6,22.9c-1.2-1-3-1-4.2,0
		L24.9,47.3c-1.4,1.2-1.5,3.2-0.3,4.6c1.2,1.4,3.2,1.5,4.6,0.3l26.3-22.6L81.7,52.3z"/>
	<path class="st1" d="M75.6,68.3c0.1-0.5,0.1-1,0.1-1.6c0-5.8-4.8-10.5-10.6-10.5c-5.8,0-10.5,4.8-10.5,10.6
		c0,5.8,4.8,10.5,10.6,10.5c1,0,1.9-0.1,2.8-0.4c0.4,1.1,1,2.5,1.7,3.9h7.2C67.8,73,67.8,73,67.8,73l3.8-4l7.3,6.8v-6.2L75.6,68.3z
		 M71.3,68.7l-3.8,4.1c-0.6,0.2-1.2,0.3-1.9,0.4c-1.6,0.1-3.2-0.5-4.3-1.6c-1.9-1.8-2.4-4.5-1.4-6.9c0.1-0.1,0.2-0.2,0.3-0.2
		c0.1,0,0.3,0,0.4,0.1l3.9,3.6c0.6,0.5,1.5,0.5,2.1-0.1c0.3-0.3,0.4-0.7,0.4-1.1c0-0.4-0.2-0.8-0.5-1l-3.9-3.6
		c-0.1-0.1-0.1-0.2-0.1-0.4c0-0.1,0.1-0.3,0.2-0.3c0.8-0.4,1.7-0.6,2.6-0.7c1.6-0.1,3.2,0.5,4.3,1.6C71.2,64.1,71.9,66.5,71.3,68.7"
		/>
	<text transform="matrix(1 0 0 1 32.7867 90.7795)" class="st1 st2 st3">LENOVO</text>
	<text transform="matrix(1 0 0 1 78.6842 90.7795)" class="st1 st2 st4"> </text>
	<text transform="matrix(1 0 0 1 33.0484 100.7649)" class="st1 st5 st6">AT HOME  </text>
	<path class="st1" d="M55.7,78.7c-0.9-0.7-1.6-1.4-2.3-2.3l-3.2,1.9l-2.4-4l3.2-1.9c-0.4-1-0.7-2.1-0.9-3.1l-3.7,0l0-4.7l3.7,0
		c0.2-1.1,0.4-2.2,0.8-3.2l-3.2-1.8l2.3-4.1l3.2,1.8c0.7-0.9,1.4-1.6,2.3-2.3l-1.9-3.2l4-2.4l1.9,3.2c1-0.4,2.1-0.7,3.1-0.9l0-3.7
		l4.7,0l0,3.7c1.1,0.2,2.2,0.4,3.2,0.8l1.8-3.2l4.1,2.3l-1.8,3.2c0.9,0.7,1.6,1.4,2.3,2.3l1.9-1.1v-3.5c0-0.5-0.2-0.9-0.6-1.2
		L56.6,32.9c-0.6-0.5-1.5-0.5-2.1,0L37.7,47.2c0.1,0-0.9,0.8-4.5,4.1c-0.4,0.4-1,1.2-0.9,1.8c0,7.1,0,24.2,0,25.5
		C32,80,32.8,81,33.9,80.9c6.6-0.1,15,0.1,18.5,0h2L55.7,78.7z"/>
</g>
</svg>
