<?xml version="1.0" encoding="utf-8"?>
<!-- Generator: Adobe Illustrator 16.0.0, SVG Export Plug-In . SVG Version: 6.00 Build 0)  -->
<!DOCTYPE svg PUBLIC "-//W3C//DTD SVG 1.1//EN" "http://www.w3.org/Graphics/SVG/1.1/DTD/svg11.dtd">
<svg version="1.1" id="Capa_1" xmlns="http://www.w3.org/2000/svg" xmlns:xlink="http://www.w3.org/1999/xlink" x="0px" y="0px"
	 width="593.685px" height="595.281px" viewBox="123.412 0 593.685 595.281" enable-background="new 123.412 0 593.685 595.281"
	 xml:space="preserve">
<title>icon</title>
<g id="Capa_2">
	<path fill="#FFFFFF" d="M420.171,0.893c-163.955,0.032-296.84,132.971-296.807,296.926
		c0.032,163.954,132.971,296.84,296.926,296.807c163.954-0.033,296.839-132.972,296.807-296.926c0-0.021,0-0.04,0-0.06
		C717.031,133.709,584.102,0.86,420.171,0.893z M418.087,570.814c-150.081-0.032-271.719-121.724-271.686-271.805
		S268.125,27.291,418.206,27.323C568.24,27.356,689.86,148.975,689.892,299.01c0.033,150.081-121.604,271.772-271.686,271.805
		c-0.02,0-0.04,0-0.06,0H418.087z"/>
	<g>
		
			<rect x="366.358" y="88.876" fill="none" stroke="#FFFFFF" stroke-width="23" stroke-miterlimit="10" width="103.876" height="34.169"/>
		<path fill="none" stroke="#FFFFFF" stroke-width="23" stroke-miterlimit="10" d="M324.569,123.104v359.668h186.204V123.104
			H324.569z"/>
	</g>
</g>
<polygon fill="#FFFFFF" points="417.67,321.53 465.115,242.949 399.277,242.949 436.005,184.731 368.263,253.129 444.875,253.129 
	"/>
<rect x="368.317" y="354.844" fill="#FFFFFF" width="103.876" height="13.93"/>
<rect x="368.316" y="391.573" fill="#FFFFFF" width="103.876" height="13.93"/>
<rect x="368.317" y="428.778" fill="#FFFFFF" width="103.876" height="13.929"/>
</svg>
