<?xml version="1.0" encoding="utf-8"?>
<!-- Generator: Adobe Illustrator 20.0.0, SVG Export Plug-In . SVG Version: 6.00 Build 0)  -->
<svg version="1.1" id="Capa_6" xmlns="http://www.w3.org/2000/svg" xmlns:xlink="http://www.w3.org/1999/xlink" x="0px" y="0px"
	 viewBox="0 0 100 100" style="enable-background:new 0 0 100 100;" xml:space="preserve">
<style type="text/css">
	.st0{display:none;}
	.st1{display:inline;fill:#4B9BAE;}
	.st2{font-family:'FranklinGothic-Medium';}
	.st3{font-size:16.89px;}
	.st4{display:inline;fill:#EF4689;}
	.st5{fill:#4B9BAE;}
</style>
<title>icon</title>
<g id="Capa_9" class="st0">
	<path class="st1" d="M49.7,0.2C22.2,0.2-0.1,22.5-0.1,50s22.3,49.8,49.8,49.8c27.5,0,49.8-22.3,49.8-49.8
		C99.4,22.5,77.1,0.2,49.7,0.2C49.7,0.2,49.7,0.2,49.7,0.2z M49.3,95.8c-25.2,0-45.6-20.4-45.5-45.6C3.8,25,24.2,4.6,49.3,4.7
		c25.2,0,45.5,20.4,45.5,45.6C94.9,75.4,74.5,95.8,49.3,95.8L49.3,95.8z"/>
	<path class="st1" d="M24.2,21.3V59h52.4V21.3H24.2z M49,44.5c-0.8,4.7-4.4,8.4-9.1,9.2c-2.1,0.4-8.4,0-8.4,0V26.9
		c0,0,6.6-0.1,8.8,0c4.5,0.2,8.1,6,8.8,9C49.5,38.7,49.5,41.6,49,44.5z M70.2,53.7c0,0-6.4,0.4-8.4,0c-4.7-0.8-8.3-4.5-9.1-9.2
		c-0.4-2.8-0.4-5.7,0-8.5c0.7-3.1,4.3-8.9,8.8-9c2.2-0.1,8.8,0,8.8,0L70.2,53.7z"/>
	<text transform="matrix(1 0 0 1 24.18 77.7)" class="st1 st2 st3">DOL</text>
	<text transform="matrix(1 0 0 1 54.53 77.7)" class="st1 st2 st3">B</text>
	<text transform="matrix(1 0 0 1 64.49 77.7)" class="st1 st2 st3">Y</text>
</g>
<g id="Capa_9_1_" class="st0">
	<path class="st4" d="M49.7,0.2C22.2,0.2-0.1,22.5-0.1,50s22.3,49.8,49.8,49.8c27.5,0,49.8-22.3,49.8-49.8
		C99.4,22.5,77.1,0.2,49.7,0.2C49.7,0.2,49.7,0.2,49.7,0.2z M49.3,95.8c-25.2,0-45.6-20.4-45.5-45.6C3.8,25,24.2,4.6,49.3,4.7
		c25.2,0,45.5,20.4,45.5,45.6C94.9,75.4,74.5,95.8,49.3,95.8L49.3,95.8z"/>
	<path class="st4" d="M24.2,21.3V59h52.4V21.3H24.2z M49,44.5c-0.8,4.7-4.4,8.4-9.1,9.2c-2.1,0.4-8.4,0-8.4,0V26.9
		c0,0,6.6-0.1,8.8,0c4.5,0.2,8.1,6,8.8,9C49.5,38.7,49.5,41.6,49,44.5z M70.2,53.7c0,0-6.4,0.4-8.4,0c-4.7-0.8-8.3-4.5-9.1-9.2
		c-0.4-2.8-0.4-5.7,0-8.5c0.7-3.1,4.3-8.9,8.8-9c2.2-0.1,8.8,0,8.8,0L70.2,53.7z"/>
	<text transform="matrix(1 0 0 1 24.18 77.7)" class="st4 st2 st3">DOL</text>
	<text transform="matrix(1 0 0 1 54.53 77.7)" class="st4 st2 st3">B</text>
	<text transform="matrix(1 0 0 1 64.49 77.7)" class="st4 st2 st3">Y</text>
</g>
<g id="Capa_9_2_">
	<path class="st5" d="M49.7,0.2C22.2,0.2-0.1,22.5-0.1,50s22.3,49.8,49.8,49.8c27.5,0,49.8-22.3,49.8-49.8
		C99.4,22.5,77.1,0.2,49.7,0.2C49.7,0.2,49.7,0.2,49.7,0.2z M49.3,95.8c-25.2,0-45.6-20.4-45.5-45.6C3.8,25,24.2,4.6,49.3,4.7
		c25.2,0,45.5,20.4,45.5,45.6C94.9,75.4,74.5,95.8,49.3,95.8L49.3,95.8z"/>
	<path class="st5" d="M24.2,21.3V59h52.4V21.3H24.2z M49,44.5c-0.8,4.7-4.4,8.4-9.1,9.2c-2.1,0.4-8.4,0-8.4,0V26.9
		c0,0,6.6-0.1,8.8,0c4.5,0.2,8.1,6,8.8,9C49.5,38.7,49.5,41.6,49,44.5z M70.2,53.7c0,0-6.4,0.4-8.4,0c-4.7-0.8-8.3-4.5-9.1-9.2
		c-0.4-2.8-0.4-5.7,0-8.5c0.7-3.1,4.3-8.9,8.8-9c2.2-0.1,8.8,0,8.8,0L70.2,53.7z"/>
	<text transform="matrix(1 0 0 1 24.18 77.7)" class="st5 st2 st3">DOL</text>
	<text transform="matrix(1 0 0 1 54.53 77.7)" class="st5 st2 st3">B</text>
	<text transform="matrix(1 0 0 1 64.49 77.7)" class="st5 st2 st3">Y</text>
</g>
</svg>
