<?xml version="1.0" encoding="utf-8"?>
<!-- Generator: Adobe Illustrator 20.0.0, SVG Export Plug-In . SVG Version: 6.00 Build 0)  -->
<svg version="1.1" id="Capa_1" xmlns="http://www.w3.org/2000/svg" xmlns:xlink="http://www.w3.org/1999/xlink" x="0px" y="0px"
	 viewBox="0 0 63.5 73.8" style="enable-background:new 0 0 63.5 73.8;" xml:space="preserve">
<style type="text/css">
	.st0{fill:#FFFFFF;stroke:#4EB7CE;stroke-width:0.5;stroke-miterlimit:10;}
</style>
<g>
	<path class="st0" d="M9,31.7l9.9-5.7l0,11.4l0,11.4L9,43.1l-7.6-4.4c-1-0.6-1-2.1,0-2.7L9,31.7z"/>
	<path class="st0" d="M51.1,67.4l-10.6-6.1L51,55.1L61.6,49l0,12.3l0,9.4c0,1.3-1.4,2.1-2.5,1.4L51.1,67.4z"/>
	<polygon class="st0" points="51,19.6 40.6,13.4 29.8,19.7 19.3,25.8 29.9,31.5 40.6,37.3 50.7,31.8 61.7,25.8 	"/>
	<path class="st0" d="M40.6,37.3L19.6,26c-0.2-0.1-0.4,0-0.4,0.2l0,22.9L40,60.9c0.3,0.2,0.6,0,0.6-0.4V37.3z"/>
	<path class="st0" d="M40.6,37.3l21.1-11.5V49L41.2,60.9c-0.2,0.1-0.6,0-0.6-0.3V37.3z"/>
	<path class="st0" d="M61.7,13.5l-0.1,12.3L51,19.5l-10.6-6.2l10.7-6l8.2-4.6c1.1-0.6,2.5,0.2,2.5,1.5L61.7,13.5z"/>
</g>
</svg>
