<svg xmlns="http://www.w3.org/2000/svg" viewBox="0 0 100 100"><defs><style>.cls-1{fill:#4da7bc;}.cls-2{fill:none;stroke:#4da7bc;stroke-miterlimit:10;stroke-width:2px;}</style></defs><title>icon</title><g id="Capa_4" data-name="Capa 4"><path class="cls-1" d="M50.23.82A49.54,49.54,0,1,0,99.77,50.36,49.54,49.54,0,0,0,50.23.82Zm-.34,95.1A45.35,45.35,0,1,1,95.24,50.56,45.35,45.35,0,0,1,49.89,95.92Z"/><path class="cls-2" d="M49.81,40.22A10.91,10.91,0,1,0,60.72,51.13,10.91,10.91,0,0,0,49.81,40.22Zm-.08,21a10,10,0,1,1,10-10A10,10,0,0,1,49.73,61.17Z"/><path class="cls-1" d="M36.87,40.22s-.16.35-.46.94c-.15.29-.33.65-.56,1.05a12.85,12.85,0,0,0-.6,1.37,12.08,12.08,0,0,0-.61,1.61l-.27.9-.15.46-.09.48a13.8,13.8,0,0,0-.3,2l-.08,1c0,.35,0,.69,0,1A15.51,15.51,0,0,0,34,53.17c.1.68.23,1.36.38,2s.32,1.28.54,1.86.4,1.14.59,1.65c.41,1,.79,1.86,1.08,2.44l.34.68A1.55,1.55,0,0,0,37,62s-.08,0-.22-.16a6.54,6.54,0,0,1-.58-.52,13.38,13.38,0,0,1-1.78-2.14,12.76,12.76,0,0,1-1-1.61,14.28,14.28,0,0,1-.85-1.93c-.14-.34-.22-.71-.33-1.07A7.29,7.29,0,0,1,32,53.5a13.22,13.22,0,0,1-.25-2.35c0-.4,0-.79,0-1.19l.14-1.17a12,12,0,0,1,.53-2.23l.15-.53.23-.49.45-.94a8.39,8.39,0,0,1,1-1.62,8.06,8.06,0,0,1,1-1.24c.32-.33.61-.6.85-.83C36.58,40.46,36.87,40.22,36.87,40.22Z"/><path class="cls-1" d="M32.74,35.24s-.33.45-.94,1.21c-.32.37-.64.86-1,1.39S30,39,29.54,39.69c-.23.33-.41.72-.62,1.09A11.86,11.86,0,0,0,28.3,42a20.42,20.42,0,0,0-1.06,2.65,12.42,12.42,0,0,0-.4,1.44,14.56,14.56,0,0,0-.28,1.5,15.84,15.84,0,0,0-.17,3.09,17.69,17.69,0,0,0,.38,3.09,22.32,22.32,0,0,0,.82,2.93,30.2,30.2,0,0,0,2.33,5c.82,1.4,1.6,2.54,2.17,3.32.29.38.51.7.68.89a3.1,3.1,0,0,0,.26.3,10.41,10.41,0,0,1-1.23-.92,22.74,22.74,0,0,1-4.41-5.18,19.72,19.72,0,0,1-1.43-2.74,18,18,0,0,1-1.07-3.16,19.3,19.3,0,0,1-.49-3.44,17.81,17.81,0,0,1,.26-3.47l.16-.84L25,45.6A14.12,14.12,0,0,1,25.58,44,15.85,15.85,0,0,1,27,41.26a10.07,10.07,0,0,1,.8-1.19c.29-.36.53-.74.82-1a18.57,18.57,0,0,1,1.59-1.68,15.05,15.05,0,0,1,1.32-1.17C32.29,35.57,32.74,35.24,32.74,35.24Z"/><path class="cls-1" d="M27.21,31.2s-.39.56-1.1,1.53c-.38.47-.74,1.1-1.2,1.77S24,36,23.48,36.86s-1,1.85-1.41,2.91a14.64,14.64,0,0,0-.63,1.63c-.19.56-.41,1.13-.56,1.73A15.54,15.54,0,0,0,20.44,45c-.14.62-.23,1.25-.31,1.89A23.16,23.16,0,0,0,20,50.74a25.09,25.09,0,0,0,.42,3.89c.1.64.28,1.26.4,1.89s.31,1.23.51,1.82c.36,1.19.81,2.31,1.24,3.37s.92,2,1.39,2.93a45.51,45.51,0,0,0,2.5,4.21c.34.49.6.88.8,1.13a3.73,3.73,0,0,0,.31.38,3.54,3.54,0,0,1-.39-.31c-.25-.21-.6-.52-1-1a27.82,27.82,0,0,1-3.18-3.87,29,29,0,0,1-1.75-2.88,27.5,27.5,0,0,1-1.56-3.45A24.39,24.39,0,0,1,18.48,55,26.61,26.61,0,0,1,18,50.8a25.12,25.12,0,0,1,.27-4.22l.17-1c.07-.34.16-.67.24-1a17.18,17.18,0,0,1,.57-1.94,14.71,14.71,0,0,1,.71-1.81,15.94,15.94,0,0,1,.82-1.67,24.49,24.49,0,0,1,1.78-2.87A26.14,26.14,0,0,1,24.3,34a20.81,20.81,0,0,1,1.51-1.57C26.69,31.66,27.21,31.2,27.21,31.2Z"/><path class="cls-1" d="M62.25,40s.29.25.77.7c.24.23.53.5.85.83a8.06,8.06,0,0,1,1,1.24,8.39,8.39,0,0,1,1,1.62l.45.94.23.49.15.53a12,12,0,0,1,.53,2.23l.14,1.17c0,.39,0,.79,0,1.19a13.22,13.22,0,0,1-.25,2.35,7.29,7.29,0,0,1-.28,1.12c-.11.36-.19.73-.33,1.07a14.28,14.28,0,0,1-.85,1.93,12.76,12.76,0,0,1-1,1.61,13.38,13.38,0,0,1-1.78,2.14,6.53,6.53,0,0,1-.58.52c-.14.12-.23.16-.22.16a1.55,1.55,0,0,0,.14-.23l.34-.68c.29-.58.67-1.43,1.08-2.44.19-.51.41-1.06.59-1.65s.34-1.22.54-1.86.28-1.32.38-2a15.5,15.5,0,0,0,.17-2.08c0-.35,0-.7,0-1l-.08-1a13.8,13.8,0,0,0-.3-2l-.09-.48-.15-.46-.27-.9a12.08,12.08,0,0,0-.61-1.61,12.85,12.85,0,0,0-.6-1.37c-.23-.4-.41-.76-.56-1.05C62.41,40.35,62.25,40,62.25,40Z"/><path class="cls-1" d="M66.38,35s.45.33,1.22.93a15.05,15.05,0,0,1,1.32,1.17,18.57,18.57,0,0,1,1.59,1.68c.29.31.53.68.82,1a10.07,10.07,0,0,1,.8,1.19,15.85,15.85,0,0,1,1.41,2.77,14.12,14.12,0,0,1,.54,1.57l.23.82.16.84a17.81,17.81,0,0,1,.26,3.47A19.3,19.3,0,0,1,74.25,54a18,18,0,0,1-1.07,3.16,19.73,19.73,0,0,1-1.43,2.74A22.74,22.74,0,0,1,67.34,65a10.41,10.41,0,0,1-1.23.92,3.1,3.1,0,0,0,.26-.3c.17-.2.39-.51.68-.89.57-.78,1.35-1.91,2.17-3.32a30.2,30.2,0,0,0,2.33-5,22.32,22.32,0,0,0,.82-2.93,17.69,17.69,0,0,0,.38-3.09,15.84,15.84,0,0,0-.17-3.09,14.55,14.55,0,0,0-.28-1.5,12.41,12.41,0,0,0-.4-1.44,20.42,20.42,0,0,0-1.06-2.65,11.87,11.87,0,0,0-.62-1.19c-.22-.38-.39-.76-.62-1.09-.45-.67-.83-1.32-1.23-1.85s-.71-1-1-1.39C66.72,35.48,66.38,35,66.38,35Z"/><path class="cls-1" d="M71.92,31s.52.45,1.4,1.27a20.82,20.82,0,0,1,1.51,1.57A26.14,26.14,0,0,1,76.61,36a24.49,24.49,0,0,1,1.78,2.87,15.94,15.94,0,0,1,.82,1.67,14.71,14.71,0,0,1,.71,1.81,17.17,17.17,0,0,1,.57,1.94c.08.33.18.66.24,1l.17,1a25.12,25.12,0,0,1,.27,4.22,26.61,26.61,0,0,1-.52,4.19,24.39,24.39,0,0,1-1.14,3.9A27.5,27.5,0,0,1,78,62.13,29,29,0,0,1,76.2,65,27.82,27.82,0,0,1,73,68.88c-.42.43-.78.74-1,1a3.54,3.54,0,0,1-.39.31,3.73,3.73,0,0,0,.31-.38c.2-.25.46-.65.8-1.13a45.51,45.51,0,0,0,2.5-4.21c.47-.89.92-1.88,1.39-2.93s.87-2.19,1.24-3.37c.21-.59.34-1.2.51-1.82s.3-1.25.4-1.89a25.09,25.09,0,0,0,.42-3.89A23.16,23.16,0,0,0,79,46.63c-.08-.64-.17-1.27-.31-1.89a15.55,15.55,0,0,0-.44-1.82c-.15-.6-.36-1.17-.56-1.73a14.64,14.64,0,0,0-.63-1.63c-.43-1.06-1-2-1.41-2.91S74.7,35,74.23,34.29,73.4,33,73,32.52C72.31,31.55,71.92,31,71.92,31Z"/></g></svg>