<?xml version="1.0" encoding="utf-8"?>
<!-- Generator: Adobe Illustrator 16.0.0, SVG Export Plug-In . SVG Version: 6.00 Build 0)  -->
<!DOCTYPE svg PUBLIC "-//W3C//DTD SVG 1.1//EN" "http://www.w3.org/Graphics/SVG/1.1/DTD/svg11.dtd">
<svg version="1.1" id="Capa_6" xmlns="http://www.w3.org/2000/svg" xmlns:xlink="http://www.w3.org/1999/xlink" x="0px" y="0px"
	 width="595.279px" height="595.281px" viewBox="123.305 0 595.279 595.281" enable-background="new 123.305 0 595.279 595.281"
	 xml:space="preserve">
<title>icon</title>
<g id="Capa_7">
	<path fill="#FFFFFF" d="M420.945,0c-164.382,0-297.64,133.258-297.64,297.641c0,164.382,133.258,297.641,297.64,297.641
		s297.64-133.259,297.64-297.641C718.584,133.258,585.326,0,420.945,0z M418.862,571.469c-150.476,0-272.46-121.984-272.46-272.46
		S268.386,26.55,418.862,26.55c150.429,0,272.394,121.912,272.459,272.341c0.066,150.476-121.865,272.514-272.341,272.579
		C418.941,571.469,418.901,571.469,418.862,571.469z"/>
	
		<rect x="366.952" y="88.22" fill="none" stroke="#FFFFFF" stroke-width="24" stroke-miterlimit="10" width="104.115" height="34.288"/>
	
		<rect x="325.045" y="122.509" fill="none" stroke="#FFFFFF" stroke-width="24" stroke-miterlimit="10" width="186.62" height="360.621"/>
	<rect x="366.952" y="354.846" fill="#FFFFFF" width="104.115" height="13.989"/>
	<rect x="366.358" y="391.635" fill="#FFFFFF" width="104.114" height="13.988"/>
	<rect x="368.858" y="428.9" fill="#FFFFFF" width="104.114" height="13.988"/>
	<polygon fill="#FFFFFF" points="436.779,187.216 399.99,245.673 466.007,245.673 418.385,324.369 445.708,255.792 368.917,255.792 
			"/>
</g>
</svg>
