<?xml version="1.0" encoding="utf-8"?>
<!-- Generator: Adobe Illustrator 19.1.0, SVG Export Plug-In . SVG Version: 6.00 Build 0)  -->
<svg version="1.1" id="Layer_1" xmlns="http://www.w3.org/2000/svg" xmlns:xlink="http://www.w3.org/1999/xlink" x="0px" y="0px"
	 viewBox="90 13 271 36" style="enable-background:new 90 13 271 36;" xml:space="preserve">
<style type="text/css">
	.st0{fill:#FF6B00;}
	.st1{fill:#797473;}
	.st2{fill:#231F20;}
	.st3{fill:#FFFFFF;}
</style>
<g>
	<path id="XMLID_34_" class="st0" d="M228,23.5c1.4,2,2.2,4.5,2.2,7.1s-0.8,5.1-2.2,7.1l-3.4-3.4c0.6-1.1,0.9-2.4,0.9-3.7
		c0-4.4-3.6-7.9-7.9-7.9c-1.3,0-2.6,0.3-3.7,0.9l-3.4-3.4c2-1.4,4.5-2.2,7.1-2.2c2.6,0,5.1,0.8,7.1,2.2l7.2-7.2h-32v32l7.2-7.2
		c-1.4-2-2.2-4.5-2.2-7.1s0.8-5.1,2.2-7.1l3.4,3.4c-0.6,1.1-0.9,2.4-0.9,3.7c0,4.4,3.6,7.9,7.9,7.9c1.3,0,2.6-0.3,3.7-0.9l3.4,3.4
		c-2,1.4-4.5,2.2-7.1,2.2c-2.6,0-5.1-0.8-7.1-2.2l-7.2,7.2h32v-32L228,23.5z M217.5,34.8c-2.3,0-4.2-1.9-4.2-4.2s1.9-4.2,4.2-4.2
		c2.3,0,4.2,1.9,4.2,4.2C221.7,33,219.8,34.8,217.5,34.8z"/>
	<polygon id="XMLID_33_" class="st1" points="250.2,29.5 243.4,29.5 243.4,22.7 240,22.7 240,39.7 243.4,39.7 243.4,32.9 
		250.2,32.9 	"/>
	<path id="XMLID_32_" class="st0" d="M248.5,25.8h8.5v-3.4h-8.5c-4.9,0-8.8,3.9-8.8,8.8s3.9,8.8,8.8,8.8h8.5V29.5h-6.8v3.4h3.4v3.7
		h-5.1c-3,0-5.4-2.4-5.4-5.4C243.1,28.2,245.5,25.8,248.5,25.8z"/>
	<rect id="XMLID_31_" x="267.7" y="25.7" class="st1" width="3.6" height="14.5"/>
	<polygon id="XMLID_30_" class="st0" points="269.5,21.7 260.5,29.3 260.5,29.3 260.5,40.1 264.1,40.1 264.1,31 269.5,26.5 275,31 
		275,40.1 278.6,40.1 278.6,29.3 278.6,29.3 	"/>
	<rect id="XMLID_29_" x="281" y="29.3" class="st1" width="18.1" height="3.6"/>
	<polygon id="XMLID_28_" class="st0" points="281,22 281,40.1 284.6,40.1 284.6,25.7 288.3,25.7 288.3,40.1 291.9,40.1 291.9,25.7 
		295.5,25.7 295.5,40.1 299.1,40.1 299.1,22 	"/>
	<path id="XMLID_25_" class="st1" d="M301.6,22L301.6,22v18.1h18.1V22l0,0H301.6z M316.1,36.5h-10.9V25.7h10.9V36.5z"/>
	<rect id="XMLID_24_" x="308.9" y="22" class="st0" width="3.6" height="18.1"/>
	
		<rect id="XMLID_23_" x="330.7" y="22.2" transform="matrix(-0.7071 0.7071 -0.7071 -0.7071 588.8417 -184.0605)" class="st1" width="3.6" height="15.4"/>
	<rect id="XMLID_22_" x="322.2" y="36.5" class="st1" width="18.1" height="3.6"/>
	<polygon id="XMLID_21_" class="st0" points="322.2,22 322.2,22 322.2,40.1 325.9,40.1 325.9,25.7 336.7,25.7 336.7,40.1 
		340.3,40.1 340.3,22 340.3,22 	"/>
	<polygon id="XMLID_20_" class="st1" points="353.8,29.6 346.8,29.6 346.8,22.6 343.3,22.6 343.3,40.2 346.8,40.2 346.8,33.1 
		353.8,33.1 	"/>
	<path id="XMLID_19_" class="st0" d="M352.1,25.8h8.8v-3.5h-8.8c-5,0-9.1,4.1-9.1,9.1s4.1,9.1,9.1,9.1h8.8V29.6h-7v3.5h3.5v3.8h-5.3
		c-3.1,0-5.6-2.5-5.6-5.6C346.5,28.3,349,25.8,352.1,25.8z"/>
	<g>
		<rect x="90" y="13" class="st2" width="105.9" height="35.3"/>
		<g>
			<path class="st3" d="M136.1,24.9c-1.6,0-3.3,0.7-4.4,2.2l0,0l0,0v-1.9H128v13.6h3.7V31c0-1.4,1.1-2.9,3.1-2.9
				c1.5,0,3.1,1.1,3.1,2.9v7.7h3.7v-8.4C141.7,27.2,139.4,24.9,136.1,24.9"/>
			<polygon class="st3" points="168.2,25.1 164.8,34.4 161.4,25.1 157.2,25.1 162.8,38.7 166.9,38.7 172.4,25.1 			"/>
			<path class="st3" d="M124,34.5c-1.6,1.2-2.5,1.4-3.9,1.4c-1.3,0-2.3-0.4-3-1.1l9.5-4c-0.2-1.5-0.8-2.8-1.6-3.8
				c-1.3-1.5-3.1-2.2-5.4-2.2c-4.1,0-7.2,3-7.2,7c0,4.1,3.1,7,7.6,7c2.5,0,5.1-1.2,6.3-2.6L124,34.5z M116.8,29.2
				c0.6-0.9,1.6-1.4,2.9-1.4c1.3,0,2.4,0.8,2.9,1.9l-6.5,2.7C115.9,31.1,116.3,30,116.8,29.2z"/>
			<polygon class="st3" points="112.1,35.3 103.6,35.3 103.6,21.1 99.8,21.1 99.8,38.7 112.1,38.7 			"/>
			<path class="st3" d="M179.1,38.9c-4.1,0-7.3-3-7.3-7c0-3.9,3.2-7,7.3-7c4.1,0,7.3,3,7.3,7C186.5,35.9,183.3,38.9,179.1,38.9
				 M179.1,28.1c-2.1,0-3.6,1.6-3.6,3.8c0,2.1,1.6,3.8,3.6,3.8c2.1,0,3.6-1.6,3.6-3.8C182.8,29.8,181.2,28.1,179.1,28.1"/>
			<path class="st3" d="M150.4,38.9c-4.1,0-7.3-3-7.3-7c0-3.9,3.2-7,7.3-7c4.1,0,7.3,3,7.3,7C157.7,35.9,154.5,38.9,150.4,38.9
				 M150.4,28.1c-2.1,0-3.6,1.6-3.6,3.8c0,2.1,1.6,3.8,3.6,3.8c2.1,0,3.6-1.6,3.6-3.8C154.1,29.8,152.5,28.1,150.4,28.1"/>
			<g>
				<path class="st3" d="M187,37.1h-0.6v-0.3h1.6v0.3h-0.6v1.6H187V37.1z M188.4,36.8h0.4l0.6,0.9l0.6-0.9h0.4v2H190v-1.4l-0.6,0.9
					l0,0l-0.6-0.9v1.4h-0.4V36.8z"/>
			</g>
		</g>
	</g>
</g>
</svg>
