<?xml version="1.0" encoding="utf-8"?>
<!-- Generator: Adobe Illustrator 16.0.0, SVG Export Plug-In . SVG Version: 6.00 Build 0)  -->
<!DOCTYPE svg PUBLIC "-//W3C//DTD SVG 1.1//EN" "http://www.w3.org/Graphics/SVG/1.1/DTD/svg11.dtd">
<svg version="1.1" id="Capa_1" xmlns="http://www.w3.org/2000/svg" xmlns:xlink="http://www.w3.org/1999/xlink" x="0px" y="0px"
	 width="595.279px" height="595.281px" viewBox="123.305 0 595.279 595.281" enable-background="new 123.305 0 595.279 595.281"
	 xml:space="preserve">
<title>icon</title>
<g id="Capa_3">
	<path fill="#FFFFFF" d="M420.945-0.357c-164.382,0-297.64,133.258-297.64,297.64c0,164.383,133.258,297.641,297.64,297.641
		s297.64-133.258,297.64-297.641l0,0C718.584,132.901,585.326-0.357,420.945-0.357z M418.862,570.755
		c-150.41,0-272.341-121.931-272.341-272.341c0-150.409,121.931-272.341,272.341-272.341c150.409,0,272.34,121.932,272.34,272.341
		C691.201,448.824,569.271,570.755,418.862,570.755L418.862,570.755z"/>
	<path fill="none" stroke="#FFFFFF" stroke-width="11" stroke-miterlimit="10" d="M587.087,229.719
		c-55.956,65.838,0.417,130.962,0.952,130.962"/>
	<path fill="none" stroke="#FFFFFF" stroke-width="11" stroke-miterlimit="10" d="M562.264,199.895
		c-100.066,93.221,0.774,185.668,1.667,185.668"/>
	<path fill="none" stroke="#FFFFFF" stroke-width="11" stroke-miterlimit="10" d="M247.004,227.635
		c55.956,65.838-0.417,130.962-0.953,130.962"/>
	<path fill="none" stroke="#FFFFFF" stroke-width="11" stroke-miterlimit="10" d="M272.124,197.752
		c100.067,93.222-0.773,185.669-1.666,185.669"/>
	<path fill="#FFFFFF" d="M392.133,144.951h48.158c12.592,0,22.799,10.207,22.799,22.799v158.821
		c0,12.592-10.207,22.799-22.799,22.799h-48.158c-12.592,0-22.799-10.207-22.799-22.799V167.75
		C369.334,155.158,379.541,144.951,392.133,144.951z"/>
	<path fill="none" stroke="#FFFFFF" stroke-width="11" stroke-miterlimit="10" d="M484.699,279.782v53.575
		c0.099,28.701-23.088,52.048-51.789,52.146c-0.021,0-0.04,0-0.061,0h-33.217c-28.607-0.065-51.783-23.24-51.849-51.849v-53.873"/>
	
		<line fill="none" stroke="#FFFFFF" stroke-width="11" stroke-miterlimit="10" x1="416.241" y1="389.671" x2="416.241" y2="427.174"/>
	
		<line fill="none" stroke="#FFFFFF" stroke-width="11" stroke-miterlimit="10" x1="376.834" y1="427.174" x2="451.899" y2="427.174"/>
</g>
</svg>
