<?xml version="1.0" encoding="utf-8"?>
<!-- Generator: Adobe Illustrator 16.0.0, SVG Export Plug-In . SVG Version: 6.00 Build 0)  -->
<!DOCTYPE svg PUBLIC "-//W3C//DTD SVG 1.1//EN" "http://www.w3.org/Graphics/SVG/1.1/DTD/svg11.dtd">
<svg version="1.1" id="Capa_1" xmlns="http://www.w3.org/2000/svg" xmlns:xlink="http://www.w3.org/1999/xlink" x="0px" y="0px"
	 width="589.803px" height="595.281px" viewBox="127.412 0 589.803 595.281" enable-background="new 127.412 0 589.803 595.281"
	 xml:space="preserve">
<title>icon</title>
<g id="Capa_4">
	<path fill="#FFFFFF" d="M422.314,4.882c-162.869,0-294.901,132.032-294.901,294.901c0,162.87,132.032,294.902,294.901,294.902
		c162.87,0,294.901-132.032,294.901-294.902l0,0C717.215,136.914,585.184,4.882,422.314,4.882z M420.289,570.993
		c-149.094,0-269.959-120.865-269.959-269.96S271.196,31.074,420.289,31.074c149.072,0,269.927,120.828,269.96,269.899
		c0.033,149.095-120.806,269.987-269.9,270.02C420.329,570.993,420.31,570.993,420.289,570.993z"/>
	<path fill="#FFFFFF" d="M419.814,239.422c-35.868,0-64.945,29.077-64.945,64.945s29.077,64.945,64.945,64.945
		s64.945-29.077,64.945-64.945l0,0C484.759,268.499,455.682,239.422,419.814,239.422z M419.337,364.43
		c-32.876,0-59.527-26.651-59.527-59.528c0-32.876,26.651-59.527,59.527-59.527c32.877,0,59.528,26.651,59.528,59.527
		c-0.164,32.761-26.768,59.231-59.528,59.231V364.43z"/>
	<path fill="#FFFFFF" d="M342.784,239.422c0,0-0.952,2.084-2.738,5.596c-0.893,1.727-1.965,3.869-3.334,6.25
		c-1.348,2.647-2.54,5.37-3.571,8.156c-1.437,3.104-2.65,6.307-3.631,9.584l-1.607,5.357l-0.893,2.738l-0.536,2.857
		c-0.886,3.919-1.482,7.898-1.786,11.905l-0.476,5.953c0,2.083,0,4.107,0,5.952c0.2,4.276,0.697,8.533,1.488,12.739
		c0.595,4.048,1.369,8.096,2.262,11.906c0.893,3.81,1.904,7.619,3.215,11.072c1.31,3.452,2.381,6.786,3.512,9.821
		c2.44,5.953,4.703,11.072,6.429,14.525l2.024,4.048c0.111,0.406,0.251,0.804,0.417,1.19c0,0-0.477,0-1.311-0.952
		c-1.211-0.963-2.364-1.996-3.452-3.096c-3.966-3.866-7.517-8.136-10.596-12.739c-2.22-3.042-4.209-6.246-5.953-9.584
		c-1.968-3.699-3.659-7.54-5.06-11.488c-0.834-2.024-1.31-4.227-1.965-6.37c-0.636-2.084-1.113-4.213-1.429-6.369
		c-0.912-4.609-1.41-9.291-1.488-13.989c0-2.381,0-4.703,0-7.084l0.834-6.965c0.625-4.516,1.682-8.961,3.154-13.274l0.894-3.155
		l1.369-2.917l2.679-5.596c1.611-3.43,3.608-6.665,5.952-9.644c1.736-2.65,3.73-5.123,5.953-7.381
		c1.905-1.965,3.631-3.572,5.06-4.941C341.058,240.85,342.784,239.422,342.784,239.422z"/>
	<path fill="#FFFFFF" d="M318.199,209.777c0,0-1.965,2.679-5.596,7.202c-1.905,2.203-3.81,5.12-5.953,8.274
		c-2.143,3.155-4.762,6.905-7.5,11.013c-1.369,1.965-2.44,4.286-3.69,6.489c-1.369,2.348-2.602,4.772-3.691,7.262
		c-2.469,5.105-4.577,10.376-6.31,15.775c-0.965,2.807-1.761,5.669-2.381,8.572c-0.712,2.945-1.269,5.926-1.667,8.929
		c-0.938,6.084-1.276,12.244-1.013,18.395c0.213,6.186,0.97,12.341,2.263,18.395c1.229,5.918,2.859,11.745,4.881,17.441
		c3.706,10.323,8.349,20.286,13.87,29.764c4.882,8.334,9.524,15.12,12.918,19.764c1.727,2.262,3.036,4.167,4.048,5.298
		c0.477,0.628,0.994,1.225,1.548,1.786c-2.572-1.643-5.02-3.474-7.322-5.477c-10.247-8.904-19.097-19.299-26.252-30.836
		c-3.26-5.206-6.106-10.659-8.513-16.311c-2.7-6.06-4.833-12.356-6.369-18.811c-1.586-6.725-2.563-13.578-2.917-20.479
		c-0.159-6.919,0.358-13.837,1.548-20.656l0.952-5l1.071-5.119c0.959-3.241,2.111-6.422,3.453-9.524
		c2.28-5.699,5.111-11.162,8.453-16.311c1.417-2.472,3.009-4.839,4.762-7.084c1.727-2.144,3.155-4.405,4.882-5.953
		c2.944-3.527,6.105-6.867,9.465-10.001c2.48-2.473,5.104-4.799,7.857-6.965C315.521,211.741,318.199,209.777,318.199,209.777z"/>
	<path fill="#FFFFFF" d="M285.281,185.727c0,0-2.321,3.334-6.548,9.108c-2.263,2.798-4.405,6.548-7.144,10.536
		s-5.417,8.929-8.513,14.049c-3.096,5.119-5.953,11.013-8.394,17.322c-1.442,3.157-2.694,6.397-3.75,9.703
		c-1.131,3.334-2.44,6.727-3.334,10.299c-1.102,3.652-1.977,7.37-2.619,11.131c-0.833,3.691-1.369,7.441-1.845,11.251
		c-0.895,7.604-1.153,15.271-0.774,22.919c0.229,7.771,1.065,15.515,2.5,23.156c0.596,3.81,1.667,7.501,2.382,11.251
		c0.714,3.75,1.845,7.321,3.035,10.834c2.144,7.084,4.822,13.751,7.382,20.061c2.56,6.311,5.477,11.906,8.274,17.442
		c4.508,8.614,9.476,16.98,14.882,25.061c2.024,2.917,3.572,5.239,4.763,6.727c0.564,0.794,1.181,1.55,1.845,2.263
		c-0.816-0.561-1.592-1.177-2.321-1.846c-1.488-1.25-3.571-3.096-5.953-5.953c-6.989-7.094-13.325-14.805-18.93-23.037
		c-3.802-5.508-7.28-11.232-10.417-17.144c-3.563-6.625-6.667-13.486-9.287-20.537c-3.029-7.428-5.438-15.094-7.202-22.919
		c-1.614-8.244-2.569-16.604-2.857-25.002c-0.172-8.403,0.366-16.807,1.607-25.12l1.012-5.953c0.417-2.024,0.952-3.988,1.429-5.953
		c0.903-3.912,2.036-7.769,3.393-11.548c1.17-3.682,2.582-7.28,4.227-10.775c1.433-3.405,3.063-6.725,4.882-9.94
		c3.135-5.933,6.675-11.641,10.596-17.085c3.2-4.73,6.658-9.281,10.358-13.632c2.83-3.271,5.831-6.39,8.988-9.346
		C282.185,188.466,285.281,185.727,285.281,185.727z"/>
	<path fill="#FFFFFF" d="M493.866,238.112c0,0,1.727,1.488,4.584,4.167c1.429,1.369,3.154,2.977,5.06,4.94
		c2.223,2.259,4.217,4.73,5.953,7.382c2.344,2.979,4.341,6.214,5.952,9.644l2.679,5.596l1.369,2.917l0.894,3.155
		c1.473,4.313,2.529,8.759,3.154,13.274l0.834,6.965c0,2.321,0,4.702,0,7.084c-0.077,4.698-0.576,9.38-1.488,13.989
		c-0.379,2.263-0.936,4.492-1.667,6.667c-0.654,2.143-1.131,4.346-1.965,6.369c-1.4,3.949-3.092,7.789-5.06,11.489
		c-1.744,3.338-3.733,6.541-5.952,9.584c-3.08,4.604-6.631,8.872-10.597,12.739c-1.088,1.1-2.241,2.133-3.452,3.095
		c-0.834,0.715-1.369,0.953-1.31,0.953c0.316-0.432,0.596-0.89,0.833-1.369l2.024-4.048c1.726-3.453,3.988-8.513,6.429-14.525
		c1.131-3.036,2.44-6.31,3.512-9.822c1.072-3.512,2.024-7.262,3.215-11.072c1.19-3.81,1.667-7.857,2.262-11.905
		c0.615-4.1,0.953-8.236,1.013-12.382c0-2.084,0-4.167,0-5.953l-0.477-5.953c-0.304-4.007-0.9-7.985-1.786-11.905l-0.535-2.857
		l-0.894-2.738l-1.606-5.357c-0.981-3.276-2.195-6.479-3.632-9.584c-1.031-2.785-2.224-5.509-3.571-8.155
		c-1.369-2.381-2.441-4.524-3.334-6.25C494.819,240.196,493.866,238.112,493.866,238.112z"/>
	<path fill="#FFFFFF" d="M518.451,208.348c0,0,2.679,1.964,7.263,5.536c2.753,2.166,5.377,4.491,7.857,6.965
		c3.359,3.133,6.521,6.474,9.465,10c1.727,1.846,3.155,4.048,4.882,5.953c1.753,2.245,3.345,4.612,4.762,7.084
		c3.331,5.208,6.143,10.731,8.394,16.489c1.254,3.05,2.327,6.17,3.215,9.346l1.369,4.882l0.952,5
		c1.189,6.818,1.707,13.736,1.548,20.656c-0.292,7.138-1.248,14.232-2.857,21.192c-1.536,6.454-3.669,12.751-6.369,18.811
		c-2.407,5.651-5.253,11.104-8.513,16.311c-7.193,11.368-16.041,21.601-26.252,30.359c-2.303,2.003-4.75,3.834-7.322,5.477
		c0.554-0.562,1.07-1.158,1.548-1.786c1.012-1.19,2.321-3.035,4.048-5.298c3.394-4.643,8.036-11.37,12.918-19.763
		c5.521-9.478,10.164-19.44,13.87-29.765c2.021-5.696,3.652-11.523,4.881-17.441c1.293-6.053,2.05-12.209,2.262-18.395
		c0.265-6.149-0.074-12.311-1.012-18.395c-0.398-3.003-0.955-5.983-1.667-8.929c-0.62-2.902-1.416-5.766-2.381-8.572
		c-1.732-5.398-3.841-10.67-6.31-15.774c-1.096-2.43-2.328-4.794-3.691-7.084c-1.31-2.263-2.321-4.524-3.69-6.488
		c-2.679-3.989-4.94-7.858-7.322-11.013c-2.381-3.155-4.227-5.953-5.952-8.274C520.476,211.206,518.451,208.348,518.451,208.348z"/>
	<path fill="#FFFFFF" d="M551.43,184.537c0,0,3.096,2.679,8.334,7.561c3.157,2.956,6.157,6.075,8.988,9.346
		c3.76,4.094,7.297,8.386,10.597,12.857c3.921,5.444,7.461,11.153,10.596,17.085c1.819,3.216,3.449,6.535,4.882,9.941
		c1.645,3.494,3.057,7.094,4.226,10.774c1.357,3.779,2.49,7.636,3.394,11.548c0.477,1.965,1.071,3.93,1.429,5.953l1.012,5.953
		c1.241,8.313,1.778,16.717,1.607,25.121c-0.369,8.383-1.404,16.723-3.096,24.942c-1.612,7.913-3.882,15.679-6.786,23.216
		c-2.503,7.205-5.507,14.227-8.988,21.013c-3.236,5.899-6.813,11.604-10.715,17.085c-5.64,8.259-12.016,15.989-19.05,23.097
		c-2.5,2.56-4.643,4.405-5.952,5.953c-0.729,0.669-1.506,1.285-2.322,1.846c0.664-0.713,1.281-1.469,1.846-2.263
		c1.19-1.488,2.738-3.869,4.763-6.727c5.406-8.08,10.374-16.446,14.882-25.062c2.798-5.298,5.477-11.191,8.274-17.441
		s5.179-13.036,7.381-20.061c1.251-3.513,2.024-7.144,3.036-10.834c1.012-3.691,1.786-7.441,2.381-11.251
		c1.436-7.643,2.271-15.385,2.501-23.157c0.31-7.834-0.049-15.681-1.072-23.454c-0.476-3.81-1.012-7.56-1.845-11.25
		c-0.655-3.661-1.529-7.279-2.619-10.835c-0.894-3.571-2.144-6.964-3.334-10.298c-1.056-3.307-2.308-6.546-3.75-9.703
		c-2.56-6.31-5.953-11.905-8.394-17.322s-5.655-9.822-8.453-14.049s-4.94-7.68-7.322-10.537
		C553.751,187.811,551.43,184.537,551.43,184.537z"/>
</g>
</svg>
