<?xml version="1.0" encoding="utf-8"?>
<!-- Generator: Adobe Illustrator 16.0.0, SVG Export Plug-In . SVG Version: 6.00 Build 0)  -->
<!DOCTYPE svg PUBLIC "-//W3C//DTD SVG 1.1//EN" "http://www.w3.org/Graphics/SVG/1.1/DTD/svg11.dtd">
<svg version="1.1" id="Capa_1_copia" xmlns="http://www.w3.org/2000/svg" xmlns:xlink="http://www.w3.org/1999/xlink" x="0px"
	 y="0px" width="812.444px" height="298px" viewBox="0 176.14 812.444 298" enable-background="new 0 176.14 812.444 298"
	 xml:space="preserve">
<title>phab2_pro</title>
<g id="Capa_2">
	<path fill="#FFFFFF" d="M565.732,394.003c-24.151,0-43.424-19.761-43.424-43.668l0,0c0-23.907,19.761-43.424,43.668-43.18
		c23.907,0,43.424,19.76,43.181,43.668C608.912,374.73,589.64,394.003,565.732,394.003 M565.732,272.757
		c-15.612,0-30.738,4.636-43.424,13.662v-67.576h-33.666v131.736c0.244,42.692,34.886,77.09,77.578,76.846
		s77.09-34.886,76.846-77.578C642.578,307.155,608.18,273.001,565.732,272.757"/>
	<path fill="#FFFFFF" d="M77.09,394.003c-24.151,0-43.424-19.517-43.424-43.668l0,0l0,0c0-23.907,19.76-43.424,43.668-43.18
		c23.907,0,43.424,19.76,43.18,43.668C120.27,374.73,100.997,394.003,77.09,394.003 M77.09,272.757
		C34.398,273.001-0.244,307.642,0,350.335v119.782h33.666v-55.622c12.686,8.782,28.055,13.418,43.424,13.418
		c42.692,0,77.577-34.886,77.334-77.578C154.424,307.398,119.782,272.757,77.09,272.757"/>
	<path fill="#FFFFFF" d="M441.803,350.335c-0.244,23.907-20.005,43.18-43.912,42.937c-23.907-0.244-43.18-20.005-42.936-43.912
		c0.243-23.908,19.516-42.937,43.424-42.937c24.151,0,43.424,19.517,43.424,43.668C441.803,350.335,441.803,350.335,441.803,350.335
		z M398.379,272.757c-42.937,0-77.578,34.642-77.578,77.578s34.642,77.578,77.578,77.578c15.612,0,30.738-4.636,43.424-13.174v10.49
		h33.422v-74.895C475.469,307.642,441.071,273.001,398.379,272.757"/>
	<path fill="#FFFFFF" d="M308.115,343.992L308.115,343.992v-0.488c0-38.789-31.471-70.503-70.259-70.503h-0.244
		c-12.93,0-25.859,3.659-36.837,10.49v-64.893H167.11v206.387h33.422l0.243-26.104v-55.134c0-20.248,16.346-36.593,36.594-36.593
		s36.594,16.345,36.594,36.593l0,0v81.237h33.665v-80.993H308.115z"/>
</g>
<path fill="#FFFFFF" d="M657.761,414.701l77.345-69.575c8.653-7.416,15.364-14.833,21.367-21.19
	c5.298-5.475,10.065-11.478,14.304-17.659c3.355-4.943,6.004-10.242,7.946-15.716c1.589-5.121,2.296-10.418,2.296-15.716
	c0-6.357-1.413-12.714-4.062-18.542c-2.472-5.474-5.828-10.242-10.242-14.303c-4.237-3.885-9.359-6.887-14.833-8.83
	c-5.651-1.942-11.655-3.002-17.659-2.825c-12.008-0.177-23.839,3.179-33.904,10.065c-9.183,6.534-18.012,15.893-26.842,28.431
	l-11.478-7.241c4.238-6.534,9.006-12.714,14.304-18.542c4.768-5.297,10.064-10.065,15.893-14.303
	c6.004-3.885,12.538-6.887,19.425-8.83c7.946-2.295,16.069-3.354,24.191-3.354c8.3-0.177,16.6,1.412,24.546,4.238
	c7.063,2.825,13.598,6.71,19.425,11.655c5.651,4.944,10.065,11.125,12.891,18.012c3.179,6.887,4.769,14.657,4.592,22.25v0.53
	c0.177,6.71-0.883,13.42-2.826,19.954c-2.119,6.71-5.12,13.067-9.182,18.895c-4.592,6.887-10.065,13.421-15.894,19.424
	c-6.533,6.534-14.304,14.305-23.31,22.251l-63.218,56.86h116.9v14.834H658.644v-11.302h-0.883V414.701z"/>
</svg>
