<?xml version="1.0" encoding="utf-8"?>
<!-- Generator: Adobe Illustrator 21.0.0, SVG Export Plug-In . SVG Version: 6.00 Build 0)  -->
<svg version="1.1" id="Capa_1" xmlns="http://www.w3.org/2000/svg" xmlns:xlink="http://www.w3.org/1999/xlink" x="0px" y="0px"
	 viewBox="0 0 550 160" style="enable-background:new 0 0 550 160;" xml:space="preserve">
<style type="text/css">
	.st0{fill:#FFFFFF;}
</style>
<g>
	<g>
		<path class="st0" d="M298.7-125.7c-5.7,1.1-10.3,5.1-12.3,10.5c0,0.1-0.1,0.1-0.1,0.2c-0.1,0.3-0.2,0.6-0.3,0.9s-0.2,0.6-0.2,0.9
			c-0.1,0.2-0.1,0.5-0.1,0.7c-0.1,0.3-0.1,0.7-0.2,1.1c0,0.1,0,0.3,0,0.4c0,0.5-0.1,1-0.1,1.5v21.8h8.6v-21.9l0,0
			c0-4.1,3.2-7.4,7.3-7.7c0.1,0,0.2,0,0.3,0h0.1l0,0c0,0,0,0,0.1,0c0,0,0,0,0.1,0l0,0h0.1h4v-8.4c-1-0.2-3.2-0.3-4.2-0.3
			C300.7-126,299.7-125.9,298.7-125.7"/>
		<path class="st0" d="M314.7-105.6c0-0.3,0-0.6,0-0.9c0-6.1,4.9-11,10.9-11c3.4,0,6.4,1.5,8.4,4L314.7-105.6z M344.4-110.1
			L344.4-110.1c-1.6-9-9.5-15.8-18.9-15.8c-10.7,0-19.3,8.7-19.3,19.5c0,10.7,9.7,19.5,20.4,19.5c6.2,0,13.4-3.2,16.9-7.8l-6.2-5
			c-2,2.6-7.2,4.3-10.7,4.3c-3.1,0-7-1.3-9-3.4L344.4-110.1L344.4-110.1z"/>
	</g>
	<rect x="7.3" y="-125.2" class="st0" width="8.4" height="37.4"/>
	<path class="st0" d="M258.8-108.1L258.8-108.1C258.8-108.2,258.8-108.2,258.8-108.1c0-9.8-7.9-17.8-17.7-17.8c-3.4,0-6.6,1-9.2,2.6
		v-2h-8.4v37.4h8.5v-6.5v-13.8c0-5.1,4.1-9.2,9.2-9.2c5.1,0,9.2,4.1,9.2,9.2v0.1v20.3h8.5v-20.3H258.8z"/>
	<path class="st0" d="M190.6-105.6c0-0.3,0-0.6,0-0.9c0-6.1,4.9-11,10.9-11c3.4,0,6.4,1.5,8.4,4L190.6-105.6z M220.3-110.1h0.1
		c-1.7-9-9.6-15.8-19-15.8c-10.7,0-19.3,8.7-19.3,19.5c0,10.7,9.7,19.5,20.4,19.5c6.2,0,13.4-3.2,16.9-7.8l-6.2-5
		c-2,2.6-7.2,4.3-10.7,4.3c-3.1,0-7-1.3-9-3.4L220.3-110.1L220.3-110.1z"/>
	<path class="st0" d="M11.5-129.3c3.2,0,5.7-2.6,5.7-5.7c0-3.2-2.6-5.7-5.7-5.7c-3.2,0-5.7,2.6-5.7,5.7
		C5.8-131.8,8.3-129.3,11.5-129.3"/>
	<path class="st0" d="M69.1-105.6c0-0.3,0-0.6,0-0.9c0-6.1,4.9-11,10.9-11c3.4,0,6.4,1.5,8.4,4L69.1-105.6z M98.8-110.1L98.8-110.1
		c-1.6-9-9.5-15.8-18.9-15.8c-10.7,0-19.3,8.7-19.3,19.5c0,10.7,9.7,19.5,20.4,19.5c6.2,0,13.4-3.2,16.9-7.8l-6.2-5
		c-2,2.6-7.2,4.3-10.7,4.3c-3.1,0-7-1.3-9-3.4L98.8-110.1L98.8-110.1z"/>
	<path class="st0" d="M131.8-106.5c0,6.1-4.9,11-10.9,11s-10.9-4.9-10.9-11s4.9-11,10.9-11S131.8-112.6,131.8-106.5L131.8-106.5z
		 M120.9-126c-10.7,0-19.3,8.7-19.3,19.5c0,10.7,8.6,19.5,19.3,19.5c4.1,0,7.8-1.3,10.9-3.4l0.3,2.6h8.1v-18.7
		C140.2-117.3,131.5-126,120.9-126"/>
	<path class="st0" d="M49.1-106.5c0,6-4.9,10.9-10.9,10.9c-4.7,0-8.7-3-10.2-7.1l0,0c-0.5-1.2-0.7-2.5-0.7-3.8s0.2-2.5,0.6-3.7
		c1.5-4.3,5.5-7.3,10.3-7.3C44.2-117.5,49-112.6,49.1-106.5L49.1-106.5z M49.1-139.5v17c-3.1-2.2-6.9-3.5-10.9-3.5
		c-10.7,0-19.4,8.7-19.4,19.5c0,10.7,8.7,19.5,19.4,19.5s19.3-8.7,19.3-19.5v-33H49.1z"/>
	<path class="st0" d="M171.6-100c-2,2.6-5.1,4.3-8.7,4.3c-6,0-10.9-4.9-10.9-10.9s4.9-10.9,10.9-10.9c4.2,0,7.8,2.3,9.6,5.8l7.9-3.3
		c-3.2-6.5-9.8-11-17.5-11c-10.7,0-19.5,8.7-19.5,19.5c0,10.7,8.7,19.5,19.5,19.5c7.1,0,13.3-3.8,16.7-9.5L171.6-100z"/>
	<path class="st0" d="M280.9-95.1h-0.6c-3,0-5.4-2.4-5.4-5.4v-10.3l0,0v-5h6.1v-7.3h-6.1v-12.4h-8.4v12.3h-5.4v7.3h5.4v16.2h0.1
		c0,0.1,0,0.2,0,0.4c0,6.7,5.4,12.2,12.2,12.2c0.8,0,1.5-0.1,2.3-0.2v-7.8H280.9z"/>
</g>
<g>
	<path class="st0" d="M373.2-126h2.7l17.4,37.6h-3l-4.7-10.5h-22l-4.8,10.5h-2.9L373.2-126z M384.3-101.4l-9.8-21.6l-9.9,21.6H384.3
		z"/>
	<path class="st0" d="M401.5-125.8h2.8v37.4h-2.8V-125.8z"/>
	<path class="st0" d="M432.9-87.8c-2.8,0-5.4-0.5-7.7-1.6c-2.3-1-4.3-2.5-5.9-4.2c-1.6-1.8-2.9-3.8-3.8-6.1
		c-0.9-2.3-1.3-4.7-1.3-7.3v-0.1c0-2.6,0.5-5,1.4-7.3c0.9-2.3,2.2-4.4,3.8-6.2c1.6-1.8,3.6-3.2,5.9-4.2s4.9-1.6,7.7-1.6
		s5.4,0.5,7.7,1.6c2.3,1,4.3,2.5,5.9,4.2c1.6,1.8,2.9,3.8,3.8,6.1c0.9,2.3,1.3,4.8,1.3,7.3v0.1c0,2.6-0.5,5-1.4,7.3
		c-0.9,2.3-2.2,4.4-3.8,6.2c-1.6,1.8-3.6,3.2-6,4.2C438.3-88.3,435.7-87.8,432.9-87.8z M433-90.3c2.3,0,4.4-0.4,6.4-1.3
		c1.9-0.9,3.6-2.1,5-3.6c1.4-1.5,2.5-3.3,3.3-5.3s1.2-4.2,1.2-6.5v-0.1c0-2.3-0.4-4.5-1.2-6.5c-0.8-2-1.9-3.8-3.3-5.3
		c-1.4-1.5-3.1-2.7-5-3.6c-2-0.9-4.1-1.3-6.4-1.3s-4.4,0.4-6.4,1.3c-1.9,0.9-3.6,2.1-5,3.6c-1.4,1.5-2.5,3.3-3.3,5.3
		s-1.2,4.2-1.2,6.5v0.1c0,2.3,0.4,4.5,1.2,6.5s1.9,3.8,3.3,5.3c1.4,1.5,3.1,2.7,5,3.6C428.5-90.7,430.7-90.3,433-90.3z"/>
</g>
<g>
	<path class="st0" d="M473.4-87.7c-2.7,0-5.2-0.6-7.6-1.9c-2.4-1.2-4.4-2.7-6.2-4.5l2.1-2.1c1.8,1.8,3.7,3.2,5.7,4.2
		c2,1,4,1.5,6.1,1.5c1.6,0,3-0.3,4.3-0.8c1.3-0.5,2.4-1.2,3.3-2.1c0.9-0.9,1.6-1.9,2.2-3.1s0.8-2.5,0.8-3.9v-0.1
		c0-1.3-0.3-2.6-0.8-3.7s-1.3-2.1-2.2-3c-1-0.8-2.1-1.5-3.4-1.9c-1.3-0.5-2.8-0.7-4.4-0.7c-1.8,0-3.5,0.2-4.9,0.7
		c-1.4,0.5-2.8,1.1-4,1.7l-2.3-1.5l1.1-19.1h22.1v2.8h-19.5l-1,14.7c1.3-0.6,2.6-1.2,3.9-1.5s2.9-0.6,4.8-0.6c1.9,0,3.7,0.3,5.3,0.9
		c1.6,0.6,3.1,1.4,4.3,2.4c1.2,1,2.2,2.3,2.9,3.7c0.7,1.5,1,3.1,1,4.8v0.1c0,1.9-0.3,3.6-1,5.1c-0.7,1.5-1.7,2.9-2.9,4
		c-1.2,1.1-2.7,2-4.3,2.6C477.2-88,475.4-87.7,473.4-87.7z"/>
	<path class="st0" d="M500.5-125l-7.6,2.6l-0.8-2.3l9-3.3h2.3v39.7h-2.9V-125z"/>
	<path class="st0" d="M529.2-87.7c-2.5,0-4.8-0.5-6.8-1.6c-2-1.1-3.7-2.6-5.1-4.4c-1.4-1.9-2.5-4-3.2-6.5s-1.1-5-1.1-7.7v-0.1
		c0-2.7,0.4-5.3,1.2-7.8c0.8-2.5,1.9-4.6,3.3-6.5c1.4-1.9,3.1-3.3,5.1-4.4c2-1.1,4.3-1.7,6.8-1.7c2.5,0,4.8,0.5,6.8,1.6
		c2,1.1,3.7,2.6,5.1,4.4c1.4,1.9,2.5,4,3.2,6.5c0.8,2.5,1.1,5,1.1,7.7v0.1c0,2.7-0.4,5.3-1.2,7.8c-0.8,2.5-1.9,4.6-3.3,6.5
		c-1.4,1.9-3.1,3.3-5.1,4.4C533.9-88.3,531.7-87.7,529.2-87.7z M529.3-90.4c2,0,3.9-0.5,5.5-1.5c1.6-1,3-2.3,4.2-3.9s2-3.5,2.6-5.6
		c0.6-2.1,0.9-4.3,0.9-6.6v-0.1c0-2.3-0.3-4.5-0.9-6.6c-0.6-2.1-1.5-4-2.7-5.7s-2.6-2.9-4.2-3.9c-1.7-1-3.5-1.5-5.5-1.5
		c-2,0-3.9,0.5-5.5,1.5c-1.6,1-3,2.3-4.2,3.9c-1.1,1.6-2,3.5-2.6,5.6c-0.6,2.1-0.9,4.3-0.9,6.6v0.1c0,2.3,0.3,4.5,0.9,6.6
		c0.6,2.1,1.5,4,2.7,5.7c1.2,1.7,2.6,3,4.2,4C525.4-90.9,527.3-90.4,529.3-90.4z"/>
</g>
<g>
	<g>
		<path class="st0" d="M70,103.5c0-1.7-0.1-3.5,0-5.2c0.1-3.2,0.5-6.4-4.5-5.4c-1.1,0.2-1.5-0.6-1.5-1.6c0-1.4,0.1-2.8,0-4.1
			c-0.3-2.1,0.6-3.1,2.7-2.7c3,0.5,3.7-0.9,3.2-3.6c-0.2-1.2,0-2.5-0.1-3.7c0-6.5,1.8-7.9,8.2-6.5c1.4,0.3,1.4,1.1,1.4,2.1
			c0,3,0.2,6,0,9c-0.1,2.2,0.7,3,2.8,2.6c4.7-0.9,3.9,2.2,4.2,5.1c0.3,3.4-1.4,3.7-3.9,3.4c-2.2-0.3-3.1,0.4-2.9,2.8
			c0.2,4.5,0.1,9,0.1,13.5c0.1,4.3,1.7,6.3,5.9,6.6c2.1,0.2,2.4,0.9,2.4,2.7c0.1,6.6-1.6,8-8.1,6.1c-5.4-1.6-9.2-6.1-9.7-12.1
			c-0.2-3-0.1-6-0.1-9C70.1,103.5,70,103.5,70,103.5z"/>
		<path class="st0" d="M176.3,111.7c2.2-5.9,1.9-11.9,0.1-17.8c-0.4-2.6-1.5-4.6-3.3-6.5c-3.5-3.8-7.8-6.1-12.8-7.2
			c-5.2-1.1-9.7,0.6-14.2,2.6c-0.4-2.9-0.5-14.2-1.5-16.1c-1.1-2.1-4.1-1.1-7.1-1.1c-2.4,0-2.3,1-2.3,2.9
			c0.1,11.5,0.1,22.9,0.2,34.4c0.1,5.4,1.7,10.3,5.3,14.4C151.1,129.3,168.3,126.6,176.3,111.7z M144.9,102.6
			c0-6.6,5.4-12.1,11.8-12.1c6.5,0,11.8,5.6,11.7,12.5c0,6.6-5.4,12.1-11.7,12.1C150.2,115.1,144.8,109.4,144.9,102.6z"/>
		<path class="st0" d="M116.8,124c2-0.6,4.5-4.4,6.6,0.1c0.1,0.2,0.9,0,1.4,0c1.4,0,2.8-0.1,4.1,0c2.1,0.2,2.9-0.5,2.8-2.7
			c-0.2-3.4-0.1-6.7-0.1-10.1c0,0-0.1,0-0.1,0c0-3.5,0.2-7-0.1-10.5c-0.9-12.4-12.2-21.5-24.3-19.5c-12.6,2-20.5,14.2-17.6,27
			C92.4,120.5,105.1,127.6,116.8,124z M98.5,103c0-6.7,5.6-12.5,12-12.3c6.3,0.1,11.8,5.9,11.8,12.3c0,6.7-5.7,12.4-12.1,12.3
			C103.8,115.2,98.5,109.6,98.5,103z"/>
	</g>
	<path class="st0" d="M199.2,123.9c-3.7,0-6.8-0.6-9.3-1.9c-2.6-1.3-4.7-3-6.4-5.1l6.1-5.8c1.4,1.6,2.8,2.8,4.4,3.6
		c1.5,0.8,3.3,1.2,5.4,1.2c1.7,0,3.1-0.4,4.1-1.3c1.1-0.9,1.6-2.1,1.6-3.6v-0.1c0-1.6-0.7-2.9-2.1-3.8c-1.4-0.9-3.3-1.3-5.8-1.3
		h-3.7l-1.4-5.6l9.6-9.7h-15.9v-7.7h27.4v6.7l-10.3,9.8c1.4,0.2,2.7,0.6,4,1.1c1.3,0.5,2.5,1.2,3.5,2.1c1,0.9,1.8,2,2.5,3.3
		c0.6,1.3,0.9,2.9,0.9,4.8v0.1c0,1.9-0.3,3.7-1,5.3c-0.7,1.6-1.6,3-2.9,4.2c-1.3,1.2-2.8,2.1-4.6,2.8
		C203.4,123.5,201.4,123.9,199.2,123.9z"/>
	<path class="st0" d="M229.4,85.5h24.9v2.3H232v13.9h20.1v2.3H232v14.1h22.6v2.3h-25.1V85.5z"/>
	<path class="st0" d="M268.1,121c-1.9,0-3.7-0.3-5.6-1c-1.9-0.7-3.5-1.6-4.8-2.7l1.4-2c1.4,1.1,2.9,1.9,4.4,2.5s3.1,0.9,4.8,0.9
		c1.7,0,3.2-0.4,4.4-1.3c1.2-0.9,1.8-2,1.8-3.5v-0.1c0-0.7-0.2-1.4-0.5-1.9c-0.4-0.5-0.9-1-1.5-1.4c-0.6-0.4-1.4-0.7-2.2-1
		s-1.6-0.5-2.5-0.8c-1-0.3-2.1-0.6-3.1-0.9c-1.1-0.3-2-0.8-2.8-1.3c-0.8-0.5-1.5-1.2-2-1.9c-0.5-0.8-0.8-1.7-0.8-2.8v-0.1
		c0-1,0.2-2,0.6-2.8c0.4-0.8,1-1.6,1.7-2.2c0.7-0.6,1.6-1.1,2.7-1.5c1-0.3,2.2-0.5,3.4-0.5c1.5,0,3.1,0.3,4.7,0.8
		c1.6,0.5,3.1,1.2,4.3,2.1l-1.3,2.1c-1.2-0.8-2.4-1.4-3.8-1.9c-1.4-0.5-2.7-0.7-4.1-0.7c-1.8,0-3.2,0.4-4.2,1.3
		c-1,0.8-1.6,1.9-1.6,3.2v0.1c0,0.7,0.2,1.3,0.6,1.8c0.4,0.5,0.9,1,1.6,1.3c0.6,0.4,1.4,0.7,2.3,1c0.9,0.3,1.8,0.6,2.6,0.8
		c1,0.3,2,0.6,3,1c1,0.3,1.9,0.8,2.7,1.3c0.8,0.5,1.4,1.2,1.9,2s0.7,1.7,0.7,2.8v0.1c0,1.1-0.2,2.2-0.7,3.1
		c-0.5,0.9-1.1,1.7-1.9,2.3c-0.8,0.6-1.7,1.1-2.8,1.5C270.5,120.8,269.4,121,268.1,121z"/>
	<path class="st0" d="M290.5,121c-1.9,0-3.7-0.3-5.6-1c-1.9-0.7-3.5-1.6-4.8-2.7l1.5-2c1.4,1.1,2.9,1.9,4.4,2.5s3.1,0.9,4.8,0.9
		c1.7,0,3.2-0.4,4.4-1.3c1.2-0.9,1.8-2,1.8-3.5v-0.1c0-0.7-0.2-1.4-0.5-1.9c-0.4-0.5-0.9-1-1.5-1.4c-0.6-0.4-1.4-0.7-2.2-1
		s-1.7-0.5-2.5-0.8c-1-0.3-2.1-0.6-3.1-0.9s-2-0.8-2.8-1.3c-0.8-0.5-1.5-1.2-2-1.9c-0.5-0.8-0.8-1.7-0.8-2.8v-0.1c0-1,0.2-2,0.6-2.8
		c0.4-0.8,1-1.6,1.7-2.2s1.6-1.1,2.7-1.5c1-0.3,2.2-0.5,3.4-0.5c1.5,0,3.1,0.3,4.7,0.8c1.6,0.5,3.1,1.2,4.3,2.1l-1.3,2.1
		c-1.2-0.8-2.4-1.4-3.8-1.9c-1.4-0.5-2.7-0.7-4.1-0.7c-1.8,0-3.2,0.4-4.2,1.3c-1.1,0.8-1.6,1.9-1.6,3.2v0.1c0,0.7,0.2,1.3,0.6,1.8
		c0.4,0.5,0.9,1,1.6,1.3c0.7,0.4,1.4,0.7,2.3,1c0.9,0.3,1.8,0.6,2.6,0.8c1,0.3,2,0.6,3,1c1,0.3,1.9,0.8,2.7,1.3
		c0.8,0.5,1.4,1.2,1.9,2s0.7,1.7,0.7,2.8v0.1c0,1.1-0.2,2.2-0.7,3.1c-0.5,0.9-1.1,1.7-1.9,2.3c-0.8,0.6-1.7,1.1-2.8,1.5
		C292.9,120.8,291.7,121,290.5,121z"/>
	<path class="st0" d="M315.4,121.1c-1.7,0-3.3-0.3-4.8-0.9c-1.5-0.6-2.9-1.5-4-2.7c-1.2-1.2-2.1-2.6-2.7-4.2c-0.7-1.6-1-3.5-1-5.5
		v-0.1c0-1.8,0.3-3.6,0.9-5.2c0.6-1.6,1.5-3,2.5-4.2c1.1-1.2,2.4-2.1,3.8-2.8c1.5-0.7,3.1-1,4.8-1c1.8,0,3.4,0.3,4.8,1
		c1.4,0.7,2.7,1.6,3.7,2.8c1,1.2,1.8,2.6,2.3,4.2c0.5,1.6,0.8,3.4,0.8,5.3c0,0.2,0,0.4,0,0.5s0,0.3,0,0.5h-21.2
		c0.1,1.6,0.5,3,1.1,4.2c0.6,1.2,1.4,2.3,2.3,3.1s1.9,1.5,3.1,2c1.2,0.4,2.4,0.7,3.6,0.7c2,0,3.7-0.4,5.1-1.2
		c1.4-0.8,2.6-1.7,3.7-2.8l1.7,1.5c-1.3,1.4-2.8,2.6-4.4,3.5C319.9,120.6,317.8,121.1,315.4,121.1z M324,106.5
		c-0.1-1.3-0.4-2.5-0.8-3.7c-0.4-1.2-1-2.2-1.8-3.2c-0.8-0.9-1.7-1.6-2.8-2.2c-1.1-0.5-2.4-0.8-3.9-0.8c-1.3,0-2.5,0.3-3.6,0.8
		c-1.1,0.5-2.1,1.2-2.9,2.1c-0.8,0.9-1.5,1.9-2,3.2s-0.9,2.5-1,3.9H324z"/>
	<path class="st0" d="M331.3,95h2.4v4.8c0.9-1.5,2-2.8,3.5-3.8s3.4-1.5,5.7-1.5c1.6,0,3,0.3,4.3,0.8c1.3,0.5,2.3,1.2,3.2,2.2
		c0.9,0.9,1.5,2,2,3.3c0.5,1.3,0.7,2.7,0.7,4.2v15.6h-2.5v-15.2c0-2.6-0.7-4.7-2.1-6.3c-1.4-1.6-3.4-2.4-6-2.4
		c-1.3,0-2.4,0.2-3.5,0.7c-1.1,0.5-2,1.1-2.8,1.9c-0.8,0.8-1.4,1.8-1.9,2.9c-0.5,1.1-0.7,2.3-0.7,3.7v14.8h-2.4V95z"/>
	<path class="st0" d="M367.9,121c-1,0-1.9-0.1-2.8-0.4s-1.6-0.7-2.3-1.3c-0.7-0.6-1.2-1.3-1.5-2.2c-0.4-0.9-0.5-1.9-0.5-3.1V97.3
		h-3.7V95h3.7v-8.2h2.5V95h9v2.3h-9v16.4c0,1.8,0.5,3.1,1.4,3.8s2.2,1.1,3.7,1.1c0.6,0,1.2-0.1,1.8-0.2s1.2-0.3,2-0.7v2.3
		c-0.7,0.3-1.3,0.5-2,0.7C369.5,120.9,368.7,121,367.9,121z"/>
	<path class="st0" d="M377,85h3v3.3h-3V85z M377.3,95h2.5v25.5h-2.5V95z"/>
	<path class="st0" d="M394.6,121.1c-1.2,0-2.4-0.2-3.6-0.5c-1.2-0.3-2.2-0.8-3.1-1.5c-0.9-0.7-1.7-1.5-2.3-2.5s-0.9-2.2-0.9-3.5V113
		c0-1.3,0.3-2.5,0.8-3.5s1.3-1.9,2.3-2.6c1-0.7,2.1-1.2,3.5-1.6c1.4-0.4,2.9-0.5,4.5-0.5c1.8,0,3.3,0.1,4.6,0.3
		c1.3,0.2,2.6,0.5,3.8,0.8v-1.1c0-2.6-0.7-4.5-2.2-5.8c-1.5-1.3-3.5-1.9-6.2-1.9c-1.6,0-3,0.2-4.3,0.6s-2.5,0.9-3.7,1.5l-0.9-2.2
		c1.4-0.7,2.8-1.2,4.3-1.6c1.4-0.4,3-0.6,4.8-0.6c3.5,0,6.2,0.9,8,2.8c1.7,1.7,2.6,4.1,2.6,7.2v15.9h-2.4v-4.3
		c-0.4,0.6-1,1.2-1.6,1.8c-0.6,0.6-1.3,1.1-2.1,1.5s-1.7,0.8-2.7,1.1C397,121,395.8,121.1,394.6,121.1z M394.8,118.8
		c1.3,0,2.5-0.2,3.7-0.6c1.2-0.4,2.2-0.9,3.1-1.6c0.9-0.7,1.6-1.5,2.1-2.5c0.5-1,0.8-2,0.8-3.2V108c-1.1-0.3-2.3-0.5-3.8-0.8
		c-1.4-0.2-3.1-0.4-4.9-0.4c-2.7,0-4.8,0.5-6.2,1.6s-2.2,2.5-2.2,4.3v0.1c0,0.9,0.2,1.8,0.6,2.5c0.4,0.7,0.9,1.3,1.6,1.8
		c0.7,0.5,1.5,0.9,2.4,1.1S393.8,118.8,394.8,118.8z"/>
	<path class="st0" d="M413.4,84h2.5v36.5h-2.5V84z"/>
</g>
</svg>
