<?xml version="1.0" encoding="utf-8"?>
<!-- Generator: Adobe Illustrator 20.0.0, SVG Export Plug-In . SVG Version: 6.00 Build 0)  -->
<svg version="1.1" id="Capa_1" xmlns="http://www.w3.org/2000/svg" xmlns:xlink="http://www.w3.org/1999/xlink" x="0px" y="0px"
	 viewBox="0 0 550 160" style="enable-background:new 0 0 550 160;" xml:space="preserve">
<style type="text/css">
	.st0{fill:#5D5D5D;}
</style>
<g>
	<g>
		<path class="st0" d="M293.5,68.3c-5.7,1.1-10.3,5.1-12.3,10.5c0,0.1-0.1,0.1-0.1,0.2c-0.1,0.3-0.2,0.6-0.3,0.9
			c-0.1,0.3-0.2,0.6-0.2,0.9c-0.1,0.2-0.1,0.5-0.1,0.7c-0.1,0.3-0.1,0.7-0.2,1.1c0,0.1,0,0.3,0,0.4c0,0.5-0.1,1-0.1,1.5v21.8h8.6
			V84.4l0,0c0-4.1,3.2-7.4,7.3-7.7c0.1,0,0.2,0,0.3,0h0.1l0,0c0,0,0,0,0.1,0c0,0,0,0,0.1,0l0,0h0.1h4v-8.4c-1-0.2-3.2-0.3-4.2-0.3
			C295.5,68,294.5,68.1,293.5,68.3"/>
		<path class="st0" d="M309.5,88.4c0-0.3,0-0.6,0-0.9c0-6.1,4.9-11,10.9-11c3.4,0,6.4,1.5,8.4,4L309.5,88.4z M339.2,83.9h0.1
			c-1.7-9-9.6-15.8-19-15.8c-10.7,0-19.3,8.7-19.3,19.5c0,10.7,9.7,19.5,20.4,19.5c6.2,0,13.4-3.2,16.9-7.8l-6.2-5
			c-2,2.6-7.2,4.3-10.7,4.3c-3.1,0-7-1.3-9-3.4L339.2,83.9L339.2,83.9z"/>
	</g>
	<rect x="2.1" y="68.8" class="st0" width="8.4" height="37.4"/>
	<path class="st0" d="M253.6,85.9L253.6,85.9C253.6,85.8,253.6,85.8,253.6,85.9c0-9.8-7.9-17.8-17.7-17.8c-3.4,0-6.6,1-9.2,2.6v-2
		h-8.4v37.4h8.5v-6.5V85.8c0-5.1,4.1-9.2,9.2-9.2c5.1,0,9.2,4.1,9.2,9.2v0.1v20.3h8.5V85.9H253.6z"/>
	<path class="st0" d="M185.4,88.4c0-0.3,0-0.6,0-0.9c0-6.1,4.9-11,10.9-11c3.4,0,6.4,1.5,8.4,4L185.4,88.4z M215.1,83.9h0.1
		c-1.7-9-9.6-15.8-19-15.8c-10.7,0-19.3,8.7-19.3,19.5c0,10.7,9.7,19.5,20.4,19.5c6.2,0,13.4-3.2,16.9-7.8l-6.2-5
		c-2,2.6-7.2,4.3-10.7,4.3c-3.1,0-7-1.3-9-3.4L215.1,83.9L215.1,83.9z"/>
	<path class="st0" d="M6.3,64.7c3.2,0,5.7-2.6,5.7-5.7c0-3.2-2.6-5.7-5.7-5.7c-3.2,0-5.7,2.6-5.7,5.7C0.6,62.2,3.1,64.7,6.3,64.7"/>
	<path class="st0" d="M63.9,88.4c0-0.3,0-0.6,0-0.9c0-6.1,4.9-11,10.9-11c3.4,0,6.4,1.5,8.4,4L63.9,88.4z M93.6,83.9L93.6,83.9
		c-1.6-9-9.5-15.8-18.9-15.8c-10.7,0-19.3,8.7-19.3,19.5c0,10.7,9.7,19.5,20.4,19.5c6.2,0,13.4-3.2,16.9-7.8l-6.2-5
		c-2,2.6-7.2,4.3-10.7,4.3c-3.1,0-7-1.3-9-3.4L93.6,83.9L93.6,83.9z"/>
	<path class="st0" d="M126.6,87.5c0,6.1-4.9,11-10.9,11s-10.9-4.9-10.9-11s4.9-11,10.9-11S126.6,81.4,126.6,87.5L126.6,87.5z
		 M115.7,68c-10.7,0-19.3,8.7-19.3,19.5c0,10.7,8.6,19.5,19.3,19.5c4.1,0,7.8-1.3,10.9-3.4l0.3,2.6h8.1V87.5
		C135,76.7,126.3,68,115.7,68"/>
	<path class="st0" d="M43.9,87.5c0,6-4.9,10.9-10.9,10.9c-4.7,0-8.7-3-10.2-7.1l0,0c-0.5-1.2-0.7-2.5-0.7-3.8s0.2-2.5,0.6-3.7
		c1.5-4.3,5.5-7.3,10.3-7.3C39,76.5,43.8,81.4,43.9,87.5L43.9,87.5z M43.9,54.5v17C40.8,69.3,37,68,33,68
		c-10.7,0-19.4,8.7-19.4,19.5c0,10.7,8.7,19.5,19.4,19.5s19.3-8.7,19.3-19.5v-33H43.9z"/>
	<path class="st0" d="M166.4,94c-2,2.6-5.1,4.3-8.7,4.3c-6,0-10.9-4.9-10.9-10.9s4.9-10.9,10.9-10.9c4.2,0,7.8,2.3,9.6,5.8l7.9-3.3
		c-3.2-6.5-9.8-11-17.5-11c-10.7,0-19.5,8.7-19.5,19.5c0,10.7,8.7,19.5,19.5,19.5c7.1,0,13.3-3.8,16.7-9.5L166.4,94z"/>
	<path class="st0" d="M275.7,98.9h-0.6c-3,0-5.4-2.4-5.4-5.4V83.2l0,0v-5h6.1v-7.3h-6.1V58.5h-8.4v12.3h-5.4v7.3h5.4v16.2h0.1
		c0,0.1,0,0.2,0,0.4c0,6.7,5.4,12.2,12.2,12.2c0.8,0,1.5-0.1,2.3-0.2v-7.8H275.7z"/>
</g>
<g>
	<path class="st0" d="M365,68h2.7l17.4,37.6h-3l-4.7-10.5h-22l-4.8,10.5h-2.9L365,68z M376.1,92.6L366.3,71l-9.9,21.6H376.1z"/>
	<path class="st0" d="M393.3,68.2h2.8v37.4h-2.8V68.2z"/>
	<path class="st0" d="M424.7,106.2c-2.8,0-5.4-0.5-7.7-1.6c-2.3-1-4.3-2.5-5.9-4.2c-1.6-1.8-2.9-3.8-3.8-6.1
		c-0.9-2.3-1.3-4.7-1.3-7.3v-0.1c0-2.6,0.5-5,1.4-7.3s2.2-4.4,3.8-6.2c1.6-1.8,3.6-3.2,5.9-4.2c2.3-1,4.9-1.6,7.7-1.6
		c2.8,0,5.4,0.5,7.7,1.6c2.3,1,4.3,2.5,5.9,4.2c1.6,1.8,2.9,3.8,3.8,6.1c0.9,2.3,1.3,4.8,1.3,7.3c0,0,0,0.1,0,0.1
		c0,2.6-0.5,5-1.4,7.3c-0.9,2.3-2.2,4.4-3.8,6.2c-1.6,1.8-3.6,3.2-6,4.2C430.1,105.7,427.5,106.2,424.7,106.2z M424.8,103.7
		c2.3,0,4.4-0.4,6.4-1.3c1.9-0.9,3.6-2.1,5-3.6c1.4-1.5,2.5-3.3,3.3-5.3c0.8-2,1.2-4.2,1.2-6.5v-0.1c0-2.3-0.4-4.5-1.2-6.5
		c-0.8-2-1.9-3.8-3.3-5.3c-1.4-1.5-3.1-2.7-5-3.6c-2-0.9-4.1-1.3-6.4-1.3c-2.3,0-4.4,0.4-6.4,1.3c-1.9,0.9-3.6,2.1-5,3.6
		c-1.4,1.5-2.5,3.3-3.3,5.3c-0.8,2-1.2,4.2-1.2,6.5v0.1c0,2.3,0.4,4.5,1.2,6.5c0.8,2,1.9,3.8,3.3,5.3c1.4,1.5,3.1,2.7,5,3.6
		C420.3,103.3,422.5,103.7,424.8,103.7z"/>
	<path class="st0" d="M479.1,106.2c-2.3,0-4.4-0.4-6.2-1.3c-1.8-0.9-3.5-2-5-3.3l1.8-2.1c1.6,1.4,3.2,2.5,4.7,3.2
		c1.5,0.7,3.1,1.1,4.9,1.1c1.9,0,3.6-0.5,5.2-1.4c1.6-1,2.9-2.3,4-4c1.1-1.7,1.9-3.7,2.5-6.1c0.6-2.3,0.8-4.9,0.7-7.7
		c-0.5,1-1.2,1.9-1.9,2.7c-0.7,0.9-1.6,1.6-2.5,2.3c-1,0.7-2,1.2-3.2,1.6c-1.2,0.4-2.5,0.6-4,0.6c-1.9,0-3.6-0.3-5.2-0.9
		c-1.6-0.6-2.9-1.4-4.1-2.4c-1.1-1-2-2.2-2.7-3.6c-0.6-1.4-1-2.9-1-4.5v-0.1c0-1.7,0.3-3.3,1-4.9c0.6-1.5,1.5-2.9,2.7-4
		c1.2-1.1,2.5-2,4.1-2.7c1.6-0.7,3.4-1,5.3-1c2,0,3.8,0.3,5.4,1c1.6,0.7,2.9,1.6,4.1,2.7c0.7,0.7,1.4,1.5,2,2.4
		c0.6,0.9,1.1,1.9,1.5,3.1c0.4,1.2,0.7,2.5,0.9,4c0.2,1.5,0.3,3.2,0.3,5v0.1c0,3-0.4,5.7-1.1,8.1c-0.8,2.5-1.8,4.6-3.2,6.4
		c-1.4,1.8-3,3.2-4.8,4.2C483.2,105.7,481.2,106.2,479.1,106.2z M480,89.2c1.6,0,3-0.3,4.3-0.8s2.4-1.3,3.3-2.2
		c0.9-0.9,1.6-1.9,2.1-3c0.5-1.1,0.7-2.3,0.7-3.5v-0.1c0-1.3-0.3-2.5-0.8-3.7c-0.5-1.2-1.3-2.2-2.2-3c-0.9-0.9-2.1-1.5-3.4-2
		c-1.3-0.5-2.7-0.7-4.3-0.7c-1.5,0-2.9,0.3-4.1,0.8s-2.3,1.3-3.1,2.2c-0.9,0.9-1.5,2-2,3.2c-0.5,1.2-0.7,2.4-0.7,3.7v0.1
		c0,1.3,0.2,2.5,0.7,3.6c0.5,1.1,1.2,2.1,2.1,2.8c0.9,0.8,2,1.4,3.2,1.9C477.1,88.9,478.5,89.2,480,89.2z"/>
	<path class="st0" d="M507.2,70.9l-7.2,2.5l-0.7-2.2l8.6-3.1h2.2v37.6h-2.8V70.9z"/>
	<path class="st0" d="M534.5,106.2c-2.4,0-4.5-0.5-6.4-1.5c-1.9-1-3.5-2.4-4.9-4.2c-1.3-1.8-2.4-3.8-3.1-6.1
		c-0.7-2.3-1.1-4.8-1.1-7.3v-0.1c0-2.6,0.4-5,1.1-7.4s1.8-4.4,3.1-6.2c1.4-1.8,3-3.2,4.9-4.2c1.9-1,4-1.6,6.4-1.6s4.5,0.5,6.4,1.5
		c1.9,1,3.5,2.4,4.9,4.2c1.3,1.8,2.4,3.8,3.1,6.1c0.7,2.3,1.1,4.8,1.1,7.3v0.1c0,2.6-0.4,5-1.1,7.4c-0.7,2.3-1.8,4.4-3.1,6.2
		c-1.4,1.8-3,3.2-4.9,4.2C539,105.7,536.8,106.2,534.5,106.2z M534.6,103.7c1.9,0,3.7-0.5,5.2-1.4c1.6-0.9,2.9-2.2,4-3.7
		c1.1-1.5,1.9-3.3,2.5-5.3c0.6-2,0.9-4.1,0.9-6.3v-0.1c0-2.2-0.3-4.3-0.9-6.3c-0.6-2-1.4-3.8-2.5-5.4c-1.1-1.5-2.4-2.8-4-3.7
		c-1.6-0.9-3.3-1.4-5.2-1.4c-1.9,0-3.7,0.5-5.2,1.4c-1.6,0.9-2.9,2.2-4,3.7c-1.1,1.5-1.9,3.3-2.5,5.3c-0.6,2-0.9,4.1-0.9,6.3v0.1
		c0,2.2,0.3,4.3,0.9,6.3c0.6,2,1.4,3.8,2.5,5.4s2.4,2.8,4,3.8C530.9,103.3,532.7,103.7,534.6,103.7z"/>
</g>
</svg>
