<?xml version="1.0" encoding="utf-8"?>
<!-- Generator: Adobe Illustrator 20.0.0, SVG Export Plug-In . SVG Version: 6.00 Build 0)  -->
<svg version="1.1" id="Capa_1" xmlns="http://www.w3.org/2000/svg" xmlns:xlink="http://www.w3.org/1999/xlink" x="0px" y="0px"
	 viewBox="0 0 609 273" style="enable-background:new 0 0 609 273;" xml:space="preserve">
<style type="text/css">
	.st0{fill:#FFFFFF;}
	.st1{fill:none;}
</style>
<g>
	<path class="st0" d="M210.1,141.2c-14,0-28,0-42,0c-0.5,0-1,0-1.5,0c-1.5,0.1-2.3-0.3-2.1-2c0.1-0.5,0-1,0-1.5
		c0-18.4,0-36.9,0-55.3c0-0.5,0-1,0-1.5c-0.1-1.4,0.5-1.9,1.9-2.1c11.8-1.6,23.6-3.2,35.3-4.8c13.9-1.9,27.7-3.8,41.6-5.7
		c3.5-0.5,7-1,10.5-1.5c1.4-0.2,2.1,0.3,1.9,1.8c-0.1,0.6,0,1.2,0,1.8c0,22.4,0,44.8,0,67.1c0,4.1,0.4,3.7-3.8,3.7
		c-13.9,0-27.8,0-41.7,0C210.1,141.1,210.1,141.1,210.1,141.2z"/>
	<path class="st0" d="M210.1,146.5c13.8,0,27.6,0,41.5,0c0.7,0,1.4,0.1,2.1,0c1.4-0.1,2.1,0.4,2,1.9c-0.1,0.6,0,1.2,0,1.8
		c0,21.6,0,43.2,0,64.8c0,3.3,0,3.4-3.5,2.9c-12.4-1.7-24.8-3.4-37.1-5.1c-12.5-1.7-25-3.5-37.4-5.2c-3.7-0.5-7.4-1.1-11.1-1.5
		c-1.6-0.2-2.1-0.9-2.1-2.5c0.1-6.7,0-13.3,0-20c0-11.4,0-22.8,0-34.2c0-0.7,0-1.4,0-2.1c0-1,0.5-1.5,1.5-1.4c0.8,0,1.6,0,2.4,0
		c13.9,0,27.8,0,41.8,0C210.1,146.1,210.1,146.3,210.1,146.5z"/>
	<path class="st0" d="M95.5,88.4c6.8-0.9,13.6-1.8,20.4-2.7c12.6-1.7,25.1-3.5,37.7-5.2c1-0.1,2-0.2,2.9-0.6
		c2.3-0.9,2.8,0.1,2.7,2.2c0,18.9-0.1,37.8,0,56.7c0,2.1-0.7,2.5-2.6,2.5c-7.9-0.1-15.9,0-23.8,0c-1.1,0-2.2-0.2-3.3,0.3
		c-1-0.4-2-0.3-3-0.2c-10.3,0.1-20.6,0.1-31,0.2c-0.9-0.4-0.5-1.2-0.5-1.9c0-16.4,0-32.9,0-49.3C95.1,89.7,94.9,89,95.5,88.4z"/>
	<path class="st0" d="M104.5,145.2c7,0.2,13.9,0.5,20.9,0.1c1.5,0.5,3,0.3,4.5,0.3c9,0,17.9,0,26.9,0c1.6,0,2.6,0,2.6,2.1
		c-0.1,18.7,0,37.4,0,56.1c0,0.5,0,1-0.5,1.3c-0.3,0-0.5,0-0.8,0c-1-0.5-2.2,0.1-3.3-0.5c-0.3,0-0.7-0.1-1-0.1
		c-1.2-0.6-2.6,0.2-3.8-0.5l-0.2-0.1l-0.3,0.1c-1.2-0.7-2.6,0.1-3.7-0.5c-0.3,0-0.6-0.1-0.9-0.1c-1.1-0.5-2.3,0.1-3.3-0.5
		c-0.3,0-0.7-0.1-1-0.1c-1-0.5-2.2,0.1-3.2-0.5c-0.4,0-0.7-0.1-1.1-0.1c-1.2-0.6-2.6,0.2-3.8-0.5l-0.2-0.1l-0.3,0.1
		c-1.2-0.7-2.6,0.1-3.7-0.5c-0.3,0-0.6-0.1-0.9-0.1c-1.1-0.5-2.3,0.1-3.3-0.5c-0.3,0-0.7-0.1-1-0.1c-1-0.5-2.2,0.1-3.2-0.5
		c-0.4,0-0.7-0.1-1.1-0.1c-1.2-0.6-2.6,0.2-3.8-0.5c-0.3-0.2-0.6-0.2-0.9-0.1c-1.1-0.5-2.3,0.1-3.4-0.5c-0.3,0-0.6-0.1-0.9-0.1
		c-1-0.5-2.3,0.1-3.3-0.5c-0.3,0-0.7-0.1-1-0.1c-1-0.5-2.2,0.1-3.2-0.5c-0.4,0-0.7-0.1-1.1-0.1c-1.2-0.6-2.6,0.2-3.8-0.5
		c-0.3-0.2-0.6-0.2-0.9,0c-1.4-0.3-1.3-1.4-1.3-2.4c0-15.7,0-31.4,0-47.1c0-1.7,0.4-2.4,2.2-2.3C99.7,145.2,102.1,144.6,104.5,145.2
		z"/>
	<path class="st0" d="M312,150.1c1.9-6.8,3.8-13.6,5.7-20.4c0.7-2.5,2.3-3.3,4.7-2.5c1,0.3,1,1.1,1.2,1.9c1.8,6.7,3.9,13.3,5.4,20.1
		c0.1,0.3,0.2,0.6,0.2,0.9c0.9-0.5,0.8-1.3,1-2.1c1.4-6,2.9-11.9,4.3-17.9c0.8-3.1,0.8-3.1,4.3-2.7c0.5,0.7,0,1.4-0.2,2
		c-2.2,8.2-4.4,16.3-6.6,24.5c-0.4,1.5-0.9,2.3-2.6,2.2c-1.4,0-2.1-0.5-2.5-1.9c-1.5-5.8-3.1-11.5-4.7-17.2
		c-0.4-1.6-0.9-3.2-1.4-4.8c-0.9,0.4-0.9,1.2-1.1,1.9c-1.8,6.6-3.7,13.2-5.5,19.8c-0.6,2.3-0.7,2.2-2.8,2.3c-1.4,0-2-0.5-2.3-1.7
		c-2.2-8.7-4.5-17.3-6.8-26c-0.1-0.3,0-0.6,0.1-0.8c0.5-0.4,1-0.3,1.5-0.4c1.6-0.2,2.3,0.5,2.6,2.1c1.4,6.3,2.8,12.6,4.3,18.8
		c0.2,0.7,0.4,1.4,0.6,2c0.4,0.3,0.3,0.6,0.3,1C311.8,150.7,311.7,150.4,312,150.1z"/>
	<path class="st0" d="M424.6,149.5c1.1-4.2,2.2-8.4,3.3-12.6c0.3-1.2,0.8-1.9,2.2-1.9c1.5,0,2.1,0.5,2.5,1.9
		c0.9,3.8,1.9,7.6,2.9,11.4c0.1,0.5,0,1,0.8,1.4c0.9-1.5,1.1-3.3,1.7-5c0.8-2.4,1.5-4.8,2.2-7.2c0.8-2.7,0.8-2.7,3.8-2.1
		c0.2,0.5,0.1,1-0.1,1.5c-1.8,5.8-3.7,11.5-5.5,17.3c-0.4,1.3-1,2-2.5,2c-1.6,0-2-0.8-2.3-2.1c-0.9-3.9-2-7.8-3-11.7
		c-0.3-0.5-0.7-0.5-1,0c-1.1,4-2.1,8-3.1,12c-0.3,1.2-0.8,1.9-2.2,1.9c-1.4,0-2.2-0.4-2.6-1.8c-1.7-5.7-3.5-11.4-5.2-17
		c-0.2-0.7-0.8-1.6,0.3-2.1c1.2-0.5,2.8,0.1,3.2,1.2c1.3,4.3,2.5,8.7,3.7,13.1C423.9,150,424.2,149.9,424.6,149.5z"/>
	<path class="st0" d="M446,149.9c2.2-0.9,3.3-0.6,4.3,1.5c1.3,2.5,5.8,3,8.1,1.2c1.9-1.5,1.6-3.6-0.6-4.5c-1.4-0.6-2.9-0.8-4.3-1.3
		c-1.3-0.4-2.5-0.7-3.7-1.2c-1.9-0.8-3.1-2.3-3.2-4.4c-0.2-2.2,0.7-3.9,2.6-5.2c2.8-1.9,8.6-1.7,11.2,0.2c1.3,1,1.9,2.3,2.1,3.8
		c-2.4,1-2.4,1-4.3-1c-1.5-1.7-5.5-2-7.3-0.5c-1.3,1.1-1.2,2.6,0.3,3.5c0.7,0.4,1.5,0.6,2.3,0.8c2.1,0.7,4.3,1.1,6.4,1.9
		c3.6,1.4,4.8,5.3,2.4,8.4c-2.7,3.6-6.6,3.5-10.5,2.9C448.5,155.6,446.7,153.3,446,149.9z"/>
	<path class="st0" d="M354.5,137.4c2.6-2.4,5.1-3,8-2.6c3.3,0.5,5,2.1,5.6,5.4c0.1,0.8,0.2,1.6,0.2,2.4c0,3.5,0,7.1,0,10.6
		c0,2.7-0.1,2.8-1.9,2.8c-1.7,0-1.7-0.1-1.7-3c0-2.5,0-5,0-7.6c0-1.1,0-2.2-0.2-3.3c-0.3-3-1.4-4.2-4-4.3c-2.8-0.1-4.8,1.3-5.3,3.9
		c-0.3,1.6-0.3,3.2-0.3,4.8c-0.1,2.4,0,4.8,0,7.3c0,1.2,0,2.1-1.7,2.2c-1.6,0-1.8-0.7-1.8-2c0-5.6,0-11.3,0-16.9
		c0-0.8-0.3-1.9,1.1-2.1C353.8,135,354.8,135.2,354.5,137.4z"/>
	<path class="st0" d="M487.6,133.9c-2.5,1.5-4.3,3-6.5,3.6c-0.7-2.9-0.8-2.9,1.4-4.2c2.2-1.3,4.1-2.9,5.6-4.9c0.3-0.4,0.6-0.8,1-1.1
		c1-0.6,2,0,2.1,1.2c0.1,2.2,0,4.4,0,6.6c0,6.3,0,12.7,0,19c0,1.3-0.3,2-1.9,2c-1.3,0-1.8-0.5-1.8-1.8c0-4.6,0-9.3,0-13.9
		C487.6,138.4,487.6,136.4,487.6,133.9z"/>
	<path class="st0" d="M346.1,145.8c0,2.8,0,5.6,0,8.5c0,1.2-0.3,1.9-1.7,1.9c-1.5,0-1.9-0.6-1.9-2c0-5.7,0.1-11.5,0-17.2
		c0-1.5,0.7-1.8,2-1.8c1.5,0,1.6,0.9,1.6,2C346.1,139.9,346.1,142.8,346.1,145.8z"/>
	<path class="st0" d="M129.6,141.6c1.1-0.5,2.2-0.3,3.3-0.3c8,0,15.9-0.1,23.9-0.1c2.3,0,2.3-0.1,2.3-2.4c0-18.9,0-37.7,0-56.6
		c0-2.3,0-2.3-2.5-2.4c2.5-0.7,2.9-0.5,3,1.9c0,0.8,0,1.6,0,2.4c0,17.5,0,35,0,52.5c0,0.4,0,0.8,0,1.2c0,3.6-0.1,3.7-3.7,3.7
		C147.1,141.6,138.3,141.6,129.6,141.6z"/>
	<path class="st0" d="M158.8,205.1c0.4-1,0.3-2,0.3-3c0-17.7,0-35.4,0-53.1c0-0.3,0-0.6,0-0.9c-0.1-2.2-0.1-2.3-2.4-2.3
		c-9.3-0.1-18.5-0.1-27.8-0.2c-1.2,0-2.4,0.2-3.6-0.3c10.2,0,20.4,0,30.6,0c3.5,0,3.7,0.2,3.7,3.5c0,17.7,0,35.5,0,53.2
		C159.6,203.1,159.7,204.3,158.8,205.1z"/>
	<path class="st0" d="M104.5,145.2c-2.5,0-5,0.1-7.5,0.1c-1.2,0-1.7,0.4-1.6,1.6c0,0.5,0,1,0,1.5c0,15,0,30,0,45
		c0,1.2-0.3,2.5,1,3.2c-0.9-0.2-1.4-0.7-1.5-1.6c0-0.8-0.1-1.6-0.1-2.4c0-14.6,0-29.1,0-43.7c0-0.3,0-0.6,0-0.9
		c0.1-3.2,0.2-3.4,3.5-3.4C100.3,144.7,102.5,144.2,104.5,145.2z"/>
	<path class="st0" d="M95.5,88.4c-0.1,1-0.2,2-0.2,3c0,15.6,0,31.3,0,46.9c0,1.1-0.1,2.2,0.3,3.3c-1-0.8-0.8-2-0.8-3.1
		c0-15.7,0-31.3,0-47C94.8,90.4,94.7,89.3,95.5,88.4z"/>
	<path class="st0" d="M344.4,127.2c1.7-0.3,1.7,0.8,1.7,2c0,1.2,0,2.2-1.7,2.1c-1.7-0.1-1.9-0.3-1.9-2.2
		C342.4,127.7,342.9,126.9,344.4,127.2z"/>
	<path class="st0" d="M97.2,196.7c1.3-0.1,2.6-0.1,3.8,0.5C99.7,197.3,98.4,197.6,97.2,196.7z"/>
	<path class="st0" d="M114.8,199.1c1.3-0.1,2.6-0.1,3.8,0.5C117.3,199.7,115.9,200,114.8,199.1z"/>
	<path class="st0" d="M128.1,201c1.3-0.1,2.6,0,3.7,0.5C130.6,201.5,129.2,201.8,128.1,201z"/>
	<path class="st0" d="M132.3,201.6c1.3-0.1,2.6-0.1,3.8,0.5C134.8,202.1,133.5,202.4,132.3,201.6z"/>
	<path class="st0" d="M145.6,203.4c1.3-0.1,2.6,0,3.7,0.5C148.1,203.9,146.8,204.2,145.6,203.4z"/>
	<path class="st0" d="M149.9,204c1.3-0.1,2.6-0.1,3.8,0.5C152.4,204.5,151,204.8,149.9,204z"/>
	<path class="st0" d="M102.1,197.4c1.1-0.1,2.2-0.1,3.2,0.5C104.2,197.9,103.1,198.1,102.1,197.4z"/>
	<path class="st0" d="M106.3,198c1.1-0.1,2.3-0.1,3.3,0.5C108.5,198.5,107.3,198.7,106.3,198z"/>
	<path class="st0" d="M110.5,198.6c1.2-0.1,2.3-0.1,3.4,0.5C112.8,199.1,111.6,199.3,110.5,198.6z"/>
	<path class="st0" d="M119.6,199.8c1.1-0.1,2.2-0.1,3.2,0.5C121.7,200.3,120.6,200.5,119.6,199.8z"/>
	<path class="st0" d="M123.9,200.4c1.1-0.1,2.3-0.1,3.3,0.5C126,200.9,124.9,201.1,123.9,200.4z"/>
	<path class="st0" d="M137.2,202.2c1.1-0.1,2.2-0.1,3.2,0.5C139.3,202.7,138.2,202.9,137.2,202.2z"/>
	<path class="st0" d="M141.4,202.8c1.1-0.1,2.3-0.1,3.3,0.5C143.6,203.3,142.4,203.5,141.4,202.8z"/>
	<path class="st0" d="M154.7,204.6c1.1-0.1,2.2-0.1,3.3,0.5C156.9,205.2,155.7,205.3,154.7,204.6z"/>
	<path class="st0" d="M429.6,142.3c-0.1-0.5,0-1,0.6-0.9c0.4,0.1,0.4,0.5,0.3,0.9C430.3,142.3,429.9,142.3,429.6,142.3z"/>
	<path class="st0" d="M424.6,149.5c0.1,0.4,0,0.9-0.4,0.9c-0.6,0.1-0.7-0.4-0.7-0.9C423.9,149.5,424.2,149.5,424.6,149.5z"/>
	<path class="st0" d="M312,150.1c0,0.3,0.1,0.7-0.4,0.7c-0.2,0-0.3-0.4-0.2-0.7C311.7,150.1,311.8,150.1,312,150.1z"/>
	<path class="st0" d="M517.7,133.2c-1-2.9-2.9-5.1-6-5.9c-4.4-1.1-8.3,0.8-10.2,5c-1.3,2.9-1.4,6.1-1.6,9.2
		c0.1,3.4,0.2,6.9,1.7,10.1c1.5,3.2,4.1,4.9,7.7,4.9c3.6,0.1,6.2-1.5,7.9-4.6c1-1.9,1.4-4,1.6-6.1
		C519.2,141.5,519.2,137.2,517.7,133.2z M514.3,149.5c-0.7,2.5-2.6,4-4.7,4c-2.2,0.1-4.2-1.5-5-4.1c-0.2-0.7-0.4-1.4-0.5-2
		c-0.2-1.9-0.3-3.8-0.4-5.7c0.1-2.5,0.1-5,0.9-7.5c0.9-2.6,2.4-4,4.6-4.1c2.3-0.1,4.4,1.3,5.1,3.9
		C515.7,139.2,515.7,144.4,514.3,149.5z"/>
	<path class="st0" d="M390.5,129.1c0-1.4-0.4-2-1.9-2c-1.7,0-1.7,1-1.7,2.2c0,2.4,0,4.8,0,7c-0.8,0.4-1.1,0-1.4-0.2
		c-5.2-3.1-10.7-1-12.6,4.7c-1,2.9-1,6-0.2,8.9c1.4,4.9,5.8,7.5,10.4,6.5c1.4-0.3,2.4-1.4,3.8-1.9c0,1.9,1.2,1.7,2.3,1.7
		c1.2-0.1,1.1-1,1.1-1.8C390.5,145.9,390.4,137.5,390.5,129.1z M386.4,150.3c-0.9,1.9-2.4,3-4.4,3.2c-2.1,0.1-3.8-0.8-4.7-2.7
		c-1.8-3.4-1.7-7-0.1-10.5c0.8-1.8,2.4-2.6,4.4-2.6c2.1,0,3.6,1.1,4.6,2.9c0.9,1.6,1.1,3.4,1,5.3
		C387.2,147.4,387.1,148.9,386.4,150.3z"/>
	<path class="st0" d="M413.7,141.4c-1.2-4.3-4.8-6.8-9.6-6.7c-4.7,0.1-8.2,2.8-9.1,7.3c-0.2,1.2-0.3,2.4-0.4,3.7
		c0.2,1.2,0.2,2.5,0.5,3.8c1,4.2,4.3,6.8,8.7,7c4.6,0.2,8.5-2.1,9.7-6.1C414.5,147.4,414.6,144.4,413.7,141.4z M409.8,149.7
		c-0.9,2.4-2.7,3.7-5.3,3.8c-2.5,0.1-4.5-1.4-5.6-3.9c-0.6-1.3-0.5-2.7-0.6-4.1c0.1-1.4,0.1-2.8,0.7-4.1c1-2.3,3-3.7,5.4-3.7
		c2.4,0,4.4,1.4,5.3,3.7C410.9,144.2,410.8,147,409.8,149.7z"/>
</g>
<rect class="st1" width="609" height="273"/>
</svg>
