<?xml version="1.0" encoding="utf-8"?>
<!-- Generator: Adobe Illustrator 20.0.0, SVG Export Plug-In . SVG Version: 6.00 Build 0)  -->
<svg version="1.1" id="Capa_1" xmlns="http://www.w3.org/2000/svg" xmlns:xlink="http://www.w3.org/1999/xlink" x="0px" y="0px"
	 viewBox="0 0 133.4 24" style="enable-background:new 0 0 133.4 24;" xml:space="preserve">
<style type="text/css">
	.st0{fill:#4EB7CE;}
	.st1{display:none;fill:#4EB7CE;enable-background:new    ;}
	.st2{font-family:'GothamBook';}
	.st3{font-size:5px;}
	.st4{enable-background:new    ;}
</style>
<g id="Capa_2">
</g>
<g id="Capa_1_1_">
	<g>
		<path class="st0" d="M64.8,10.8c1.4,0,3.1,0,4.8,0c1.1,0,1.4,0.6,1.4,1.4c0,5.4-4.3,10.2-9.7,10.8c-6,0.6-11.1-3.1-12.2-9.1
			s3.1-11.7,9.1-12.8c3.7-0.6,6.8,0.6,9.4,2.8c0.6,0.6,0.9,1.4,0.3,2s-1.4,0.6-2,0c-2.8-2-5.4-2.8-8.5-1.7c-3.1,1.1-4.8,3.1-5.4,6.3
			c-1.1,4.3,2,8.8,6.3,9.7c4.5,1.1,9.1-2,9.9-6.3c0-0.3,0-0.6-0.3-0.6c-2.6,0-5.1,0-7.4,0c-0.9,0-1.4-0.6-1.4-1.1
			c0-0.9,0.6-1.4,1.4-1.4C61.7,10.8,63.1,10.8,64.8,10.8z"/>
		<path class="st0" d="M34.7,1.2c6,0,10.8,4.8,11.1,10.5C46.1,18,41,23.1,34.7,23.1S23.6,18,23.6,11.7C23.9,6,28.7,1.2,34.7,1.2z
			 M34.7,4c-4.5,0-8.2,3.7-8.2,8.5c0,4.5,4,8.2,8.5,8c4.3-0.3,8-3.7,8-8.5C42.9,7.7,39.2,4,34.7,4z"/>
		<path class="st0" d="M83.3,5.7c-0.3,0.6-0.6,0.9-0.9,1.4c-2.6,5.1-5.1,10.2-7.7,15.3c-0.3,0.6-0.9,0.9-1.4,0.6
			c-0.6,0-1.1-0.6-1.1-1.1c0-0.3,0-0.6,0.3-1.1c2.6-5.1,5.1-10.2,7.7-15.3c0.6-1.1,1.1-2.3,1.7-3.4c0.3-0.6,0.6-0.9,1.4-0.9
			c0.6,0,1.1,0.3,1.4,0.9c3.1,6.3,6.3,12.5,9.4,18.8c0.3,1.1,0,2-0.9,2.3s-1.4,0-2-0.9c-2.8-5.4-5.4-10.8-8-16.2
			C83.3,6,83.3,6,83.3,5.7z"/>
		<path class="st0" d="M10.5,17.4c0-1.4,0-2.8,0-4.3c0-0.3,0-0.6-0.3-0.9C7.4,9.4,4.5,6.5,2,3.7C1.7,3.4,1.7,3.4,1.4,3.1
			c-0.6-0.6-0.6-1.4,0-2s1.4-0.6,2,0c2.8,2.8,5.4,5.4,8,8.2c0.3,0.3,0.6,0.6,1.1,0c2.8-2.8,5.4-5.4,8-8.2c0.6-0.6,1.4-0.6,2,0
			s0.6,1.1,0.3,1.7l-0.3,0.3c-2.8,2.8-5.7,5.7-8.8,8.8c-0.3,0.3-0.3,0.6-0.3,0.9c0,2.8,0,5.7,0,8.5c0,0.9-0.3,1.1-1.1,1.4
			c-0.6,0.3-1.1,0-1.4-0.6c-0.3-0.3-0.3-0.6-0.3-0.9C10.5,20.2,10.5,18.8,10.5,17.4z"/>
	</g>
	<g>
		<path class="st0" d="M94.2,1h4.3c0.6,0,1.1,0.1,1.6,0.2c0.4,0.1,0.9,0.4,1.1,0.6c0.4,0.4,0.6,1,0.6,1.7l0,0c0,0.3-0.1,0.6-0.1,1
			c-0.1,0.2-0.2,0.5-0.4,0.8c-0.1,0.1-0.3,0.3-0.5,0.4c-0.2,0.1-0.4,0.2-0.6,0.3c0.3,0.1,0.6,0.2,0.9,0.3c0.3,0.1,0.5,0.3,0.8,0.5
			s0.4,0.4,0.5,0.8c0.1,0.3,0.2,0.5,0.2,1l0,0c0,0.4-0.1,0.9-0.2,1.2c-0.2,0.3-0.4,0.6-0.8,0.9c-0.3,0.2-0.8,0.4-1.2,0.5
			c-0.4,0.1-1,0.2-1.5,0.2h-4.7V1z M98.5,5.9c0.4,0,0.8,0,1.1-0.1c0.3-0.1,0.6-0.2,0.9-0.4c0.2-0.2,0.4-0.4,0.5-0.6
			c0.1-0.3,0.2-0.5,0.2-1l0,0c0-0.5-0.2-1.1-0.6-1.4s-1.1-0.5-1.9-0.5h-3.6V6L98.5,5.9L98.5,5.9z M98.9,10.9c0.9,0,1.6-0.2,2.2-0.5
			c0.5-0.4,0.8-0.9,0.8-1.6l0,0c0-0.6-0.3-1.2-0.9-1.5c-0.5-0.3-1.4-0.5-2.4-0.5H95v4.2H98.9z"/>
		<path class="st0" d="M108,11.8c-0.8,0-1.5-0.1-2.2-0.4c-0.6-0.3-1.2-0.8-1.7-1.2c-0.4-0.4-0.8-1.1-1.1-1.7
			c-0.2-0.6-0.4-1.4-0.4-2.1l0,0c0-0.8,0.1-1.4,0.4-2.1c0.2-0.6,0.6-1.2,1.1-1.7c0.4-0.5,1.1-0.9,1.7-1.2c0.6-0.3,1.4-0.4,2.2-0.4
			s1.5,0.1,2.2,0.4s1.2,0.8,1.7,1.2c0.5,0.4,0.8,1.1,1.1,1.7c0.2,0.6,0.4,1.4,0.4,2.1l0,0c0,0.8-0.1,1.4-0.4,2.1
			c-0.2,0.6-0.6,1.2-1.1,1.7c-0.4,0.5-1.1,0.9-1.7,1.2C109.5,11.6,108.7,11.8,108,11.8z M108,11c0.6,0,1.3-0.1,1.8-0.3
			c0.5-0.2,1.1-0.5,1.4-1c0.4-0.4,0.8-1,1-1.5c0.2-0.5,0.3-1.2,0.3-1.8l0,0c0-0.6-0.1-1.3-0.3-1.8c-0.2-0.5-0.5-1.1-1-1.5
			s-0.9-0.8-1.4-1.1c-0.5-0.2-1.2-0.4-1.8-0.4s-1.3,0.1-1.8,0.3c-0.5,0.2-1.1,0.5-1.4,1c-0.4,0.4-0.8,1-1,1.5s-0.3,1.2-0.3,1.8l0,0
			c0,0.6,0.1,1.3,0.3,1.8c0.2,0.5,0.5,1.1,1,1.5c0.4,0.4,0.9,0.8,1.4,1.1C106.7,10.9,107.3,11,108,11z"/>
		<path class="st0" d="M118.7,11.8c-0.8,0-1.5-0.1-2.2-0.4c-0.6-0.3-1.2-0.8-1.7-1.2c-0.4-0.4-0.8-1.1-1.1-1.7
			c-0.2-0.6-0.4-1.4-0.4-2.1l0,0c0-0.8,0.1-1.4,0.4-2.1c0.2-0.6,0.6-1.2,1.1-1.7s1.1-0.9,1.7-1.2c0.6-0.3,1.4-0.4,2.2-0.4
			c0.8,0,1.5,0.1,2.2,0.4c0.6,0.3,1.2,0.8,1.7,1.2c0.5,0.4,0.8,1.1,1.1,1.7c0.2,0.6,0.4,1.4,0.4,2.1l0,0c0,0.8-0.1,1.4-0.4,2.1
			c-0.2,0.6-0.6,1.2-1.1,1.7c-0.4,0.5-1.1,0.9-1.7,1.2C120.2,11.6,119.4,11.8,118.7,11.8z M118.7,11c0.6,0,1.3-0.1,1.8-0.3
			c0.5-0.2,1.1-0.5,1.4-1c0.4-0.4,0.8-1,1-1.5c0.2-0.5,0.3-1.2,0.3-1.8l0,0c0-0.6-0.1-1.3-0.3-1.8c-0.2-0.5-0.5-1.1-1-1.5
			c-0.4-0.4-0.9-0.8-1.4-1.1c-0.5-0.2-1.2-0.4-1.8-0.4c-0.6,0-1.3,0.1-1.8,0.3c-0.5,0.2-1.1,0.5-1.4,1c-0.4,0.4-0.8,1-1,1.5
			c-0.2,0.5-0.3,1.2-0.3,1.8l0,0c0,0.6,0.1,1.3,0.3,1.8c0.2,0.5,0.5,1.1,1,1.5c0.4,0.4,0.9,0.8,1.4,1.1C117.5,10.9,118,11,118.7,11z
			"/>
		<path class="st0" d="M124.5,1h0.8v7l6.8-7h1.1l-4.7,4.7l4.9,6h-1.1L128,6.2l-2.7,2.7v2.7h-0.8V1L124.5,1z"/>
	</g>
</g>
<text transform="matrix(1 0 0 1 93.9014 16.9398)" class="st1 st2 st3">CON ANDROID</text>
<g class="st4">
	<path class="st0" d="M96.1,17.1c-0.3,0-0.5,0-0.7-0.1c-0.2-0.1-0.4-0.2-0.6-0.4c-0.2-0.2-0.3-0.4-0.4-0.6c-0.1-0.2-0.1-0.5-0.1-0.7
		v0c0-0.3,0-0.5,0.1-0.7c0.1-0.2,0.2-0.4,0.4-0.6c0.2-0.2,0.4-0.3,0.6-0.4c0.2-0.1,0.5-0.1,0.7-0.1c0.2,0,0.3,0,0.4,0
		c0.1,0,0.3,0.1,0.4,0.1c0.1,0,0.2,0.1,0.3,0.2c0.1,0.1,0.2,0.1,0.3,0.2l-0.3,0.3c-0.2-0.1-0.3-0.3-0.5-0.4
		c-0.2-0.1-0.4-0.1-0.6-0.1c-0.2,0-0.4,0-0.6,0.1c-0.2,0.1-0.3,0.2-0.4,0.3c-0.1,0.1-0.2,0.3-0.3,0.5c-0.1,0.2-0.1,0.4-0.1,0.6v0
		c0,0.2,0,0.4,0.1,0.6c0.1,0.2,0.2,0.3,0.3,0.5c0.1,0.1,0.3,0.2,0.4,0.3c0.2,0.1,0.4,0.1,0.6,0.1c0.2,0,0.5,0,0.6-0.1
		c0.2-0.1,0.4-0.2,0.5-0.4l0.3,0.3c-0.1,0.1-0.2,0.2-0.3,0.3c-0.1,0.1-0.2,0.1-0.3,0.2c-0.1,0.1-0.2,0.1-0.4,0.1
		C96.4,17.1,96.2,17.1,96.1,17.1z"/>
	<path class="st0" d="M99.9,17.1c-0.3,0-0.5,0-0.8-0.1c-0.2-0.1-0.4-0.2-0.6-0.4c-0.2-0.2-0.3-0.4-0.4-0.6c-0.1-0.2-0.1-0.5-0.1-0.7
		v0c0-0.2,0-0.5,0.1-0.7c0.1-0.2,0.2-0.4,0.4-0.6c0.2-0.2,0.4-0.3,0.6-0.4c0.2-0.1,0.5-0.2,0.8-0.2s0.5,0,0.8,0.1s0.4,0.2,0.6,0.4
		c0.2,0.2,0.3,0.4,0.4,0.6c0.1,0.2,0.1,0.5,0.1,0.7c0,0,0,0,0,0c0,0.2,0,0.5-0.1,0.7c-0.1,0.2-0.2,0.4-0.4,0.6
		c-0.2,0.2-0.4,0.3-0.6,0.4C100.4,17.1,100.2,17.1,99.9,17.1z M99.9,16.8c0.2,0,0.4,0,0.6-0.1c0.2-0.1,0.3-0.2,0.4-0.3
		c0.1-0.1,0.2-0.3,0.3-0.5c0.1-0.2,0.1-0.4,0.1-0.6v0c0-0.2,0-0.4-0.1-0.6c-0.1-0.2-0.2-0.3-0.3-0.5c-0.1-0.1-0.3-0.2-0.5-0.3
		c-0.2-0.1-0.4-0.1-0.6-0.1c-0.2,0-0.4,0-0.6,0.1c-0.2,0.1-0.3,0.2-0.4,0.3c-0.1,0.1-0.2,0.3-0.3,0.5c-0.1,0.2-0.1,0.4-0.1,0.6v0
		c0,0.2,0,0.4,0.1,0.6c0.1,0.2,0.2,0.3,0.3,0.5c0.1,0.1,0.3,0.2,0.5,0.3C99.5,16.7,99.7,16.8,99.9,16.8z"/>
	<path class="st0" d="M102.6,13.4h0.4l2.3,2.9v-2.9h0.4v3.6h-0.3l-2.3-3v3h-0.4V13.4z"/>
	<path class="st0" d="M109.6,13.4h0.4l1.7,3.7h-0.4l-0.4-1h-2l-0.4,1H108L109.6,13.4z M110.6,15.7l-0.8-1.9l-0.8,1.9H110.6z"/>
	<path class="st0" d="M112.4,13.4h0.4l2.3,2.9v-2.9h0.4v3.6h-0.3l-2.3-3v3h-0.4V13.4z"/>
	<path class="st0" d="M116.5,13.4h1.3c0.3,0,0.5,0,0.8,0.1c0.2,0.1,0.4,0.2,0.6,0.4s0.3,0.4,0.4,0.6c0.1,0.2,0.1,0.5,0.1,0.7v0
		c0,0.3,0,0.5-0.1,0.7c-0.1,0.2-0.2,0.4-0.4,0.6c-0.2,0.2-0.4,0.3-0.6,0.4c-0.2,0.1-0.5,0.1-0.8,0.1h-1.3V13.4z M117.7,16.7
		c0.2,0,0.4,0,0.6-0.1c0.2-0.1,0.3-0.2,0.5-0.3c0.1-0.1,0.2-0.3,0.3-0.5c0.1-0.2,0.1-0.4,0.1-0.6v0c0-0.2,0-0.4-0.1-0.6
		c-0.1-0.2-0.2-0.3-0.3-0.5c-0.1-0.1-0.3-0.2-0.5-0.3c-0.2-0.1-0.4-0.1-0.6-0.1h-0.9v2.9H117.7z"/>
	<path class="st0" d="M120.5,13.4h1.6c0.2,0,0.4,0,0.6,0.1c0.2,0.1,0.3,0.2,0.4,0.3c0.1,0.1,0.2,0.2,0.2,0.3c0,0.1,0.1,0.3,0.1,0.4
		v0c0,0.2,0,0.3-0.1,0.4c0,0.1-0.1,0.2-0.2,0.3s-0.2,0.2-0.3,0.2c-0.1,0.1-0.3,0.1-0.4,0.1l1.1,1.5H123l-1.1-1.4h0h-1v1.4h-0.4V13.4
		z M122.1,15.3c0.1,0,0.3,0,0.4-0.1c0.1,0,0.2-0.1,0.3-0.1c0.1-0.1,0.1-0.1,0.2-0.2c0-0.1,0.1-0.2,0.1-0.3v0c0-0.2-0.1-0.4-0.2-0.5
		c-0.2-0.1-0.4-0.2-0.7-0.2H121v1.5H122.1z"/>
	<path class="st0" d="M126,17.1c-0.3,0-0.5,0-0.8-0.1c-0.2-0.1-0.4-0.2-0.6-0.4c-0.2-0.2-0.3-0.4-0.4-0.6c-0.1-0.2-0.1-0.5-0.1-0.7
		v0c0-0.2,0-0.5,0.1-0.7c0.1-0.2,0.2-0.4,0.4-0.6c0.2-0.2,0.4-0.3,0.6-0.4c0.2-0.1,0.5-0.2,0.8-0.2s0.5,0,0.8,0.1s0.4,0.2,0.6,0.4
		c0.2,0.2,0.3,0.4,0.4,0.6c0.1,0.2,0.1,0.5,0.1,0.7c0,0,0,0,0,0c0,0.2,0,0.5-0.1,0.7c-0.1,0.2-0.2,0.4-0.4,0.6
		c-0.2,0.2-0.4,0.3-0.6,0.4C126.5,17.1,126.3,17.1,126,17.1z M126,16.8c0.2,0,0.4,0,0.6-0.1c0.2-0.1,0.3-0.2,0.4-0.3
		c0.1-0.1,0.2-0.3,0.3-0.5c0.1-0.2,0.1-0.4,0.1-0.6v0c0-0.2,0-0.4-0.1-0.6c-0.1-0.2-0.2-0.3-0.3-0.5c-0.1-0.1-0.3-0.2-0.5-0.3
		c-0.2-0.1-0.4-0.1-0.6-0.1c-0.2,0-0.4,0-0.6,0.1c-0.2,0.1-0.3,0.2-0.4,0.3c-0.1,0.1-0.2,0.3-0.3,0.5c-0.1,0.2-0.1,0.4-0.1,0.6v0
		c0,0.2,0,0.4,0.1,0.6s0.2,0.3,0.3,0.5c0.1,0.1,0.3,0.2,0.5,0.3C125.6,16.7,125.8,16.8,126,16.8z"/>
	<path class="st0" d="M128.7,13.4h0.4v3.6h-0.4V13.4z"/>
	<path class="st0" d="M130.2,13.4h1.3c0.3,0,0.5,0,0.8,0.1c0.2,0.1,0.4,0.2,0.6,0.4c0.2,0.2,0.3,0.4,0.4,0.6
		c0.1,0.2,0.1,0.5,0.1,0.7v0c0,0.3,0,0.5-0.1,0.7c-0.1,0.2-0.2,0.4-0.4,0.6c-0.2,0.2-0.4,0.3-0.6,0.4c-0.2,0.1-0.5,0.1-0.8,0.1h-1.3
		V13.4z M131.5,16.7c0.2,0,0.4,0,0.6-0.1c0.2-0.1,0.3-0.2,0.5-0.3c0.1-0.1,0.2-0.3,0.3-0.5c0.1-0.2,0.1-0.4,0.1-0.6v0
		c0-0.2,0-0.4-0.1-0.6c-0.1-0.2-0.2-0.3-0.3-0.5c-0.1-0.1-0.3-0.2-0.5-0.3c-0.2-0.1-0.4-0.1-0.6-0.1h-0.9v2.9H131.5z"/>
</g>
</svg>
