<?xml version="1.0" encoding="utf-8"?>
<!-- Generator: Adobe Illustrator 20.0.0, SVG Export Plug-In . SVG Version: 6.00 Build 0)  -->
<svg version="1.1" id="Capa_1" xmlns="http://www.w3.org/2000/svg" xmlns:xlink="http://www.w3.org/1999/xlink" x="0px" y="0px"
	 viewBox="0 0 134.8 55.5" style="enable-background:new 0 0 134.8 55.5;" xml:space="preserve">
<style type="text/css">
	.st0{opacity:0.83;}
	.st1{fill:#FFFFFF;}
</style>
<g class="st0">
	<g>
		<path class="st1" d="M70.4,28.8c1.7,0,3.4,0,5.2,0c1.1,0,1.6,0.6,1.6,1.6c0,6-4.7,11.3-10.7,11.9c-6.5,0.7-12.2-3.5-13.4-10
			s3.5-13,10-14c4-0.6,7.5,0.5,10.4,3.2c0.7,0.7,0.8,1.6,0.2,2.2c-0.6,0.7-1.5,0.6-2.3-0.1c-2.7-2.4-5.7-3.2-9.1-2.1
			c-3.3,1.1-5.4,3.4-6.1,6.8c-1.1,4.8,2.2,9.7,6.9,10.7c5,1.1,9.9-2.1,10.9-7c0.1-0.4,0-0.5-0.4-0.5c-2.8,0-5.6,0-8.3,0
			c-1,0-1.7-0.6-1.7-1.4c0-0.9,0.6-1.5,1.5-1.6C66.9,28.8,68.7,28.8,70.4,28.8z"/>
		<path class="st1" d="M37.3,18.1c6.7,0,11.9,5.4,12.1,11.7c0.2,6.9-5.4,12.5-12.1,12.5c-6.8,0-12.2-5.6-12.1-12.4
			C25.2,23.5,30.7,18.1,37.3,18.1z M37.2,21.1c-5.1,0-9.2,4.1-9.1,9.3c0.1,5.1,4.4,9.1,9.5,8.9c4.7-0.2,8.8-4.1,8.7-9.3
			C46.3,25.2,42.1,21.1,37.2,21.1z"/>
		<path class="st1" d="M90.7,23.1c-0.3,0.6-0.5,1-0.8,1.5c-2.8,5.6-5.6,11.2-8.4,16.8c-0.4,0.7-1,1.1-1.7,1
			c-0.6-0.1-1.1-0.6-1.3-1.3c-0.1-0.4,0.1-0.7,0.2-1.1c2.8-5.6,5.6-11.3,8.5-16.9c0.6-1.3,1.3-2.6,1.9-3.9c0.3-0.6,0.7-1,1.5-1
			c0.7,0,1.2,0.4,1.5,1c3.5,6.9,6.9,13.9,10.4,20.8c0.5,0.9,0.2,1.8-0.6,2.2c-0.8,0.4-1.7,0.1-2.1-0.9c-3-5.9-5.9-11.9-8.9-17.8
			C90.8,23.5,90.8,23.3,90.7,23.1z"/>
		<path class="st1" d="M10.6,36c0-1.5,0-3.1,0-4.6c0-0.4-0.1-0.7-0.4-0.9C7.1,27.4,4,24.3,1,21.2c-0.2-0.2-0.3-0.3-0.5-0.5
			c-0.6-0.6-0.6-1.6,0-2.2C1,18,2,18,2.6,18.6c3,3,6,6,8.9,9c0.4,0.4,0.6,0.5,1.1,0c3-3,5.9-6,8.9-9c0.6-0.6,1.5-0.7,2.1-0.1
			c0.6,0.5,0.7,1.4,0.3,2c-0.1,0.1-0.2,0.3-0.4,0.4c-3.2,3.2-6.4,6.4-9.6,9.6c-0.3,0.3-0.4,0.6-0.4,0.9c0,3.1,0,6.2,0,9.3
			c0,0.8-0.4,1.4-1.1,1.6c-0.6,0.2-1.4-0.1-1.7-0.7c-0.2-0.3-0.2-0.6-0.2-0.9C10.6,39.2,10.6,37.6,10.6,36z"/>
	</g>
</g>
<g>
	<path class="st1" d="M106.9,30.4c-0.8,0-1.6-0.2-2.3-0.6c-0.7-0.4-1.3-0.8-1.8-1.3l0.6-0.6c0.5,0.5,1.1,1,1.7,1.3
		c0.6,0.3,1.2,0.5,1.8,0.5c0.5,0,0.9-0.1,1.3-0.2c0.4-0.2,0.7-0.4,1-0.6c0.3-0.3,0.5-0.6,0.6-0.9c0.2-0.4,0.2-0.7,0.2-1.2v0
		c0-0.4-0.1-0.8-0.2-1.1c-0.2-0.3-0.4-0.6-0.7-0.9s-0.6-0.4-1-0.6c-0.4-0.1-0.8-0.2-1.3-0.2c-0.5,0-1,0.1-1.5,0.2
		c-0.4,0.1-0.8,0.3-1.2,0.5l-0.7-0.4l0.3-5.7h6.6v0.8h-5.8l-0.3,4.4c0.4-0.2,0.8-0.3,1.2-0.5c0.4-0.1,0.9-0.2,1.4-0.2
		c0.6,0,1.1,0.1,1.6,0.3c0.5,0.2,0.9,0.4,1.3,0.7c0.4,0.3,0.7,0.7,0.9,1.1c0.2,0.4,0.3,0.9,0.3,1.4v0c0,0.6-0.1,1.1-0.3,1.5
		c-0.2,0.5-0.5,0.9-0.9,1.2c-0.4,0.3-0.8,0.6-1.3,0.8C108,30.3,107.5,30.4,106.9,30.4z"/>
	<path class="st1" d="M117.9,30.4c-0.8,0-1.4-0.2-2-0.5s-1.1-0.8-1.5-1.3c-0.4-0.6-0.7-1.2-1-1.9c-0.2-0.7-0.3-1.5-0.3-2.3v0
		c0-0.8,0.1-1.6,0.3-2.3c0.2-0.7,0.6-1.4,1-1.9c0.4-0.6,0.9-1,1.5-1.3c0.6-0.3,1.3-0.5,2-0.5s1.4,0.2,2,0.5c0.6,0.3,1.1,0.8,1.5,1.3
		c0.4,0.6,0.7,1.2,1,1.9c0.2,0.7,0.3,1.5,0.3,2.3v0c0,0.8-0.1,1.6-0.3,2.3c-0.2,0.7-0.6,1.4-1,1.9c-0.4,0.6-0.9,1-1.5,1.3
		C119.4,30.3,118.7,30.4,117.9,30.4z M118,29.6c0.6,0,1.2-0.1,1.6-0.4c0.5-0.3,0.9-0.7,1.2-1.2c0.3-0.5,0.6-1.1,0.8-1.7
		c0.2-0.6,0.3-1.3,0.3-2v0c0-0.7-0.1-1.3-0.3-2c-0.2-0.6-0.5-1.2-0.8-1.7c-0.3-0.5-0.8-0.9-1.3-1.2c-0.5-0.3-1-0.4-1.7-0.4
		c-0.6,0-1.2,0.1-1.6,0.4c-0.5,0.3-0.9,0.7-1.2,1.2c-0.3,0.5-0.6,1.1-0.8,1.7c-0.2,0.6-0.3,1.3-0.3,2v0c0,0.7,0.1,1.3,0.3,2
		c0.2,0.6,0.5,1.2,0.8,1.7c0.3,0.5,0.8,0.9,1.3,1.2C116.8,29.5,117.4,29.6,118,29.6z"/>
	<path class="st1" d="M129.9,30.4c-0.8,0-1.4-0.2-2-0.5c-0.6-0.3-1.1-0.8-1.5-1.3s-0.7-1.2-1-1.9c-0.2-0.7-0.3-1.5-0.3-2.3v0
		c0-0.8,0.1-1.6,0.3-2.3c0.2-0.7,0.6-1.4,1-1.9c0.4-0.6,0.9-1,1.5-1.3c0.6-0.3,1.3-0.5,2-0.5s1.4,0.2,2,0.5c0.6,0.3,1.1,0.8,1.5,1.3
		c0.4,0.6,0.7,1.2,1,1.9c0.2,0.7,0.3,1.5,0.3,2.3v0c0,0.8-0.1,1.6-0.3,2.3s-0.6,1.4-1,1.9c-0.4,0.6-0.9,1-1.5,1.3
		C131.3,30.3,130.7,30.4,129.9,30.4z M129.9,29.6c0.6,0,1.2-0.1,1.6-0.4c0.5-0.3,0.9-0.7,1.2-1.2c0.3-0.5,0.6-1.1,0.8-1.7
		c0.2-0.6,0.3-1.3,0.3-2v0c0-0.7-0.1-1.3-0.3-2c-0.2-0.6-0.5-1.2-0.8-1.7c-0.3-0.5-0.8-0.9-1.3-1.2c-0.5-0.3-1-0.4-1.7-0.4
		c-0.6,0-1.2,0.1-1.6,0.4c-0.5,0.3-0.9,0.7-1.2,1.2c-0.3,0.5-0.6,1.1-0.8,1.7c-0.2,0.6-0.3,1.3-0.3,2v0c0,0.7,0.1,1.3,0.3,2
		c0.2,0.6,0.5,1.2,0.8,1.7c0.3,0.5,0.8,0.9,1.3,1.2C128.8,29.5,129.3,29.6,129.9,29.6z"/>
</g>
</svg>
