<?xml version="1.0" encoding="utf-8"?>
<!-- Generator: Adobe Illustrator 20.0.0, SVG Export Plug-In . SVG Version: 6.00 Build 0)  -->
<svg version="1.1" id="Capa_1" xmlns="http://www.w3.org/2000/svg" xmlns:xlink="http://www.w3.org/1999/xlink" x="0px" y="0px"
	 viewBox="0 0 592.8 160" style="enable-background:new 0 0 592.8 160;" xml:space="preserve">
<style type="text/css">
	.st0{fill:#FFFFFF;}
</style>
<g>
	<path class="st0" d="M302.8,82.5c0,7.2-5.8,12.9-12.9,12.9c-5.4,0-9.9-3.3-11.9-7.9c0,0,0,0,0-0.1c-0.6-1.5-1-3.2-1-5
		c0-1.6,0.3-3.1,0.8-4.5c1.8-5,6.5-8.5,12.1-8.5c7.1,0,12.8,5.8,12.9,12.9V82.5z M302.8,43.4v20.1c-3.7-2.5-8.1-4-12.9-4
		c-12.7,0-22.9,10.3-22.9,23s10.2,23,22.9,23c12.6,0,22.9-10.3,22.9-23V43.4H302.8z M56.2,82.5c0,7.2-5.8,12.9-12.9,12.9
		c-5.5,0-10.3-3.5-12.1-8.4l0,0c-0.5-1.4-0.8-2.9-0.8-4.5c0-1.5,0.3-3,0.7-4.3c1.8-5,6.6-8.7,12.2-8.7
		C50.4,69.5,56.1,75.3,56.2,82.5C56.2,82.4,56.2,82.5,56.2,82.5z M56.2,43.4v20c-3.7-2.5-8.1-4-12.9-4c-12.6,0-22.9,10.3-22.9,23
		s10.3,23,22.9,23s22.9-10.3,22.9-23v-39H56.2z M253.4,82.5c0,7.2-5.8,13-12.9,13c-7.1,0-12.9-5.8-12.9-13s5.8-13,12.9-13
		C247.6,69.5,253.4,75.3,253.4,82.5L253.4,82.5z M240.5,59.5c-12.7,0-22.9,10.3-22.9,23s10.3,23,22.9,23c4.8,0,9.2-1.5,12.9-4v3.1
		h10V82.5C263.4,69.8,253.1,59.5,240.5,59.5 M141.2,95.5c-7.1,0-12.9-5.8-12.9-13s5.8-13,12.9-13c7.1,0,12.9,5.8,12.9,13l0,0
		C154.1,89.7,148.3,95.5,141.2,95.5 M141.2,59.5c-12.6,0-22.9,10.3-22.9,23s10.2,23,22.9,23c4.8,0,9.2-1.5,12.9-4v3.1h10V82.5
		C164.1,69.8,153.8,59.5,141.2,59.5 M115.3,78.2c-2-10.7-11.3-18.7-22.5-18.7c-12.6,0-22.9,10.3-22.9,23s11.5,23,24.1,23
		c7.4,0,15.9-3.8,20-9.3l-7.4-5.9c-2.4,3.1-8.5,5.1-12.7,5.1c-3.7,0-8.3-1.6-10.6-4.1L115,78.2v-0.1L115.3,78.2z M102.7,74.2
		l-22.8,9.4c0-0.4-0.1-0.7-0.1-1.1c0-7.2,5.8-13,12.9-13C96.8,69.5,100.3,71.3,102.7,74.2 M6.8,60.3h10v44.3h-10
		C6.8,104.6,6.8,60.3,6.8,60.3z M11.8,55.6c-3.8,0-6.8-3-6.8-6.8S8,42,11.8,42s6.8,3,6.8,6.8C18.6,52.5,15.5,55.6,11.8,55.6"/>
	<path class="st0" d="M190.9,95.5c-7.1,0-12.9-5.8-12.9-13l0,0c0-7.2,5.8-13,12.9-13c7.1,0,12.9,5.8,12.9,13
		C203.9,89.7,198.1,95.5,190.9,95.5 M190.9,59.5c-12.6,0-22.9,10.3-22.9,23V118h10v-16.5c3.7,2.5,8.1,4,12.9,4
		c12.7,0,22.9-10.3,22.9-23C213.8,69.8,203.6,59.5,190.9,59.5"/>
</g>
<g>
	<path class="st0" d="M321.9,60.4h3.1l17.9,26.4l17.9-26.4h3.1V105h-3.3V66.2L343,91.9h-0.3l-17.6-25.7v38.7h-3.2V60.4z"/>
	<path class="st0" d="M377.6,60.4h3.3V105h-3.3V60.4z"/>
	<path class="st0" d="M395.1,60.4h3.3V105h-3.3V60.4z"/>
	<path class="st0" d="M426.5,82.2l-17.1-21.8h3.9L428.5,80l15.2-19.6h3.9l-17.1,21.8l17.7,22.8h-3.9l-15.9-20.6L412.6,105h-3.9
		L426.5,82.2z"/>
	<path class="st0" d="M500.7,63.6h-25.8v-3.2h29.5v2.4l-20.3,42.1h-3.6L500.7,63.6z"/>
	<path class="st0" d="M530.4,105.7c-2.8,0-5.4-0.6-7.7-1.8s-4.2-2.9-5.8-5s-2.8-4.5-3.7-7.3c-0.8-2.8-1.3-5.7-1.3-8.8v-0.1
		c0-3.1,0.4-6,1.3-8.8c0.9-2.8,2.1-5.3,3.7-7.4s3.6-3.8,5.8-5c2.3-1.3,4.8-1.9,7.7-1.9c2.8,0,5.4,0.6,7.7,1.8s4.2,2.9,5.8,5
		s2.8,4.5,3.7,7.3c0.8,2.8,1.3,5.7,1.3,8.8v0.1c0,3.1-0.4,6-1.3,8.8c-0.9,2.8-2.1,5.2-3.7,7.4c-1.6,2.1-3.6,3.8-5.8,5
		C535.8,105.1,533.2,105.7,530.4,105.7z M530.5,102.7c2.3,0,4.4-0.6,6.2-1.7s3.4-2.6,4.7-4.4s2.3-4,3-6.4s1.1-4.9,1.1-7.5v-0.1
		c0-2.6-0.4-5.1-1.1-7.5c-0.7-2.4-1.7-4.6-3-6.4s-2.9-3.3-4.8-4.5c-1.9-1.1-3.9-1.7-6.2-1.7s-4.4,0.6-6.2,1.7
		c-1.8,1.1-3.4,2.6-4.7,4.4s-2.3,4-3,6.4s-1.1,4.9-1.1,7.5v0.1c0,2.6,0.4,5.1,1.1,7.5c0.7,2.4,1.7,4.5,3,6.4s2.9,3.4,4.8,4.5
		C526.1,102.1,528.2,102.7,530.5,102.7z"/>
	<path class="st0" d="M575.6,105.7c-2.8,0-5.4-0.6-7.7-1.8c-2.3-1.2-4.2-2.9-5.8-5s-2.8-4.5-3.7-7.3c-0.8-2.8-1.3-5.7-1.3-8.8v-0.1
		c0-3.1,0.4-6,1.3-8.8c0.9-2.8,2.1-5.3,3.7-7.4c1.6-2.1,3.6-3.8,5.8-5c2.3-1.3,4.8-1.9,7.7-1.9c2.8,0,5.4,0.6,7.7,1.8s4.2,2.9,5.8,5
		s2.8,4.5,3.7,7.3s1.3,5.7,1.3,8.8v0.1c0,3.1-0.4,6-1.3,8.8c-0.9,2.8-2.1,5.2-3.7,7.4c-1.6,2.1-3.6,3.8-5.8,5
		C581,105.1,578.4,105.7,575.6,105.7z M575.7,102.7c2.3,0,4.4-0.6,6.2-1.7s3.4-2.6,4.7-4.4s2.3-4,3-6.4s1-4.9,1-7.5v-0.1
		c0-2.6-0.3-5.1-1-7.5s-1.7-4.6-3-6.4s-2.9-3.3-4.8-4.5c-1.9-1.1-3.9-1.7-6.2-1.7s-4.4,0.6-6.2,1.7c-1.8,1.1-3.4,2.6-4.7,4.4
		s-2.3,4-3,6.4s-1,4.9-1,7.5v0.1c0,2.6,0.3,5.1,1,7.5s1.7,4.5,3,6.4s2.9,3.4,4.8,4.5C571.3,102.1,573.4,102.7,575.7,102.7z"/>
</g>
</svg>
