<?xml version="1.0" encoding="utf-8"?>
<!-- Generator: Adobe Illustrator 20.0.0, SVG Export Plug-In . SVG Version: 6.00 Build 0)  -->
<svg version="1.1" xmlns="http://www.w3.org/2000/svg" xmlns:xlink="http://www.w3.org/1999/xlink" x="0px" y="0px"
	 viewBox="0 0 335.7 63.2" style="enable-background:new 0 0 335.7 63.2;" xml:space="preserve">
<style type="text/css">
	.st0{fill:#B44475;}
	.st1{display:none;}
	.st2{display:inline;}
	.st3{fill:#4DA7BC;}
</style>
<g id="Capa_1">
	<g id="Capa_2_1_">
		<g>
			<path class="st0" d="M140.6,44.5c-6,0-10.8-4.9-10.8-10.9l0,0c0-6,4.8-10.9,10.8-10.9c6,0,10.8,4.9,10.8,10.9
				C151.4,39.7,146.5,44.5,140.6,44.5 M140.6,14.4c-4,0-7.7,1.3-10.8,3.4V0.9h-8.4v32.7c0,10.7,8.6,19.3,19.2,19.3
				c10.5,0,19.2-8.6,19.2-19.3C159.7,23,151.1,14.4,140.6,14.4"/>
			<path class="st0" d="M19.2,44.5c-6,0-10.8-4.8-10.8-10.9l0,0c0-6,4.8-10.9,10.8-10.9S30,27.6,30,33.7
				C30.1,39.7,25.2,44.5,19.2,44.5 M19.2,14.4C8.6,14.4,0.1,23,0.1,33.7v29.7h8.4V49.6c3.1,2.1,6.8,3.3,10.8,3.3
				c10.6,0,19.2-8.6,19.2-19.3C38.4,23,29.8,14.4,19.2,14.4"/>
			<path class="st0" d="M109.9,33.7c0,6-4.8,10.9-10.8,10.9c-6,0-10.8-4.9-10.8-10.9c0-6,4.8-10.9,10.8-10.9
				C105,22.7,109.9,27.6,109.9,33.7L109.9,33.7z M99.1,14.4c-10.6,0-19.2,8.6-19.2,19.3s8.6,19.3,19.2,19.3c4,0,7.7-1.3,10.8-3.3
				v2.6h8.3V33.7C118.2,23,109.6,14.4,99.1,14.4"/>
			<path class="st0" d="M76.6,32L76.6,32c0-0.1,0-0.1,0-0.1c0-9.7-7.8-17.5-17.5-17.5c-3.4,0-6.5,1-9.1,2.6V0.9h-8.4v51.3h8.3
				l0.1-6.5V32c0-5,4.1-9.1,9.1-9.1c5,0,9.1,4.1,9.1,9.1v0.1v20.1h8.4V32H76.6z"/>
		</g>
		<g>
			<path class="st0" d="M168.3,49.7l13.7-12.3c1.5-1.3,2.7-2.6,3.8-3.7s1.9-2.2,2.5-3.1c0.7-1,1.1-1.9,1.4-2.8
				c0.3-0.9,0.4-1.9,0.4-2.8c0-1.2-0.3-2.3-0.7-3.3c-0.5-1-1.1-1.8-1.8-2.5c-0.8-0.7-1.6-1.2-2.6-1.6s-2-0.5-3.1-0.5
				c-2.3,0-4.3,0.6-6,1.8c-1.6,1.2-3.2,2.8-4.7,5l-2-1.3c0.8-1.2,1.6-2.3,2.5-3.3c0.9-0.9,1.8-1.8,2.8-2.5c1.1-0.7,2.2-1.2,3.4-1.6
				c1.3-0.4,2.7-0.6,4.3-0.6c1.6,0,3,0.3,4.3,0.8s2.4,1.2,3.4,2.1c1,0.9,1.8,2,2.3,3.2c0.6,1.2,0.8,2.6,0.8,3.9v0.1
				c0,1.3-0.2,2.4-0.5,3.5c-0.4,1.1-0.9,2.2-1.6,3.3s-1.7,2.3-2.8,3.4s-2.5,2.5-4.1,3.9l-11.2,10.1h20.7v2.6h-25v-2h-0.2V49.7z"/>
			<path class="st0" d="M204.1,15.1h13.3c2,0,3.8,0.3,5.5,0.8c1.6,0.5,3.1,1.2,4.3,2.2c1.2,1,2.2,2.2,2.8,3.5c0.7,1.4,1,3,1,4.7v0.1
				c0,1.9-0.4,3.6-1.2,5c-0.8,1.5-1.8,2.7-3.1,3.7c-1.3,1-2.8,1.7-4.5,2.2c-1.8,0.5-3.5,0.8-5.5,0.8h-9.9v13.7h-2.7V15.1z
				 M216.8,35.6c1.7,0,3.3-0.3,4.6-0.7c1.4-0.4,2.6-1.1,3.6-1.8c1-0.8,1.8-1.8,2.3-2.8c0.6-1.1,0.8-2.4,0.8-3.7v-0.1
				c0-1.5-0.3-2.7-0.8-3.8c-0.5-1.1-1.3-2-2.3-2.7c-1-0.8-2.2-1.3-3.5-1.7s-2.8-0.6-4.5-0.6h-10.3v18L216.8,35.6L216.8,35.6
				L216.8,35.6z"/>
			<path class="st0" d="M239,15.1h2.7v34.1h21.5v2.4H239L239,15.1L239,15.1z"/>
			<path class="st0" d="M285.8,52.3c-2.2,0-4.2-0.4-6.1-1.1c-1.8-0.7-3.4-1.7-4.7-3c-1.3-1.3-2.4-3-3.1-4.9c-0.8-2-1.1-4.2-1.1-6.8
				V15.1h2.7v21.1c0,4.3,1.1,7.7,3.3,10c2.2,2.3,5.2,3.5,9.1,3.5c1.9,0,3.5-0.3,5-0.8c1.5-0.6,2.8-1.4,3.8-2.5s1.9-2.5,2.4-4.2
				c0.6-1.7,0.9-3.6,0.9-5.8V15.1h2.7v21c0,2.6-0.4,4.9-1.1,6.9c-0.8,2-1.8,3.7-3.1,5c-1.3,1.3-2.9,2.4-4.7,3.1
				C290,51.9,288,52.3,285.8,52.3z"/>
			<path class="st0" d="M323.5,52.2c-2.9,0-5.6-0.5-7.9-1.5c-2.3-1-4.6-2.4-6.8-4.4l1.8-2c1,0.9,2,1.8,3,2.4c1,0.7,2,1.2,3.1,1.7
				c1.1,0.5,2.2,0.8,3.3,1s2.4,0.4,3.8,0.4c1.3,0,2.6-0.2,3.8-0.5c1.2-0.4,2.2-0.9,2.9-1.5c0.8-0.7,1.5-1.4,1.9-2.3
				c0.5-0.9,0.7-1.9,0.7-2.9v-0.1c0-1-0.2-1.9-0.5-2.6c-0.3-0.8-0.8-1.5-1.6-2.1c-0.8-0.7-1.9-1.2-3.1-1.7c-1.3-0.5-3-1-5.1-1.4
				c-2.2-0.5-4.1-1-5.7-1.6c-1.6-0.6-2.8-1.3-3.8-2.2c-1-0.8-1.8-1.8-2.2-2.8c-0.5-1.1-0.7-2.3-0.7-3.7v-0.1c0-1.3,0.3-2.6,0.9-3.8
				c0.6-1.2,1.4-2.2,2.4-3.1c1.1-0.9,2.3-1.6,3.7-2c1.5-0.5,3-0.8,4.7-0.8c2.7,0,4.9,0.4,6.9,1.1s3.8,1.9,5.7,3.4l-1.8,2.2
				c-1.8-1.5-3.5-2.6-5.2-3.2c-1.8-0.7-3.7-0.9-5.7-0.9c-1.3,0-2.6,0.2-3.7,0.5c-1.1,0.4-2,0.9-2.8,1.5c-0.8,0.7-1.4,1.3-1.8,2.2
				c-0.4,0.8-0.7,1.8-0.7,2.7v0.1c0,1,0.2,1.9,0.5,2.6c0.3,0.8,0.8,1.5,1.6,2.2c0.8,0.7,1.9,1.2,3.3,1.8c1.4,0.5,3.2,1,5.4,1.5
				c4.2,0.9,7.3,2.1,9.2,3.7c1.9,1.6,2.8,3.7,2.8,6.4v0.1c0,1.5-0.3,2.8-0.9,4.1c-0.6,1.2-1.5,2.3-2.5,3.1s-2.3,1.6-3.8,2
				C326.9,52,325.3,52.2,323.5,52.2z"/>
		</g>
	</g>
</g>
<g id="Capa_2" class="st1">
	<g class="st2">
		<g id="Capa_2_3_">
			<path class="st3" d="M107.2,48.7c-4.6,0-8.2-3.7-8.2-8.3l0,0c0-4.5,3.7-8.2,8.3-8.2c4.5,0,8.2,3.7,8.2,8.3
				C115.4,45,111.7,48.7,107.2,48.7 M107.2,25.7c-3,0-5.8,0.9-8.2,2.6V15.5h-6.4v24.9c0,8.1,6.6,14.6,14.7,14.6
				c8.1,0,14.6-6.6,14.6-14.7C121.8,32.2,115.2,25.8,107.2,25.7"/>
			<path class="st3" d="M14.7,48.7c-4.6,0-8.2-3.7-8.2-8.3l0,0l0,0c0-4.5,3.7-8.2,8.3-8.2c4.5,0,8.2,3.7,8.2,8.3
				C22.8,45,19.2,48.7,14.7,48.7 M14.7,25.7C6.6,25.8,0,32.3,0.1,40.4v22.7h6.4V52.6c2.4,1.7,5.3,2.5,8.2,2.5
				c8.1,0,14.7-6.6,14.6-14.7C29.3,32.3,22.8,25.7,14.7,25.7"/>
			<path class="st3" d="M83.7,40.4c0,4.5-3.8,8.2-8.3,8.1s-8.2-3.8-8.1-8.3c0-4.5,3.7-8.1,8.2-8.1C80.1,32.1,83.7,35.8,83.7,40.4
				C83.7,40.4,83.7,40.4,83.7,40.4z M75.5,25.7c-8.1,0-14.7,6.6-14.7,14.7s6.6,14.7,14.7,14.7c3,0,5.8-0.9,8.2-2.5v2h6.3V40.4
				C90.1,32.3,83.6,25.8,75.5,25.7"/>
			<path class="st3" d="M58.4,39.2L58.4,39.2L58.4,39.2c0-7.4-6-13.4-13.3-13.4h0c-2.4,0-4.9,0.7-7,2V15.5h-6.4v39.1H38l0-4.9V39.2
				c0-3.8,3.1-6.9,6.9-6.9s6.9,3.1,6.9,6.9l0,0v15.4h6.4L58.4,39.2L58.4,39.2z"/>
		</g>
		<path class="st3" d="M122.4,51.8l20.2-18.2c2.3-1.9,4-3.9,5.6-5.5c1.4-1.4,2.6-3,3.7-4.6c0.9-1.3,1.6-2.7,2.1-4.1
			c0.4-1.3,0.6-2.7,0.6-4.1c0-1.7-0.4-3.3-1.1-4.9c-0.6-1.4-1.5-2.7-2.7-3.7c-1.1-1-2.4-1.8-3.9-2.3c-1.5-0.5-3-0.8-4.6-0.7
			c-3.1,0-6.2,0.8-8.9,2.6c-2.4,1.7-4.7,4.2-7,7.4l-3-1.9c1.1-1.7,2.4-3.3,3.7-4.9c1.2-1.4,2.6-2.6,4.2-3.7c1.6-1,3.3-1.8,5.1-2.3
			c2.1-0.6,4.2-0.9,6.3-0.9c2.2,0,4.3,0.4,6.4,1.1c1.8,0.7,3.6,1.8,5.1,3c1.5,1.3,2.6,2.9,3.4,4.7c0.8,1.8,1.2,3.8,1.2,5.8v0.1
			c0,1.8-0.2,3.5-0.7,5.2c-0.6,1.8-1.3,3.4-2.4,4.9c-1.2,1.8-2.6,3.5-4.2,5.1c-1.7,1.7-3.7,3.7-6.1,5.8l-16.5,14.9h30.6v3.9h-36.9
			v-3h-0.2L122.4,51.8z"/>
	</g>
</g>
</svg>
