<?xml version="1.0" encoding="utf-8"?>
<!-- Generator: Adobe Illustrator 20.1.0, SVG Export Plug-In . SVG Version: 6.00 Build 0)  -->
<svg version="1.1" id="Layer_1" xmlns="http://www.w3.org/2000/svg" xmlns:xlink="http://www.w3.org/1999/xlink" x="0px" y="0px"
	 viewBox="0 0 578 578" style="enable-background:new 0 0 578 578;" xml:space="preserve">
<style type="text/css">
	.st0{display:none;}
	.st1{display:inline;}
	.st2{fill:#F53987;}
	.st3{fill:#46C8E1;}
</style>
<g id="Layer_1_1_" class="st0">
	<title>Asset 3</title>
	<g class="st1">
		<path class="st2" d="M289.3,21.3c147.8,0,268,120.2,268,268s-120.2,268-268,268s-268-120.2-268-268
			C21.3,141.5,141.5,21.3,289.3,21.3 M289.3,3.4C131.4,3.4,3.4,131.4,3.4,289.3s128,285.9,285.9,285.9s285.9-128,285.9-285.9
			C575.2,131.4,447.2,3.4,289.3,3.4L289.3,3.4z"/>
		<path class="st2" d="M186.4,460.3c-2.7,0-5.4-0.8-7.8-2.4c-4.5-3.1-6.6-8.6-5.5-13.9l10.3-49.5c0.7-3.3,2.7-6.4,4.2-8.4
			c0.2-0.4,0.4-0.7,0.7-1l173.4-249.2c10.6-15.3,31.7-19,47-8.4c7.4,5.1,12.3,12.9,13.9,21.8s-0.4,17.8-5.5,25.2L243,424.5
			c-1.3,2.1-3.6,5.1-6.5,6.9l-42.9,26.8C191.4,459.6,188.9,460.3,186.4,460.3z M200.8,398.5l-8.2,39.4l34.1-21.3
			c0.3-0.3,0.9-1,1.5-2l1-1.4l173.2-248.9c2.4-3.5,3.3-7.7,2.6-11.9s-3.1-7.8-6.5-10.3c-7.2-5-17.2-3.2-22.2,4L203.1,395l-0.9,1.5
			C201.4,397.3,201,398.1,200.8,398.5z M242.6,424.9L242.6,424.9L242.6,424.9z M227,416.3L227,416.3L227,416.3z M229.6,412.7
			C229.5,412.8,229.5,412.8,229.6,412.7L229.6,412.7z"/>
		<rect x="234.6" y="450.2" class="st2" width="142.4" height="17.8"/>
		<rect x="288.4" y="414.5" class="st2" width="88.7" height="17.8"/>
		<rect x="342.2" y="378.2" class="st2" width="34.9" height="17.8"/>
	</g>
</g>
<g id="Layer_2" class="st0">
	<g class="st1">
		<path class="st2" d="M289.3,21.4c147.8,0,268,120.2,268,268s-120.2,268-268,268s-268-120.2-268-268
			C21.3,141.6,141.5,21.4,289.3,21.4 M289.3,3.6C131.4,3.6,3.4,131.5,3.4,289.4s128,285.9,285.9,285.9s285.9-128,285.9-285.9
			C575.2,131.5,447.2,3.6,289.3,3.6L289.3,3.6z"/>
		<path class="st2" d="M173.4,245H120v-53.4h53.4V245z M137.7,227.2h17.8v-17.8h-17.8V227.2z"/>
		<path class="st2" d="M245,245h-53.4v-53.4H245V245z M209.3,227.2h17.8v-17.8h-17.8V227.2z"/>
		<path class="st2" d="M316.6,245h-53.4v-53.4h53.4V245z M280.9,227.2h17.8v-17.8h-17.8V227.2z"/>
		<path class="st2" d="M388.2,245h-53.4v-53.4h53.4V245z M352.5,227.2h17.8v-17.8h-17.8V227.2z"/>
		<path class="st2" d="M459.8,245h-53.4v-53.4h53.4V245z M424.1,227.2h17.8v-17.8h-17.8V227.2z"/>
		<path class="st2" d="M173.4,316.1H120v-53.4h53.4V316.1z M137.7,298.3h17.8v-17.8h-17.8V298.3z"/>
		<path class="st2" d="M245,316.1h-53.4v-53.4H245V316.1z M209.3,298.3h17.8v-17.8h-17.8V298.3z"/>
		<path class="st2" d="M316.6,316.1h-53.4v-53.4h53.4V316.1z M280.9,298.3h17.8v-17.8h-17.8V298.3z"/>
		<path class="st2" d="M388.2,316.1h-53.4v-53.4h53.4V316.1z M352.5,298.3h17.8v-17.8h-17.8V298.3z"/>
		<path class="st2" d="M459.8,316.1h-53.4v-53.4h53.4V316.1z M424.1,298.3h17.8v-17.8h-17.8V298.3z"/>
		<path class="st2" d="M173.4,387.2H120v-53.4h53.4V387.2z M137.7,369.4h17.8v-17.8h-17.8V369.4z"/>
		<path class="st2" d="M388,387.2H191.5v-53.4H388V387.2z M209.3,369.4h160.9v-17.8H209.3V369.4z"/>
		<path class="st2" d="M459.8,387.2h-53.4v-53.4h53.4V387.2z M424.1,369.4h17.8v-17.8h-17.8V369.4z"/>
		<rect x="280.7" y="93.1" class="st2" width="17.8" height="75.8"/>
		
			<rect x="341.1" y="134.4" transform="matrix(0.4746 -0.8802 0.8802 0.4746 68.6818 401.728)" class="st2" width="59.4" height="17.8"/>
		
			<rect x="199.3" y="113.6" transform="matrix(0.8802 -0.4746 0.4746 0.8802 -42.9186 115.9364)" class="st2" width="17.8" height="58.8"/>
		<rect x="280.7" y="410.3" class="st2" width="17.8" height="75.8"/>
		
			<rect x="361.9" y="406.2" transform="matrix(0.8802 -0.4745 0.4745 0.8802 -162.4474 228.1512)" class="st2" width="17.8" height="59.4"/>
		
			<rect x="178.8" y="427.2" transform="matrix(0.4746 -0.8802 0.8802 0.4746 -274.5029 412.3608)" class="st2" width="58.8" height="17.8"/>
	</g>
</g>
<g id="Layer_3" class="st0">
	<g class="st1">
		<path class="st2" d="M289.3,21.3c147.8,0,268,120.2,268,268s-120.2,268-268,268s-268-120.2-268-268
			C21.3,141.5,141.5,21.3,289.3,21.3 M289.3,3.4C131.4,3.4,3.4,131.4,3.4,289.3s128,285.9,285.9,285.9s285.9-128,285.9-285.9
			C575.2,131.4,447.2,3.4,289.3,3.4L289.3,3.4z"/>
		<path class="st2" d="M436.7,329.7H145.3V151.5h291.4V329.7z M163.1,311.9h255.7V169.3H163.1V311.9z"/>
		<path class="st2" d="M239.5,294.3h-58V189.2h58V294.3z M199.4,276.5h22.3V207h-22.3V276.5z"/>
		<path class="st2" d="M320.1,294.3h-62.8V189.2h62.8V294.3z M275.1,276.5h27.1V207h-27.1V276.5z"/>
		<path class="st2" d="M400.7,294.3h-62.8V189.2h62.8V294.3z M355.8,276.5h27.1V207h-27.1V276.5z"/>
		<polygon class="st2" points="456.5,402 122.3,402 145.8,309.5 163.1,313.9 145.2,384.1 434.3,384.1 418.8,314.3 436.2,310.4 		"/>
	</g>
</g>
<g>
	<path class="st3" d="M290.5,21.9c147.8,0,268,120.2,268,268c0,147.8-120.2,268-268,268c-147.8,0-268-120.2-268-268
		C22.5,142.1,142.7,21.9,290.5,21.9 M290.5,4.1C132.6,4.1,4.6,132,4.6,289.9c0,157.9,128,285.9,285.9,285.9
		c157.9,0,285.9-128,285.9-285.9C576.4,132,448.4,4.1,290.5,4.1L290.5,4.1z"/>
	<g>
		<path class="st3" d="M143.7,432.4l-5.3-17C288.9,368.7,362.8,215.5,363.5,214l16.1,7.6C376.5,228.2,301.6,383.4,143.7,432.4z"/>
		<path class="st3" d="M269.9,433.7c-4.9,0-10-0.3-15.2-1c-33.9-4-57-29.9-71.5-48.9c-19-25-23-68.8-15.9-96.8
			c3.7-14.6,10.4-24.5,19.4-28.6c3.3-1.5,7-1.6,10.6-0.2c3.3,1.3,6.5,4,9.5,7.4c2.8-19,8.7-33.2,17.7-42.3
			c8.3-8.4,16.5-9.6,20.7-9.6h5.6l8.9,18.6C312.2,122.2,363,122.3,388.2,122.4h1.4c4.1,0,7.2,0.4,8.6,0.6
			c4.7,0.2,15.2,1.9,24.8,12.3c12.7,13.8,27.2,38.6,23.9,78.3c-3,35.7-18.7,92.5-53,134.8C343.6,410.6,311.2,433.7,269.9,433.7z
			 M192,276c-3,2.6-5.7,8.2-7.5,15.4c-5.9,23.4-2.2,61.8,12.8,81.6c20.2,26.5,38.5,39.5,59.5,42c37.2,4.5,65.2-6.1,123.2-77.9
			c29.7-36.7,46.1-89.2,49.1-125.1c2.8-33.2-8.9-53.5-19.3-64.7c-5.5-6-11-6.5-12.6-6.6l-1.1-0.1c-0.9-0.1-3.2-0.5-6.6-0.5l-1.4,0
			c-22.6,0-69.5-0.1-120.2,116.8l-7.8,17.9l-20-41.5c-1,0.6-2.1,1.5-3.2,2.6c-5.5,5.6-14.7,20.7-14.3,59.5l0.4,44.5l-17.5-41
			C201.5,289.5,195.6,279.5,192,276z M389.6,140.2L389.6,140.2L389.6,140.2z"/>
	</g>
</g>
</svg>
