<?xml version="1.0" encoding="utf-8"?>
<!-- Generator: Adobe Illustrator 20.0.0, SVG Export Plug-In . SVG Version: 6.00 Build 0)  -->
<svg version="1.1" id="Layer_1" xmlns="http://www.w3.org/2000/svg" xmlns:xlink="http://www.w3.org/1999/xlink" x="0px" y="0px"
	 viewBox="0 0 578 578" style="enable-background:new 0 0 578 578;" xml:space="preserve">
<style type="text/css">
	.st0{fill:#F36C21;}
</style>
<title>Asset 3</title>
<g>
	<path class="st0" d="M289.3,21.3c147.8,0,268,120.2,268,268s-120.2,268-268,268s-268-120.2-268-268
		C21.3,141.5,141.5,21.3,289.3,21.3 M289.3,3.4C131.4,3.4,3.4,131.4,3.4,289.3s128,285.9,285.9,285.9s285.9-128,285.9-285.9
		C575.2,131.4,447.2,3.4,289.3,3.4L289.3,3.4z"/>
	<path class="st0" d="M186.4,460.3c-2.7,0-5.4-0.8-7.8-2.4c-4.5-3.1-6.6-8.6-5.5-13.9l10.3-49.5c0.7-3.3,2.7-6.4,4.2-8.4
		c0.2-0.4,0.4-0.7,0.7-1l173.4-249.2c10.6-15.3,31.7-19,47-8.4c7.4,5.1,12.3,12.9,13.9,21.8s-0.4,17.8-5.5,25.2L243,424.5
		c-1.3,2.1-3.6,5.1-6.5,6.9l-42.9,26.8C191.4,459.6,188.9,460.3,186.4,460.3z M200.8,398.5l-8.2,39.4l34.1-21.3c0.3-0.3,0.9-1,1.5-2
		l1-1.4l173.2-248.9c2.4-3.5,3.3-7.7,2.6-11.9s-3.1-7.8-6.5-10.3c-7.2-5-17.2-3.2-22.2,4L203.1,395l-0.9,1.5
		C201.4,397.3,201,398.1,200.8,398.5z M242.6,424.9L242.6,424.9L242.6,424.9z M227,416.3L227,416.3L227,416.3z M229.6,412.7
		C229.5,412.8,229.5,412.8,229.6,412.7L229.6,412.7z"/>
	<rect x="234.6" y="450.2" class="st0" width="142.4" height="17.8"/>
	<rect x="288.4" y="414.5" class="st0" width="88.7" height="17.8"/>
	<rect x="342.2" y="378.2" class="st0" width="34.9" height="17.8"/>
</g>
</svg>
