<?xml version="1.0" encoding="utf-8"?>
<!-- Generator: Adobe Illustrator 20.0.0, SVG Export Plug-In . SVG Version: 6.00 Build 0)  -->
<svg version="1.1" id="Capa_1" xmlns="http://www.w3.org/2000/svg" xmlns:xlink="http://www.w3.org/1999/xlink" x="0px" y="0px"
	 viewBox="0 0 578 578" style="enable-background:new 0 0 578 578;" xml:space="preserve">
<style type="text/css">
	.st0{display:none;}
	.st1{display:inline;}
	.st2{fill:#F53987;}
	.st3{fill:#121B21;}
	.st4{fill:#FFFFFF;}
	.st5{fill:none;}
	.st6{fill:#F36C21;}
</style>
<g id="Layer_1" class="st0">
	<g id="Layer_1_1_" class="st1">
		<title>Asset 3</title>
		<g>
			<path class="st2" d="M289.3,21.3c147.8,0,268,120.2,268,268s-120.2,268-268,268s-268-120.2-268-268
				C21.3,141.5,141.5,21.3,289.3,21.3 M289.3,3.4C131.4,3.4,3.4,131.4,3.4,289.3s128,285.9,285.9,285.9s285.9-128,285.9-285.9
				C575.2,131.4,447.2,3.4,289.3,3.4L289.3,3.4z"/>
			<path class="st2" d="M186.4,460.3c-2.7,0-5.4-0.8-7.8-2.4c-4.5-3.1-6.6-8.6-5.5-13.9l10.3-49.5c0.7-3.3,2.7-6.4,4.2-8.4
				c0.2-0.4,0.4-0.7,0.7-1l173.4-249.2c10.6-15.3,31.7-19,47-8.4c7.4,5.1,12.3,12.9,13.9,21.8s-0.4,17.8-5.5,25.2L243,424.5
				c-1.3,2.1-3.6,5.1-6.5,6.9l-42.9,26.8C191.4,459.6,188.9,460.3,186.4,460.3z M200.8,398.5l-8.2,39.4l34.1-21.3
				c0.3-0.3,0.9-1,1.5-2l1-1.4l173.2-248.9c2.4-3.5,3.3-7.7,2.6-11.9s-3.1-7.8-6.5-10.3c-7.2-5-17.2-3.2-22.2,4L203.1,395l-0.9,1.5
				C201.4,397.3,201,398.1,200.8,398.5z M242.6,424.9L242.6,424.9L242.6,424.9z M227,416.3L227,416.3L227,416.3z M229.6,412.7
				C229.5,412.8,229.5,412.8,229.6,412.7L229.6,412.7z"/>
			<rect x="234.6" y="450.2" class="st2" width="142.4" height="17.8"/>
			<rect x="288.4" y="414.5" class="st2" width="88.7" height="17.8"/>
			<rect x="342.2" y="378.2" class="st2" width="34.9" height="17.8"/>
		</g>
	</g>
	<g id="Layer_2" class="st1">
		<g>
			<path class="st2" d="M289.3,21.4c147.8,0,268,120.2,268,268s-120.2,268-268,268s-268-120.2-268-268
				C21.3,141.6,141.5,21.4,289.3,21.4 M289.3,3.6C131.4,3.6,3.4,131.5,3.4,289.4s128,285.9,285.9,285.9s285.9-128,285.9-285.9
				C575.2,131.5,447.2,3.6,289.3,3.6L289.3,3.6z"/>
			<path class="st2" d="M173.4,245H120v-53.4h53.4V245z M137.7,227.2h17.8v-17.8h-17.8V227.2z"/>
			<path class="st2" d="M245,245h-53.4v-53.4H245V245z M209.3,227.2h17.8v-17.8h-17.8V227.2z"/>
			<path class="st2" d="M316.6,245h-53.4v-53.4h53.4V245z M280.9,227.2h17.8v-17.8h-17.8V227.2z"/>
			<path class="st2" d="M388.2,245h-53.4v-53.4h53.4V245z M352.5,227.2h17.8v-17.8h-17.8V227.2z"/>
			<path class="st2" d="M459.8,245h-53.4v-53.4h53.4V245z M424.1,227.2h17.8v-17.8h-17.8V227.2z"/>
			<path class="st2" d="M173.4,316.1H120v-53.4h53.4V316.1z M137.7,298.3h17.8v-17.8h-17.8V298.3z"/>
			<path class="st2" d="M245,316.1h-53.4v-53.4H245V316.1z M209.3,298.3h17.8v-17.8h-17.8V298.3z"/>
			<path class="st2" d="M316.6,316.1h-53.4v-53.4h53.4V316.1z M280.9,298.3h17.8v-17.8h-17.8V298.3z"/>
			<path class="st2" d="M388.2,316.1h-53.4v-53.4h53.4V316.1z M352.5,298.3h17.8v-17.8h-17.8V298.3z"/>
			<path class="st2" d="M459.8,316.1h-53.4v-53.4h53.4V316.1z M424.1,298.3h17.8v-17.8h-17.8V298.3z"/>
			<path class="st2" d="M173.4,387.2H120v-53.4h53.4V387.2z M137.7,369.4h17.8v-17.8h-17.8V369.4z"/>
			<path class="st2" d="M388,387.2H191.5v-53.4H388V387.2z M209.3,369.4h160.9v-17.8H209.3V369.4z"/>
			<path class="st2" d="M459.8,387.2h-53.4v-53.4h53.4V387.2z M424.1,369.4h17.8v-17.8h-17.8V369.4z"/>
			<rect x="280.7" y="93.1" class="st2" width="17.8" height="75.8"/>
			
				<rect x="341.1" y="134.5" transform="matrix(0.4746 -0.8802 0.8802 0.4746 68.6026 401.763)" class="st2" width="59.4" height="17.8"/>
			
				<rect x="199.3" y="113.6" transform="matrix(0.8802 -0.4746 0.4746 0.8802 -42.9269 115.9428)" class="st2" width="17.8" height="58.8"/>
			<rect x="280.7" y="410.3" class="st2" width="17.8" height="75.8"/>
			
				<rect x="361.9" y="406.2" transform="matrix(0.8802 -0.4745 0.4745 0.8802 -162.4289 228.145)" class="st2" width="17.8" height="59.4"/>
			
				<rect x="178.8" y="427.2" transform="matrix(0.4746 -0.8802 0.8802 0.4746 -274.4277 412.4072)" class="st2" width="58.8" height="17.8"/>
		</g>
	</g>
	<g id="Layer_3" class="st1">
		<g>
			<path class="st2" d="M289.3,21.3c147.8,0,268,120.2,268,268s-120.2,268-268,268s-268-120.2-268-268
				C21.3,141.5,141.5,21.3,289.3,21.3 M289.3,3.4C131.4,3.4,3.4,131.4,3.4,289.3s128,285.9,285.9,285.9s285.9-128,285.9-285.9
				C575.2,131.4,447.2,3.4,289.3,3.4L289.3,3.4z"/>
			<path class="st2" d="M436.7,329.7H145.3V151.5h291.4V329.7z M163.1,311.9h255.7V169.3H163.1V311.9z"/>
			<path class="st2" d="M239.5,294.3h-58V189.2h58V294.3z M199.4,276.5h22.3V207h-22.3V276.5z"/>
			<path class="st2" d="M320.1,294.3h-62.8V189.2h62.8V294.3z M275.1,276.5h27.1V207h-27.1V276.5z"/>
			<path class="st2" d="M400.7,294.3h-62.8V189.2h62.8V294.3z M355.8,276.5h27.1V207h-27.1V276.5z"/>
			<polygon class="st2" points="456.5,402 122.3,402 145.8,309.5 163.1,313.9 145.2,384.1 434.3,384.1 418.8,314.3 436.2,310.4 			
				"/>
		</g>
	</g>
	<g class="st1">
		<path class="st3" d="M290.3,23.2c147.3,0,267.1,119.8,267.1,267.1S437.6,557.4,290.3,557.4S23.2,437.6,23.2,290.3
			S143,23.2,290.3,23.2 M290.3,5.4C133,5.4,5.4,133,5.4,290.3s127.5,284.9,284.9,284.9c157.3,0,284.9-127.5,284.9-284.9
			C575.2,133,447.6,5.4,290.3,5.4L290.3,5.4z"/>
		<g>
			<rect x="89.8" y="283.5" width="213.4" height="16.4"/>
			<path class="st4" d="M351.4,206.3v-21.4c0-27.2,22-49.2,49.2-49.2v24.6v131.3"/>
			<path d="M408.8,291.6h-16.4V144.7c-18.7,3.8-32.8,20.4-32.8,40.2v21.4h-16.4v-21.4c0-31.7,25.8-57.4,57.4-57.4
				c4.5,0,8.2,3.7,8.2,8.2L408.8,291.6L408.8,291.6z"/>
			<path class="st4" d="M317,194.2l-11.7-30c-9.6-25.4,3.2-53.8,28.7-63.4l8.7,23l51.6,133"/>
			<path d="M386.7,259.9l-51.6-133l-5.5-14.7c-6.8,4.2-12.2,10.4-15.5,17.8c-4.5,10-4.9,21.1-1,31.4l11.7,29.9l-15.3,6l-11.7-30
				c-5.4-14.4-4.9-30,1.4-44s17.7-24.7,32.1-30.1c4.2-1.6,9,0.5,10.6,4.8l8.7,23l51.6,133L386.7,259.9z"/>
			<path class="st4" d="M276.8,196.4l-25.9-26c-19.2-19.2-19.2-50.4,0-69.6l27.5,27.8l92.9,92.9"/>
			<path d="M365.5,227.4l-92.9-92.9l-21.2-21.4c-10.5,15.9-8.8,37.6,5.2,51.6l25.9,26L271,202.2l-25.9-26
				c-22.4-22.4-22.4-58.8,0-81.2c1.5-1.5,3.6-2.4,5.8-2.4l0,0c2.2,0,4.3,0.9,5.8,2.4l27.5,27.8l92.8,92.8L365.5,227.4z"/>
			<line class="st5" x1="400.6" y1="455.6" x2="400.6" y2="291.6"/>
			<rect x="392.4" y="291.6" width="16.4" height="164"/>
			<path d="M326.8,455.7h-16.4c0-48.1-56-68.9-56.5-69.1l5.6-15.4c0.7,0.2,16.9,6.2,33.3,19.3C315,408.4,326.8,430.9,326.8,455.7z"
				/>
			<path d="M253.8,386.7c-24.5-12.5-43-33.6-52.2-59.5c-1.2-3.5-1.9-7.2-1.9-11c0-9.8,4.3-18.6,11.2-24.6
				c-6.8-6-11.2-14.8-11.2-24.6c0-3.7,0.6-7.3,1.8-10.8l15.5,5.4c-0.6,1.7-0.9,3.5-0.9,5.4c0,9.1,7.4,16.4,16.4,16.4
				c6.9,0,13.1-4.4,15.4-10.9c8.1-22.9,29.9-38.3,54.2-38.3c31.7,0,57.4,25.8,57.4,57.4c0,31.7-25.8,57.4-57.4,57.4
				c-24.3,0-46-15.4-54.1-38.3c-2.3-6.5-8.5-10.9-15.5-10.9c-9.1,0-16.4,7.4-16.4,16.4c0,1.9,0.3,3.7,0.9,5.5
				c7.8,21.9,23.4,39.8,44.2,50.4L253.8,386.7z M254.2,291.6c4.1,3.6,7.4,8.3,9.3,13.7c5.8,16.4,21.3,27.4,38.7,27.4
				c22.6,0,41-18.4,41-41s-18.4-41.1-41-41.1c-17.4,0-32.9,11-38.7,27.4C261.5,283.3,258.3,288,254.2,291.6z"/>
			<path d="M408.8,291.6h-16.4c0-49.8-40.5-90.3-90.3-90.3c-38.2,0-72.4,24.2-85.1,60.3l-15.5-5.4c15-42.6,55.4-71.2,100.6-71.2
				C361,184.9,408.8,232.8,408.8,291.6z"/>
		</g>
	</g>
</g>
<g id="Layer_2_1_">
	<g>
		<path class="st6" d="M290.3,28.8c144.2,0,261.5,117.3,261.5,261.5S434.5,551.8,290.3,551.8S28.8,434.5,28.8,290.3
			C28.8,146.1,146.1,28.8,290.3,28.8 M290.3,11.4c-154,0-278.9,124.9-278.9,278.9s124.9,278.9,278.9,278.9s278.9-124.9,278.9-278.9
			C569.2,136.3,444.3,11.4,290.3,11.4L290.3,11.4z"/>
		<path class="st6" d="M268.5,358.4c-2.3,0-4.6-0.7-6.6-2.1c-3.8-2.7-5.7-7.3-4.7-11.8l6.5-31.2c0.5-2.4,1.9-4.7,3-6.3
			c0.1-0.2,0.3-0.5,0.4-0.7l109.3-157.1c7.7-11,22.8-13.7,33.8-6c5.3,3.7,8.9,9.3,10,15.7s-0.3,12.8-4,18.2L306.5,334.7
			c-1,1.5-2.7,3.7-4.9,5.1l-27,16.9C272.7,357.8,270.6,358.4,268.5,358.4z M306.2,335.1l-0.1,0.1
			C306.1,335.2,306.1,335.1,306.2,335.1z M280.4,317.5l-3.6,17.4l15.1-9.4c0.1-0.1,0.2-0.3,0.4-0.5l0.8-1.2l109-156.6
			c1.1-1.5,1.5-3.4,1.1-5.2c-0.3-1.9-1.4-3.5-2.9-4.5c-3.2-2.2-7.6-1.4-9.8,1.7l-109,156.7c-0.1,0.2-0.2,0.4-0.3,0.6l-0.5,0.7
			C280.6,317.2,280.5,317.4,280.4,317.5z M291.7,325.7L291.7,325.7L291.7,325.7z M292.9,324.1c-0.1,0.1-0.1,0.2-0.2,0.3L292.9,324.1
			z M293.4,323.4C293.4,323.4,293.4,323.5,293.4,323.4L293.4,323.4z M280.3,317.7L280.3,317.7L280.3,317.7z"/>
		<path class="st6" d="M421.6,428.1h-255c-14.2,0-25.7-11.5-25.7-25.7s11.5-25.7,25.7-25.7h255.1c14.2,0,25.7,11.5,25.7,25.7
			C447.4,416.5,435.8,428.1,421.6,428.1z M166.6,393.8c-4.7,0-8.5,3.8-8.5,8.5s3.8,8.5,8.5,8.5h255.1c4.7,0,8.5-3.8,8.5-8.5
			s-3.8-8.5-8.5-8.5H166.6z"/>
	</g>
</g>
</svg>
