<?xml version="1.0" encoding="utf-8"?>
<!-- Generator: Adobe Illustrator 19.2.1, SVG Export Plug-In . SVG Version: 6.00 Build 0)  -->
<svg version="1.1" id="Layer_1" xmlns="http://www.w3.org/2000/svg" xmlns:xlink="http://www.w3.org/1999/xlink" x="0px" y="0px"
	 viewBox="0 0 110.9 127.5" style="enable-background:new 0 0 110.9 127.5;" xml:space="preserve">
<style type="text/css">
	.st0{fill:#7CC0E0;}
	.st1{fill:#FFFFFF;}
	.st2{font-family:'HelveticaNeue-Medium';}
	.st3{font-size:12.8414px;}
</style>
<rect class="st0" width="110.9" height="127.5"/>
<g>
	<path class="st1" d="M92.3,48.5c0.9,0.7,1.9,1.1,3,1.1c1.3,0,2.6-0.5,3.5-1.6c1.6-1.9,1.4-4.8-0.5-6.4L58.4,7.4
		c-1.7-1.5-4.2-1.5-5.9,0L12.7,41.6c-1.9,1.6-2.1,4.5-0.5,6.4c1.6,1.9,4.5,2.1,6.4,0.5l36.9-31.7L92.3,48.5z"/>
	<path class="st1" d="M83.7,71c0.1-0.7,0.2-1.5,0.1-2.2c-0.1-8.2-6.7-14.8-14.9-14.7c-8.2,0.1-14.8,6.7-14.7,14.9
		c0.1,8.2,6.7,14.8,14.9,14.7c1.4,0,2.7-0.2,3.9-0.6c0.6,1.5,1.5,3.5,2.4,5.5h10.2c-12.8-11-12.8-11-12.8-11L78,72l10.2,9.6V73
		L83.7,71z M77.6,71.5l-5.3,5.7c-0.8,0.3-1.7,0.5-2.6,0.5c-2.3,0.1-4.4-0.7-6.1-2.3c-2.6-2.5-3.4-6.3-2-9.6c0.1-0.2,0.2-0.3,0.4-0.3
		c0.2,0,0.4,0,0.5,0.1l5.5,5.1c0.8,0.8,2.2,0.7,2.9-0.1c0.4-0.4,0.6-0.9,0.6-1.5c0-0.5-0.3-1.1-0.7-1.4l-5.5-5.1
		c-0.1-0.1-0.2-0.3-0.2-0.5c0-0.2,0.1-0.4,0.3-0.4c1.1-0.6,2.4-0.9,3.6-1c2.3-0.1,4.4,0.7,6.1,2.3C77.6,65.2,78.5,68.5,77.6,71.5"/>
	<g>
		<path class="st1" d="M24.9,91.3h2v9.5h5.7v1.7h-7.7V91.3z"/>
		<path class="st1" d="M33.9,91.3H42V93h-6.1v2.9h5.7v1.6h-5.7v3.3h6.2v1.7h-8.2V91.3z"/>
		<path class="st1" d="M43.8,91.3h2.1l5.1,8.3h0v-8.3h1.9v11.2h-2.1l-5.1-8.3h0v8.3h-1.9V91.3z"/>
		<path class="st1" d="M65.4,96.9c0,3.2-2,5.9-5.4,5.9s-5.4-2.7-5.4-5.9c0-3.2,2-5.9,5.4-5.9S65.4,93.7,65.4,96.9z M56.6,96.9
			c0,2.2,1,4.3,3.4,4.3s3.4-2.1,3.4-4.3c0-2.2-1-4.3-3.4-4.3S56.6,94.7,56.6,96.9z"/>
		<path class="st1" d="M65.9,91.3h2l2.8,8.9h0l2.9-8.9h2l-3.8,11.2h-2.2L65.9,91.3z"/>
		<path class="st1" d="M87,96.9c0,3.2-2,5.9-5.4,5.9c-3.4,0-5.4-2.7-5.4-5.9c0-3.2,2-5.9,5.4-5.9C84.9,91,87,93.7,87,96.9z
			 M78.2,96.9c0,2.2,1,4.3,3.4,4.3s3.4-2.1,3.4-4.3c0-2.2-1-4.3-3.4-4.3S78.2,94.7,78.2,96.9z"/>
	</g>
	<text transform="matrix(1 0 0 1 88.0103 102.5227)" class="st1 st2 st3"> </text>
	<g>
		<path class="st1" d="M27.6,106.9h2.2l3.6,9.7h-2.2l-0.7-2.2h-3.6l-0.8,2.2H24L27.6,106.9z M27.4,112.8h2.5l-1.2-3.5h0L27.4,112.8z
			"/>
		<path class="st1" d="M36.4,108.6h-2.9v-1.8h7.9v1.8h-2.9v7.9h-2.1V108.6z"/>
		<path class="st1" d="M46.3,106.9h2.1v3.7h3.9v-3.7h2.1v9.7h-2.1v-4.2h-3.9v4.2h-2.1V106.9z"/>
		<path class="st1" d="M60.7,106.6c3,0,4.8,2.2,4.8,5.1c0,2.8-1.8,5-4.8,5s-4.8-2.2-4.8-5C55.9,108.9,57.7,106.6,60.7,106.6z
			 M60.7,115c1.9,0,2.6-1.6,2.6-3.2c0-1.7-0.7-3.3-2.6-3.3c-1.9,0-2.6,1.6-2.6,3.3C58.1,113.3,58.8,115,60.7,115z"/>
		<path class="st1" d="M66.9,106.9h3l2.3,6.6h0l2.1-6.6h3v9.7h-2v-6.8h0l-2.4,6.8h-1.6l-2.4-6.8h0v6.8h-2V106.9z"/>
		<path class="st1" d="M79.2,106.9h7.2v1.8h-5.1v2.1H86v1.7h-4.7v2.4h5.2v1.8h-7.3V106.9z"/>
	</g>
	<path class="st1" d="M55.8,85.7c-1.2-1-2.3-2-3.3-3.2L48,85.1l-3.3-5.7l4.5-2.6c-0.6-1.4-1-2.9-1.2-4.4l-5.2,0l-0.1-6.6l5.2,0
		c0.2-1.5,0.6-3,1.1-4.4l-4.5-2.6l3.2-5.7l4.5,2.6c0.9-1.2,2-2.3,3.2-3.3l-2.6-4.5l5.7-3.3l2.6,4.5c1.4-0.6,2.9-1,4.4-1.2l0-5.2
		l6.6-0.1l0,5.2c1.5,0.2,3,0.6,4.4,1.1l2.6-4.5l5.7,3.2l-2.6,4.5c1.2,1,2.3,2,3.3,3.2l2.6-1.5V49c0-0.7-0.3-1.3-0.8-1.7L57.1,21.4
		c-0.9-0.7-2.1-0.7-3,0L30.6,41.4c0.2,0-1.2,1.1-6.3,5.7c-0.6,0.6-1.4,1.7-1.2,2.5c0,9.9,0,34,0,35.7c-0.4,2.1,0.7,3.5,2.3,3.4
		c9.3-0.1,21,0.1,25.9-0.1h2.8L55.8,85.7z"/>
</g>
</svg>
