<?xml version="1.0" encoding="utf-8"?>
<!-- Generator: Adobe Illustrator 20.0.0, SVG Export Plug-In . SVG Version: 6.00 Build 0)  -->
<svg version="1.1" xmlns="http://www.w3.org/2000/svg" xmlns:xlink="http://www.w3.org/1999/xlink" x="0px" y="0px"
	 viewBox="0 0 100 100" style="enable-background:new 0 0 100 100;" xml:space="preserve">
<style type="text/css">
	.st0{display:none;}
	.st1{clip-path:url(#SVGID_2_);}
	.st2{fill:#CD682E;}
	.st3{fill:#FFFFFF;}
	.st4{fill:none;}
	.st5{font-family:'MyriadPro-Regular';}
	.st6{font-size:6px;}
</style>
<g id="Capa_1" class="st0">
	
		<image style="display:inline;overflow:visible;" width="262" height="260" xlink:href="ECA7E6A0.png"  transform="matrix(0.3698 0 0 0.3698 2.3289 3.8645)">
	</image>
</g>
<g id="Capa_2">
	<g>
		<defs>
			<path id="SVGID_1_" d="M52.6,98.2l-46.1-33c-3.8-2.7-4.6-8-1.9-11.8l33-46.1c2.7-3.8,8-4.6,11.8-1.9l46.1,33
				c3.8,2.7,4.6,8,1.9,11.8l-33,46.1C61.7,100.1,56.4,100.9,52.6,98.2z"/>
		</defs>
		<clipPath id="SVGID_2_">
			<use xlink:href="#SVGID_1_"  style="overflow:visible;"/>
		</clipPath>
		<g class="st1">
			
				<rect x="-2.6" y="2.6" transform="matrix(0.9892 -0.1467 0.1467 0.9892 -4.3204 7.6146)" class="st2" width="104.1" height="61.1"/>
			
				<rect x="6.8" y="62.8" transform="matrix(0.9892 -0.1467 0.1467 0.9892 -13.0513 9.6399)" class="st3" width="104.1" height="61.1"/>
		</g>
	</g>
	<g>
		<path class="st3" d="M63.3,29.4c0.4,0.3,0.8,0.3,1.3,0.2c0.5-0.1,1-0.3,1.3-0.8c0.6-0.9,0.3-2-0.6-2.6L46.8,14.9
			c-0.8-0.5-1.8-0.3-2.4,0.4l-14,16.7c-0.7,0.8-0.6,1.9,0.3,2.7c0.8,0.7,1.9,0.6,2.7-0.3l12.9-15.4L63.3,29.4z"/>
		<path class="st3" d="M61.2,39.1c-0.1-0.3,0-0.6-0.1-1c-0.5-3.3-3.7-5.6-7.1-5.1c-3.3,0.5-5.6,3.7-5.1,7.1c0.5,3.3,3.7,5.6,7.1,5.1
			c0.5-0.1,1.1-0.3,1.6-0.4c0.4,0.5,0.8,1.3,1.4,2.1l4.1-0.7c-5.9-3.7-5.9-3.7-5.9-3.7l1.8-2.7l4.7,3.3l-0.6-3.5L61.2,39.1z
			 M58.8,39.7L57,42.4c-0.3,0.1-0.7,0.3-1.1,0.4c-0.9,0.2-1.8,0-2.6-0.5c-1.3-0.8-1.8-2.4-1.4-3.8c0-0.1,0.1-0.1,0.2-0.1
			c0.1,0,0.2,0,0.2,0.1l2.6,1.8c0.4,0.3,1,0.2,1.2-0.2c0.1-0.2,0.1-0.5,0.1-0.6c0-0.2-0.2-0.4-0.4-0.5L53,37c0-0.2,0-0.2-0.1-0.3
			s0.1-0.1,0.1-0.2c0.5-0.3,1-0.6,1.5-0.7c0.9-0.2,1.8,0,2.6,0.5C58.3,37.2,58.9,38.5,58.8,39.7"/>
		<path class="st3" d="M50.9,46.9c-0.6-0.3-1.1-0.6-1.5-1.1l-1.7,1.4l-1.7-2.1l1.6-1.4c-0.3-0.6-0.6-1.1-0.8-1.7l-2.1,0.3l-0.4-2.7
			l2.1-0.3c0-0.6,0-1.2,0.2-1.9l-2-0.7l0.9-2.5l2,0.7c0.3-0.6,0.6-1.1,1.1-1.5l-1.3-1.6l2.1-1.7l1.4,1.6c0.6-0.3,1.1-0.6,1.7-0.8
			L52,28.7l2.7-0.4l0.3,2.1c0.6,0,1.2,0,1.9,0.2l0.7-2l2.5,0.9l-0.7,2c0.6,0.3,1.1,0.6,1.5,1.1l1-0.8l-0.3-2
			c-0.1-0.3-0.2-0.5-0.5-0.6l-14.1-8.6c-0.4-0.3-1-0.2-1.2,0.2l-8.2,9.7c0.1,0-0.4,0.5-2.3,2.7c-0.1,0.2-0.5,0.8-0.3,1.1
			c0.7,4,2.3,13.8,2.4,14.6c0,1,0.6,1.3,1.2,1.2c3.8-0.6,8.5-1.3,10.6-1.7l1.2-0.2L50.9,46.9z"/>
	</g>
	
		<rect x="37.9" y="49.2" transform="matrix(0.9903 -0.1392 0.1392 0.9903 -7.0845 7.5116)" class="st4" width="24.6" height="10.3"/>
	<text transform="matrix(0.9903 -0.1392 0.1392 0.9903 37.8648 55.2691)"><tspan x="0" y="0" class="st3 st5 st6">LENOVO</tspan><tspan x="0" y="6" class="st3 st5 st6">AT HOME</tspan></text>
	
		<rect x="29.5" y="66.1" transform="matrix(0.9877 -0.1564 0.1564 0.9877 -10.5538 9.4068)" class="st4" width="50.1" height="11.3"/>
	<text transform="matrix(0.9877 -0.1564 0.1564 0.9877 30.9896 74.1381)"><tspan x="0" y="0" class="st2 st5 st6">SERVICIO TÉCNICO </tspan><tspan x="7.1" y="6" class="st2 st5 st6">A DOMICILIO</tspan></text>
	<g>
		<path class="st2" d="M42.1,83.1c-0.1,0.1-0.4,0.2-0.7,0.3c-0.4,0.1-0.7,0-1-0.2c-0.2-0.2-0.4-0.5-0.5-0.8
			c-0.1-0.7,0.3-1.3,1.1-1.5c0.3,0,0.5,0,0.6,0l0,0.3c-0.1,0-0.3-0.1-0.6,0c-0.6,0.1-0.9,0.5-0.8,1.1c0.1,0.6,0.5,0.9,1.1,0.8
			c0.2,0,0.3-0.1,0.4-0.1l-0.1-0.7l-0.5,0.1l0-0.3l0.8-0.1L42.1,83.1z"/>
		<path class="st2" d="M42.2,80.7c0.2-0.1,0.4-0.1,0.6-0.1c0.3-0.1,0.6,0,0.7,0.1c0.1,0.1,0.2,0.2,0.3,0.4c0.1,0.3-0.1,0.6-0.4,0.7
			l0,0c0.2,0,0.3,0.2,0.4,0.4c0.1,0.3,0.2,0.5,0.3,0.6l-0.3,0.1c0-0.1-0.1-0.3-0.3-0.6c-0.1-0.3-0.3-0.4-0.6-0.4l-0.3,0l0.2,1.1
			l-0.3,0L42.2,80.7z M42.7,81.7l0.3-0.1c0.3-0.1,0.5-0.3,0.5-0.5c0-0.3-0.3-0.4-0.6-0.4c-0.2,0-0.3,0.1-0.3,0.1L42.7,81.7z"/>
		<path class="st2" d="M44.8,81.9l-0.1,0.8l-0.3,0.1l0.4-2.6l0.4-0.1l1.2,2.3L46,82.5l-0.4-0.7L44.8,81.9z M45.6,81.6l-0.3-0.7
			c-0.1-0.1-0.1-0.3-0.2-0.4l0,0c0,0.2,0,0.3-0.1,0.5l-0.1,0.7L45.6,81.6z"/>
		<path class="st2" d="M46.6,80.2l-0.7,0.1l0-0.3l1.8-0.3l0,0.3l-0.7,0.1l0.3,2.2l-0.3,0.1L46.6,80.2z"/>
		<path class="st2" d="M48.2,79.7l0.4,2.4l-0.3,0l-0.4-2.4L48.2,79.7z"/>
		<path class="st2" d="M49,81.7c0.2,0.1,0.4,0.1,0.6,0.1c0.3-0.1,0.5-0.2,0.4-0.5c0-0.2-0.2-0.3-0.5-0.4c-0.4-0.1-0.7-0.2-0.7-0.6
			c-0.1-0.4,0.2-0.7,0.7-0.8c0.2,0,0.4,0,0.6,0l0,0.3c-0.1,0-0.3-0.1-0.5,0c-0.3,0.1-0.4,0.3-0.4,0.4c0,0.2,0.2,0.3,0.6,0.4
			c0.4,0.1,0.7,0.3,0.7,0.6c0.1,0.4-0.2,0.7-0.7,0.8c-0.2,0-0.5,0-0.6-0.1L49,81.7z"/>
		<path class="st2" d="M51.3,79.2c0.1-0.1,0.3-0.1,0.6-0.1c0.3,0,0.5,0,0.7,0.1c0.2,0.1,0.3,0.3,0.3,0.5c0,0.2,0,0.4-0.1,0.5
			c-0.1,0.2-0.4,0.3-0.7,0.4c-0.1,0-0.2,0-0.3,0l0.2,1l-0.3,0L51.3,79.2z M51.8,80.4c0.1,0,0.2,0,0.3,0c0.4-0.1,0.6-0.3,0.5-0.6
			c-0.1-0.3-0.3-0.4-0.6-0.4c-0.1,0-0.2,0-0.3,0.1L51.8,80.4z"/>
		<path class="st2" d="M55.5,79.8c0.1,0.8-0.3,1.4-0.9,1.5c-0.6,0.1-1.2-0.3-1.3-1.1c-0.1-0.8,0.3-1.3,0.9-1.5
			C54.9,78.6,55.4,79,55.5,79.8z M53.6,80.1c0.1,0.5,0.4,0.9,0.9,0.9c0.5-0.1,0.7-0.6,0.6-1.1c-0.1-0.5-0.4-0.9-0.9-0.9
			C53.7,79,53.6,79.6,53.6,80.1z"/>
		<path class="st2" d="M55.7,78.5c0.2-0.1,0.4-0.1,0.6-0.1c0.3-0.1,0.6,0,0.7,0.1c0.1,0.1,0.2,0.2,0.3,0.4c0.1,0.3-0.1,0.6-0.4,0.7
			l0,0c0.2,0,0.3,0.2,0.4,0.4c0.1,0.3,0.2,0.5,0.3,0.6l-0.3,0.1c0-0.1-0.1-0.3-0.3-0.6c-0.1-0.3-0.3-0.4-0.6-0.4l-0.3,0l0.2,1.1
			l-0.3,0L55.7,78.5z M56.2,79.6l0.3-0.1c0.3-0.1,0.5-0.3,0.5-0.5c0-0.3-0.3-0.4-0.6-0.4c-0.2,0-0.3,0.1-0.3,0.1L56.2,79.6z"/>
		<path class="st2" d="M58.8,78l0.2,1.4c0.1,0.5,0.4,0.7,0.7,0.7c0.4-0.1,0.6-0.3,0.5-0.9l-0.2-1.4l0.3,0l0.2,1.4
			c0.1,0.7-0.2,1.1-0.7,1.2c-0.5,0.1-0.9-0.1-1-0.9l-0.2-1.4L58.8,78z"/>
		<path class="st2" d="M61.2,80.1l-0.4-2.4l0.3-0.1l1,1.1c0.2,0.3,0.4,0.5,0.6,0.7l0,0c-0.1-0.3-0.1-0.6-0.2-1l-0.2-1l0.3,0l0.4,2.4
			l-0.3,0.1l-1-1.1c-0.2-0.2-0.4-0.5-0.6-0.7l0,0c0.1,0.3,0.1,0.6,0.2,1l0.2,1L61.2,80.1z"/>
		<path class="st2" d="M64.6,78.8l-0.1,0.8l-0.3,0.1l0.4-2.6L65,77l1.2,2.3l-0.3,0.1l-0.4-0.7L64.6,78.8z M65.4,78.4L65,77.8
			c-0.1-0.1-0.1-0.3-0.2-0.4l0,0c0,0.1,0,0.3-0.1,0.5l-0.1,0.7L65.4,78.4z"/>
		<path class="st2" d="M66.6,79.3l-0.4-2.4l0.3-0.1l1,1.1c0.2,0.3,0.4,0.5,0.6,0.7l0,0c-0.1-0.3-0.1-0.6-0.2-1l-0.2-1l0.3,0l0.4,2.4
			l-0.3,0l-1-1.1c-0.2-0.2-0.4-0.5-0.6-0.7l0,0c0.1,0.3,0.1,0.6,0.2,1l0.2,1L66.6,79.3z M66.6,76.6c0-0.2,0-0.4,0.2-0.4
			c0.1,0,0.1,0,0.2,0c0.1,0,0.1,0,0.2,0c0.1,0,0.1,0,0.1-0.2l0.2,0c0,0.2,0,0.4-0.2,0.4c-0.1,0-0.1,0-0.2,0c-0.1,0-0.1,0-0.2,0
			c-0.1,0-0.1,0.1-0.1,0.2L66.6,76.6z"/>
		<path class="st2" d="M70.8,77.3c0.1,0.8-0.3,1.4-0.9,1.5c-0.6,0.1-1.2-0.3-1.3-1.1c-0.1-0.8,0.3-1.3,0.9-1.5
			C70.2,76.2,70.7,76.6,70.8,77.3z M68.9,77.7c0.1,0.5,0.4,0.9,0.9,0.9c0.5-0.1,0.7-0.6,0.6-1.1c-0.1-0.5-0.4-0.9-0.9-0.9
			C69,76.6,68.9,77.1,68.9,77.7z"/>
	</g>
</g>
</svg>
