<?xml version="1.0" encoding="utf-8"?>
<!-- Generator: Adobe Illustrator 20.0.0, SVG Export Plug-In . SVG Version: 6.00 Build 0)  -->
<svg version="1.1" id="Capa_1" xmlns="http://www.w3.org/2000/svg" xmlns:xlink="http://www.w3.org/1999/xlink" x="0px" y="0px"
	 viewBox="0 0 50 50" style="enable-background:new 0 0 50 50;" xml:space="preserve">
<style type="text/css">
	.st0{fill:#FFFFFF;}
	.st1{fill:#C1447C;}
</style>
<path class="st0" d="M16.4,3.7l8.7,7.6c1.2,1.1,3,1,4.2-0.1L37,3.7c1.2-1.2,3.2-1.2,4.4,0.1l0,0c1.2,1.2,1.1,3.1,0,4.3l-12,12.4
	c-1.2,1.2-3.1,1.3-4.3,0.1L11.9,8.8c-1.2-1.1-1.4-2.9-0.4-4.2l0.3-0.4C12.9,2.8,15,2.5,16.4,3.7z"/>
<path class="st1" d="M11.4,23.5L23.5,34c1.7,1.5,4.2,1.4,5.8-0.2L40,23.5c1.7-1.7,4.5-1.6,6.1,0.1l0,0c1.6,1.7,1.6,4.3,0,6
	L29.4,46.7c-1.6,1.7-4.2,1.7-6,0.2L5.3,30.5c-1.6-1.5-1.9-4-0.6-5.8l0.5-0.6C6.6,22.2,9.5,21.8,11.4,23.5z"/>
</svg>
